<?xml version="1.0" standalone="no"?>
 <!DOCTYPE svg PUBLIC "-//W3C//DTD SVG 1.1//EN" 
 "http://www.w3.org/Graphics/SVG/1.1/DTD/svg11.dtd"> 
<svg xmlns:svg="http://www.w3.org/2000/svg" xmlns="http://www.w3.org/2000/svg" xmlns:xlink="http://www.w3.org/1999/xlink" xmlns:inkscape="http://www.inkscape.org/namespaces/inkscape" version="1.1" width="100%" height="100%" viewBox="0.000000 0.000000 17.576800 17.602200" preserveAspectRatio="xMidYMid meet"><rect width="100%" height="100%" fill="black"/>
<title>SVG Image created as SW_Gateron_LowProfile_HotSwap_PTH_Diode.svg date 2026-08-31T02:54:53 </title>
  <desc>Image generated by PCBNEW </desc>
<g style="fill:#000000; fill-opacity:1.000000;stroke:#000000; stroke-opacity:1.000000;
stroke-linecap:round; stroke-linejoin:round;" transform="translate(0 0) scale(1 1)">
<path style="fill:#4D7FC4; fill-opacity:1.000000; stroke:none;fill-rule:evenodd;" d="M 0.000000,13.273250
0.011427,13.166967
0.061161,13.033626
0.146447,12.919697
0.260376,12.834411
0.393717,12.784677
0.500000,12.773250
2.000000,12.773250
2.106283,12.784677
2.239624,12.834411
2.353553,12.919697
2.438839,13.033626
2.488573,13.166967
2.500000,13.273250
2.500000,14.823250
2.488573,14.929533
2.438839,15.062874
2.353553,15.176803
2.239624,15.262089
2.106283,15.311823
2.000000,15.323250
0.500000,15.323250
0.393717,15.311823
0.260376,15.262089
0.146447,15.176803
0.061161,15.062874
0.011427,14.929533
0.000000,14.823250
Z"/> 
<path style="fill:#4D7FC4; fill-opacity:1.000000; stroke:none;fill-rule:evenodd;" d="M 1.025000,14.548250
1.025000,13.548250
4.925000,13.548250
4.925000,14.548250
Z"/> 
</g>
<g style="fill:#4D7FC4; fill-opacity:1.000000; stroke:none;">
<circle cx="4.925000" cy="14.048250" r="2.000000"/> 
<circle cx="11.925000" cy="15.098250" r="2.000000"/> 
<path style="fill:#4D7FC4; fill-opacity:1.000000; stroke:none;fill-rule:evenodd;" d="M 11.925000,15.598250
11.925000,14.598250
15.675000,14.598250
15.675000,15.598250
Z"/> 
<path style="fill:#4D7FC4; fill-opacity:1.000000; stroke:none;fill-rule:evenodd;" d="M 14.350000,14.323250
14.361427,14.216967
14.411161,14.083626
14.496447,13.969697
14.610376,13.884411
14.743717,13.834677
14.850000,13.823250
16.350000,13.823250
16.456283,13.834677
16.589624,13.884411
16.703553,13.969697
16.788839,14.083626
16.838573,14.216967
16.850000,14.323250
16.850000,15.873250
16.838573,15.979533
16.788839,16.112874
16.703553,16.226803
16.589624,16.312089
16.456283,16.361823
16.350000,16.373250
14.850000,16.373250
14.743717,16.361823
14.610376,16.312089
14.496447,16.226803
14.411161,16.112874
14.361427,15.979533
14.350000,15.873250
Z"/> 
<path style="fill:#4D7FC4; fill-opacity:1.000000; stroke:none;fill-rule:evenodd;" d="M 11.725000,1.728250
11.746314,1.621099
11.807010,1.530260
11.897849,1.469564
12.005000,1.448250
13.445000,1.448250
13.552151,1.469564
13.642990,1.530260
13.703686,1.621099
13.725000,1.728250
13.725000,2.568250
13.703686,2.675401
13.642990,2.766240
13.552151,2.826936
13.445000,2.848250
12.005000,2.848250
11.897849,2.826936
11.807010,2.766240
11.746314,2.675401
11.725000,2.568250
Z"/> 
<path style="fill:#4D7FC4; fill-opacity:1.000000; stroke:none;fill-rule:evenodd;" d="M 8.525000,1.728250
8.546314,1.621099
8.607010,1.530260
8.697849,1.469564
8.805000,1.448250
10.245000,1.448250
10.352151,1.469564
10.442990,1.530260
10.503686,1.621099
10.525000,1.728250
10.525000,2.568250
10.503686,2.675401
10.442990,2.766240
10.352151,2.826936
10.245000,2.848250
8.805000,2.848250
8.697849,2.826936
8.607010,2.766240
8.546314,2.675401
8.525000,2.568250
Z"/> 
</g>
<g style="fill:#02FFEE; fill-opacity:0.400000; stroke:none;">
<circle cx="9.325000" cy="9.348250" r="2.625000"/> 
<path style="fill:#02FFEE; fill-opacity:0.400000; stroke:none;fill-rule:evenodd;" d="M 0.000000,13.273250
0.011427,13.166967
0.061161,13.033626
0.146447,12.919697
0.260376,12.834411
0.393717,12.784677
0.500000,12.773250
2.000000,12.773250
2.106283,12.784677
2.239624,12.834411
2.353553,12.919697
2.438839,13.033626
2.488573,13.166967
2.500000,13.273250
2.500000,14.823250
2.488573,14.929533
2.438839,15.062874
2.353553,15.176803
2.239624,15.262089
2.106283,15.311823
2.000000,15.323250
0.500000,15.323250
0.393717,15.311823
0.260376,15.262089
0.146447,15.176803
0.061161,15.062874
0.011427,14.929533
0.000000,14.823250
Z"/> 
<circle cx="4.925000" cy="14.048250" r="2.000000"/> 
<circle cx="11.925000" cy="15.098250" r="2.000000"/> 
<path style="fill:#02FFEE; fill-opacity:0.400000; stroke:none;fill-rule:evenodd;" d="M 14.350000,14.323250
14.361427,14.216967
14.411161,14.083626
14.496447,13.969697
14.610376,13.884411
14.743717,13.834677
14.850000,13.823250
16.350000,13.823250
16.456283,13.834677
16.589624,13.884411
16.703553,13.969697
16.788839,14.083626
16.838573,14.216967
16.850000,14.323250
16.850000,15.873250
16.838573,15.979533
16.788839,16.112874
16.703553,16.226803
16.589624,16.312089
16.456283,16.361823
16.350000,16.373250
14.850000,16.373250
14.743717,16.361823
14.610376,16.312089
14.496447,16.226803
14.411161,16.112874
14.361427,15.979533
14.350000,15.873250
Z"/> 
<path style="fill:#02FFEE; fill-opacity:0.400000; stroke:none;fill-rule:evenodd;" d="M 11.725000,1.728250
11.746314,1.621099
11.807010,1.530260
11.897849,1.469564
12.005000,1.448250
13.445000,1.448250
13.552151,1.469564
13.642990,1.530260
13.703686,1.621099
13.725000,1.728250
13.725000,2.568250
13.703686,2.675401
13.642990,2.766240
13.552151,2.826936
13.445000,2.848250
12.005000,2.848250
11.897849,2.826936
11.807010,2.766240
11.746314,2.675401
11.725000,2.568250
Z"/> 
<path style="fill:#02FFEE; fill-opacity:0.400000; stroke:none;fill-rule:evenodd;" d="M 8.525000,1.728250
8.546314,1.621099
8.607010,1.530260
8.697849,1.469564
8.805000,1.448250
10.245000,1.448250
10.352151,1.469564
10.442990,1.530260
10.503686,1.621099
10.525000,1.728250
10.525000,2.568250
10.503686,2.675401
10.442990,2.766240
10.352151,2.826936
10.245000,2.848250
8.805000,2.848250
8.697849,2.826936
8.607010,2.766240
8.546314,2.675401
8.525000,2.568250
Z"/> 
<path style="fill:#00C2C2; fill-opacity:0.900000; stroke:none;fill-rule:evenodd;" d="M 0.000000,13.273250
0.011427,13.166967
0.061161,13.033626
0.146447,12.919697
0.260376,12.834411
0.393717,12.784677
0.500000,12.773250
2.000000,12.773250
2.106283,12.784677
2.239624,12.834411
2.353553,12.919697
2.438839,13.033626
2.488573,13.166967
2.500000,13.273250
2.500000,14.823250
2.488573,14.929533
2.438839,15.062874
2.353553,15.176803
2.239624,15.262089
2.106283,15.311823
2.000000,15.323250
0.500000,15.323250
0.393717,15.311823
0.260376,15.262089
0.146447,15.176803
0.061161,15.062874
0.011427,14.929533
0.000000,14.823250
Z"/> 
<path style="fill:#00C2C2; fill-opacity:0.900000; stroke:none;fill-rule:evenodd;" d="M 14.350000,14.323250
14.361427,14.216967
14.411161,14.083626
14.496447,13.969697
14.610376,13.884411
14.743717,13.834677
14.850000,13.823250
16.350000,13.823250
16.456283,13.834677
16.589624,13.884411
16.703553,13.969697
16.788839,14.083626
16.838573,14.216967
16.850000,14.323250
16.850000,15.873250
16.838573,15.979533
16.788839,16.112874
16.703553,16.226803
16.589624,16.312089
16.456283,16.361823
16.350000,16.373250
14.850000,16.373250
14.743717,16.361823
14.610376,16.312089
14.496447,16.226803
14.411161,16.112874
14.361427,15.979533
14.350000,15.873250
Z"/> 
<path style="fill:#00C2C2; fill-opacity:0.900000; stroke:none;fill-rule:evenodd;" d="M 11.725000,1.728250
11.746314,1.621099
11.807010,1.530260
11.897849,1.469564
12.005000,1.448250
13.445000,1.448250
13.552151,1.469564
13.642990,1.530260
13.703686,1.621099
13.725000,1.728250
13.725000,2.568250
13.703686,2.675401
13.642990,2.766240
13.552151,2.826936
13.445000,2.848250
12.005000,2.848250
11.897849,2.826936
11.807010,2.766240
11.746314,2.675401
11.725000,2.568250
Z"/> 
<path style="fill:#00C2C2; fill-opacity:0.900000; stroke:none;fill-rule:evenodd;" d="M 8.525000,1.728250
8.546314,1.621099
8.607010,1.530260
8.697849,1.469564
8.805000,1.448250
10.245000,1.448250
10.352151,1.469564
10.442990,1.530260
10.503686,1.621099
10.525000,1.728250
10.525000,2.568250
10.503686,2.675401
10.442990,2.766240
10.352151,2.826936
10.245000,2.848250
8.805000,2.848250
8.697849,2.826936
8.607010,2.766240
8.546314,2.675401
8.525000,2.568250
Z"/> 
</g>
<g style="fill:none; 
stroke:#E8B2A7; stroke-width:0.120000; stroke-opacity:1; 
stroke-linecap:round; stroke-linejoin:round;">
<path d="M2.325000 11.698250
L2.325000 12.648250
"/>
<path d="M2.325000 11.698250
L4.325000 11.698250
"/>
<path d="M2.325000 16.398250
L2.325000 15.448250
"/>
<path d="M2.325000 16.398250
L4.325000 16.398250
"/>
<path d="M14.525000 12.748250
L12.825000 12.748250
"/>
<path d="M14.525000 12.748250
L14.525000 13.698250
"/>
<path d="M14.525000 17.448250
L12.825000 17.448250
"/>
<path d="M14.525000 17.448250
L14.525000 16.548250
"/>
<path d="M8.265000 1.188250
L13.985000 1.188250
"/>
<path d="M8.265000 3.108250
L13.985000 3.108250
"/>
<path d="M8.265000 1.188250
L8.265000 3.108250
"/>
</g>
<g style="fill:none; 
stroke:#585D84; stroke-width:0.100000; stroke-opacity:1; 
stroke-linecap:round; stroke-linejoin:round;">
<path d="M2.510000 11.873250
L2.510000 16.223250
"/>
<path d="M2.510000 11.873250
L6.730000 11.873250
"/>
<path d="M2.510000 16.223250
L6.730000 16.223250
"/>
<path d="M6.730000 11.873250
L8.930000 12.923250
"/>
<path d="M6.730000 16.223250
L8.930000 17.273250
"/>
<path d="M8.930000 17.048250
L8.930000 17.273250
"/>
<path d="M9.730000 17.048250
L8.930000 17.048250
"/>
<path d="M9.730000 17.273250
L9.730000 17.048250
"/>
<path d="M14.350000 12.923250
L8.930000 12.923250
"/>
<path d="M14.350000 12.923250
L14.350000 17.273250
"/>
<path d="M14.350000 17.273250
L9.730000 17.273250
"/>
<path d="M9.225000 1.248250
L13.025000 1.248250
"/>
<path d="M13.025000 1.248250
L13.025000 3.048250
"/>
<path d="M13.025000 3.048250
L9.225000 3.048250
"/>
<path d="M9.225000 3.048250
L9.225000 1.248250
"/>
<path d="M9.925000 1.248250
L9.925000 3.048250
"/>
</g>
<g style="fill:#F2EDA1; fill-opacity:1.000000; stroke:none;">
<circle cx="4.925000" cy="14.048250" r="2.000000"/> 
<circle cx="11.925000" cy="15.098250" r="2.000000"/> 
</g>
<g style="fill:#E8B2A7; fill-opacity:1.000000; stroke:none;">
<circle cx="4.925000" cy="14.048250" r="2.000000"/> 
<circle cx="11.925000" cy="15.098250" r="2.000000"/> 
</g>
<g style="fill:#28CCD9; fill-opacity:1.000000; stroke:none;">
<circle cx="4.925000" cy="14.048250" r="2.000000"/> 
<circle cx="11.925000" cy="15.098250" r="2.000000"/> 
</g>
<g style="fill:#A7A5C6; fill-opacity:1.000000; stroke:none;">
<circle cx="4.925000" cy="14.048250" r="2.000000"/> 
<circle cx="11.925000" cy="15.098250" r="2.000000"/> 
</g>
<g style="fill:#F76F8E; fill-opacity:1.000000; stroke:none;">
<circle cx="4.925000" cy="14.048250" r="2.000000"/> 
<circle cx="11.925000" cy="15.098250" r="2.000000"/> 
</g>
<g style="fill:#5BC3EB; fill-opacity:1.000000; stroke:none;">
<circle cx="4.925000" cy="14.048250" r="2.000000"/> 
<circle cx="11.925000" cy="15.098250" r="2.000000"/> 
</g>
<g style="fill:#ED7C33; fill-opacity:1.000000; stroke:none;">
<circle cx="4.925000" cy="14.048250" r="2.000000"/> 
<circle cx="11.925000" cy="15.098250" r="2.000000"/> 
</g>
<g style="fill:#F2EDA1; fill-opacity:1.000000; stroke:none;">
<circle cx="4.925000" cy="14.048250" r="2.000000"/> 
<circle cx="11.925000" cy="15.098250" r="2.000000"/> 
</g>
<g style="fill:#E8B2A7; fill-opacity:1.000000; stroke:none;">
<circle cx="4.925000" cy="14.048250" r="2.000000"/> 
<circle cx="11.925000" cy="15.098250" r="2.000000"/> 
</g>
<g style="fill:#28CCD9; fill-opacity:1.000000; stroke:none;">
<circle cx="4.925000" cy="14.048250" r="2.000000"/> 
<circle cx="11.925000" cy="15.098250" r="2.000000"/> 
</g>
<g style="fill:#A7A5C6; fill-opacity:1.000000; stroke:none;">
<circle cx="4.925000" cy="14.048250" r="2.000000"/> 
<circle cx="11.925000" cy="15.098250" r="2.000000"/> 
</g>
<g style="fill:#F76F8E; fill-opacity:1.000000; stroke:none;">
<circle cx="4.925000" cy="14.048250" r="2.000000"/> 
<circle cx="11.925000" cy="15.098250" r="2.000000"/> 
</g>
<g style="fill:#5BC3EB; fill-opacity:1.000000; stroke:none;">
<circle cx="4.925000" cy="14.048250" r="2.000000"/> 
<circle cx="11.925000" cy="15.098250" r="2.000000"/> 
</g>
<g style="fill:#ED7C33; fill-opacity:1.000000; stroke:none;">
<circle cx="4.925000" cy="14.048250" r="2.000000"/> 
<circle cx="11.925000" cy="15.098250" r="2.000000"/> 
</g>
<g style="fill:#F2EDA1; fill-opacity:1.000000; stroke:none;">
<circle cx="4.925000" cy="14.048250" r="2.000000"/> 
<circle cx="11.925000" cy="15.098250" r="2.000000"/> 
</g>
<g style="fill:#E8B2A7; fill-opacity:1.000000; stroke:none;">
<circle cx="4.925000" cy="14.048250" r="2.000000"/> 
<circle cx="11.925000" cy="15.098250" r="2.000000"/> 
</g>
<g style="fill:#28CCD9; fill-opacity:1.000000; stroke:none;">
<circle cx="4.925000" cy="14.048250" r="2.000000"/> 
<circle cx="11.925000" cy="15.098250" r="2.000000"/> 
</g>
<g style="fill:#A7A5C6; fill-opacity:1.000000; stroke:none;">
<circle cx="4.925000" cy="14.048250" r="2.000000"/> 
<circle cx="11.925000" cy="15.098250" r="2.000000"/> 
</g>
<g style="fill:#F76F8E; fill-opacity:1.000000; stroke:none;">
<circle cx="4.925000" cy="14.048250" r="2.000000"/> 
<circle cx="11.925000" cy="15.098250" r="2.000000"/> 
</g>
<g style="fill:#5BC3EB; fill-opacity:1.000000; stroke:none;">
<circle cx="4.925000" cy="14.048250" r="2.000000"/> 
<circle cx="11.925000" cy="15.098250" r="2.000000"/> 
</g>
<g style="fill:#ED7C33; fill-opacity:1.000000; stroke:none;">
<circle cx="4.925000" cy="14.048250" r="2.000000"/> 
<circle cx="11.925000" cy="15.098250" r="2.000000"/> 
</g>
<g style="fill:#8DCB81; fill-opacity:1.000000; stroke:none;">
<circle cx="4.925000" cy="14.048250" r="2.000000"/> 
<circle cx="11.925000" cy="15.098250" r="2.000000"/> 
</g>
<g style="fill:#F2EDA1; fill-opacity:1.000000; stroke:none;">
<circle cx="4.925000" cy="14.048250" r="2.000000"/> 
<circle cx="11.925000" cy="15.098250" r="2.000000"/> 
</g>
<g style="fill:#E8B2A7; fill-opacity:1.000000; stroke:none;">
<circle cx="4.925000" cy="14.048250" r="2.000000"/> 
<circle cx="11.925000" cy="15.098250" r="2.000000"/> 
</g>
<g style="fill:#28CCD9; fill-opacity:1.000000; stroke:none;">
<circle cx="4.925000" cy="14.048250" r="2.000000"/> 
<circle cx="11.925000" cy="15.098250" r="2.000000"/> 
</g>
<g style="fill:#A7A5C6; fill-opacity:1.000000; stroke:none;">
<circle cx="4.925000" cy="14.048250" r="2.000000"/> 
<circle cx="11.925000" cy="15.098250" r="2.000000"/> 
</g>
<g style="fill:#DB628B; fill-opacity:1.000000; stroke:none;">
<circle cx="4.925000" cy="14.048250" r="2.000000"/> 
<circle cx="11.925000" cy="15.098250" r="2.000000"/> 
</g>
<g style="fill:#4FCBCB; fill-opacity:1.000000; stroke:none;">
<circle cx="4.925000" cy="14.048250" r="2.000000"/> 
<circle cx="11.925000" cy="15.098250" r="2.000000"/> 
</g>
<g style="fill:#CE7D2C; fill-opacity:1.000000; stroke:none;">
<circle cx="4.925000" cy="14.048250" r="2.000000"/> 
<circle cx="11.925000" cy="15.098250" r="2.000000"/> 
</g>
<g style="fill:#7FC87F; fill-opacity:1.000000; stroke:none;">
<circle cx="4.925000" cy="14.048250" r="2.000000"/> 
<circle cx="11.925000" cy="15.098250" r="2.000000"/> 
</g>
<g style="fill:#C83434; fill-opacity:1.000000; stroke:none;">
<circle cx="4.925000" cy="14.048250" r="2.000000"/> 
<circle cx="11.925000" cy="15.098250" r="2.000000"/> 
</g>
<g style="fill:#D864FF; fill-opacity:0.400000; stroke:none;">
<circle cx="9.325000" cy="9.348250" r="2.625000"/> 
</g>
<g style="fill:none; 
stroke:#F2EDA1; stroke-width:0.140000; stroke-opacity:1; 
stroke-linecap:round; stroke-linejoin:round;">
<path d="M2.825000 3.848250
L2.825000 2.848250
"/>
<path d="M2.825000 15.848250
L2.825000 14.848250
"/>
<path d="M2.825000 15.848250
L3.825000 15.848250
"/>
<path d="M3.825000 2.848250
L2.825000 2.848250
"/>
<path d="M14.825000 15.848250
L15.825000 15.848250
"/>
<path d="M15.825000 2.848250
L14.825000 2.848250
"/>
<path d="M15.825000 2.848250
L15.825000 3.848250
"/>
<path d="M15.825000 14.848250
L15.825000 15.848250
"/>
<path style="fill:none; 
stroke:#FF26E2; stroke-width:0.050000; stroke-opacity:1; 
stroke-linecap:round; stroke-linejoin:round;fill:none" d="M 1.075000,1.098250
17.575000,1.098250
17.575000,17.598250
1.075000,17.598250
Z"/> 
</g>
<g style="fill:none; 
stroke:#AFAFAF; stroke-width:0.150000; stroke-opacity:1; 
stroke-linecap:round; stroke-linejoin:round;">
<text x="9.325000" y="1.348250" textLength="4.535715" font-size="1.333333" lengthAdjust="spacingAndGlyphs" text-anchor="middle" opacity="0" stroke-opacity="0">REF**</text>
<g class="stroked-text"><desc>REF**</desc>
<path d="M7.991667 1.303070
L7.658334 0.826879
"/>
<path d="M7.420239 1.303070
L7.420239 0.303070
"/>
<path d="M7.420239 0.303070
L7.801191 0.303070
"/>
<path d="M7.801191 0.303070
L7.896429 0.350689
"/>
<path d="M7.896429 0.350689
L7.944048 0.398308
"/>
<path d="M7.944048 0.398308
L7.991667 0.493546
"/>
<path d="M7.991667 0.493546
L7.991667 0.636403
"/>
<path d="M7.991667 0.636403
L7.944048 0.731641
"/>
<path d="M7.944048 0.731641
L7.896429 0.779260
"/>
<path d="M7.896429 0.779260
L7.801191 0.826879
"/>
<path d="M7.801191 0.826879
L7.420239 0.826879
"/>
<path d="M8.420239 0.779260
L8.753572 0.779260
"/>
<path d="M8.896429 1.303070
L8.420239 1.303070
"/>
<path d="M8.420239 1.303070
L8.420239 0.303070
"/>
<path d="M8.420239 0.303070
L8.896429 0.303070
"/>
<path d="M9.658333 0.779260
L9.325000 0.779260
"/>
<path d="M9.325000 1.303070
L9.325000 0.303070
"/>
<path d="M9.325000 0.303070
L9.801190 0.303070
"/>
<path d="M10.325000 0.303070
L10.325000 0.541165
"/>
<path d="M10.086905 0.445927
L10.325000 0.541165
"/>
<path d="M10.325000 0.541165
L10.563095 0.445927
"/>
<path d="M10.182143 0.731641
L10.325000 0.541165
"/>
<path d="M10.325000 0.541165
L10.467857 0.731641
"/>
<path d="M11.086905 0.303070
L11.086905 0.541165
"/>
<path d="M10.848810 0.445927
L11.086905 0.541165
"/>
<path d="M11.086905 0.541165
L11.325000 0.445927
"/>
<path d="M10.944048 0.731641
L11.086905 0.541165
"/>
<path d="M11.086905 0.541165
L11.229762 0.731641
"/>
</g></g>
<g style="fill:none; 
stroke:#AFAFAF; stroke-width:0.100000; stroke-opacity:1; 
stroke-linecap:round; stroke-linejoin:round;">
<path d="M3.525000 6.848250
L7.425000 6.848251
"/>
<path d="M3.525000 11.848250
L3.525000 6.848250
"/>
<path d="M7.425000 11.848249
L3.525000 11.848250
"/>
<path d="M11.225000 6.848251
L15.125000 6.848250
"/>
<path d="M15.125000 6.848250
L15.125000 11.848250
"/>
<path d="M15.125000 11.848250
L11.225000 11.848249
"/>
<path style="fill:none; 
stroke:#AFAFAF; stroke-width:0.100000; stroke-opacity:1; 
stroke-linecap:round; stroke-linejoin:round;fill:none" d="M 6.125000,3.048250
11.125000,3.048250
11.125000,5.298250
6.125000,5.298250
Z"/> 
<path style="fill:none; 
stroke:#AFAFAF; stroke-width:0.100000; stroke-opacity:1; 
stroke-linecap:round; stroke-linejoin:round;fill:none" d="M 1.825000,1.848250
16.825000,1.848250
16.825000,16.848250
1.825000,16.848250
Z"/> 
<path d="M11.225000 6.848251 A3.140062 3.140062 0.0 0 0 7.425000 6.848251"/>
<path d="M7.425000 11.848249 A3.140062 3.140062 0.0 0 0 11.225000 11.848249"/>
<circle cx="9.325000" cy="9.348250" r="2.875000"/> 
<path style="fill:#AFAFAF; fill-opacity:1.000000; stroke:none;fill-rule:evenodd;" d="M 9.825000,8.708250
11.275000,8.708250
11.275000,9.988250
9.825000,9.988250
9.825000,11.348250
8.725000,11.348250
8.725000,9.988250
7.275000,9.988250
7.275000,8.708250
8.725000,8.708250
8.725000,7.348250
9.825000,7.348250
Z"/> 
<path style="fill:none; 
stroke:#5994DC; stroke-width:0.050000; stroke-opacity:1; 
stroke-linecap:round; stroke-linejoin:round;fill:none" d="M 2.325000,2.348250
16.325000,2.348250
16.325000,16.348250
2.325000,16.348250
Z"/> 
<path style="fill:none; 
stroke:#C2C2C2; stroke-width:0.050000; stroke-opacity:1; 
stroke-linecap:round; stroke-linejoin:round;fill:none" d="M 1.525000,1.548250
17.125000,1.548250
17.125000,17.148250
1.525000,17.148250
Z"/> 
</g>

<g style="fill:#FFFFFF; fill-opacity:1.000000; stroke:none;">
<circle cx="4.925000" cy="14.048250" r="1.500000"/> 
</g>
<g style="fill:#FFFFFF; fill-opacity:1.000000; stroke:none;">
<circle cx="11.925000" cy="15.098250" r="1.500000"/> 
</g> 
</svg>
