<svg xmlns="http://www.w3.org/2000/svg" viewBox="-2 -3 110 60" width="1650" height="900">
<rect x="-2" y="-3" width="110" height="60" fill="#f7f7f7"/>
<text x="0" y="-1.2" font-size="1.15" fill="#111" text-anchor="start" font-weight="bold" font-family="Noto Sans CJK JP, Noto Sans JP, sans-serif">Choc V2 スタビ(_ChocV2Stab)のプレートカット: スイッチ開口(User.3)とワイヤー溝(User.5)の干渉  [単位 mm、灰=プレート、白=切り抜き、破線=元の図形の輪郭]</text>
<g transform="translate(0,2)"><text x="0" y="-0.8" font-size="1.15" fill="#111" text-anchor="start" font-weight="bold" font-family="Noto Sans CJK JP, Noto Sans JP, sans-serif">① 現状 dogbone(角中心の円 R1.0)</text><text x="0" y="23.4" font-size="0.8" fill="#444" text-anchor="start" font-weight="normal" font-family="Noto Sans CJK JP, Noto Sans JP, sans-serif">赤 = 孤立する帯</text><g transform="translate(17,10)"><rect x="-17" y="-10" width="34" height="22" rx="0" fill="#c9c9c9" stroke="none" stroke-width="0.05" />
<rect x="-6.975" y="-6.975" width="13.95" height="13.95" rx="0" fill="#ffffff" stroke="none" stroke-width="0.05" />
<circle cx="-6.975" cy="-6.975" r="1.0" fill="#ffffff" stroke="none" stroke-width="0.05" />
<circle cx="6.975" cy="-6.975" r="1.0" fill="#ffffff" stroke="none" stroke-width="0.05" />
<circle cx="-6.975" cy="6.975" r="1.0" fill="#ffffff" stroke="none" stroke-width="0.05" />
<circle cx="6.975" cy="6.975" r="1.0" fill="#ffffff" stroke="none" stroke-width="0.05" />
<rect x="9.025" y="-3.6309" width="5.949999999999999" height="7.949999999999999" rx="0.5" fill="#ffffff" stroke="none" stroke-width="0.05" />
<rect x="9.725" y="3.6309" width="4.550000000000001" height="6.25" rx="0.5" fill="#ffffff" stroke="none" stroke-width="0.05" />
<rect x="-14.975" y="-3.6309" width="5.949999999999999" height="7.949999999999999" rx="0.5" fill="#ffffff" stroke="none" stroke-width="0.05" />
<rect x="-14.275" y="3.6309" width="4.550000000000001" height="6.25" rx="0.5" fill="#ffffff" stroke="none" stroke-width="0.05" />
<rect x="-12" y="7.5809" width="24" height="1.4000000000000004" rx="0.5" fill="#ffffff" stroke="none" stroke-width="0.05" />
<rect x="-6.975" y="6.975" width="13.95" height="0.6059000000000001" rx="0" fill="#d33" stroke="none" stroke-width="0" fill-opacity="0.55"/>
<rect x="-6.975" y="-6.975" width="13.95" height="13.95" rx="0" fill="none" stroke="#333" stroke-width="0.04" stroke-dasharray="0.3 0.2"/>
<rect x="-12" y="7.5809" width="24" height="1.4000000000000004" rx="0.5" fill="none" stroke="#333" stroke-width="0.04" stroke-dasharray="0.3 0.2"/></g><rect x="0" y="0" width="34" height="22" fill="none" stroke="#888" stroke-width="0.08"/></g>
<g transform="translate(37,2)"><text x="0" y="-0.8" font-size="1.15" fill="#111" text-anchor="start" font-weight="bold" font-family="Noto Sans CJK JP, Noto Sans JP, sans-serif">② 案1 T ボーン(下側 2 隅だけ円を上へずらす)</text><text x="0" y="23.4" font-size="0.8" fill="#444" text-anchor="start" font-weight="normal" font-family="Noto Sans CJK JP, Noto Sans JP, sans-serif">緑 = 残る帯(両端でプレートにつながる)</text><g transform="translate(17,10)"><rect x="-17" y="-10" width="34" height="22" rx="0" fill="#c9c9c9" stroke="none" stroke-width="0.05" />
<rect x="-6.975" y="-6.975" width="13.95" height="13.95" rx="0" fill="#ffffff" stroke="none" stroke-width="0.05" />
<circle cx="-6.975" cy="-6.975" r="1.0" fill="#ffffff" stroke="none" stroke-width="0.05" />
<circle cx="6.975" cy="-6.975" r="1.0" fill="#ffffff" stroke="none" stroke-width="0.05" />
<circle cx="-6.975" cy="5.975" r="1.0" fill="#ffffff" stroke="none" stroke-width="0.05" />
<circle cx="6.975" cy="5.975" r="1.0" fill="#ffffff" stroke="none" stroke-width="0.05" />
<rect x="9.025" y="-3.6309" width="5.949999999999999" height="7.949999999999999" rx="0.5" fill="#ffffff" stroke="none" stroke-width="0.05" />
<rect x="9.725" y="3.6309" width="4.550000000000001" height="6.25" rx="0.5" fill="#ffffff" stroke="none" stroke-width="0.05" />
<rect x="-14.975" y="-3.6309" width="5.949999999999999" height="7.949999999999999" rx="0.5" fill="#ffffff" stroke="none" stroke-width="0.05" />
<rect x="-14.275" y="3.6309" width="4.550000000000001" height="6.25" rx="0.5" fill="#ffffff" stroke="none" stroke-width="0.05" />
<rect x="-12" y="7.5809" width="24" height="1.4000000000000004" rx="0.5" fill="#ffffff" stroke="none" stroke-width="0.05" />
<rect x="-6.975" y="6.975" width="13.95" height="0.6059000000000001" rx="0" fill="#2e8b57" stroke="none" stroke-width="0" fill-opacity="0.55"/>
<rect x="-6.975" y="-6.975" width="13.95" height="13.95" rx="0" fill="none" stroke="#333" stroke-width="0.04" stroke-dasharray="0.3 0.2"/>
<rect x="-12" y="7.5809" width="24" height="1.4000000000000004" rx="0.5" fill="none" stroke="#333" stroke-width="0.04" stroke-dasharray="0.3 0.2"/></g><rect x="0" y="0" width="34" height="22" fill="none" stroke="#888" stroke-width="0.08"/></g>
<g transform="translate(74,2)"><text x="0" y="-0.8" font-size="1.15" fill="#111" text-anchor="start" font-weight="bold" font-family="Noto Sans CJK JP, Noto Sans JP, sans-serif">③ 案2 開口を溝まで拡張</text><text x="0" y="23.4" font-size="0.8" fill="#444" text-anchor="start" font-weight="normal" font-family="Noto Sans CJK JP, Noto Sans JP, sans-serif">下辺 y=6.975 → 8.981 の一体開口</text><g transform="translate(17,10)"><rect x="-17" y="-10" width="34" height="22" rx="0" fill="#c9c9c9" stroke="none" stroke-width="0.05" />
<rect x="-6.975" y="-6.975" width="13.95" height="15.9559" rx="0" fill="#ffffff" stroke="none" stroke-width="0.05" />
<circle cx="-6.975" cy="-6.975" r="1.0" fill="#ffffff" stroke="none" stroke-width="0.05" />
<circle cx="6.975" cy="-6.975" r="1.0" fill="#ffffff" stroke="none" stroke-width="0.05" />
<rect x="9.025" y="-3.6309" width="5.949999999999999" height="7.949999999999999" rx="0.5" fill="#ffffff" stroke="none" stroke-width="0.05" />
<rect x="9.725" y="3.6309" width="4.550000000000001" height="6.25" rx="0.5" fill="#ffffff" stroke="none" stroke-width="0.05" />
<rect x="-14.975" y="-3.6309" width="5.949999999999999" height="7.949999999999999" rx="0.5" fill="#ffffff" stroke="none" stroke-width="0.05" />
<rect x="-14.275" y="3.6309" width="4.550000000000001" height="6.25" rx="0.5" fill="#ffffff" stroke="none" stroke-width="0.05" />
<rect x="-12" y="7.5809" width="24" height="1.4000000000000004" rx="0.5" fill="#ffffff" stroke="none" stroke-width="0.05" />
<rect x="-6.975" y="-6.975" width="13.95" height="13.95" rx="0" fill="none" stroke="#333" stroke-width="0.04" stroke-dasharray="0.3 0.2"/>
<rect x="-12" y="7.5809" width="24" height="1.4000000000000004" rx="0.5" fill="none" stroke="#333" stroke-width="0.04" stroke-dasharray="0.3 0.2"/></g><rect x="0" y="0" width="34" height="22" fill="none" stroke="#888" stroke-width="0.08"/></g>
<g transform="translate(0,31)"><text x="0" y="-0.8" font-size="1.15" fill="#111" text-anchor="start" font-weight="bold" font-family="Noto Sans CJK JP, Noto Sans JP, sans-serif">① 右下隅の拡大(×2.8)</text><clipPath id="cdog"><rect x="0" y="0" width="34" height="22"/></clipPath><g clip-path="url(#cdog)"><g transform="translate(-9.916549999999999,-10.19988) scale(2.8333)"><rect x="-17" y="-10" width="34" height="22" rx="0" fill="#c9c9c9" stroke="none" stroke-width="0.05" />
<rect x="-6.975" y="-6.975" width="13.95" height="13.95" rx="0" fill="#ffffff" stroke="none" stroke-width="0.05" />
<circle cx="-6.975" cy="-6.975" r="1.0" fill="#ffffff" stroke="none" stroke-width="0.05" />
<circle cx="6.975" cy="-6.975" r="1.0" fill="#ffffff" stroke="none" stroke-width="0.05" />
<circle cx="-6.975" cy="6.975" r="1.0" fill="#ffffff" stroke="none" stroke-width="0.05" />
<circle cx="6.975" cy="6.975" r="1.0" fill="#ffffff" stroke="none" stroke-width="0.05" />
<rect x="9.025" y="-3.6309" width="5.949999999999999" height="7.949999999999999" rx="0.5" fill="#ffffff" stroke="none" stroke-width="0.05" />
<rect x="9.725" y="3.6309" width="4.550000000000001" height="6.25" rx="0.5" fill="#ffffff" stroke="none" stroke-width="0.05" />
<rect x="-14.975" y="-3.6309" width="5.949999999999999" height="7.949999999999999" rx="0.5" fill="#ffffff" stroke="none" stroke-width="0.05" />
<rect x="-14.275" y="3.6309" width="4.550000000000001" height="6.25" rx="0.5" fill="#ffffff" stroke="none" stroke-width="0.05" />
<rect x="-12" y="7.5809" width="24" height="1.4000000000000004" rx="0.5" fill="#ffffff" stroke="none" stroke-width="0.05" />
<rect x="-6.975" y="6.975" width="13.95" height="0.6059000000000001" rx="0" fill="#d33" stroke="none" stroke-width="0" fill-opacity="0.55"/>
<rect x="-6.975" y="-6.975" width="13.95" height="13.95" rx="0" fill="none" stroke="#333" stroke-width="0.04" stroke-dasharray="0.3 0.2"/>
<rect x="-12" y="7.5809" width="24" height="1.4000000000000004" rx="0.5" fill="none" stroke="#333" stroke-width="0.04" stroke-dasharray="0.3 0.2"/></g><text x="1.0" y="5.0" font-size="0.85" fill="#222" text-anchor="start" font-weight="normal" font-family="Noto Sans CJK JP, Noto Sans JP, sans-serif">User.3 スイッチ開口</text><text x="19.5" y="2.2" font-size="0.85" fill="#222" text-anchor="start" font-weight="normal" font-family="Noto Sans CJK JP, Noto Sans JP, sans-serif">User.5 ハウジング</text><text x="1.0" y="16.24570397" font-size="0.85" fill="#222" text-anchor="start" font-weight="normal" font-family="Noto Sans CJK JP, Noto Sans JP, sans-serif">User.5 ワイヤー溝 (y 7.58〜8.98)</text><text x="1.0" y="10.812387499999998" font-size="0.72" fill="#111" text-anchor="start" font-weight="bold" font-family="Noto Sans CJK JP, Noto Sans JP, sans-serif">帯 0.6mm (y 6.975〜7.581)</text><circle cx="9.8457175" cy="9.562387499999998" r="0.25" fill="#d33" stroke="none" stroke-width="0.05" /><circle cx="9.8457175" cy="9.562387499999998" r="2.8333" fill="none" stroke="#d33" stroke-width="0.08" stroke-dasharray="0.3 0.2"/><text x="13.045717499999999" y="9.262387499999997" font-size="0.8" fill="#d33" text-anchor="start" font-weight="bold" font-family="Noto Sans CJK JP, Noto Sans JP, sans-serif">円中心 = 角 (6.975, 6.975)</text><line x1="3.8457174999999992" y1="12.3956875" x2="15.8457175" y2="12.3956875" stroke="#d33" stroke-width="0.1"/><text x="13.045717499999999" y="13.2956875" font-size="0.8" fill="#d33" text-anchor="start" font-weight="bold" font-family="Noto Sans CJK JP, Noto Sans JP, sans-serif">最下点 y=7.975 → 溝(7.581)に 0.39 食い込む</text><rect x="0.6" y="16.6" width="32.8" height="4.799999999999997" rx="0.3" fill="#ffffff" stroke="none" stroke-width="0" fill-opacity="0.85"/><text x="1.2" y="18.4" font-size="0.82" fill="#d33" text-anchor="start" font-weight="bold" font-family="Noto Sans CJK JP, Noto Sans JP, sans-serif">帯の両端が円で切り離され、上=開口・下=溝に囲まれた島になる</text><text x="1.2" y="20.4" font-size="0.82" fill="#d33" text-anchor="start" font-weight="normal" font-family="Noto Sans CJK JP, Noto Sans JP, sans-serif">加工すると脱落し、開口の下辺が溝まで開く</text></g><rect x="0" y="0" width="34" height="22" fill="none" stroke="#888" stroke-width="0.08"/></g>
<g transform="translate(37,31)"><text x="0" y="-0.8" font-size="1.15" fill="#111" text-anchor="start" font-weight="bold" font-family="Noto Sans CJK JP, Noto Sans JP, sans-serif">② 右下隅の拡大(×2.8)</text><clipPath id="ctbone"><rect x="0" y="0" width="34" height="22"/></clipPath><g clip-path="url(#ctbone)"><g transform="translate(-9.916549999999999,-10.19988) scale(2.8333)"><rect x="-17" y="-10" width="34" height="22" rx="0" fill="#c9c9c9" stroke="none" stroke-width="0.05" />
<rect x="-6.975" y="-6.975" width="13.95" height="13.95" rx="0" fill="#ffffff" stroke="none" stroke-width="0.05" />
<circle cx="-6.975" cy="-6.975" r="1.0" fill="#ffffff" stroke="none" stroke-width="0.05" />
<circle cx="6.975" cy="-6.975" r="1.0" fill="#ffffff" stroke="none" stroke-width="0.05" />
<circle cx="-6.975" cy="5.975" r="1.0" fill="#ffffff" stroke="none" stroke-width="0.05" />
<circle cx="6.975" cy="5.975" r="1.0" fill="#ffffff" stroke="none" stroke-width="0.05" />
<rect x="9.025" y="-3.6309" width="5.949999999999999" height="7.949999999999999" rx="0.5" fill="#ffffff" stroke="none" stroke-width="0.05" />
<rect x="9.725" y="3.6309" width="4.550000000000001" height="6.25" rx="0.5" fill="#ffffff" stroke="none" stroke-width="0.05" />
<rect x="-14.975" y="-3.6309" width="5.949999999999999" height="7.949999999999999" rx="0.5" fill="#ffffff" stroke="none" stroke-width="0.05" />
<rect x="-14.275" y="3.6309" width="4.550000000000001" height="6.25" rx="0.5" fill="#ffffff" stroke="none" stroke-width="0.05" />
<rect x="-12" y="7.5809" width="24" height="1.4000000000000004" rx="0.5" fill="#ffffff" stroke="none" stroke-width="0.05" />
<rect x="-6.975" y="6.975" width="13.95" height="0.6059000000000001" rx="0" fill="#2e8b57" stroke="none" stroke-width="0" fill-opacity="0.55"/>
<rect x="-6.975" y="-6.975" width="13.95" height="13.95" rx="0" fill="none" stroke="#333" stroke-width="0.04" stroke-dasharray="0.3 0.2"/>
<rect x="-12" y="7.5809" width="24" height="1.4000000000000004" rx="0.5" fill="none" stroke="#333" stroke-width="0.04" stroke-dasharray="0.3 0.2"/></g><text x="1.0" y="5.0" font-size="0.85" fill="#222" text-anchor="start" font-weight="normal" font-family="Noto Sans CJK JP, Noto Sans JP, sans-serif">User.3 スイッチ開口</text><text x="19.5" y="2.2" font-size="0.85" fill="#222" text-anchor="start" font-weight="normal" font-family="Noto Sans CJK JP, Noto Sans JP, sans-serif">User.5 ハウジング</text><text x="1.0" y="16.24570397" font-size="0.85" fill="#222" text-anchor="start" font-weight="normal" font-family="Noto Sans CJK JP, Noto Sans JP, sans-serif">User.5 ワイヤー溝 (y 7.58〜8.98)</text><text x="1.0" y="10.812387499999998" font-size="0.72" fill="#111" text-anchor="start" font-weight="bold" font-family="Noto Sans CJK JP, Noto Sans JP, sans-serif">帯 0.6mm (y 6.975〜7.581)</text><circle cx="9.8457175" cy="6.729087499999999" r="0.25" fill="#2e8b57" stroke="none" stroke-width="0.05" /><circle cx="9.8457175" cy="6.729087499999999" r="2.8333" fill="none" stroke="#2e8b57" stroke-width="0.08" stroke-dasharray="0.3 0.2"/><text x="13.045717499999999" y="6.429087499999999" font-size="0.8" fill="#2e8b57" text-anchor="start" font-weight="bold" font-family="Noto Sans CJK JP, Noto Sans JP, sans-serif">円中心を辺に沿って上へ 1.0 → (6.975, 5.975)</text><line x1="3.8457174999999992" y1="9.562387499999998" x2="15.8457175" y2="9.562387499999998" stroke="#2e8b57" stroke-width="0.1"/><text x="13.045717499999999" y="10.462387499999998" font-size="0.8" fill="#2e8b57" text-anchor="start" font-weight="bold" font-family="Noto Sans CJK JP, Noto Sans JP, sans-serif">最下点 y=6.975 = 開口の下辺。溝に届かない</text><rect x="0.6" y="16.6" width="32.8" height="4.799999999999997" rx="0.3" fill="#ffffff" stroke="none" stroke-width="0" fill-opacity="0.85"/><text x="1.2" y="18.4" font-size="0.82" fill="#2e8b57" text-anchor="start" font-weight="bold" font-family="Noto Sans CJK JP, Noto Sans JP, sans-serif">帯は両端で柱(開口とハウジングの間、幅 2.05)につながる</text><text x="1.2" y="20.4" font-size="0.82" fill="#2e8b57" text-anchor="start" font-weight="normal" font-family="Noto Sans CJK JP, Noto Sans JP, sans-serif">ただし帯幅 0.6mm は kb-plategen と同じで FR4 では細い</text></g><rect x="0" y="0" width="34" height="22" fill="none" stroke="#888" stroke-width="0.08"/></g>
<g transform="translate(74,31)"><text x="0" y="-0.8" font-size="1.15" fill="#111" text-anchor="start" font-weight="bold" font-family="Noto Sans CJK JP, Noto Sans JP, sans-serif">③ 右下隅の拡大(×2.8)</text><clipPath id="cextend"><rect x="0" y="0" width="34" height="22"/></clipPath><g clip-path="url(#cextend)"><g transform="translate(-9.916549999999999,-10.19988) scale(2.8333)"><rect x="-17" y="-10" width="34" height="22" rx="0" fill="#c9c9c9" stroke="none" stroke-width="0.05" />
<rect x="-6.975" y="-6.975" width="13.95" height="15.9559" rx="0" fill="#ffffff" stroke="none" stroke-width="0.05" />
<circle cx="-6.975" cy="-6.975" r="1.0" fill="#ffffff" stroke="none" stroke-width="0.05" />
<circle cx="6.975" cy="-6.975" r="1.0" fill="#ffffff" stroke="none" stroke-width="0.05" />
<rect x="9.025" y="-3.6309" width="5.949999999999999" height="7.949999999999999" rx="0.5" fill="#ffffff" stroke="none" stroke-width="0.05" />
<rect x="9.725" y="3.6309" width="4.550000000000001" height="6.25" rx="0.5" fill="#ffffff" stroke="none" stroke-width="0.05" />
<rect x="-14.975" y="-3.6309" width="5.949999999999999" height="7.949999999999999" rx="0.5" fill="#ffffff" stroke="none" stroke-width="0.05" />
<rect x="-14.275" y="3.6309" width="4.550000000000001" height="6.25" rx="0.5" fill="#ffffff" stroke="none" stroke-width="0.05" />
<rect x="-12" y="7.5809" width="24" height="1.4000000000000004" rx="0.5" fill="#ffffff" stroke="none" stroke-width="0.05" />
<rect x="-6.975" y="-6.975" width="13.95" height="13.95" rx="0" fill="none" stroke="#333" stroke-width="0.04" stroke-dasharray="0.3 0.2"/>
<rect x="-12" y="7.5809" width="24" height="1.4000000000000004" rx="0.5" fill="none" stroke="#333" stroke-width="0.04" stroke-dasharray="0.3 0.2"/></g><text x="1.0" y="5.0" font-size="0.85" fill="#222" text-anchor="start" font-weight="normal" font-family="Noto Sans CJK JP, Noto Sans JP, sans-serif">User.3 スイッチ開口</text><text x="19.5" y="2.2" font-size="0.85" fill="#222" text-anchor="start" font-weight="normal" font-family="Noto Sans CJK JP, Noto Sans JP, sans-serif">User.5 ハウジング</text><text x="1.0" y="16.24570397" font-size="0.85" fill="#222" text-anchor="start" font-weight="normal" font-family="Noto Sans CJK JP, Noto Sans JP, sans-serif">User.5 ワイヤー溝 (y 7.58〜8.98)</text><rect x="0.6" y="16.6" width="32.8" height="4.799999999999997" rx="0.3" fill="#ffffff" stroke="none" stroke-width="0" fill-opacity="0.85"/><text x="1.2" y="18.4" font-size="0.82" fill="#1a4a9a" text-anchor="start" font-weight="bold" font-family="Noto Sans CJK JP, Noto Sans JP, sans-serif">開口の下辺を y=8.981 まで下げて溝と一体化。帯も島も無い</text><text x="1.2" y="20.4" font-size="0.82" fill="#1a4a9a" text-anchor="start" font-weight="normal" font-family="Noto Sans CJK JP, Noto Sans JP, sans-serif">スイッチ下辺に掛かるプレートが無くなる(ツメ位置は要確認)</text></g><rect x="0" y="0" width="34" height="22" fill="none" stroke="#888" stroke-width="0.08"/></g>
<text x="0" y="56" font-size="0.9" fill="#333" text-anchor="start" font-weight="normal" font-family="Noto Sans CJK JP, Noto Sans JP, sans-serif">縦向き版(2.00u_Vertical_ChocV2Stab)は全体を 90° 回転した同じ形。MX / Choc V1 / Gateron LP のスタビ版ではこの島は生じない。</text>
</svg>