  0
SECTION
  2
HEADER
  9
$ACADVER
  1
AC1024
  9
$ACADMAINTVER
 70
6
  9
$DWGCODEPAGE
  3
ANSI_1252
  9
$LASTSAVEDBY
  1
ezdxf
  9
$INSBASE
 10
0.0
 20
0.0
 30
0.0
  9
$EXTMIN
 10
1e+20
 20
1e+20
 30
1e+20
  9
$EXTMAX
 10
-1e+20
 20
-1e+20
 30
-1e+20
  9
$LIMMIN
 10
0.0
 20
0.0
  9
$LIMMAX
 10
420.0
 20
297.0
  9
$ORTHOMODE
 70
0
  9
$REGENMODE
 70
1
  9
$FILLMODE
 70
1
  9
$QTEXTMODE
 70
0
  9
$MIRRTEXT
 70
1
  9
$LTSCALE
 40
1.0
  9
$ATTMODE
 70
1
  9
$TEXTSIZE
 40
2.5
  9
$TRACEWID
 40
1.0
  9
$TEXTSTYLE
  7
OpenSans
  9
$CLAYER
  8
0
  9
$CELTYPE
  6
ByLayer
  9
$CECOLOR
 62
256
  9
$CELTSCALE
 40
1.0
  9
$DISPSILH
 70
0
  9
$DIMSCALE
 40
1.0
  9
$DIMASZ
 40
0.175
  9
$DIMEXO
 40
0.125
  9
$DIMDLI
 40
3.75
  9
$DIMRND
 40
0.0
  9
$DIMDLE
 40
0.0
  9
$DIMEXE
 40
0.375
  9
$DIMTP
 40
0.0
  9
$DIMTM
 40
0.0
  9
$DIMTXT
 40
0.25
  9
$DIMCEN
 40
2.5
  9
$DIMTSZ
 40
0.0
  9
$DIMTOL
 70
0
  9
$DIMLIM
 70
0
  9
$DIMTIH
 70
0
  9
$DIMTOH
 70
0
  9
$DIMSE1
 70
0
  9
$DIMSE2
 70
0
  9
$DIMTAD
 70
1
  9
$DIMZIN
 70
12
  9
$DIMBLK
  1
ARCHTICK
  9
$DIMASO
 70
1
  9
$DIMSHO
 70
1
  9
$DIMPOST
  1

  9
$DIMAPOST
  1

  9
$DIMALT
 70
0
  9
$DIMALTD
 70
3
  9
$DIMALTF
 40
0.03937007874
  9
$DIMLFAC
 40
100.0
  9
$DIMTOFL
 70
1
  9
$DIMTVP
 40
0.0
  9
$DIMTIX
 70
0
  9
$DIMSOXD
 70
0
  9
$DIMSAH
 70
0
  9
$DIMBLK1
  1

  9
$DIMBLK2
  1

  9
$DIMSTYLE
  2
EZDXF
  9
$DIMCLRD
 70
0
  9
$DIMCLRE
 70
0
  9
$DIMCLRT
 70
0
  9
$DIMTFAC
 40
0.5
  9
$DIMGAP
 40
0.1
  9
$DIMJUST
 70
0
  9
$DIMSD1
 70
0
  9
$DIMSD2
 70
0
  9
$DIMTOLJ
 70
0
  9
$DIMTZIN
 70
8
  9
$DIMALTZ
 70
0
  9
$DIMALTTZ
 70
0
  9
$DIMUPT
 70
1
  9
$DIMDEC
 70
2
  9
$DIMTDEC
 70
2
  9
$DIMALTU
 70
2
  9
$DIMALTTD
 70
3
  9
$DIMTXSTY
  7
OpenSansCondensed-Light
  9
$DIMAUNIT
 70
0
  9
$DIMADEC
 70
2
  9
$DIMALTRND
 40
0.0
  9
$DIMAZIN
 70
3
  9
$DIMDSEP
 70
46
  9
$DIMATFIT
 70
3
  9
$DIMFRAC
 70
0
  9
$DIMLDRBLK
  1

  9
$DIMLUNIT
 70
2
  9
$DIMLWD
 70
-2
  9
$DIMLWE
 70
-2
  9
$DIMTMOVE
 70
2
  9
$DIMFXL
 40
1.0
  9
$DIMFXLON
 70
0
  9
$DIMJOGANG
 40
0.785398163397
  9
$DIMTFILL
 70
0
  9
$DIMTFILLCLR
 70
0
  9
$DIMARCSYM
 70
0
  9
$DIMLTYPE
  6

  9
$DIMLTEX1
  6

  9
$DIMLTEX2
  6

  9
$DIMTXTDIRECTION
 70
0
  9
$LUNITS
 70
2
  9
$LUPREC
 70
4
  9
$SKETCHINC
 40
1.0
  9
$FILLETRAD
 40
10.0
  9
$AUNITS
 70
0
  9
$AUPREC
 70
2
  9
$MENU
  1
.
  9
$ELEVATION
 40
0.0
  9
$PELEVATION
 40
0.0
  9
$THICKNESS
 40
0.0
  9
$LIMCHECK
 70
0
  9
$CHAMFERA
 40
0.0
  9
$CHAMFERB
 40
0.0
  9
$CHAMFERC
 40
0.0
  9
$CHAMFERD
 40
0.0
  9
$SKPOLY
 70
0
  9
$TDCREATE
 40
2461291.977546296
  9
$TDUCREATE
 40
2458532.153996898
  9
$TDUPDATE
 40
2461291.9775578706
  9
$TDUUPDATE
 40
2458532.1544311
  9
$TDINDWG
 40
0.0
  9
$TDUSRTIMER
 40
0.0
  9
$USRTIMER
 70
1
  9
$ANGBASE
 50
0.0
  9
$ANGDIR
 70
0
  9
$PDMODE
 70
0
  9
$PDSIZE
 40
0.0
  9
$PLINEWID
 40
0.0
  9
$SPLFRAME
 70
0
  9
$SPLINETYPE
 70
6
  9
$SPLINESEGS
 70
8
  9
$HANDSEED
  5
C4
  9
$SURFTAB1
 70
6
  9
$SURFTAB2
 70
6
  9
$SURFTYPE
 70
6
  9
$SURFU
 70
6
  9
$SURFV
 70
6
  9
$UCSBASE
  2

  9
$UCSNAME
  2

  9
$UCSORG
 10
0.0
 20
0.0
 30
0.0
  9
$UCSXDIR
 10
1.0
 20
0.0
 30
0.0
  9
$UCSYDIR
 10
0.0
 20
1.0
 30
0.0
  9
$UCSORTHOREF
  2

  9
$UCSORTHOVIEW
 70
0
  9
$UCSORGTOP
 10
0.0
 20
0.0
 30
0.0
  9
$UCSORGBOTTOM
 10
0.0
 20
0.0
 30
0.0
  9
$UCSORGLEFT
 10
0.0
 20
0.0
 30
0.0
  9
$UCSORGRIGHT
 10
0.0
 20
0.0
 30
0.0
  9
$UCSORGFRONT
 10
0.0
 20
0.0
 30
0.0
  9
$UCSORGBACK
 10
0.0
 20
0.0
 30
0.0
  9
$PUCSBASE
  2

  9
$PUCSNAME
  2

  9
$PUCSORG
 10
0.0
 20
0.0
 30
0.0
  9
$PUCSXDIR
 10
1.0
 20
0.0
 30
0.0
  9
$PUCSYDIR
 10
0.0
 20
1.0
 30
0.0
  9
$PUCSORTHOREF
  2

  9
$PUCSORTHOVIEW
 70
0
  9
$PUCSORGTOP
 10
0.0
 20
0.0
 30
0.0
  9
$PUCSORGBOTTOM
 10
0.0
 20
0.0
 30
0.0
  9
$PUCSORGLEFT
 10
0.0
 20
0.0
 30
0.0
  9
$PUCSORGRIGHT
 10
0.0
 20
0.0
 30
0.0
  9
$PUCSORGFRONT
 10
0.0
 20
0.0
 30
0.0
  9
$PUCSORGBACK
 10
0.0
 20
0.0
 30
0.0
  9
$USERI1
 70
0
  9
$USERI2
 70
0
  9
$USERI3
 70
0
  9
$USERI4
 70
0
  9
$USERI5
 70
0
  9
$USERR1
 40
0.0
  9
$USERR2
 40
0.0
  9
$USERR3
 40
0.0
  9
$USERR4
 40
0.0
  9
$USERR5
 40
0.0
  9
$WORLDVIEW
 70
1
  9
$SHADEDGE
 70
3
  9
$SHADEDIF
 70
70
  9
$TILEMODE
 70
1
  9
$MAXACTVP
 70
64
  9
$PINSBASE
 10
0.0
 20
0.0
 30
0.0
  9
$PLIMCHECK
 70
0
  9
$PEXTMIN
 10
1e+20
 20
1e+20
 30
1e+20
  9
$PEXTMAX
 10
-1e+20
 20
-1e+20
 30
-1e+20
  9
$PLIMMIN
 10
0.0
 20
0.0
  9
$PLIMMAX
 10
420.0
 20
297.0
  9
$UNITMODE
 70
0
  9
$VISRETAIN
 70
1
  9
$PLINEGEN
 70
0
  9
$PSLTSCALE
 70
1
  9
$TREEDEPTH
 70
3020
  9
$CMLSTYLE
  2
Standard
  9
$CMLJUST
 70
0
  9
$CMLSCALE
 40
20.0
  9
$PROXYGRAPHICS
 70
1
  9
$MEASUREMENT
 70
1
  9
$CELWEIGHT
370
-1
  9
$ENDCAPS
280
0
  9
$JOINSTYLE
280
0
  9
$LWDISPLAY
290
0
  9
$INSUNITS
 70
4
  9
$HYPERLINKBASE
  1

  9
$STYLESHEET
  1

  9
$XEDIT
290
1
  9
$CEPSNTYPE
380
0
  9
$PSTYLEMODE
290
1
  9
$FINGERPRINTGUID
  2
{C4E51EC6-5461-447A-AF42-C1B0A704A2A0}
  9
$VERSIONGUID
  2
{12D38203-630D-4054-8EE5-FC27084A1BDC}
  9
$EXTNAMES
290
1
  9
$PSVPSCALE
 40
0.0
  9
$OLESTARTUP
290
0
  9
$SORTENTS
280
127
  9
$INDEXCTL
280
0
  9
$HIDETEXT
280
1
  9
$XCLIPFRAME
280
1
  9
$HALOGAP
280
0
  9
$OBSCOLOR
 70
257
  9
$OBSLTYPE
280
0
  9
$INTERSECTIONDISPLAY
280
0
  9
$INTERSECTIONCOLOR
 70
257
  9
$DIMASSOC
280
2
  9
$PROJECTNAME
  1

  9
$CAMERADISPLAY
290
0
  9
$LENSLENGTH
 40
50.0
  9
$CAMERAHEIGHT
 40
0.0
  9
$STEPSPERSEC
 40
24.0
  9
$STEPSIZE
 40
100.0
  9
$3DDWFPREC
 40
2.0
  9
$PSOLWIDTH
 40
0.005
  9
$PSOLHEIGHT
 40
0.08
  9
$LOFTANG1
 40
1.570796326795
  9
$LOFTANG2
 40
1.570796326795
  9
$LOFTMAG1
 40
0.0
  9
$LOFTMAG2
 40
0.0
  9
$LOFTPARAM
 70
7
  9
$LOFTNORMALS
280
1
  9
$LATITUDE
 40
37.795
  9
$LONGITUDE
 40
-122.394
  9
$NORTHDIRECTION
 40
0.0
  9
$TIMEZONE
 70
-8000
  9
$LIGHTGLYPHDISPLAY
280
1
  9
$TILEMODELIGHTSYNCH
280
1
  9
$CMATERIAL
347
20
  9
$SOLIDHIST
280
0
  9
$SHOWHIST
280
1
  9
$DWFFRAME
280
2
  9
$DGNFRAME
280
2
  9
$REALWORLDSCALE
290
1
  9
$INTERFERECOLOR
 62
256
  9
$CSHADOW
280
0
  9
$SHADOWPLANELOCATION
 40
0.0
  0
ENDSEC
  0
SECTION
  2
CLASSES
  0
CLASS
  1
ACDBDICTIONARYWDFLT
  2
AcDbDictionaryWithDefault
  3
ObjectDBX Classes
 90
0
 91
0
280
0
281
0
  0
CLASS
  1
SUN
  2
AcDbSun
  3
SCENEOE
 90
1153
 91
0
280
0
281
0
  0
CLASS
  1
VISUALSTYLE
  2
AcDbVisualStyle
  3
ObjectDBX Classes
 90
4095
 91
0
280
0
281
0
  0
CLASS
  1
MATERIAL
  2
AcDbMaterial
  3
ObjectDBX Classes
 90
1153
 91
0
280
0
281
0
  0
CLASS
  1
SCALE
  2
AcDbScale
  3
ObjectDBX Classes
 90
1153
 91
0
280
0
281
0
  0
CLASS
  1
TABLESTYLE
  2
AcDbTableStyle
  3
ObjectDBX Classes
 90
4095
 91
0
280
0
281
0
  0
CLASS
  1
MLEADERSTYLE
  2
AcDbMLeaderStyle
  3
ACDB_MLEADERSTYLE_CLASS
 90
4095
 91
0
280
0
281
0
  0
CLASS
  1
DICTIONARYVAR
  2
AcDbDictionaryVar
  3
ObjectDBX Classes
 90
0
 91
0
280
0
281
0
  0
CLASS
  1
CELLSTYLEMAP
  2
AcDbCellStyleMap
  3
ObjectDBX Classes
 90
1152
 91
0
280
0
281
0
  0
CLASS
  1
MENTALRAYRENDERSETTINGS
  2
AcDbMentalRayRenderSettings
  3
SCENEOE
 90
1024
 91
0
280
0
281
0
  0
CLASS
  1
ACDBDETAILVIEWSTYLE
  2
AcDbDetailViewStyle
  3
ObjectDBX Classes
 90
1025
 91
0
280
0
281
0
  0
CLASS
  1
ACDBSECTIONVIEWSTYLE
  2
AcDbSectionViewStyle
  3
ObjectDBX Classes
 90
1025
 91
0
280
0
281
0
  0
CLASS
  1
RASTERVARIABLES
  2
AcDbRasterVariables
  3
ISM
 90
0
 91
0
280
0
281
0
  0
CLASS
  1
ACDBPLACEHOLDER
  2
AcDbPlaceHolder
  3
ObjectDBX Classes
 90
0
 91
0
280
0
281
0
  0
CLASS
  1
LAYOUT
  2
AcDbLayout
  3
ObjectDBX Classes
 90
0
 91
0
280
0
281
0
  0
ENDSEC
  0
SECTION
  2
TABLES
  0
TABLE
  2
VPORT
  5
8
330
0
100
AcDbSymbolTable
 70
1
  0
VPORT
  5
23
330
8
100
AcDbSymbolTableRecord
100
AcDbViewportTableRecord
  2
*Active
 70
0
 10
0.0
 20
0.0
 11
1.0
 21
1.0
 12
0.0
 22
0.0
 13
0.0
 23
0.0
 14
0.5
 24
0.5
 15
0.5
 25
0.5
 16
0.0
 26
0.0
 36
1.0
 17
0.0
 27
0.0
 37
0.0
 40
1000.0
 41
1.34
 42
50.0
 43
0.0
 44
0.0
 50
0.0
 51
0.0
 71
0
 72
1000
 73
1
 74
3
 75
0
 76
0
 77
0
 78
0
281
0
 65
0
146
0.0
  0
ENDTAB
  0
TABLE
  2
LTYPE
  5
2
330
0
100
AcDbSymbolTable
 70
21
  0
LTYPE
  5
24
330
2
100
AcDbSymbolTableRecord
100
AcDbLinetypeTableRecord
  2
ByBlock
 70
0
  3

 72
65
 73
0
 40
0.0
  0
LTYPE
  5
25
330
2
100
AcDbSymbolTableRecord
100
AcDbLinetypeTableRecord
  2
ByLayer
 70
0
  3

 72
65
 73
0
 40
0.0
  0
LTYPE
  5
26
330
2
100
AcDbSymbolTableRecord
100
AcDbLinetypeTableRecord
  2
Continuous
 70
0
  3

 72
65
 73
0
 40
0.0
  0
LTYPE
  5
2F
330
2
100
AcDbSymbolTableRecord
100
AcDbLinetypeTableRecord
  2
CENTER
 70
0
  3
Center ____ _ ____ _ ____ _ ____ _ ____ _ ____
 72
65
 73
4
 40
5.08
 49
3.175
 74
0
 49
-0.635
 74
0
 49
0.635
 74
0
 49
-0.635
 74
0
  0
LTYPE
  5
30
330
2
100
AcDbSymbolTableRecord
100
AcDbLinetypeTableRecord
  2
CENTERX2
 70
0
  3
Center (2x) ________  __  ________  __  ________
 72
65
 73
4
 40
8.89
 49
6.35
 74
0
 49
-0.635
 74
0
 49
1.27
 74
0
 49
-0.635
 74
0
  0
LTYPE
  5
31
330
2
100
AcDbSymbolTableRecord
100
AcDbLinetypeTableRecord
  2
CENTER2
 70
0
  3
Center (.5x) ____ _ ____ _ ____ _ ____ _ ____
 72
65
 73
4
 40
2.54
 49
1.587
 74
0
 49
-0.318
 74
0
 49
0.318
 74
0
 49
-0.318
 74
0
  0
LTYPE
  5
32
330
2
100
AcDbSymbolTableRecord
100
AcDbLinetypeTableRecord
  2
DASHED
 70
0
  3
Dashed __ __ __ __ __ __ __ __ __ __ __ __ __ _
 72
65
 73
2
 40
1.524
 49
1.27
 74
0
 49
-0.254
 74
0
  0
LTYPE
  5
33
330
2
100
AcDbSymbolTableRecord
100
AcDbLinetypeTableRecord
  2
DASHEDX2
 70
0
  3
Dashed (2x) ____  ____  ____  ____  ____  ____
 72
65
 73
2
 40
3.048
 49
2.54
 74
0
 49
-0.508
 74
0
  0
LTYPE
  5
34
330
2
100
AcDbSymbolTableRecord
100
AcDbLinetypeTableRecord
  2
DASHED2
 70
0
  3
Dashed (.5x) _ _ _ _ _ _ _ _ _ _ _ _ _ _
 72
65
 73
2
 40
0.762
 49
0.635
 74
0
 49
-0.127
 74
0
  0
LTYPE
  5
35
330
2
100
AcDbSymbolTableRecord
100
AcDbLinetypeTableRecord
  2
PHANTOM
 70
0
  3
Phantom ______  __  __  ______  __  __  ______
 72
65
 73
6
 40
6.35
 49
3.175
 74
0
 49
-0.635
 74
0
 49
0.635
 74
0
 49
-0.635
 74
0
 49
0.635
 74
0
 49
-0.635
 74
0
  0
LTYPE
  5
36
330
2
100
AcDbSymbolTableRecord
100
AcDbLinetypeTableRecord
  2
PHANTOMX2
 70
0
  3
Phantom (2x)____________    ____    ____    ____________
 72
65
 73
6
 40
10.795
 49
6.35
 74
0
 49
-0.635
 74
0
 49
1.27
 74
0
 49
-0.635
 74
0
 49
1.27
 74
0
 49
-0.635
 74
0
  0
LTYPE
  5
37
330
2
100
AcDbSymbolTableRecord
100
AcDbLinetypeTableRecord
  2
PHANTOM2
 70
0
  3
Phantom (.5x) ___ _ _ ___ _ _ ___ _ _ ___ _ _ ___
 72
65
 73
6
 40
3.175
 49
1.587
 74
0
 49
-0.318
 74
0
 49
0.318
 74
0
 49
-0.318
 74
0
 49
0.318
 74
0
 49
-0.318
 74
0
  0
LTYPE
  5
38
330
2
100
AcDbSymbolTableRecord
100
AcDbLinetypeTableRecord
  2
DASHDOT
 70
0
  3
Dash dot __ . __ . __ . __ . __ . __ . __ . __
 72
65
 73
4
 40
3.556
 49
2.54
 74
0
 49
-0.508
 74
0
 49
0.0
 74
0
 49
-0.508
 74
0
  0
LTYPE
  5
39
330
2
100
AcDbSymbolTableRecord
100
AcDbLinetypeTableRecord
  2
DASHDOTX2
 70
0
  3
Dash dot (2x) ____  .  ____  .  ____  .  ____
 72
65
 73
4
 40
6.096
 49
5.08
 74
0
 49
-0.508
 74
0
 49
0.0
 74
0
 49
-0.508
 74
0
  0
LTYPE
  5
3A
330
2
100
AcDbSymbolTableRecord
100
AcDbLinetypeTableRecord
  2
DASHDOT2
 70
0
  3
Dash dot (.5x) _ . _ . _ . _ . _ . _ . _ . _
 72
65
 73
4
 40
1.778
 49
1.27
 74
0
 49
-0.254
 74
0
 49
0.0
 74
0
 49
-0.254
 74
0
  0
LTYPE
  5
3B
330
2
100
AcDbSymbolTableRecord
100
AcDbLinetypeTableRecord
  2
DOT
 70
0
  3
Dot .  .  .  .  .  .  .  .  .  .  .  .  .  .  .  .
 72
65
 73
2
 40
0.508
 49
0.0
 74
0
 49
-0.508
 74
0
  0
LTYPE
  5
3C
330
2
100
AcDbSymbolTableRecord
100
AcDbLinetypeTableRecord
  2
DOTX2
 70
0
  3
Dot (2x) .    .    .    .    .    .    .    . 
 72
65
 73
2
 40
1.016
 49
0.0
 74
0
 49
-1.016
 74
0
  0
LTYPE
  5
3D
330
2
100
AcDbSymbolTableRecord
100
AcDbLinetypeTableRecord
  2
DOT2
 70
0
  3
Dot (.5) . . . . . . . . . . . . . . . . . . . 
 72
65
 73
2
 40
0.254
 49
0.0
 74
0
 49
-0.254
 74
0
  0
LTYPE
  5
3E
330
2
100
AcDbSymbolTableRecord
100
AcDbLinetypeTableRecord
  2
DIVIDE
 70
0
  3
Divide __ . . __ . . __ . . __ . . __ . . __
 72
65
 73
6
 40
4.064
 49
2.54
 74
0
 49
-0.508
 74
0
 49
0.0
 74
0
 49
-0.508
 74
0
 49
0.0
 74
0
 49
-0.508
 74
0
  0
LTYPE
  5
3F
330
2
100
AcDbSymbolTableRecord
100
AcDbLinetypeTableRecord
  2
DIVIDEX2
 70
0
  3
Divide (2x) ____  . .  ____  . .  ____  . .  ____
 72
65
 73
6
 40
6.604
 49
5.08
 74
0
 49
-0.508
 74
0
 49
0.0
 74
0
 49
-0.508
 74
0
 49
0.0
 74
0
 49
-0.508
 74
0
  0
LTYPE
  5
40
330
2
100
AcDbSymbolTableRecord
100
AcDbLinetypeTableRecord
  2
DIVIDE2
 70
0
  3
Divide(.5x) _ . _ . _ . _ . _ . _ . _ . _
 72
65
 73
6
 40
2.032
 49
1.27
 74
0
 49
-0.254
 74
0
 49
0.0
 74
0
 49
-0.254
 74
0
 49
0.0
 74
0
 49
-0.254
 74
0
  0
ENDTAB
  0
TABLE
  2
LAYER
  5
1
330
0
100
AcDbSymbolTable
 70
3
  0
LAYER
  5
27
330
1
100
AcDbSymbolTableRecord
100
AcDbLayerTableRecord
  2
0
 70
0
 62
7
  6
Continuous
370
-3
390
13
347
21
  0
LAYER
  5
28
330
1
100
AcDbSymbolTableRecord
100
AcDbLayerTableRecord
  2
Defpoints
 70
0
 62
7
  6
Continuous
290
0
370
-3
390
13
347
21
  0
LAYER
  5
8A
330
1
100
AcDbSymbolTableRecord
100
AcDbLayerTableRecord
  2
CUT
 70
0
 62
7
  6
Continuous
370
-3
390
13
347
21
  0
ENDTAB
  0
TABLE
  2
STYLE
  5
5
330
0
100
AcDbSymbolTable
 70
26
  0
STYLE
  5
29
330
5
100
AcDbSymbolTableRecord
100
AcDbTextStyleTableRecord
  2
Standard
 70
0
 40
0.0
 41
1.0
 50
0.0
 71
0
 42
2.5
  3
txt
  4

  0
STYLE
  5
41
330
5
100
AcDbSymbolTableRecord
100
AcDbTextStyleTableRecord
  2
OpenSans-Light
 70
0
 40
0.0
 41
1.0
 50
0.0
 71
0
 42
2.5
  3
OpenSans-Light.ttf
  4

  0
STYLE
  5
42
330
5
100
AcDbSymbolTableRecord
100
AcDbTextStyleTableRecord
  2
OpenSans-Light-Italic
 70
0
 40
0.0
 41
1.0
 50
0.0
 71
0
 42
2.5
  3
OpenSans-LightItalic.ttf
  4

  0
STYLE
  5
43
330
5
100
AcDbSymbolTableRecord
100
AcDbTextStyleTableRecord
  2
OpenSans
 70
0
 40
0.0
 41
1.0
 50
0.0
 71
0
 42
2.5
  3
OpenSans-Regular.ttf
  4

  0
STYLE
  5
44
330
5
100
AcDbSymbolTableRecord
100
AcDbTextStyleTableRecord
  2
OpenSans-Italic
 70
0
 40
0.0
 41
1.0
 50
0.0
 71
0
 42
2.5
  3
OpenSans-Italic.ttf
  4

  0
STYLE
  5
45
330
5
100
AcDbSymbolTableRecord
100
AcDbTextStyleTableRecord
  2
OpenSans-SemiBold
 70
0
 40
0.0
 41
1.0
 50
0.0
 71
0
 42
2.5
  3
OpenSans-SemiBold.ttf
  4

  0
STYLE
  5
46
330
5
100
AcDbSymbolTableRecord
100
AcDbTextStyleTableRecord
  2
OpenSans-SemiBoldItalic
 70
0
 40
0.0
 41
1.0
 50
0.0
 71
0
 42
2.5
  3
OpenSans-SemiBoldItalic.ttf
  4

  0
STYLE
  5
47
330
5
100
AcDbSymbolTableRecord
100
AcDbTextStyleTableRecord
  2
OpenSans-Bold
 70
0
 40
0.0
 41
1.0
 50
0.0
 71
0
 42
2.5
  3
OpenSans-Bold.ttf
  4

  0
STYLE
  5
48
330
5
100
AcDbSymbolTableRecord
100
AcDbTextStyleTableRecord
  2
OpenSans-BoldItalic
 70
0
 40
0.0
 41
1.0
 50
0.0
 71
0
 42
2.5
  3
OpenSans-BoldItalic.ttf
  4

  0
STYLE
  5
49
330
5
100
AcDbSymbolTableRecord
100
AcDbTextStyleTableRecord
  2
OpenSans-ExtraBold
 70
0
 40
0.0
 41
1.0
 50
0.0
 71
0
 42
2.5
  3
OpenSans-ExtraBold.ttf
  4

  0
STYLE
  5
4A
330
5
100
AcDbSymbolTableRecord
100
AcDbTextStyleTableRecord
  2
OpenSans-ExtraBoldItalic
 70
0
 40
0.0
 41
1.0
 50
0.0
 71
0
 42
2.5
  3
OpenSans-ExtraBoldItalic.ttf
  4

  0
STYLE
  5
4B
330
5
100
AcDbSymbolTableRecord
100
AcDbTextStyleTableRecord
  2
OpenSansCondensed-Bold
 70
0
 40
0.0
 41
1.0
 50
0.0
 71
0
 42
2.5
  3
OpenSansCondensed-Bold.ttf
  4

  0
STYLE
  5
4C
330
5
100
AcDbSymbolTableRecord
100
AcDbTextStyleTableRecord
  2
OpenSansCondensed-Light
 70
0
 40
0.0
 41
1.0
 50
0.0
 71
0
 42
2.5
  3
OpenSansCondensed-Light.ttf
  4

  0
STYLE
  5
4D
330
5
100
AcDbSymbolTableRecord
100
AcDbTextStyleTableRecord
  2
OpenSansCondensed-Italic
 70
0
 40
0.0
 41
1.0
 50
0.0
 71
0
 42
2.5
  3
OpenSansCondensed-LightItalic.ttf
  4

  0
STYLE
  5
4E
330
5
100
AcDbSymbolTableRecord
100
AcDbTextStyleTableRecord
  2
LiberationSans
 70
0
 40
0.0
 41
1.0
 50
0.0
 71
0
 42
2.5
  3
LiberationSans-Regular.ttf
  4

  0
STYLE
  5
4F
330
5
100
AcDbSymbolTableRecord
100
AcDbTextStyleTableRecord
  2
LiberationSans-Bold
 70
0
 40
0.0
 41
1.0
 50
0.0
 71
0
 42
2.5
  3
LiberationSans-Bold.ttf
  4

  0
STYLE
  5
50
330
5
100
AcDbSymbolTableRecord
100
AcDbTextStyleTableRecord
  2
LiberationSans-BoldItalic
 70
0
 40
0.0
 41
1.0
 50
0.0
 71
0
 42
2.5
  3
LiberationSans-BoldItalic.ttf
  4

  0
STYLE
  5
51
330
5
100
AcDbSymbolTableRecord
100
AcDbTextStyleTableRecord
  2
LiberationSans-Italic
 70
0
 40
0.0
 41
1.0
 50
0.0
 71
0
 42
2.5
  3
LiberationSans-Italic.ttf
  4

  0
STYLE
  5
52
330
5
100
AcDbSymbolTableRecord
100
AcDbTextStyleTableRecord
  2
LiberationSerif
 70
0
 40
0.0
 41
1.0
 50
0.0
 71
0
 42
2.5
  3
LiberationSerif-Regular.ttf
  4

  0
STYLE
  5
53
330
5
100
AcDbSymbolTableRecord
100
AcDbTextStyleTableRecord
  2
LiberationSerif-Bold
 70
0
 40
0.0
 41
1.0
 50
0.0
 71
0
 42
2.5
  3
LiberationSerif-Bold.ttf
  4

  0
STYLE
  5
54
330
5
100
AcDbSymbolTableRecord
100
AcDbTextStyleTableRecord
  2
LiberationSerif-BoldItalic
 70
0
 40
0.0
 41
1.0
 50
0.0
 71
0
 42
2.5
  3
LiberationSerif-BoldItalic.ttf
  4

  0
STYLE
  5
55
330
5
100
AcDbSymbolTableRecord
100
AcDbTextStyleTableRecord
  2
LiberationSerif-Italic
 70
0
 40
0.0
 41
1.0
 50
0.0
 71
0
 42
2.5
  3
LiberationSerif-Italic.ttf
  4

  0
STYLE
  5
56
330
5
100
AcDbSymbolTableRecord
100
AcDbTextStyleTableRecord
  2
LiberationMono
 70
0
 40
0.0
 41
1.0
 50
0.0
 71
0
 42
2.5
  3
LiberationMono-Regular.ttf
  4

  0
STYLE
  5
57
330
5
100
AcDbSymbolTableRecord
100
AcDbTextStyleTableRecord
  2
LiberationMono-Bold
 70
0
 40
0.0
 41
1.0
 50
0.0
 71
0
 42
2.5
  3
LiberationMono-Bold.ttf
  4

  0
STYLE
  5
58
330
5
100
AcDbSymbolTableRecord
100
AcDbTextStyleTableRecord
  2
LiberationMono-BoldItalic
 70
0
 40
0.0
 41
1.0
 50
0.0
 71
0
 42
2.5
  3
LiberationMono-BoldItalic.ttf
  4

  0
STYLE
  5
59
330
5
100
AcDbSymbolTableRecord
100
AcDbTextStyleTableRecord
  2
LiberationMono-Italic
 70
0
 40
0.0
 41
1.0
 50
0.0
 71
0
 42
2.5
  3
LiberationMono-Italic.ttf
  4

  0
ENDTAB
  0
TABLE
  2
VIEW
  5
7
330
0
100
AcDbSymbolTable
 70
0
  0
ENDTAB
  0
TABLE
  2
UCS
  5
6
330
0
100
AcDbSymbolTable
 70
0
  0
ENDTAB
  0
TABLE
  2
APPID
  5
3
330
0
100
AcDbSymbolTable
 70
3
  0
APPID
  5
2A
330
3
100
AcDbSymbolTableRecord
100
AcDbRegAppTableRecord
  2
ACAD
 70
0
  0
APPID
  5
C1
330
3
100
AcDbSymbolTableRecord
100
AcDbRegAppTableRecord
  2
HATCHBACKGROUNDCOLOR
 70
0
  0
APPID
  5
C2
330
3
100
AcDbSymbolTableRecord
100
AcDbRegAppTableRecord
  2
EZDXF
 70
0
  0
ENDTAB
  0
TABLE
  2
DIMSTYLE
  5
4
330
0
100
AcDbSymbolTable
 70
12
100
AcDbDimStyleTable
  0
DIMSTYLE
105
2B
330
4
100
AcDbSymbolTableRecord
100
AcDbDimStyleTableRecord
  2
Standard
 70
0
 40
1.0
 41
2.5
 42
0.625
 43
3.75
 44
1.25
 45
0.0
 46
0.0
 47
0.0
 48
0.0
 49
2.5
140
2.5
141
2.5
142
0.0
143
0.03937007874
144
1.0
145
0.0
146
1.0
147
0.625
148
0.0
 69
0
 70
0
 71
0
 72
0
 73
0
 74
0
 75
0
 76
0
 77
1
 78
8
 79
3
170
0
171
3
172
1
173
0
174
0
175
0
176
0
177
0
178
0
179
2
271
2
272
2
273
2
274
3
275
0
276
0
277
2
278
44
279
0
280
0
281
0
282
0
283
0
284
8
285
0
286
0
288
0
289
3
290
0
371
-2
372
-2
  0
DIMSTYLE
105
73
330
4
100
AcDbSymbolTableRecord
100
AcDbDimStyleTableRecord
  2
EZDXF
 70
0
 40
1.0
 41
0.175
 42
0.125
 43
3.75
 44
0.375
 45
0.0
 46
0.0
 47
0.0
 48
0.0
 49
2.5
140
0.25
141
2.5
142
0.0
143
0.03937007874
144
100.0
145
0.0
146
0.5
147
0.1
148
0.0
 69
0
 70
0
 71
0
 72
0
 73
0
 74
0
 75
0
 76
0
 77
1
 78
12
 79
3
170
0
171
3
172
1
173
0
174
0
175
0
176
0
177
0
178
0
179
2
271
2
272
2
273
2
274
3
275
0
276
0
277
2
278
46
279
2
280
0
281
0
282
0
283
0
284
8
285
0
286
0
288
1
289
3
290
0
340
4C
342
74
371
-2
372
-2
  0
DIMSTYLE
105
7C
330
4
100
AcDbSymbolTableRecord
100
AcDbDimStyleTableRecord
  2
EZ_M_100_H25_CM
 70
0
 40
1.0
 41
0.25
 42
0.125
 43
3.75
 44
0.375
 45
0.0
 46
0.0
 47
0.0
 48
0.0
 49
2.5
140
0.25
141
2.5
142
0.125
143
0.03937007874
144
100.0
145
0.0
146
0.5
147
0.1
148
0.0
 69
0
 70
0
 71
0
 72
0
 73
0
 74
0
 75
0
 76
0
 77
1
 78
12
 79
3
170
0
171
3
172
1
173
0
174
0
175
0
176
0
177
0
178
0
179
2
271
2
272
2
273
2
274
3
275
0
276
0
277
2
278
46
279
2
280
0
281
0
282
0
283
0
284
8
285
0
286
0
288
1
289
3
290
0
340
4C
371
-2
372
-2
  0
DIMSTYLE
105
7D
330
4
100
AcDbSymbolTableRecord
100
AcDbDimStyleTableRecord
  2
EZ_M_50_H25_CM
 70
0
 40
1.0
 41
0.125
 42
0.0625
 43
3.75
 44
0.1875
 45
0.0
 46
0.0
 47
0.0
 48
0.0
 49
2.5
140
0.125
141
2.5
142
0.0625
143
0.03937007874
144
100.0
145
0.0
146
0.5
147
0.05
148
0.0
 69
0
 70
0
 71
0
 72
0
 73
0
 74
0
 75
0
 76
0
 77
1
 78
12
 79
3
170
0
171
3
172
1
173
0
174
0
175
0
176
0
177
0
178
0
179
2
271
2
272
2
273
2
274
3
275
0
276
0
277
2
278
46
279
2
280
0
281
0
282
0
283
0
284
8
285
0
286
0
288
1
289
3
290
0
340
4C
371
-2
372
-2
  0
DIMSTYLE
105
7E
330
4
100
AcDbSymbolTableRecord
100
AcDbDimStyleTableRecord
  2
EZ_M_25_H25_CM
 70
0
 40
1.0
 41
0.0625
 42
0.03125
 43
3.75
 44
0.09375
 45
0.0
 46
0.0
 47
0.0
 48
0.0
 49
2.5
140
0.0625
141
2.5
142
0.03125
143
0.03937007874
144
100.0
145
0.0
146
0.5
147
0.025
148
0.0
 69
0
 70
0
 71
0
 72
0
 73
0
 74
0
 75
0
 76
0
 77
1
 78
12
 79
3
170
0
171
3
172
1
173
0
174
0
175
0
176
0
177
0
178
0
179
2
271
2
272
2
273
2
274
3
275
0
276
0
277
2
278
46
279
2
280
0
281
0
282
0
283
0
284
8
285
0
286
0
288
1
289
3
290
0
340
4C
371
-2
372
-2
  0
DIMSTYLE
105
7F
330
4
100
AcDbSymbolTableRecord
100
AcDbDimStyleTableRecord
  2
EZ_M_20_H25_CM
 70
0
 40
1.0
 41
0.05
 42
0.025
 43
3.75
 44
0.07500000000000001
 45
0.0
 46
0.0
 47
0.0
 48
0.0
 49
2.5
140
0.05
141
2.5
142
0.025
143
0.03937007874
144
100.0
145
0.0
146
0.5
147
0.020000000000000004
148
0.0
 69
0
 70
0
 71
0
 72
0
 73
0
 74
0
 75
0
 76
0
 77
1
 78
12
 79
3
170
0
171
3
172
1
173
0
174
0
175
0
176
0
177
0
178
0
179
2
271
2
272
2
273
2
274
3
275
0
276
0
277
2
278
46
279
2
280
0
281
0
282
0
283
0
284
8
285
0
286
0
288
1
289
3
290
0
340
4C
371
-2
372
-2
  0
DIMSTYLE
105
80
330
4
100
AcDbSymbolTableRecord
100
AcDbDimStyleTableRecord
  2
EZ_M_10_H25_CM
 70
0
 40
1.0
 41
0.025
 42
0.0125
 43
3.75
 44
0.037500000000000006
 45
0.0
 46
0.0
 47
0.0
 48
0.0
 49
2.5
140
0.025
141
2.5
142
0.0125
143
0.03937007874
144
100.0
145
0.0
146
0.5
147
0.010000000000000002
148
0.0
 69
0
 70
0
 71
0
 72
0
 73
0
 74
0
 75
0
 76
0
 77
1
 78
12
 79
3
170
0
171
3
172
1
173
0
174
0
175
0
176
0
177
0
178
0
179
2
271
2
272
2
273
2
274
3
275
0
276
0
277
2
278
46
279
2
280
0
281
0
282
0
283
0
284
8
285
0
286
0
288
1
289
3
290
0
340
4C
371
-2
372
-2
  0
DIMSTYLE
105
81
330
4
100
AcDbSymbolTableRecord
100
AcDbDimStyleTableRecord
  2
EZ_M_5_H25_CM
 70
0
 40
1.0
 41
0.0125
 42
0.00625
 43
3.75
 44
0.018750000000000003
 45
0.0
 46
0.0
 47
0.0
 48
0.0
 49
2.5
140
0.0125
141
2.5
142
0.00625
143
0.03937007874
144
100.0
145
0.0
146
0.5
147
0.005000000000000001
148
0.0
 69
0
 70
0
 71
0
 72
0
 73
0
 74
0
 75
0
 76
0
 77
1
 78
12
 79
3
170
0
171
3
172
1
173
0
174
0
175
0
176
0
177
0
178
0
179
2
271
2
272
2
273
2
274
3
275
0
276
0
277
2
278
46
279
2
280
0
281
0
282
0
283
0
284
8
285
0
286
0
288
1
289
3
290
0
340
4C
371
-2
372
-2
  0
DIMSTYLE
105
82
330
4
100
AcDbSymbolTableRecord
100
AcDbDimStyleTableRecord
  2
EZ_M_1_H25_CM
 70
0
 40
1.0
 41
0.0025
 42
0.00125
 43
3.75
 44
0.00375
 45
0.0
 46
0.0
 47
0.0
 48
0.0
 49
2.5
140
0.0025
141
2.5
142
0.00125
143
0.03937007874
144
100.0
145
0.0
146
0.5
147
0.001
148
0.0
 69
0
 70
0
 71
0
 72
0
 73
0
 74
0
 75
0
 76
0
 77
1
 78
12
 79
3
170
0
171
3
172
1
173
0
174
0
175
0
176
0
177
0
178
0
179
2
271
2
272
2
273
2
274
3
275
0
276
0
277
2
278
46
279
2
280
0
281
0
282
0
283
0
284
8
285
0
286
0
288
1
289
3
290
0
340
4C
371
-2
372
-2
  0
DIMSTYLE
105
83
330
4
100
AcDbSymbolTableRecord
100
AcDbDimStyleTableRecord
  2
EZ_RADIUS
 70
0
 40
1.0
 41
0.25
 42
0.125
 43
3.75
 44
0.375
 45
0.0
 46
0.0
 47
0.0
 48
0.0
 49
2.5
140
0.25
141
0.0
142
0.0
143
0.03937007874
144
100.0
145
0.0
146
0.5
147
0.1
148
0.0
 69
0
 70
0
 71
0
 72
0
 73
0
 74
0
 75
0
 76
0
 77
1
 78
12
 79
3
170
0
171
3
172
0
173
0
174
0
175
0
176
0
177
0
178
0
179
2
271
2
272
2
273
2
274
3
275
0
276
0
277
2
278
46
279
1
280
0
281
0
282
0
283
0
284
8
285
0
286
0
288
1
289
3
290
0
340
4C
342
84
371
-2
372
-2
  0
DIMSTYLE
105
88
330
4
100
AcDbSymbolTableRecord
100
AcDbDimStyleTableRecord
  2
EZ_RADIUS_INSIDE
 70
0
 40
1.0
 41
0.25
 42
0.125
 43
3.75
 44
0.375
 45
0.0
 46
0.0
 47
0.0
 48
0.0
 49
2.5
140
0.25
141
0.0
142
0.0
143
0.03937007874
144
100.0
145
0.0
146
0.5
147
0.1
148
0.0
 69
0
 70
0
 71
0
 72
0
 73
0
 74
0
 75
0
 76
0
 77
0
 78
12
 79
3
170
0
171
3
172
0
173
0
174
1
175
0
176
0
177
0
178
0
179
2
271
2
272
2
273
2
274
3
275
0
276
0
277
2
278
46
279
0
280
0
281
0
282
0
283
0
284
8
285
0
286
0
288
1
289
0
290
0
340
4C
342
84
371
-2
372
-2
  0
DIMSTYLE
105
89
330
4
100
AcDbSymbolTableRecord
100
AcDbDimStyleTableRecord
  2
EZ_CURVED
 70
0
 40
1.0
 41
0.25
 42
0.125
 43
3.75
 44
0.375
 45
0.0
 46
0.0
 47
0.0
 48
0.0
 49
2.5
140
0.25
141
2.5
142
0.0
143
0.03937007874
144
100.0
145
0.0
146
0.5
147
0.1
148
0.0
 69
0
 70
0
 71
0
 72
0
 73
0
 74
0
 75
0
 76
0
 77
1
 78
12
 79
2
 90
2
170
0
171
3
172
1
173
0
174
0
175
0
176
0
177
0
178
0
179
2
271
2
272
2
273
2
274
3
275
0
276
0
277
2
278
46
279
2
280
0
281
0
282
0
283
0
284
8
285
0
286
0
288
1
289
3
290
0
340
4C
371
-2
372
-2
  0
ENDTAB
  0
TABLE
  2
BLOCK_RECORD
  5
9
330
0
100
AcDbSymbolTable
 70
5
  0
BLOCK_RECORD
  5
17
330
9
100
AcDbSymbolTableRecord
100
AcDbBlockTableRecord
  2
*Model_Space
340
1A
 70
0
280
1
281
0
  0
BLOCK_RECORD
  5
1B
330
9
100
AcDbSymbolTableRecord
100
AcDbBlockTableRecord
  2
*Paper_Space
340
1E
 70
0
280
1
281
0
  0
BLOCK_RECORD
  5
74
330
9
100
AcDbSymbolTableRecord
100
AcDbBlockTableRecord
  2
_ARCHTICK
340
0
 70
0
280
1
281
0
  0
BLOCK_RECORD
  5
78
330
9
100
AcDbSymbolTableRecord
100
AcDbBlockTableRecord
  2
_CLOSEDFILLED
340
0
 70
0
280
1
281
0
  0
BLOCK_RECORD
  5
84
330
9
100
AcDbSymbolTableRecord
100
AcDbBlockTableRecord
  2
_CLOSEDBLANK
340
0
 70
0
280
1
281
0
  0
ENDTAB
  0
ENDSEC
  0
SECTION
  2
BLOCKS
  0
BLOCK
  5
18
330
17
100
AcDbEntity
  8
0
100
AcDbBlockBegin
  2
*Model_Space
 70
0
 10
0.0
 20
0.0
 30
0.0
  3
*Model_Space
  1

  0
ENDBLK
  5
19
330
17
100
AcDbEntity
  8
0
100
AcDbBlockEnd
  0
BLOCK
  5
1C
330
1B
100
AcDbEntity
  8
0
100
AcDbBlockBegin
  2
*Paper_Space
 70
0
 10
0.0
 20
0.0
 30
0.0
  3
*Paper_Space
  1

  0
ENDBLK
  5
1D
330
1B
100
AcDbEntity
  8
0
100
AcDbBlockEnd
  0
BLOCK
  5
75
330
74
100
AcDbEntity
  8
0
100
AcDbBlockBegin
  2
_ARCHTICK
 70
0
 10
0.0
 20
0.0
 30
0.0
  3
_ARCHTICK
  1

  0
LWPOLYLINE
  5
77
330
74
100
AcDbEntity
  8
0
  6
BYBLOCK
 62
0
100
AcDbPolyline
 90
2
 70
0
 43
0.15
 10
-0.5
 20
-0.5
 10
0.5
 20
0.5
  0
ENDBLK
  5
76
330
74
100
AcDbEntity
  8
0
100
AcDbBlockEnd
  0
BLOCK
  5
79
330
78
100
AcDbEntity
  8
0
100
AcDbBlockBegin
  2
_CLOSEDFILLED
 70
0
 10
0.0
 20
0.0
 30
0.0
  3
_CLOSEDFILLED
  1

  0
SOLID
  5
7B
330
78
100
AcDbEntity
  8
0
  6
BYBLOCK
 62
0
100
AcDbTrace
 10
-1.0
 20
0.16439898372402537
 30
0.0
 11
0.0
 21
0.0
 31
0.0
 12
-1.0
 22
-0.16439898372402537
 32
0.0
 13
-1.0
 23
-0.16439898372402537
 33
0.0
  0
ENDBLK
  5
7A
330
78
100
AcDbEntity
  8
0
100
AcDbBlockEnd
  0
BLOCK
  5
85
330
84
100
AcDbEntity
  8
0
100
AcDbBlockBegin
  2
_CLOSEDBLANK
 70
0
 10
0.0
 20
0.0
 30
0.0
  3
_CLOSEDBLANK
  1

  0
LWPOLYLINE
  5
87
330
84
100
AcDbEntity
  8
0
  6
BYBLOCK
 62
0
100
AcDbPolyline
 90
3
 70
1
 10
-1.0
 20
0.16439898372402537
 10
0.0
 20
0.0
 10
-1.0
 20
-0.16439898372402537
  0
ENDBLK
  5
86
330
84
100
AcDbEntity
  8
0
100
AcDbBlockEnd
  0
ENDSEC
  0
SECTION
  2
ENTITIES
  0
LWPOLYLINE
  5
8B
330
17
100
AcDbEntity
  8
CUT
100
AcDbPolyline
 90
132
 70
1
 10
-73.0
 20
75.0
 10
-73.0981
 20
74.9976
 10
-73.196
 20
74.9904
 10
-73.2935
 20
74.9784
 10
-73.3902
 20
74.9616
 10
-73.486
 20
74.9401
 10
-73.5806
 20
74.9139
 10
-73.6738
 20
74.8831
 10
-73.7654
 20
74.8478
 10
-73.8551
 20
74.808
 10
-73.9428
 20
74.7638
 10
-74.0282
 20
74.7155
 10
-74.1111
 20
74.6629
 10
-74.1914
 20
74.6064
 10
-74.2688
 20
74.546
 10
-74.3431
 20
74.4819
 10
-74.4142
 20
74.4142
 10
-74.4819
 20
74.3431
 10
-74.546
 20
74.2688
 10
-74.6064
 20
74.1914
 10
-74.6629
 20
74.1111
 10
-74.7155
 20
74.0282
 10
-74.7638
 20
73.9428
 10
-74.808
 20
73.8551
 10
-74.8478
 20
73.7654
 10
-74.8831
 20
73.6738
 10
-74.9139
 20
73.5806
 10
-74.9401
 20
73.486
 10
-74.9616
 20
73.3902
 10
-74.9784
 20
73.2935
 10
-74.9904
 20
73.196
 10
-74.9976
 20
73.0981
 10
-75.0
 20
73.0
 10
-75.0
 20
-73.0
 10
-74.9976
 20
-73.0981
 10
-74.9904
 20
-73.196
 10
-74.9784
 20
-73.2935
 10
-74.9616
 20
-73.3902
 10
-74.9401
 20
-73.486
 10
-74.9139
 20
-73.5806
 10
-74.8831
 20
-73.6738
 10
-74.8478
 20
-73.7654
 10
-74.808
 20
-73.8551
 10
-74.7638
 20
-73.9428
 10
-74.7155
 20
-74.0282
 10
-74.6629
 20
-74.1111
 10
-74.6064
 20
-74.1914
 10
-74.546
 20
-74.2688
 10
-74.4819
 20
-74.3431
 10
-74.4142
 20
-74.4142
 10
-74.3431
 20
-74.4819
 10
-74.2688
 20
-74.546
 10
-74.1914
 20
-74.6064
 10
-74.1111
 20
-74.6629
 10
-74.0282
 20
-74.7155
 10
-73.9428
 20
-74.7638
 10
-73.8551
 20
-74.808
 10
-73.7654
 20
-74.8478
 10
-73.6738
 20
-74.8831
 10
-73.5806
 20
-74.9139
 10
-73.486
 20
-74.9401
 10
-73.3902
 20
-74.9616
 10
-73.2935
 20
-74.9784
 10
-73.196
 20
-74.9904
 10
-73.0981
 20
-74.9976
 10
-73.0
 20
-75.0
 10
73.0
 20
-75.0
 10
73.0981
 20
-74.9976
 10
73.196
 20
-74.9904
 10
73.2935
 20
-74.9784
 10
73.3902
 20
-74.9616
 10
73.486
 20
-74.9401
 10
73.5806
 20
-74.9139
 10
73.6738
 20
-74.8831
 10
73.7654
 20
-74.8478
 10
73.8551
 20
-74.808
 10
73.9428
 20
-74.7638
 10
74.0282
 20
-74.7155
 10
74.1111
 20
-74.6629
 10
74.1914
 20
-74.6064
 10
74.2688
 20
-74.546
 10
74.3431
 20
-74.4819
 10
74.4142
 20
-74.4142
 10
74.4819
 20
-74.3431
 10
74.546
 20
-74.2688
 10
74.6064
 20
-74.1914
 10
74.6629
 20
-74.1111
 10
74.7155
 20
-74.0282
 10
74.7638
 20
-73.9428
 10
74.808
 20
-73.8551
 10
74.8478
 20
-73.7654
 10
74.8831
 20
-73.6738
 10
74.9139
 20
-73.5806
 10
74.9401
 20
-73.486
 10
74.9616
 20
-73.3902
 10
74.9784
 20
-73.2935
 10
74.9904
 20
-73.196
 10
74.9976
 20
-73.0981
 10
75.0
 20
-73.0
 10
75.0
 20
73.0
 10
74.9976
 20
73.0981
 10
74.9904
 20
73.196
 10
74.9784
 20
73.2935
 10
74.9616
 20
73.3902
 10
74.9401
 20
73.486
 10
74.9139
 20
73.5806
 10
74.8831
 20
73.6738
 10
74.8478
 20
73.7654
 10
74.808
 20
73.8551
 10
74.7638
 20
73.9428
 10
74.7155
 20
74.0282
 10
74.6629
 20
74.1111
 10
74.6064
 20
74.1914
 10
74.546
 20
74.2688
 10
74.4819
 20
74.3431
 10
74.4142
 20
74.4142
 10
74.3431
 20
74.4819
 10
74.2688
 20
74.546
 10
74.1914
 20
74.6064
 10
74.1111
 20
74.6629
 10
74.0282
 20
74.7155
 10
73.9428
 20
74.7638
 10
73.8551
 20
74.808
 10
73.7654
 20
74.8478
 10
73.6738
 20
74.8831
 10
73.5806
 20
74.9139
 10
73.486
 20
74.9401
 10
73.3902
 20
74.9616
 10
73.2935
 20
74.9784
 10
73.196
 20
74.9904
 10
73.0981
 20
74.9976
 10
73.0
 20
75.0
  0
LWPOLYLINE
  5
8C
330
17
100
AcDbEntity
  8
CUT
100
AcDbPolyline
 90
64
 70
1
 10
-68.9211
 20
70.2146
 10
-68.9053
 20
70.1078
 10
-68.9
 20
70.0
 10
-68.9053
 20
69.8922
 10
-68.9211
 20
69.7854
 10
-68.9474
 20
69.6807
 10
-68.9837
 20
69.579
 10
-69.0299
 20
69.4815
 10
-69.0854
 20
69.3889
 10
-69.1497
 20
69.3022
 10
-69.2222
 20
69.2222
 10
-69.3022
 20
69.1497
 10
-69.3889
 20
69.0854
 10
-69.4815
 20
69.0299
 10
-69.579
 20
68.9837
 10
-69.6807
 20
68.9474
 10
-69.7854
 20
68.9211
 10
-69.8922
 20
68.9053
 10
-70.0
 20
68.9
 10
-70.1078
 20
68.9053
 10
-70.2146
 20
68.9211
 10
-70.3193
 20
68.9474
 10
-70.421
 20
68.9837
 10
-70.5185
 20
69.0299
 10
-70.6111
 20
69.0854
 10
-70.6978
 20
69.1497
 10
-70.7778
 20
69.2222
 10
-70.8503
 20
69.3022
 10
-70.9146
 20
69.3889
 10
-70.9701
 20
69.4815
 10
-71.0163
 20
69.579
 10
-71.0526
 20
69.6807
 10
-71.0789
 20
69.7854
 10
-71.0947
 20
69.8922
 10
-71.1
 20
70.0
 10
-71.0947
 20
70.1078
 10
-71.0789
 20
70.2146
 10
-71.0526
 20
70.3193
 10
-71.0163
 20
70.421
 10
-70.9701
 20
70.5185
 10
-70.9146
 20
70.6111
 10
-70.8503
 20
70.6978
 10
-70.7778
 20
70.7778
 10
-70.6978
 20
70.8503
 10
-70.6111
 20
70.9146
 10
-70.5185
 20
70.9701
 10
-70.421
 20
71.0163
 10
-70.3193
 20
71.0526
 10
-70.2146
 20
71.0789
 10
-70.1078
 20
71.0947
 10
-70.0
 20
71.1
 10
-69.8922
 20
71.0947
 10
-69.7854
 20
71.0789
 10
-69.6807
 20
71.0526
 10
-69.579
 20
71.0163
 10
-69.4815
 20
70.9701
 10
-69.3889
 20
70.9146
 10
-69.3022
 20
70.8503
 10
-69.2222
 20
70.7778
 10
-69.1497
 20
70.6978
 10
-69.0854
 20
70.6111
 10
-69.0299
 20
70.5185
 10
-68.9837
 20
70.421
 10
-68.9474
 20
70.3193
  0
LWPOLYLINE
  5
8D
330
17
100
AcDbEntity
  8
CUT
100
AcDbPolyline
 90
123
 70
1
 10
-63.4194
 20
64.2638
 10
-63.3554
 20
64.2029
 10
-63.3129
 20
64.15
 10
-50.9871
 20
64.15
 10
-50.9446
 20
64.2029
 10
-50.9029
 20
64.2446
 10
-50.8333
 20
64.2989
 10
-50.7828
 20
64.3292
 10
-50.7296
 20
64.3543
 10
-50.6458
 20
64.382
 10
-50.5588
 20
64.3971
 10
-50.5
 20
64.4
 10
-50.4412
 20
64.3971
 10
-50.3829
 20
64.3885
 10
-50.3258
 20
64.3742
 10
-50.2704
 20
64.3543
 10
-50.1915
 20
64.3146
 10
-50.1426
 20
64.2819
 10
-50.0971
 20
64.2446
 10
-50.0554
 20
64.2029
 10
-50.0011
 20
64.1333
 10
-49.9708
 20
64.0828
 10
-49.9457
 20
64.0296
 10
-49.9258
 20
63.9742
 10
-49.9115
 20
63.9171
 10
-49.9029
 20
63.8588
 10
-49.9
 20
63.8
 10
-49.9065
 20
63.712
 10
-49.918
 20
63.6542
 10
-49.9457
 20
63.5704
 10
-49.9708
 20
63.5172
 10
-50.0181
 20
63.4426
 10
-50.0554
 20
63.3971
 10
-50.0971
 20
63.3554
 10
-50.15
 20
63.3129
 10
-50.15
 20
50.9871
 10
-50.0971
 20
50.9446
 10
-50.0554
 20
50.9029
 10
-50.0181
 20
50.8574
 10
-49.9708
 20
50.7828
 10
-49.9457
 20
50.7296
 10
-49.918
 20
50.6458
 10
-49.9065
 20
50.588
 10
-49.9
 20
50.5
 10
-49.9065
 20
50.412
 10
-49.918
 20
50.3542
 10
-49.9351
 20
50.2979
 10
-49.9576
 20
50.2435
 10
-49.9854
 20
50.1915
 10
-50.0181
 20
50.1426
 10
-50.0554
 20
50.0971
 10
-50.0971
 20
50.0554
 10
-50.1426
 20
50.0181
 10
-50.1915
 20
49.9854
 10
-50.2435
 20
49.9576
 10
-50.2979
 20
49.9351
 10
-50.3542
 20
49.918
 10
-50.412
 20
49.9065
 10
-50.5
 20
49.9
 10
-50.588
 20
49.9065
 10
-50.6458
 20
49.918
 10
-50.7296
 20
49.9457
 10
-50.7828
 20
49.9708
 10
-50.8574
 20
50.0181
 10
-50.9029
 20
50.0554
 10
-50.9446
 20
50.0971
 10
-50.9871
 20
50.15
 10
-63.3129
 20
50.15
 10
-63.3554
 20
50.0971
 10
-63.3971
 20
50.0554
 10
-63.4426
 20
50.0181
 10
-63.5172
 20
49.9708
 10
-63.5704
 20
49.9457
 10
-63.6542
 20
49.918
 10
-63.712
 20
49.9065
 10
-63.8
 20
49.9
 10
-63.8588
 20
49.9029
 10
-63.9171
 20
49.9115
 10
-63.9742
 20
49.9258
 10
-64.0296
 20
49.9457
 10
-64.0828
 20
49.9708
 10
-64.1574
 20
50.0181
 10
-64.2029
 20
50.0554
 10
-64.2446
 20
50.0971
 10
-64.2819
 20
50.1426
 10
-64.3146
 20
50.1915
 10
-64.3424
 20
50.2435
 10
-64.3649
 20
50.2979
 10
-64.3885
 20
50.3829
 10
-64.3971
 20
50.4412
 10
-64.4
 20
50.5
 10
-64.3971
 20
50.5588
 10
-64.382
 20
50.6458
 10
-64.3543
 20
50.7296
 10
-64.3292
 20
50.7828
 10
-64.2989
 20
50.8333
 10
-64.2446
 20
50.9029
 10
-64.2029
 20
50.9446
 10
-64.15
 20
50.9871
 10
-64.15
 20
63.3129
 10
-64.2029
 20
63.3554
 10
-64.2638
 20
63.4194
 10
-64.2989
 20
63.4667
 10
-64.3424
 20
63.5435
 10
-64.3649
 20
63.5979
 10
-64.3885
 20
63.6829
 10
-64.3993
 20
63.7706
 10
-64.3993
 20
63.8294
 10
-64.3885
 20
63.9171
 10
-64.3649
 20
64.0021
 10
-64.3424
 20
64.0565
 10
-64.2989
 20
64.1333
 10
-64.2446
 20
64.2029
 10
-64.1806
 20
64.2638
 10
-64.1085
 20
64.3146
 10
-64.0296
 20
64.3543
 10
-63.9458
 20
64.382
 10
-63.8588
 20
64.3971
 10
-63.7706
 20
64.3993
 10
-63.712
 20
64.3935
 10
-63.6542
 20
64.382
 10
-63.5704
 20
64.3543
 10
-63.4915
 20
64.3146
  0
LWPOLYLINE
  5
8E
330
17
100
AcDbEntity
  8
CUT
100
AcDbPolyline
 90
123
 70
1
 10
-44.3694
 20
64.2638
 10
-44.3054
 20
64.2029
 10
-44.2629
 20
64.15
 10
-31.9371
 20
64.15
 10
-31.8946
 20
64.2029
 10
-31.8529
 20
64.2446
 10
-31.7833
 20
64.2989
 10
-31.7328
 20
64.3292
 10
-31.6796
 20
64.3543
 10
-31.5958
 20
64.382
 10
-31.5088
 20
64.3971
 10
-31.45
 20
64.4
 10
-31.3912
 20
64.3971
 10
-31.3329
 20
64.3885
 10
-31.2758
 20
64.3742
 10
-31.2204
 20
64.3543
 10
-31.1415
 20
64.3146
 10
-31.0926
 20
64.2819
 10
-31.0471
 20
64.2446
 10
-31.0054
 20
64.2029
 10
-30.9681
 20
64.1574
 10
-30.9354
 20
64.1085
 10
-30.9076
 20
64.0565
 10
-30.8851
 20
64.0021
 10
-30.868
 20
63.9458
 10
-30.8565
 20
63.888
 10
-30.85
 20
63.8
 10
-30.8529
 20
63.7412
 10
-30.868
 20
63.6542
 10
-30.8851
 20
63.5979
 10
-30.9208
 20
63.5172
 10
-30.9511
 20
63.4667
 10
-31.0054
 20
63.3971
 10
-31.0471
 20
63.3554
 10
-31.1
 20
63.3129
 10
-31.1
 20
50.9871
 10
-31.0471
 20
50.9446
 10
-31.0054
 20
50.9029
 10
-30.9511
 20
50.8333
 10
-30.9208
 20
50.7828
 10
-30.8851
 20
50.7021
 10
-30.868
 20
50.6458
 10
-30.8529
 20
50.5588
 10
-30.85
 20
50.5
 10
-30.8529
 20
50.4412
 10
-30.868
 20
50.3542
 10
-30.8851
 20
50.2979
 10
-30.9076
 20
50.2435
 10
-30.9354
 20
50.1915
 10
-30.9681
 20
50.1426
 10
-31.0054
 20
50.0971
 10
-31.0471
 20
50.0554
 10
-31.0926
 20
50.0181
 10
-31.1415
 20
49.9854
 10
-31.2204
 20
49.9457
 10
-31.2758
 20
49.9258
 10
-31.3329
 20
49.9115
 10
-31.3912
 20
49.9029
 10
-31.45
 20
49.9
 10
-31.538
 20
49.9065
 10
-31.5958
 20
49.918
 10
-31.6796
 20
49.9457
 10
-31.7328
 20
49.9708
 10
-31.8074
 20
50.0181
 10
-31.8529
 20
50.0554
 10
-31.8946
 20
50.0971
 10
-31.9371
 20
50.15
 10
-44.2629
 20
50.15
 10
-44.3054
 20
50.0971
 10
-44.3471
 20
50.0554
 10
-44.3926
 20
50.0181
 10
-44.4672
 20
49.9708
 10
-44.5204
 20
49.9457
 10
-44.6042
 20
49.918
 10
-44.662
 20
49.9065
 10
-44.75
 20
49.9
 10
-44.8088
 20
49.9029
 10
-44.8671
 20
49.9115
 10
-44.9242
 20
49.9258
 10
-44.9796
 20
49.9457
 10
-45.0328
 20
49.9708
 10
-45.1074
 20
50.0181
 10
-45.1529
 20
50.0554
 10
-45.1946
 20
50.0971
 10
-45.2319
 20
50.1426
 10
-45.2646
 20
50.1915
 10
-45.2924
 20
50.2435
 10
-45.3149
 20
50.2979
 10
-45.332
 20
50.3542
 10
-45.3435
 20
50.412
 10
-45.35
 20
50.5
 10
-45.3435
 20
50.588
 10
-45.332
 20
50.6458
 10
-45.3043
 20
50.7296
 10
-45.2792
 20
50.7828
 10
-45.2319
 20
50.8574
 10
-45.1946
 20
50.9029
 10
-45.1529
 20
50.9446
 10
-45.1
 20
50.9871
 10
-45.1
 20
63.3129
 10
-45.1529
 20
63.3554
 10
-45.2138
 20
63.4194
 10
-45.2489
 20
63.4667
 10
-45.2924
 20
63.5435
 10
-45.3242
 20
63.6258
 10
-45.3385
 20
63.6829
 10
-45.3493
 20
63.7706
 10
-45.3493
 20
63.8294
 10
-45.3385
 20
63.9171
 10
-45.3149
 20
64.0021
 10
-45.2792
 20
64.0828
 10
-45.2319
 20
64.1574
 10
-45.1946
 20
64.2029
 10
-45.1306
 20
64.2638
 10
-45.0585
 20
64.3146
 10
-44.9796
 20
64.3543
 10
-44.8958
 20
64.382
 10
-44.8088
 20
64.3971
 10
-44.7206
 20
64.3993
 10
-44.662
 20
64.3935
 10
-44.6042
 20
64.382
 10
-44.5204
 20
64.3543
 10
-44.4415
 20
64.3146
  0
LWPOLYLINE
  5
8F
330
17
100
AcDbEntity
  8
CUT
100
AcDbPolyline
 90
123
 70
1
 10
-25.2971
 20
64.2446
 10
-25.2554
 20
64.2029
 10
-25.2129
 20
64.15
 10
-12.8871
 20
64.15
 10
-12.8446
 20
64.2029
 10
-12.8029
 20
64.2446
 10
-12.7333
 20
64.2989
 10
-12.6828
 20
64.3292
 10
-12.6296
 20
64.3543
 10
-12.5458
 20
64.382
 10
-12.4588
 20
64.3971
 10
-12.4
 20
64.4
 10
-12.3412
 20
64.3971
 10
-12.2829
 20
64.3885
 10
-12.2258
 20
64.3742
 10
-12.1704
 20
64.3543
 10
-12.1172
 20
64.3292
 10
-12.0667
 20
64.2989
 10
-11.9971
 20
64.2446
 10
-11.9554
 20
64.2029
 10
-11.9181
 20
64.1574
 10
-11.8854
 20
64.1085
 10
-11.8576
 20
64.0565
 10
-11.8351
 20
64.0021
 10
-11.8115
 20
63.9171
 10
-11.8029
 20
63.8588
 10
-11.8
 20
63.8
 10
-11.8029
 20
63.7412
 10
-11.818
 20
63.6542
 10
-11.8351
 20
63.5979
 10
-11.8708
 20
63.5172
 10
-11.9011
 20
63.4667
 10
-11.9554
 20
63.3971
 10
-11.9971
 20
63.3554
 10
-12.05
 20
63.3129
 10
-12.05
 20
50.9871
 10
-11.9971
 20
50.9446
 10
-11.9554
 20
50.9029
 10
-11.9011
 20
50.8333
 10
-11.8708
 20
50.7828
 10
-11.8351
 20
50.7021
 10
-11.818
 20
50.6458
 10
-11.8029
 20
50.5588
 10
-11.8
 20
50.5
 10
-11.8029
 20
50.4412
 10
-11.818
 20
50.3542
 10
-11.8351
 20
50.2979
 10
-11.8576
 20
50.2435
 10
-11.8854
 20
50.1915
 10
-11.9181
 20
50.1426
 10
-11.9554
 20
50.0971
 10
-11.9971
 20
50.0554
 10
-12.0426
 20
50.0181
 10
-12.0915
 20
49.9854
 10
-12.1704
 20
49.9457
 10
-12.2258
 20
49.9258
 10
-12.2829
 20
49.9115
 10
-12.3412
 20
49.9029
 10
-12.4
 20
49.9
 10
-12.488
 20
49.9065
 10
-12.5458
 20
49.918
 10
-12.6296
 20
49.9457
 10
-12.6828
 20
49.9708
 10
-12.7574
 20
50.0181
 10
-12.8029
 20
50.0554
 10
-12.8446
 20
50.0971
 10
-12.8871
 20
50.15
 10
-25.2129
 20
50.15
 10
-25.2554
 20
50.0971
 10
-25.2971
 20
50.0554
 10
-25.3426
 20
50.0181
 10
-25.4172
 20
49.9708
 10
-25.4704
 20
49.9457
 10
-25.5542
 20
49.918
 10
-25.612
 20
49.9065
 10
-25.7
 20
49.9
 10
-25.7588
 20
49.9029
 10
-25.8171
 20
49.9115
 10
-25.8742
 20
49.9258
 10
-25.9296
 20
49.9457
 10
-25.9828
 20
49.9708
 10
-26.0574
 20
50.0181
 10
-26.1029
 20
50.0554
 10
-26.1446
 20
50.0971
 10
-26.1819
 20
50.1426
 10
-26.2146
 20
50.1915
 10
-26.2424
 20
50.2435
 10
-26.2649
 20
50.2979
 10
-26.2885
 20
50.3829
 10
-26.2971
 20
50.4412
 10
-26.3
 20
50.5
 10
-26.2971
 20
50.5588
 10
-26.282
 20
50.6458
 10
-26.2649
 20
50.7021
 10
-26.2292
 20
50.7828
 10
-26.1989
 20
50.8333
 10
-26.1446
 20
50.9029
 10
-26.1029
 20
50.9446
 10
-26.05
 20
50.9871
 10
-26.05
 20
63.3129
 10
-26.1029
 20
63.3554
 10
-26.1638
 20
63.4194
 10
-26.1989
 20
63.4667
 10
-26.2424
 20
63.5435
 10
-26.2742
 20
63.6258
 10
-26.2885
 20
63.6829
 10
-26.2993
 20
63.7706
 10
-26.2993
 20
63.8294
 10
-26.2885
 20
63.9171
 10
-26.2742
 20
63.9742
 10
-26.2424
 20
64.0565
 10
-26.1989
 20
64.1333
 10
-26.1446
 20
64.2029
 10
-26.0806
 20
64.2638
 10
-26.0085
 20
64.3146
 10
-25.9296
 20
64.3543
 10
-25.8458
 20
64.382
 10
-25.7588
 20
64.3971
 10
-25.6706
 20
64.3993
 10
-25.5829
 20
64.3885
 10
-25.4979
 20
64.3649
 10
-25.4435
 20
64.3424
 10
-25.3667
 20
64.2989
  0
LWPOLYLINE
  5
90
330
17
100
AcDbEntity
  8
CUT
100
AcDbPolyline
 90
123
 70
1
 10
-25.2944
 20
45.1888
 10
-25.2304
 20
45.1279
 10
-25.1879
 20
45.075
 10
-12.9121
 20
45.075
 10
-12.8696
 20
45.1279
 10
-12.8279
 20
45.1696
 10
-12.7583
 20
45.2239
 10
-12.7078
 20
45.2542
 10
-12.6546
 20
45.2793
 10
-12.5708
 20
45.307
 10
-12.4838
 20
45.3221
 10
-12.425
 20
45.325
 10
-12.3662
 20
45.3221
 10
-12.3079
 20
45.3135
 10
-12.2508
 20
45.2992
 10
-12.1954
 20
45.2793
 10
-12.1422
 20
45.2542
 10
-12.0917
 20
45.2239
 10
-12.0221
 20
45.1696
 10
-11.9804
 20
45.1279
 10
-11.9261
 20
45.0583
 10
-11.8958
 20
45.0078
 10
-11.8707
 20
44.9546
 10
-11.8508
 20
44.8992
 10
-11.8365
 20
44.8421
 10
-11.8279
 20
44.7838
 10
-11.825
 20
44.725
 10
-11.8315
 20
44.637
 10
-11.843
 20
44.5792
 10
-11.8707
 20
44.4954
 10
-11.8958
 20
44.4422
 10
-11.9431
 20
44.3676
 10
-11.9804
 20
44.3221
 10
-12.0221
 20
44.2804
 10
-12.075
 20
44.2379
 10
-12.075
 20
31.9621
 10
-12.0221
 20
31.9196
 10
-11.9804
 20
31.8779
 10
-11.9431
 20
31.8324
 10
-11.8958
 20
31.7578
 10
-11.8707
 20
31.7046
 10
-11.843
 20
31.6208
 10
-11.8315
 20
31.563
 10
-11.825
 20
31.475
 10
-11.8279
 20
31.4162
 10
-11.8365
 20
31.3579
 10
-11.8508
 20
31.3008
 10
-11.8707
 20
31.2454
 10
-11.9104
 20
31.1665
 10
-11.9431
 20
31.1176
 10
-11.9804
 20
31.0721
 10
-12.0221
 20
31.0304
 10
-12.0676
 20
30.9931
 10
-12.1165
 20
30.9604
 10
-12.1954
 20
30.9207
 10
-12.2508
 20
30.9008
 10
-12.3079
 20
30.8865
 10
-12.3662
 20
30.8779
 10
-12.425
 20
30.875
 10
-12.513
 20
30.8815
 10
-12.5708
 20
30.893
 10
-12.6546
 20
30.9207
 10
-12.7078
 20
30.9458
 10
-12.7824
 20
30.9931
 10
-12.8279
 20
31.0304
 10
-12.8696
 20
31.0721
 10
-12.9121
 20
31.125
 10
-25.1879
 20
31.125
 10
-25.2304
 20
31.0721
 10
-25.2721
 20
31.0304
 10
-25.3176
 20
30.9931
 10
-25.3922
 20
30.9458
 10
-25.4454
 20
30.9207
 10
-25.5292
 20
30.893
 10
-25.587
 20
30.8815
 10
-25.675
 20
30.875
 10
-25.7338
 20
30.8779
 10
-25.7921
 20
30.8865
 10
-25.8492
 20
30.9008
 10
-25.9046
 20
30.9207
 10
-25.9835
 20
30.9604
 10
-26.0324
 20
30.9931
 10
-26.0779
 20
31.0304
 10
-26.1196
 20
31.0721
 10
-26.1569
 20
31.1176
 10
-26.1896
 20
31.1665
 10
-26.2293
 20
31.2454
 10
-26.2492
 20
31.3008
 10
-26.2635
 20
31.3579
 10
-26.2721
 20
31.4162
 10
-26.275
 20
31.475
 10
-26.2685
 20
31.563
 10
-26.257
 20
31.6208
 10
-26.2293
 20
31.7046
 10
-26.2042
 20
31.7578
 10
-26.1569
 20
31.8324
 10
-26.1196
 20
31.8779
 10
-26.0779
 20
31.9196
 10
-26.025
 20
31.9621
 10
-26.025
 20
44.2379
 10
-26.0779
 20
44.2804
 10
-26.1388
 20
44.3444
 10
-26.1739
 20
44.3917
 10
-26.2174
 20
44.4685
 10
-26.2492
 20
44.5508
 10
-26.2635
 20
44.6079
 10
-26.2743
 20
44.6956
 10
-26.2743
 20
44.7544
 10
-26.2635
 20
44.8421
 10
-26.2399
 20
44.9271
 10
-26.2042
 20
45.0078
 10
-26.1569
 20
45.0824
 10
-26.1196
 20
45.1279
 10
-26.0556
 20
45.1888
 10
-25.9835
 20
45.2396
 10
-25.9046
 20
45.2793
 10
-25.8208
 20
45.307
 10
-25.7338
 20
45.3221
 10
-25.675
 20
45.325
 10
-25.587
 20
45.3185
 10
-25.5292
 20
45.307
 10
-25.4454
 20
45.2793
 10
-25.3665
 20
45.2396
  0
LWPOLYLINE
  5
91
330
17
100
AcDbEntity
  8
CUT
100
AcDbPolyline
 90
123
 70
1
 10
-63.3944
 20
45.1888
 10
-63.3304
 20
45.1279
 10
-63.2879
 20
45.075
 10
-51.0121
 20
45.075
 10
-50.9696
 20
45.1279
 10
-50.9279
 20
45.1696
 10
-50.8583
 20
45.2239
 10
-50.8078
 20
45.2542
 10
-50.7546
 20
45.2793
 10
-50.6708
 20
45.307
 10
-50.5838
 20
45.3221
 10
-50.525
 20
45.325
 10
-50.4662
 20
45.3221
 10
-50.4079
 20
45.3135
 10
-50.3508
 20
45.2992
 10
-50.2954
 20
45.2793
 10
-50.2422
 20
45.2542
 10
-50.1917
 20
45.2239
 10
-50.1221
 20
45.1696
 10
-50.0804
 20
45.1279
 10
-50.0261
 20
45.0583
 10
-49.9958
 20
45.0078
 10
-49.9707
 20
44.9546
 10
-49.9508
 20
44.8992
 10
-49.9365
 20
44.8421
 10
-49.9279
 20
44.7838
 10
-49.925
 20
44.725
 10
-49.9279
 20
44.6662
 10
-49.943
 20
44.5792
 10
-49.9707
 20
44.4954
 10
-49.9958
 20
44.4422
 10
-50.0431
 20
44.3676
 10
-50.0804
 20
44.3221
 10
-50.1221
 20
44.2804
 10
-50.175
 20
44.2379
 10
-50.175
 20
31.9621
 10
-50.1221
 20
31.9196
 10
-50.0804
 20
31.8779
 10
-50.0261
 20
31.8083
 10
-49.9958
 20
31.7578
 10
-49.9707
 20
31.7046
 10
-49.943
 20
31.6208
 10
-49.9279
 20
31.5338
 10
-49.925
 20
31.475
 10
-49.9279
 20
31.4162
 10
-49.943
 20
31.3292
 10
-49.9601
 20
31.2729
 10
-49.9826
 20
31.2185
 10
-50.0104
 20
31.1665
 10
-50.0431
 20
31.1176
 10
-50.0804
 20
31.0721
 10
-50.1221
 20
31.0304
 10
-50.1917
 20
30.9761
 10
-50.2422
 20
30.9458
 10
-50.2954
 20
30.9207
 10
-50.3508
 20
30.9008
 10
-50.4079
 20
30.8865
 10
-50.4662
 20
30.8779
 10
-50.525
 20
30.875
 10
-50.613
 20
30.8815
 10
-50.6708
 20
30.893
 10
-50.7546
 20
30.9207
 10
-50.8078
 20
30.9458
 10
-50.8583
 20
30.9761
 10
-50.9279
 20
31.0304
 10
-50.9696
 20
31.0721
 10
-51.0121
 20
31.125
 10
-63.2879
 20
31.125
 10
-63.3304
 20
31.0721
 10
-63.3721
 20
31.0304
 10
-63.4417
 20
30.9761
 10
-63.4922
 20
30.9458
 10
-63.5454
 20
30.9207
 10
-63.6292
 20
30.893
 10
-63.687
 20
30.8815
 10
-63.775
 20
30.875
 10
-63.8338
 20
30.8779
 10
-63.8921
 20
30.8865
 10
-63.9492
 20
30.9008
 10
-64.0046
 20
30.9207
 10
-64.0578
 20
30.9458
 10
-64.1083
 20
30.9761
 10
-64.1779
 20
31.0304
 10
-64.2196
 20
31.0721
 10
-64.2569
 20
31.1176
 10
-64.2896
 20
31.1665
 10
-64.3293
 20
31.2454
 10
-64.3492
 20
31.3008
 10
-64.3635
 20
31.3579
 10
-64.3721
 20
31.4162
 10
-64.375
 20
31.475
 10
-64.3721
 20
31.5338
 10
-64.357
 20
31.6208
 10
-64.3399
 20
31.6771
 10
-64.3042
 20
31.7578
 10
-64.2739
 20
31.8083
 10
-64.2196
 20
31.8779
 10
-64.1779
 20
31.9196
 10
-64.125
 20
31.9621
 10
-64.125
 20
44.2379
 10
-64.1779
 20
44.2804
 10
-64.2388
 20
44.3444
 10
-64.2739
 20
44.3917
 10
-64.3174
 20
44.4685
 10
-64.3492
 20
44.5508
 10
-64.3635
 20
44.6079
 10
-64.3721
 20
44.6662
 10
-64.3743
 20
44.7544
 10
-64.3685
 20
44.813
 10
-64.3492
 20
44.8992
 10
-64.3174
 20
44.9815
 10
-64.2739
 20
45.0583
 10
-64.2196
 20
45.1279
 10
-64.1556
 20
45.1888
 10
-64.0835
 20
45.2396
 10
-64.0046
 20
45.2793
 10
-63.9208
 20
45.307
 10
-63.8338
 20
45.3221
 10
-63.775
 20
45.325
 10
-63.687
 20
45.3185
 10
-63.6292
 20
45.307
 10
-63.5454
 20
45.2793
 10
-63.4665
 20
45.2396
  0
LWPOLYLINE
  5
92
330
17
100
AcDbEntity
  8
CUT
100
AcDbPolyline
 90
123
 70
1
 10
-44.3221
 20
45.1696
 10
-44.2804
 20
45.1279
 10
-44.2379
 20
45.075
 10
-31.9621
 20
45.075
 10
-31.9196
 20
45.1279
 10
-31.8779
 20
45.1696
 10
-31.8083
 20
45.2239
 10
-31.7578
 20
45.2542
 10
-31.7046
 20
45.2793
 10
-31.6208
 20
45.307
 10
-31.5338
 20
45.3221
 10
-31.475
 20
45.325
 10
-31.4162
 20
45.3221
 10
-31.3579
 20
45.3135
 10
-31.3008
 20
45.2992
 10
-31.2454
 20
45.2793
 10
-31.1922
 20
45.2542
 10
-31.1417
 20
45.2239
 10
-31.0721
 20
45.1696
 10
-31.0304
 20
45.1279
 10
-30.9761
 20
45.0583
 10
-30.9458
 20
45.0078
 10
-30.9207
 20
44.9546
 10
-30.9008
 20
44.8992
 10
-30.8865
 20
44.8421
 10
-30.8779
 20
44.7838
 10
-30.875
 20
44.725
 10
-30.8815
 20
44.637
 10
-30.893
 20
44.5792
 10
-30.9207
 20
44.4954
 10
-30.9458
 20
44.4422
 10
-30.9931
 20
44.3676
 10
-31.0304
 20
44.3221
 10
-31.0721
 20
44.2804
 10
-31.125
 20
44.2379
 10
-31.125
 20
31.9621
 10
-31.0721
 20
31.9196
 10
-31.0304
 20
31.8779
 10
-30.9931
 20
31.8324
 10
-30.9458
 20
31.7578
 10
-30.9207
 20
31.7046
 10
-30.893
 20
31.6208
 10
-30.8815
 20
31.563
 10
-30.875
 20
31.475
 10
-30.8815
 20
31.387
 10
-30.893
 20
31.3292
 10
-30.9101
 20
31.2729
 10
-30.9326
 20
31.2185
 10
-30.9604
 20
31.1665
 10
-30.9931
 20
31.1176
 10
-31.0304
 20
31.0721
 10
-31.0721
 20
31.0304
 10
-31.1176
 20
30.9931
 10
-31.1665
 20
30.9604
 10
-31.2454
 20
30.9207
 10
-31.3008
 20
30.9008
 10
-31.3579
 20
30.8865
 10
-31.4162
 20
30.8779
 10
-31.475
 20
30.875
 10
-31.563
 20
30.8815
 10
-31.6208
 20
30.893
 10
-31.7046
 20
30.9207
 10
-31.7578
 20
30.9458
 10
-31.8324
 20
30.9931
 10
-31.8779
 20
31.0304
 10
-31.9196
 20
31.0721
 10
-31.9621
 20
31.125
 10
-44.2379
 20
31.125
 10
-44.2804
 20
31.0721
 10
-44.3221
 20
31.0304
 10
-44.3676
 20
30.9931
 10
-44.4422
 20
30.9458
 10
-44.4954
 20
30.9207
 10
-44.5792
 20
30.893
 10
-44.637
 20
30.8815
 10
-44.725
 20
30.875
 10
-44.7838
 20
30.8779
 10
-44.8421
 20
30.8865
 10
-44.8992
 20
30.9008
 10
-44.9546
 20
30.9207
 10
-45.0078
 20
30.9458
 10
-45.0824
 20
30.9931
 10
-45.1279
 20
31.0304
 10
-45.1696
 20
31.0721
 10
-45.2069
 20
31.1176
 10
-45.2396
 20
31.1665
 10
-45.2793
 20
31.2454
 10
-45.2992
 20
31.3008
 10
-45.3135
 20
31.3579
 10
-45.3221
 20
31.4162
 10
-45.325
 20
31.475
 10
-45.3221
 20
31.5338
 10
-45.307
 20
31.6208
 10
-45.2793
 20
31.7046
 10
-45.2542
 20
31.7578
 10
-45.2239
 20
31.8083
 10
-45.1696
 20
31.8779
 10
-45.1279
 20
31.9196
 10
-45.075
 20
31.9621
 10
-45.075
 20
44.2379
 10
-45.1279
 20
44.2804
 10
-45.1888
 20
44.3444
 10
-45.2239
 20
44.3917
 10
-45.2674
 20
44.4685
 10
-45.2992
 20
44.5508
 10
-45.3135
 20
44.6079
 10
-45.3243
 20
44.6956
 10
-45.3243
 20
44.7544
 10
-45.3135
 20
44.8421
 10
-45.2899
 20
44.9271
 10
-45.2542
 20
45.0078
 10
-45.2069
 20
45.0824
 10
-45.1493
 20
45.1493
 10
-45.1056
 20
45.1888
 10
-45.0335
 20
45.2396
 10
-44.9546
 20
45.2793
 10
-44.8708
 20
45.307
 10
-44.7838
 20
45.3221
 10
-44.6956
 20
45.3243
 10
-44.6079
 20
45.3135
 10
-44.5229
 20
45.2899
 10
-44.4422
 20
45.2542
 10
-44.3917
 20
45.2239
  0
LWPOLYLINE
  5
93
330
17
100
AcDbEntity
  8
CUT
100
AcDbPolyline
 90
123
 70
1
 10
-63.3194
 20
26.0638
 10
-63.2554
 20
26.0029
 10
-63.2129
 20
25.95
 10
-51.0871
 20
25.95
 10
-51.0446
 20
26.0029
 10
-51.0029
 20
26.0446
 10
-50.9574
 20
26.0819
 10
-50.8828
 20
26.1292
 10
-50.8296
 20
26.1543
 10
-50.7458
 20
26.182
 10
-50.688
 20
26.1935
 10
-50.6
 20
26.2
 10
-50.5412
 20
26.1971
 10
-50.4829
 20
26.1885
 10
-50.4258
 20
26.1742
 10
-50.3704
 20
26.1543
 10
-50.2915
 20
26.1146
 10
-50.2426
 20
26.0819
 10
-50.1971
 20
26.0446
 10
-50.1554
 20
26.0029
 10
-50.1181
 20
25.9574
 10
-50.0854
 20
25.9085
 10
-50.0576
 20
25.8565
 10
-50.0351
 20
25.8021
 10
-50.018
 20
25.7458
 10
-50.0065
 20
25.688
 10
-50.0
 20
25.6
 10
-50.0029
 20
25.5412
 10
-50.018
 20
25.4542
 10
-50.0351
 20
25.3979
 10
-50.0708
 20
25.3172
 10
-50.1011
 20
25.2667
 10
-50.1554
 20
25.1971
 10
-50.1971
 20
25.1554
 10
-50.25
 20
25.1129
 10
-50.25
 20
12.9871
 10
-50.1971
 20
12.9446
 10
-50.1554
 20
12.9029
 10
-50.1011
 20
12.8333
 10
-50.0708
 20
12.7828
 10
-50.0351
 20
12.7021
 10
-50.018
 20
12.6458
 10
-50.0029
 20
12.5588
 10
-50.0
 20
12.5
 10
-50.0029
 20
12.4412
 10
-50.018
 20
12.3542
 10
-50.0351
 20
12.2979
 10
-50.0576
 20
12.2435
 10
-50.0854
 20
12.1915
 10
-50.1181
 20
12.1426
 10
-50.1554
 20
12.0971
 10
-50.1971
 20
12.0554
 10
-50.2426
 20
12.0181
 10
-50.2915
 20
11.9854
 10
-50.3704
 20
11.9457
 10
-50.4258
 20
11.9258
 10
-50.4829
 20
11.9115
 10
-50.5412
 20
11.9029
 10
-50.6
 20
11.9
 10
-50.688
 20
11.9065
 10
-50.7458
 20
11.918
 10
-50.8296
 20
11.9457
 10
-50.8828
 20
11.9708
 10
-50.9574
 20
12.0181
 10
-51.0029
 20
12.0554
 10
-51.0446
 20
12.0971
 10
-51.0871
 20
12.15
 10
-63.2129
 20
12.15
 10
-63.2554
 20
12.0971
 10
-63.2971
 20
12.0554
 10
-63.3426
 20
12.0181
 10
-63.4172
 20
11.9708
 10
-63.4704
 20
11.9457
 10
-63.5542
 20
11.918
 10
-63.612
 20
11.9065
 10
-63.7
 20
11.9
 10
-63.7588
 20
11.9029
 10
-63.8171
 20
11.9115
 10
-63.8742
 20
11.9258
 10
-63.9296
 20
11.9457
 10
-63.9828
 20
11.9708
 10
-64.0574
 20
12.0181
 10
-64.1029
 20
12.0554
 10
-64.1446
 20
12.0971
 10
-64.1819
 20
12.1426
 10
-64.2146
 20
12.1915
 10
-64.2543
 20
12.2704
 10
-64.2742
 20
12.3258
 10
-64.2885
 20
12.3829
 10
-64.2971
 20
12.4412
 10
-64.3
 20
12.5
 10
-64.2971
 20
12.5588
 10
-64.282
 20
12.6458
 10
-64.2543
 20
12.7296
 10
-64.2292
 20
12.7828
 10
-64.1989
 20
12.8333
 10
-64.1446
 20
12.9029
 10
-64.1029
 20
12.9446
 10
-64.05
 20
12.9871
 10
-64.05
 20
25.1129
 10
-64.1029
 20
25.1554
 10
-64.1638
 20
25.2194
 10
-64.2146
 20
25.2915
 10
-64.2424
 20
25.3435
 10
-64.2742
 20
25.4258
 10
-64.2885
 20
25.4829
 10
-64.2971
 20
25.5412
 10
-64.2993
 20
25.6294
 10
-64.2935
 20
25.688
 10
-64.2742
 20
25.7742
 10
-64.2424
 20
25.8565
 10
-64.1989
 20
25.9333
 10
-64.1446
 20
26.0029
 10
-64.0806
 20
26.0638
 10
-64.0085
 20
26.1146
 10
-63.9296
 20
26.1543
 10
-63.8458
 20
26.182
 10
-63.788
 20
26.1935
 10
-63.7
 20
26.2
 10
-63.612
 20
26.1935
 10
-63.5542
 20
26.182
 10
-63.4704
 20
26.1543
 10
-63.3915
 20
26.1146
  0
LWPOLYLINE
  5
94
330
17
100
AcDbEntity
  8
CUT
100
AcDbPolyline
 90
123
 70
1
 10
-44.2694
 20
26.0638
 10
-44.2054
 20
26.0029
 10
-44.1629
 20
25.95
 10
-32.0371
 20
25.95
 10
-31.9946
 20
26.0029
 10
-31.9529
 20
26.0446
 10
-31.9074
 20
26.0819
 10
-31.8328
 20
26.1292
 10
-31.7796
 20
26.1543
 10
-31.6958
 20
26.182
 10
-31.638
 20
26.1935
 10
-31.55
 20
26.2
 10
-31.4912
 20
26.1971
 10
-31.4329
 20
26.1885
 10
-31.3758
 20
26.1742
 10
-31.3204
 20
26.1543
 10
-31.2415
 20
26.1146
 10
-31.1926
 20
26.0819
 10
-31.1471
 20
26.0446
 10
-31.1054
 20
26.0029
 10
-31.0681
 20
25.9574
 10
-31.0354
 20
25.9085
 10
-30.9957
 20
25.8296
 10
-30.9758
 20
25.7742
 10
-30.9615
 20
25.7171
 10
-30.9529
 20
25.6588
 10
-30.95
 20
25.6
 10
-30.9565
 20
25.512
 10
-30.968
 20
25.4542
 10
-30.9957
 20
25.3704
 10
-31.0208
 20
25.3172
 10
-31.0681
 20
25.2426
 10
-31.1054
 20
25.1971
 10
-31.1471
 20
25.1554
 10
-31.2
 20
25.1129
 10
-31.2
 20
12.9871
 10
-31.1471
 20
12.9446
 10
-31.1054
 20
12.9029
 10
-31.0681
 20
12.8574
 10
-31.0208
 20
12.7828
 10
-30.9957
 20
12.7296
 10
-30.968
 20
12.6458
 10
-30.9565
 20
12.588
 10
-30.95
 20
12.5
 10
-30.9529
 20
12.4412
 10
-30.9615
 20
12.3829
 10
-30.9758
 20
12.3258
 10
-30.9957
 20
12.2704
 10
-31.0354
 20
12.1915
 10
-31.0681
 20
12.1426
 10
-31.1054
 20
12.0971
 10
-31.1471
 20
12.0554
 10
-31.1926
 20
12.0181
 10
-31.2415
 20
11.9854
 10
-31.3204
 20
11.9457
 10
-31.3758
 20
11.9258
 10
-31.4329
 20
11.9115
 10
-31.4912
 20
11.9029
 10
-31.55
 20
11.9
 10
-31.638
 20
11.9065
 10
-31.6958
 20
11.918
 10
-31.7796
 20
11.9457
 10
-31.8328
 20
11.9708
 10
-31.9074
 20
12.0181
 10
-31.9529
 20
12.0554
 10
-31.9946
 20
12.0971
 10
-32.0371
 20
12.15
 10
-44.1629
 20
12.15
 10
-44.2054
 20
12.0971
 10
-44.2471
 20
12.0554
 10
-44.2926
 20
12.0181
 10
-44.3672
 20
11.9708
 10
-44.4204
 20
11.9457
 10
-44.5042
 20
11.918
 10
-44.562
 20
11.9065
 10
-44.65
 20
11.9
 10
-44.7088
 20
11.9029
 10
-44.7671
 20
11.9115
 10
-44.8242
 20
11.9258
 10
-44.8796
 20
11.9457
 10
-44.9585
 20
11.9854
 10
-45.0074
 20
12.0181
 10
-45.0529
 20
12.0554
 10
-45.0946
 20
12.0971
 10
-45.1319
 20
12.1426
 10
-45.1646
 20
12.1915
 10
-45.1924
 20
12.2435
 10
-45.2149
 20
12.2979
 10
-45.2385
 20
12.3829
 10
-45.2471
 20
12.4412
 10
-45.25
 20
12.5
 10
-45.2471
 20
12.5588
 10
-45.232
 20
12.6458
 10
-45.2149
 20
12.7021
 10
-45.1792
 20
12.7828
 10
-45.1489
 20
12.8333
 10
-45.0946
 20
12.9029
 10
-45.0529
 20
12.9446
 10
-45.0
 20
12.9871
 10
-45.0
 20
25.1129
 10
-45.0529
 20
25.1554
 10
-45.1138
 20
25.2194
 10
-45.1489
 20
25.2667
 10
-45.1924
 20
25.3435
 10
-45.2149
 20
25.3979
 10
-45.2385
 20
25.4829
 10
-45.2493
 20
25.5706
 10
-45.2493
 20
25.6294
 10
-45.2385
 20
25.7171
 10
-45.2149
 20
25.8021
 10
-45.1924
 20
25.8565
 10
-45.1489
 20
25.9333
 10
-45.0946
 20
26.0029
 10
-45.0306
 20
26.0638
 10
-44.9585
 20
26.1146
 10
-44.8796
 20
26.1543
 10
-44.7958
 20
26.182
 10
-44.738
 20
26.1935
 10
-44.65
 20
26.2
 10
-44.562
 20
26.1935
 10
-44.5042
 20
26.182
 10
-44.4204
 20
26.1543
 10
-44.3415
 20
26.1146
  0
LWPOLYLINE
  5
95
330
17
100
AcDbEntity
  8
CUT
100
AcDbPolyline
 90
4
 70
1
 10
-64.15
 20
7.0
 10
-50.15
 20
7.0
 10
-50.15
 20
-7.0
 10
-64.15
 20
-7.0
  0
LWPOLYLINE
  5
96
330
17
100
AcDbEntity
  8
CUT
100
AcDbPolyline
 90
4
 70
1
 10
-25.95
 20
6.9
 10
-12.15
 20
6.9
 10
-12.15
 20
-6.9
 10
-25.95
 20
-6.9
  0
LWPOLYLINE
  5
97
330
17
100
AcDbEntity
  8
CUT
100
AcDbPolyline
 90
4
 70
1
 10
-45.075
 20
6.975
 10
-31.125
 20
6.975
 10
-31.125
 20
-6.975
 10
-45.075
 20
-6.975
  0
LWPOLYLINE
  5
98
330
17
100
AcDbEntity
  8
CUT
100
AcDbPolyline
 90
287
 70
1
 10
-53.9417
 20
-11.9011
 10
-53.8944
 20
-11.9362
 10
-53.8507
 20
-11.9757
 10
-53.7879
 20
-12.05
 10
-41.4621
 20
-12.05
 10
-41.3993
 20
-11.9757
 10
-41.3556
 20
-11.9362
 10
-41.3083
 20
-11.9011
 10
-41.2315
 20
-11.8576
 10
-41.1771
 20
-11.8351
 10
-41.1208
 20
-11.818
 10
-41.0338
 20
-11.8029
 10
-40.975
 20
-11.8
 10
-40.9162
 20
-11.8029
 10
-40.8579
 20
-11.8115
 10
-40.8008
 20
-11.8258
 10
-40.7454
 20
-11.8457
 10
-40.6922
 20
-11.8708
 10
-40.6176
 20
-11.9181
 10
-40.5507
 20
-11.9757
 10
-40.4931
 20
-12.0426
 10
-40.4604
 20
-12.0915
 10
-40.4207
 20
-12.1704
 10
-40.393
 20
-12.2542
 10
-40.3815
 20
-12.312
 10
-40.375
 20
-12.4
 10
-40.3815
 20
-12.488
 10
-40.393
 20
-12.5458
 10
-40.4207
 20
-12.6296
 10
-40.4458
 20
-12.6828
 10
-40.4931
 20
-12.7574
 10
-40.5304
 20
-12.8029
 10
-40.5721
 20
-12.8446
 10
-40.625
 20
-12.8871
 10
-40.625
 20
-19.2
 10
-38.625
 20
-19.2
 10
-38.6244
 20
-13.8755
 10
-38.6196
 20
-13.8266
 10
-38.61
 20
-13.7785
 10
-38.5958
 20
-13.7316
 10
-38.566
 20
-13.6643
 10
-38.5407
 20
-13.6222
 10
-38.4955
 20
-13.5642
 10
-38.4608
 20
-13.5295
 10
-38.4228
 20
-13.4984
 10
-38.3821
 20
-13.4711
 10
-38.3388
 20
-13.448
 10
-38.2701
 20
-13.4215
 10
-38.1984
 20
-13.4054
 10
-38.125
 20
-13.4
 10
-33.125
 20
-13.4
 10
-33.0516
 20
-13.4054
 10
-32.9799
 20
-13.4215
 10
-32.9112
 20
-13.448
 10
-32.8472
 20
-13.4843
 10
-32.8078
 20
-13.5135
 10
-32.7545
 20
-13.5642
 10
-32.7093
 20
-13.6222
 10
-32.684
 20
-13.6643
 10
-32.6542
 20
-13.7316
 10
-32.64
 20
-13.7785
 10
-32.6304
 20
-13.8266
 10
-32.625
 20
-13.9
 10
-32.625
 20
-25.4
 10
-32.6304
 20
-25.4734
 10
-32.6465
 20
-25.5451
 10
-32.673
 20
-25.6138
 10
-32.7093
 20
-25.6778
 10
-32.7385
 20
-25.7172
 10
-32.7714
 20
-25.7536
 10
-32.8078
 20
-25.7865
 10
-32.8679
 20
-25.8289
 10
-32.9337
 20
-25.8619
 10
-32.9799
 20
-25.8785
 10
-33.0275
 20
-25.8904
 10
-33.076
 20
-25.8976
 10
-33.125
 20
-25.9
 10
-34.775
 20
-25.9
 10
-34.775
 20
-26.6
 10
-34.7804
 20
-26.6734
 10
-34.79
 20
-26.7215
 10
-34.8042
 20
-26.7684
 10
-34.823
 20
-26.8138
 10
-34.8461
 20
-26.8571
 10
-34.8734
 20
-26.8978
 10
-34.9045
 20
-26.9358
 10
-34.9578
 20
-26.9865
 10
-34.9972
 20
-27.0157
 10
-35.0393
 20
-27.041
 10
-35.1066
 20
-27.0708
 10
-35.1775
 20
-27.0904
 10
-35.2505
 20
-27.0994
 10
-35.9995
 20
-27.0994
 10
-36.0484
 20
-27.0946
 10
-36.0965
 20
-27.085
 10
-36.1434
 20
-27.0708
 10
-36.1888
 20
-27.052
 10
-36.2321
 20
-27.0289
 10
-36.2728
 20
-27.0016
 10
-36.3108
 20
-26.9705
 10
-36.3615
 20
-26.9172
 10
-36.3907
 20
-26.8778
 10
-36.427
 20
-26.8138
 10
-36.4458
 20
-26.7684
 10
-36.46
 20
-26.7215
 10
-36.4696
 20
-26.6734
 10
-36.475
 20
-26.6
 10
-36.475
 20
-25.9
 10
-38.125
 20
-25.9
 10
-38.1984
 20
-25.8946
 10
-38.2465
 20
-25.885
 10
-38.3163
 20
-25.8619
 10
-38.3821
 20
-25.8289
 10
-38.4228
 20
-25.8016
 10
-38.4786
 20
-25.7536
 10
-38.5115
 20
-25.7172
 10
-38.5407
 20
-25.6778
 10
-38.577
 20
-25.6138
 10
-38.5958
 20
-25.5684
 10
-38.6154
 20
-25.4975
 10
-38.6226
 20
-25.449
 10
-38.625
 20
-25.4
 10
-38.625
 20
-21.7
 10
-40.625
 20
-21.7
 10
-40.625
 20
-25.2129
 10
-40.5721
 20
-25.2554
 10
-40.5112
 20
-25.3194
 10
-40.4604
 20
-25.3915
 10
-40.4326
 20
-25.4435
 10
-40.4101
 20
-25.4979
 10
-40.3865
 20
-25.5829
 10
-40.3757
 20
-25.6706
 10
-40.3757
 20
-25.7294
 10
-40.3865
 20
-25.8171
 10
-40.4101
 20
-25.9021
 10
-40.4458
 20
-25.9828
 10
-40.4931
 20
-26.0574
 10
-40.5507
 20
-26.1243
 10
-40.6176
 20
-26.1819
 10
-40.6922
 20
-26.2292
 10
-40.7729
 20
-26.2649
 10
-40.8579
 20
-26.2885
 10
-40.9456
 20
-26.2993
 10
-41.0338
 20
-26.2971
 10
-41.0921
 20
-26.2885
 10
-41.1492
 20
-26.2742
 10
-41.2046
 20
-26.2543
 10
-41.2578
 20
-26.2292
 10
-41.3324
 20
-26.1819
 10
-41.3993
 20
-26.1243
 10
-41.4621
 20
-26.05
 10
-53.7879
 20
-26.05
 10
-53.8304
 20
-26.1029
 10
-53.8944
 20
-26.1638
 10
-53.9665
 20
-26.2146
 10
-54.0454
 20
-26.2543
 10
-54.1292
 20
-26.282
 10
-54.2162
 20
-26.2971
 10
-54.3044
 20
-26.2993
 10
-54.363
 20
-26.2935
 10
-54.4208
 20
-26.282
 10
-54.4771
 20
-26.2649
 10
-54.5578
 20
-26.2292
 10
-54.6083
 20
-26.1989
 10
-54.6556
 20
-26.1638
 10
-54.7196
 20
-26.1029
 10
-54.7569
 20
-26.0574
 10
-54.7896
 20
-26.0085
 10
-54.8293
 20
-25.9296
 10
-54.857
 20
-25.8458
 10
-54.8685
 20
-25.788
 10
-54.8743
 20
-25.7294
 10
-54.8743
 20
-25.6706
 10
-54.8635
 20
-25.5829
 10
-54.8399
 20
-25.4979
 10
-54.8174
 20
-25.4435
 10
-54.7896
 20
-25.3915
 10
-54.7388
 20
-25.3194
 10
-54.6779
 20
-25.2554
 10
-54.625
 20
-25.2129
 10
-54.625
 20
-21.7
 10
-56.625
 20
-21.7
 10
-56.6256
 20
-25.4245
 10
-56.6304
 20
-25.4734
 10
-56.64
 20
-25.5215
 10
-56.6542
 20
-25.5684
 10
-56.684
 20
-25.6357
 10
-56.7093
 20
-25.6778
 10
-56.7545
 20
-25.7358
 10
-56.7892
 20
-25.7705
 10
-56.8272
 20
-25.8016
 10
-56.8893
 20
-25.841
 10
-56.9566
 20
-25.8708
 10
-57.0275
 20
-25.8904
 10
-57.1005
 20
-25.8994
 10
-58.775
 20
-25.9
 10
-58.7756
 20
-26.6245
 10
-58.7846
 20
-26.6975
 10
-58.7965
 20
-26.7451
 10
-58.8131
 20
-26.7913
 10
-58.8461
 20
-26.8571
 10
-58.8885
 20
-26.9172
 10
-58.9392
 20
-26.9705
 10
-58.9972
 20
-27.0157
 10
-59.0612
 20
-27.052
 10
-59.1299
 20
-27.0785
 10
-59.2016
 20
-27.0946
 10
-59.275
 20
-27.1
 10
-59.975
 20
-27.1
 10
-60.0484
 20
-27.0946
 10
-60.1201
 20
-27.0785
 10
-60.1888
 20
-27.052
 10
-60.2321
 20
-27.0289
 10
-60.2728
 20
-27.0016
 10
-60.3286
 20
-26.9536
 10
-60.3766
 20
-26.8978
 10
-60.4039
 20
-26.8571
 10
-60.427
 20
-26.8138
 10
-60.4535
 20
-26.7451
 10
-60.4696
 20
-26.6734
 10
-60.475
 20
-26.6
 10
-60.475
 20
-25.9
 10
-62.1495
 20
-25.8994
 10
-62.1984
 20
-25.8946
 10
-62.2701
 20
-25.8785
 10
-62.3388
 20
-25.852
 10
-62.4028
 20
-25.8157
 10
-62.4422
 20
-25.7865
 10
-62.4955
 20
-25.7358
 10
-62.5407
 20
-25.6778
 10
-62.566
 20
-25.6357
 10
-62.5958
 20
-25.5684
 10
-62.61
 20
-25.5215
 10
-62.6196
 20
-25.4734
 10
-62.625
 20
-25.4
 10
-62.625
 20
-13.9
 10
-62.6196
 20
-13.8266
 10
-62.61
 20
-13.7785
 10
-62.5869
 20
-13.7087
 10
-62.5539
 20
-13.6429
 10
-62.5266
 20
-13.6022
 10
-62.4786
 20
-13.5464
 10
-62.4422
 20
-13.5135
 10
-62.3821
 20
-13.4711
 10
-62.3163
 20
-13.4381
 10
-62.2701
 20
-13.4215
 10
-62.1984
 20
-13.4054
 10
-62.1495
 20
-13.4006
 10
-57.125
 20
-13.4
 10
-57.0516
 20
-13.4054
 10
-56.9799
 20
-13.4215
 10
-56.9112
 20
-13.448
 10
-56.8472
 20
-13.4843
 10
-56.8078
 20
-13.5135
 10
-56.7545
 20
-13.5642
 10
-56.7093
 20
-13.6222
 10
-56.684
 20
-13.6643
 10
-56.6542
 20
-13.7316
 10
-56.64
 20
-13.7785
 10
-56.6304
 20
-13.8266
 10
-56.6256
 20
-13.8755
 10
-56.625
 20
-19.2
 10
-54.625
 20
-19.2
 10
-54.625
 20
-12.8871
 10
-54.6779
 20
-12.8446
 10
-54.7388
 20
-12.7806
 10
-54.7896
 20
-12.7085
 10
-54.8174
 20
-12.6565
 10
-54.8492
 20
-12.5742
 10
-54.8685
 20
-12.488
 10
-54.875
 20
-12.4
 10
-54.8721
 20
-12.3412
 10
-54.857
 20
-12.2542
 10
-54.8293
 20
-12.1704
 10
-54.8042
 20
-12.1172
 10
-54.7569
 20
-12.0426
 10
-54.7196
 20
-11.9971
 10
-54.6556
 20
-11.9362
 10
-54.5835
 20
-11.8854
 10
-54.5315
 20
-11.8576
 10
-54.4771
 20
-11.8351
 10
-54.3921
 20
-11.8115
 10
-54.3044
 20
-11.8007
 10
-54.2162
 20
-11.8029
 10
-54.1579
 20
-11.8115
 10
-54.0729
 20
-11.8351
 10
-54.0185
 20
-11.8576
  0
LWPOLYLINE
  5
99
330
17
100
AcDbEntity
  8
CUT
100
AcDbPolyline
 90
124
 70
1
 10
-12.0011
 20
-41.4083
 10
-12.0362
 20
-41.4556
 10
-12.0757
 20
-41.4993
 10
-12.15
 20
-41.5621
 10
-12.15
 20
-53.6879
 10
-12.0971
 20
-53.7304
 10
-12.0554
 20
-53.7721
 10
-12.0181
 20
-53.8176
 10
-11.9708
 20
-53.8922
 10
-11.9457
 20
-53.9454
 10
-11.918
 20
-54.0292
 10
-11.9065
 20
-54.087
 10
-11.9
 20
-54.175
 10
-11.9029
 20
-54.2338
 10
-11.9115
 20
-54.2921
 10
-11.9258
 20
-54.3492
 10
-11.9457
 20
-54.4046
 10
-11.9854
 20
-54.4835
 10
-12.0181
 20
-54.5324
 10
-12.0554
 20
-54.5779
 10
-12.0971
 20
-54.6196
 10
-12.1426
 20
-54.6569
 10
-12.1915
 20
-54.6896
 10
-12.2435
 20
-54.7174
 10
-12.2979
 20
-54.7399
 10
-12.3542
 20
-54.757
 10
-12.412
 20
-54.7685
 10
-12.5
 20
-54.775
 10
-12.5588
 20
-54.7721
 10
-12.6458
 20
-54.757
 10
-12.7021
 20
-54.7399
 10
-12.7828
 20
-54.7042
 10
-12.8333
 20
-54.6739
 10
-12.9029
 20
-54.6196
 10
-12.9446
 20
-54.5779
 10
-12.9871
 20
-54.525
 10
-25.1129
 20
-54.525
 10
-25.1554
 20
-54.5779
 10
-25.1971
 20
-54.6196
 10
-25.2667
 20
-54.6739
 10
-25.3172
 20
-54.7042
 10
-25.3979
 20
-54.7399
 10
-25.4542
 20
-54.757
 10
-25.5412
 20
-54.7721
 10
-25.6
 20
-54.775
 10
-25.6588
 20
-54.7721
 10
-25.7458
 20
-54.757
 10
-25.8021
 20
-54.7399
 10
-25.8565
 20
-54.7174
 10
-25.9085
 20
-54.6896
 10
-25.9574
 20
-54.6569
 10
-26.0029
 20
-54.6196
 10
-26.0446
 20
-54.5779
 10
-26.0819
 20
-54.5324
 10
-26.1146
 20
-54.4835
 10
-26.1543
 20
-54.4046
 10
-26.1742
 20
-54.3492
 10
-26.1885
 20
-54.2921
 10
-26.1971
 20
-54.2338
 10
-26.2
 20
-54.175
 10
-26.1935
 20
-54.087
 10
-26.182
 20
-54.0292
 10
-26.1543
 20
-53.9454
 10
-26.1292
 20
-53.8922
 10
-26.0819
 20
-53.8176
 10
-26.0446
 20
-53.7721
 10
-26.0029
 20
-53.7304
 10
-25.95
 20
-53.6879
 10
-25.95
 20
-41.5621
 10
-26.0029
 20
-41.5196
 10
-26.0446
 20
-41.4779
 10
-26.0819
 20
-41.4324
 10
-26.1292
 20
-41.3578
 10
-26.1543
 20
-41.3046
 10
-26.182
 20
-41.2208
 10
-26.1935
 20
-41.163
 10
-26.2
 20
-41.075
 10
-26.1971
 20
-41.0162
 10
-26.1885
 20
-40.9579
 10
-26.1742
 20
-40.9008
 10
-26.1543
 20
-40.8454
 10
-26.1146
 20
-40.7665
 10
-26.0819
 20
-40.7176
 10
-26.0446
 20
-40.6721
 10
-26.0029
 20
-40.6304
 10
-25.9574
 20
-40.5931
 10
-25.9085
 20
-40.5604
 10
-25.8565
 20
-40.5326
 10
-25.8021
 20
-40.5101
 10
-25.7458
 20
-40.493
 10
-25.688
 20
-40.4815
 10
-25.6
 20
-40.475
 10
-25.5412
 20
-40.4779
 10
-25.4542
 20
-40.493
 10
-25.3979
 20
-40.5101
 10
-25.3172
 20
-40.5458
 10
-25.2667
 20
-40.5761
 10
-25.1971
 20
-40.6304
 10
-25.1554
 20
-40.6721
 10
-25.1129
 20
-40.725
 10
-12.9871
 20
-40.725
 10
-12.9446
 20
-40.6721
 10
-12.8806
 20
-40.6112
 10
-12.8085
 20
-40.5604
 10
-12.7565
 20
-40.5326
 10
-12.6742
 20
-40.5008
 10
-12.6171
 20
-40.4865
 10
-12.5588
 20
-40.4779
 10
-12.4706
 20
-40.4757
 10
-12.412
 20
-40.4815
 10
-12.3258
 20
-40.5008
 10
-12.2435
 20
-40.5326
 10
-12.1915
 20
-40.5604
 10
-12.1194
 20
-40.6112
 10
-12.0554
 20
-40.6721
 10
-12.0181
 20
-40.7176
 10
-11.9708
 20
-40.7922
 10
-11.9351
 20
-40.8729
 10
-11.9115
 20
-40.9579
 10
-11.9007
 20
-41.0456
 10
-11.9007
 20
-41.1044
 10
-11.9065
 20
-41.163
 10
-11.9258
 20
-41.2492
 10
-11.9576
 20
-41.3315
  0
LWPOLYLINE
  5
9A
330
17
100
AcDbEntity
  8
CUT
100
AcDbPolyline
 90
124
 70
1
 10
-30.9761
 20
-41.3333
 10
-31.0112
 20
-41.3806
 10
-31.0507
 20
-41.4243
 10
-31.125
 20
-41.4871
 10
-31.125
 20
-53.7629
 10
-31.0721
 20
-53.8054
 10
-31.0304
 20
-53.8471
 10
-30.9761
 20
-53.9167
 10
-30.9458
 20
-53.9672
 10
-30.9207
 20
-54.0204
 10
-30.893
 20
-54.1042
 10
-30.8815
 20
-54.162
 10
-30.875
 20
-54.25
 10
-30.8779
 20
-54.3088
 10
-30.8865
 20
-54.3671
 10
-30.9008
 20
-54.4242
 10
-30.9207
 20
-54.4796
 10
-30.9458
 20
-54.5328
 10
-30.9761
 20
-54.5833
 10
-31.0112
 20
-54.6306
 10
-31.0721
 20
-54.6946
 10
-31.1176
 20
-54.7319
 10
-31.1665
 20
-54.7646
 10
-31.2454
 20
-54.8043
 10
-31.3008
 20
-54.8242
 10
-31.3579
 20
-54.8385
 10
-31.4162
 20
-54.8471
 10
-31.475
 20
-54.85
 10
-31.5338
 20
-54.8471
 10
-31.6208
 20
-54.832
 10
-31.7046
 20
-54.8043
 10
-31.7578
 20
-54.7792
 10
-31.8083
 20
-54.7489
 10
-31.8779
 20
-54.6946
 10
-31.9196
 20
-54.6529
 10
-31.9621
 20
-54.6
 10
-44.2379
 20
-54.6
 10
-44.2804
 20
-54.6529
 10
-44.3221
 20
-54.6946
 10
-44.3676
 20
-54.7319
 10
-44.4422
 20
-54.7792
 10
-44.4954
 20
-54.8043
 10
-44.5792
 20
-54.832
 10
-44.6662
 20
-54.8471
 10
-44.725
 20
-54.85
 10
-44.7838
 20
-54.8471
 10
-44.8421
 20
-54.8385
 10
-44.8992
 20
-54.8242
 10
-44.9546
 20
-54.8043
 10
-45.0078
 20
-54.7792
 10
-45.0583
 20
-54.7489
 10
-45.1056
 20
-54.7138
 10
-45.1696
 20
-54.6529
 10
-45.2239
 20
-54.5833
 10
-45.2542
 20
-54.5328
 10
-45.2793
 20
-54.4796
 10
-45.2992
 20
-54.4242
 10
-45.3135
 20
-54.3671
 10
-45.3221
 20
-54.3088
 10
-45.325
 20
-54.25
 10
-45.3221
 20
-54.1912
 10
-45.307
 20
-54.1042
 10
-45.2793
 20
-54.0204
 10
-45.2542
 20
-53.9672
 10
-45.2239
 20
-53.9167
 10
-45.1696
 20
-53.8471
 10
-45.1279
 20
-53.8054
 10
-45.075
 20
-53.7629
 10
-45.075
 20
-41.4871
 10
-45.1279
 20
-41.4446
 10
-45.1696
 20
-41.4029
 10
-45.2239
 20
-41.3333
 10
-45.2542
 20
-41.2828
 10
-45.2793
 20
-41.2296
 10
-45.307
 20
-41.1458
 10
-45.3221
 20
-41.0588
 10
-45.325
 20
-41.0
 10
-45.3221
 20
-40.9412
 10
-45.3135
 20
-40.8829
 10
-45.2992
 20
-40.8258
 10
-45.2793
 20
-40.7704
 10
-45.2542
 20
-40.7172
 10
-45.2239
 20
-40.6667
 10
-45.1888
 20
-40.6194
 10
-45.1279
 20
-40.5554
 10
-45.0583
 20
-40.5011
 10
-45.0078
 20
-40.4708
 10
-44.9546
 20
-40.4457
 10
-44.8992
 20
-40.4258
 10
-44.8421
 20
-40.4115
 10
-44.7838
 20
-40.4029
 10
-44.725
 20
-40.4
 10
-44.6662
 20
-40.4029
 10
-44.5792
 20
-40.418
 10
-44.4954
 20
-40.4457
 10
-44.4422
 20
-40.4708
 10
-44.3676
 20
-40.5181
 10
-44.3221
 20
-40.5554
 10
-44.2804
 20
-40.5971
 10
-44.2379
 20
-40.65
 10
-31.9621
 20
-40.65
 10
-31.9196
 20
-40.5971
 10
-31.8556
 20
-40.5362
 10
-31.7835
 20
-40.4854
 10
-31.7315
 20
-40.4576
 10
-31.6771
 20
-40.4351
 10
-31.5921
 20
-40.4115
 10
-31.5044
 20
-40.4007
 10
-31.4456
 20
-40.4007
 10
-31.3579
 20
-40.4115
 10
-31.3008
 20
-40.4258
 10
-31.2454
 20
-40.4457
 10
-31.1665
 20
-40.4854
 10
-31.0944
 20
-40.5362
 10
-31.0304
 20
-40.5971
 10
-30.9761
 20
-40.6667
 10
-30.9458
 20
-40.7172
 10
-30.9207
 20
-40.7704
 10
-30.893
 20
-40.8542
 10
-30.8779
 20
-40.9412
 10
-30.8757
 20
-41.0294
 10
-30.8815
 20
-41.088
 10
-30.9008
 20
-41.1742
 10
-30.9326
 20
-41.2565
  0
LWPOLYLINE
  5
9B
330
17
100
AcDbEntity
  8
CUT
100
AcDbPolyline
 90
170
 70
1
 10
-34.4983
 20
-32.9816
 10
-34.4841
 20
-33.0285
 10
-34.4745
 20
-33.0766
 10
-34.4691
 20
-33.15
 10
-34.4697
 20
-38.1245
 10
-34.4745
 20
-38.1734
 10
-34.4906
 20
-38.2451
 10
-34.5171
 20
-38.3138
 10
-34.5534
 20
-38.3778
 10
-34.5986
 20
-38.4358
 10
-34.6519
 20
-38.4865
 10
-34.712
 20
-38.5289
 10
-34.7778
 20
-38.5619
 10
-34.824
 20
-38.5785
 10
-34.8716
 20
-38.5904
 10
-34.9201
 20
-38.5976
 10
-34.9691
 20
-38.6
 10
-41.9436
 20
-38.5994
 10
-41.9925
 20
-38.5946
 10
-42.0642
 20
-38.5785
 10
-42.1329
 20
-38.552
 10
-42.1762
 20
-38.5289
 10
-42.2363
 20
-38.4865
 10
-42.2727
 20
-38.4536
 10
-42.3056
 20
-38.4172
 10
-42.3348
 20
-38.3778
 10
-42.3601
 20
-38.3357
 10
-42.381
 20
-38.2913
 10
-42.3976
 20
-38.2451
 10
-42.4095
 20
-38.1975
 10
-42.4185
 20
-38.1245
 10
-42.4191
 20
-37.9
 10
-45.6809
 20
-37.9
 10
-45.6809
 20
-57.35
 10
-42.4191
 20
-57.35
 10
-42.4185
 20
-57.1255
 10
-42.4095
 20
-57.0525
 10
-42.3976
 20
-57.0049
 10
-42.381
 20
-56.9587
 10
-42.3601
 20
-56.9143
 10
-42.3348
 20
-56.8722
 10
-42.3056
 20
-56.8328
 10
-42.2727
 20
-56.7964
 10
-42.2363
 20
-56.7635
 10
-42.1762
 20
-56.7211
 10
-42.1329
 20
-56.698
 10
-42.0642
 20
-56.6715
 10
-41.9925
 20
-56.6554
 10
-41.9436
 20
-56.6506
 10
-34.9691
 20
-56.65
 10
-34.9201
 20
-56.6524
 10
-34.8716
 20
-56.6596
 10
-34.824
 20
-56.6715
 10
-34.7553
 20
-56.698
 10
-34.6913
 20
-56.7343
 10
-34.6333
 20
-56.7795
 10
-34.5986
 20
-56.8142
 10
-34.5534
 20
-56.8722
 10
-34.5171
 20
-56.9362
 10
-34.4906
 20
-57.0049
 10
-34.4745
 20
-57.0766
 10
-34.4697
 20
-57.1255
 10
-34.4691
 20
-62.1
 10
-34.4715
 20
-62.149
 10
-34.4787
 20
-62.1975
 10
-34.4906
 20
-62.2451
 10
-34.5171
 20
-62.3138
 10
-34.5534
 20
-62.3778
 10
-34.5986
 20
-62.4358
 10
-34.6333
 20
-62.4705
 10
-34.6913
 20
-62.5157
 10
-34.7553
 20
-62.552
 10
-34.824
 20
-62.5785
 10
-34.8957
 20
-62.5946
 10
-34.9446
 20
-62.5994
 10
-41.9436
 20
-62.5994
 10
-41.9925
 20
-62.5946
 10
-42.0642
 20
-62.5785
 10
-42.1329
 20
-62.552
 10
-42.1762
 20
-62.5289
 10
-42.2363
 20
-62.4865
 10
-42.2727
 20
-62.4536
 10
-42.3056
 20
-62.4172
 10
-42.3348
 20
-62.3778
 10
-42.3601
 20
-62.3357
 10
-42.381
 20
-62.2913
 10
-42.3976
 20
-62.2451
 10
-42.4095
 20
-62.1975
 10
-42.4185
 20
-62.1245
 10
-42.4191
 20
-61.9
 10
-47.4809
 20
-61.9
 10
-47.5543
 20
-61.8946
 10
-47.6024
 20
-61.885
 10
-47.6493
 20
-61.8708
 10
-47.6947
 20
-61.852
 10
-47.738
 20
-61.8289
 10
-47.7981
 20
-61.7865
 10
-47.8514
 20
-61.7358
 10
-47.8966
 20
-61.6778
 10
-47.9329
 20
-61.6138
 10
-47.9594
 20
-61.5451
 10
-47.9755
 20
-61.4734
 10
-47.9803
 20
-61.4245
 10
-47.9809
 20
-57.85
 10
-47.9755
 20
-57.7766
 10
-47.9659
 20
-57.7285
 10
-47.9428
 20
-57.6587
 10
-47.9219
 20
-57.6143
 10
-47.8825
 20
-57.5522
 10
-47.8345
 20
-57.4964
 10
-47.7981
 20
-57.4635
 10
-47.738
 20
-57.4211
 10
-47.6947
 20
-57.398
 10
-47.6493
 20
-57.3792
 10
-47.6024
 20
-57.365
 10
-47.5299
 20
-57.3524
 10
-47.4809
 20
-57.35
 10
-47.0809
 20
-57.35
 10
-47.0809
 20
-37.9
 10
-47.4809
 20
-37.9
 10
-47.5299
 20
-37.8976
 10
-47.6024
 20
-37.885
 10
-47.6493
 20
-37.8708
 10
-47.6947
 20
-37.852
 10
-47.738
 20
-37.8289
 10
-47.7981
 20
-37.7865
 10
-47.8345
 20
-37.7536
 10
-47.8825
 20
-37.6978
 10
-47.9219
 20
-37.6357
 10
-47.9428
 20
-37.5913
 10
-47.9594
 20
-37.5451
 10
-47.9713
 20
-37.4975
 10
-47.9785
 20
-37.449
 10
-47.9809
 20
-37.4
 10
-47.9809
 20
-33.85
 10
-47.9785
 20
-33.801
 10
-47.9713
 20
-33.7525
 10
-47.9517
 20
-33.6816
 10
-47.9329
 20
-33.6362
 10
-47.8966
 20
-33.5722
 10
-47.8674
 20
-33.5328
 10
-47.8167
 20
-33.4795
 10
-47.7587
 20
-33.4343
 10
-47.6947
 20
-33.398
 10
-47.626
 20
-33.3715
 10
-47.5543
 20
-33.3554
 10
-47.5054
 20
-33.3506
 10
-42.4191
 20
-33.35
 10
-42.4185
 20
-33.1255
 10
-42.4095
 20
-33.0525
 10
-42.3976
 20
-33.0049
 10
-42.381
 20
-32.9587
 10
-42.3601
 20
-32.9143
 10
-42.3348
 20
-32.8722
 10
-42.3056
 20
-32.8328
 10
-42.2727
 20
-32.7964
 10
-42.2363
 20
-32.7635
 10
-42.1762
 20
-32.7211
 10
-42.1329
 20
-32.698
 10
-42.0642
 20
-32.6715
 10
-41.9925
 20
-32.6554
 10
-41.9436
 20
-32.6506
 10
-34.9446
 20
-32.6506
 10
-34.8716
 20
-32.6596
 10
-34.8007
 20
-32.6792
 10
-34.7334
 20
-32.709
 10
-34.6713
 20
-32.7484
 10
-34.6155
 20
-32.7964
 10
-34.5675
 20
-32.8522
 10
-34.5281
 20
-32.9143
  0
LWPOLYLINE
  5
9C
330
17
100
AcDbEntity
  8
CUT
100
AcDbPolyline
 90
286
 70
1
 10
-50.0181
 20
-41.3324
 10
-50.0757
 20
-41.3993
 10
-50.15
 20
-41.4621
 10
-50.15
 20
-53.7879
 10
-50.0757
 20
-53.8507
 10
-50.0362
 20
-53.8944
 10
-50.0011
 20
-53.9417
 10
-49.9708
 20
-53.9922
 10
-49.9457
 20
-54.0454
 10
-49.918
 20
-54.1292
 10
-49.9065
 20
-54.187
 10
-49.9007
 20
-54.2456
 10
-49.9007
 20
-54.3044
 10
-49.9065
 20
-54.363
 10
-49.918
 20
-54.4208
 10
-49.9351
 20
-54.4771
 10
-49.9708
 20
-54.5578
 10
-50.0181
 20
-54.6324
 10
-50.0554
 20
-54.6779
 10
-50.1194
 20
-54.7388
 10
-50.1915
 20
-54.7896
 10
-50.2704
 20
-54.8293
 10
-50.3542
 20
-54.857
 10
-50.412
 20
-54.8685
 10
-50.5
 20
-54.875
 10
-50.588
 20
-54.8685
 10
-50.6458
 20
-54.857
 10
-50.7296
 20
-54.8293
 10
-50.7828
 20
-54.8042
 10
-50.8574
 20
-54.7569
 10
-50.9029
 20
-54.7196
 10
-50.9446
 20
-54.6779
 10
-50.9871
 20
-54.625
 10
-57.3
 20
-54.625
 10
-57.3
 20
-56.625
 10
-51.9755
 20
-56.6256
 10
-51.9266
 20
-56.6304
 10
-51.8785
 20
-56.64
 10
-51.8316
 20
-56.6542
 10
-51.7643
 20
-56.684
 10
-51.7222
 20
-56.7093
 10
-51.6828
 20
-56.7385
 10
-51.6464
 20
-56.7714
 10
-51.5984
 20
-56.8272
 10
-51.559
 20
-56.8893
 10
-51.5381
 20
-56.9337
 10
-51.5215
 20
-56.9799
 10
-51.5054
 20
-57.0516
 10
-51.5
 20
-57.125
 10
-51.5
 20
-62.125
 10
-51.5054
 20
-62.1984
 10
-51.5215
 20
-62.2701
 10
-51.548
 20
-62.3388
 10
-51.5843
 20
-62.4028
 10
-51.6135
 20
-62.4422
 10
-51.6642
 20
-62.4955
 10
-51.7022
 20
-62.5266
 10
-51.7643
 20
-62.566
 10
-51.8316
 20
-62.5958
 10
-51.8785
 20
-62.61
 10
-51.9266
 20
-62.6196
 10
-52.0
 20
-62.625
 10
-63.5
 20
-62.625
 10
-63.5734
 20
-62.6196
 10
-63.6451
 20
-62.6035
 10
-63.7138
 20
-62.577
 10
-63.7778
 20
-62.5407
 10
-63.8172
 20
-62.5115
 10
-63.8536
 20
-62.4786
 10
-63.8865
 20
-62.4422
 10
-63.9289
 20
-62.3821
 10
-63.952
 20
-62.3388
 10
-63.9785
 20
-62.2701
 10
-63.9904
 20
-62.2225
 10
-63.9976
 20
-62.174
 10
-64.0
 20
-62.125
 10
-64.0
 20
-60.475
 10
-64.7
 20
-60.475
 10
-64.7734
 20
-60.4696
 10
-64.8215
 20
-60.46
 10
-64.8684
 20
-60.4458
 10
-64.9138
 20
-60.427
 10
-64.9571
 20
-60.4039
 10
-64.9978
 20
-60.3766
 10
-65.0358
 20
-60.3455
 10
-65.0865
 20
-60.2922
 10
-65.1289
 20
-60.2321
 10
-65.152
 20
-60.1888
 10
-65.1708
 20
-60.1434
 10
-65.1904
 20
-60.0725
 10
-65.1994
 20
-59.9995
 10
-65.1994
 20
-59.2505
 10
-65.1946
 20
-59.2016
 10
-65.185
 20
-59.1535
 10
-65.1708
 20
-59.1066
 10
-65.152
 20
-59.0612
 10
-65.1289
 20
-59.0179
 10
-65.1016
 20
-58.9772
 10
-65.0705
 20
-58.9392
 10
-65.0172
 20
-58.8885
 10
-64.9778
 20
-58.8593
 10
-64.9138
 20
-58.823
 10
-64.8684
 20
-58.8042
 10
-64.8215
 20
-58.79
 10
-64.7734
 20
-58.7804
 10
-64.7
 20
-58.775
 10
-64.0
 20
-58.775
 10
-64.0
 20
-57.125
 10
-63.9946
 20
-57.0516
 10
-63.985
 20
-57.0035
 10
-63.9619
 20
-56.9337
 10
-63.9289
 20
-56.8679
 10
-63.9016
 20
-56.8272
 10
-63.8536
 20
-56.7714
 10
-63.8172
 20
-56.7385
 10
-63.7571
 20
-56.6961
 10
-63.7138
 20
-56.673
 10
-63.6684
 20
-56.6542
 10
-63.5975
 20
-56.6346
 10
-63.549
 20
-56.6274
 10
-63.5
 20
-56.625
 10
-59.8
 20
-56.625
 10
-59.8
 20
-54.625
 10
-63.3129
 20
-54.625
 10
-63.3554
 20
-54.6779
 10
-63.4194
 20
-54.7388
 10
-63.4667
 20
-54.7739
 10
-63.5435
 20
-54.8174
 10
-63.6258
 20
-54.8492
 10
-63.6829
 20
-54.8635
 10
-63.7706
 20
-54.8743
 10
-63.8294
 20
-54.8743
 10
-63.9171
 20
-54.8635
 10
-64.0021
 20
-54.8399
 10
-64.0828
 20
-54.8042
 10
-64.1574
 20
-54.7569
 10
-64.2243
 20
-54.6993
 10
-64.2819
 20
-54.6324
 10
-64.3292
 20
-54.5578
 10
-64.3649
 20
-54.4771
 10
-64.3885
 20
-54.3921
 10
-64.3993
 20
-54.3044
 10
-64.3971
 20
-54.2162
 10
-64.3885
 20
-54.1579
 10
-64.3742
 20
-54.1008
 10
-64.3424
 20
-54.0185
 10
-64.3146
 20
-53.9665
 10
-64.2819
 20
-53.9176
 10
-64.2243
 20
-53.8507
 10
-64.15
 20
-53.7879
 10
-64.15
 20
-41.4621
 10
-64.2029
 20
-41.4196
 10
-64.2638
 20
-41.3556
 10
-64.3146
 20
-41.2835
 10
-64.3543
 20
-41.2046
 10
-64.382
 20
-41.1208
 10
-64.3971
 20
-41.0338
 10
-64.3993
 20
-40.9456
 10
-64.3935
 20
-40.887
 10
-64.382
 20
-40.8292
 10
-64.3649
 20
-40.7729
 10
-64.3292
 20
-40.6922
 10
-64.2989
 20
-40.6417
 10
-64.2638
 20
-40.5944
 10
-64.2029
 20
-40.5304
 10
-64.1333
 20
-40.4761
 10
-64.0828
 20
-40.4458
 10
-64.0296
 20
-40.4207
 10
-63.9458
 20
-40.393
 10
-63.888
 20
-40.3815
 10
-63.8294
 20
-40.3757
 10
-63.7706
 20
-40.3757
 10
-63.6829
 20
-40.3865
 10
-63.6258
 20
-40.4008
 10
-63.5435
 20
-40.4326
 10
-63.4667
 20
-40.4761
 10
-63.4194
 20
-40.5112
 10
-63.3554
 20
-40.5721
 10
-63.3129
 20
-40.625
 10
-59.8
 20
-40.625
 10
-59.8
 20
-38.625
 10
-63.5245
 20
-38.6244
 10
-63.5975
 20
-38.6154
 10
-63.6451
 20
-38.6035
 10
-63.6913
 20
-38.5869
 10
-63.7357
 20
-38.566
 10
-63.7978
 20
-38.5266
 10
-63.8358
 20
-38.4955
 10
-63.8705
 20
-38.4608
 10
-63.9016
 20
-38.4228
 10
-63.941
 20
-38.3607
 10
-63.9708
 20
-38.2934
 10
-63.9904
 20
-38.2225
 10
-63.9994
 20
-38.1495
 10
-64.0
 20
-36.475
 10
-64.7245
 20
-36.4744
 10
-64.7975
 20
-36.4654
 10
-64.8451
 20
-36.4535
 10
-64.8913
 20
-36.4369
 10
-64.9571
 20
-36.4039
 10
-65.0172
 20
-36.3615
 10
-65.0705
 20
-36.3108
 10
-65.1157
 20
-36.2528
 10
-65.152
 20
-36.1888
 10
-65.1785
 20
-36.1201
 10
-65.1946
 20
-36.0484
 10
-65.2
 20
-35.975
 10
-65.2
 20
-35.275
 10
-65.1946
 20
-35.2016
 10
-65.1785
 20
-35.1299
 10
-65.152
 20
-35.0612
 10
-65.1157
 20
-34.9972
 10
-65.0865
 20
-34.9578
 10
-65.0536
 20
-34.9214
 10
-65.0172
 20
-34.8885
 10
-64.9778
 20
-34.8593
 10
-64.9138
 20
-34.823
 10
-64.8451
 20
-34.7965
 10
-64.7734
 20
-34.7804
 10
-64.7
 20
-34.775
 10
-64.0
 20
-34.775
 10
-63.9994
 20
-33.1005
 10
-63.9904
 20
-33.0275
 10
-63.9785
 20
-32.9799
 10
-63.952
 20
-32.9112
 10
-63.9157
 20
-32.8472
 10
-63.8865
 20
-32.8078
 10
-63.8358
 20
-32.7545
 10
-63.7978
 20
-32.7234
 10
-63.7357
 20
-32.684
 10
-63.6684
 20
-32.6542
 10
-63.6215
 20
-32.64
 10
-63.549
 20
-32.6274
 10
-63.5
 20
-32.625
 10
-52.0
 20
-32.625
 10
-51.9266
 20
-32.6304
 10
-51.8785
 20
-32.64
 10
-51.8087
 20
-32.6631
 10
-51.7429
 20
-32.6961
 10
-51.7022
 20
-32.7234
 10
-51.6464
 20
-32.7714
 10
-51.6135
 20
-32.8078
 10
-51.5711
 20
-32.8679
 10
-51.5381
 20
-32.9337
 10
-51.5215
 20
-32.9799
 10
-51.5096
 20
-33.0275
 10
-51.5006
 20
-33.1005
 10
-51.5
 20
-38.125
 10
-51.5054
 20
-38.1984
 10
-51.5215
 20
-38.2701
 10
-51.548
 20
-38.3388
 10
-51.5843
 20
-38.4028
 10
-51.6135
 20
-38.4422
 10
-51.6642
 20
-38.4955
 10
-51.7022
 20
-38.5266
 10
-51.7643
 20
-38.566
 10
-51.8316
 20
-38.5958
 10
-51.8785
 20
-38.61
 10
-51.9266
 20
-38.6196
 10
-51.9755
 20
-38.6244
 10
-57.3
 20
-38.625
 10
-57.3
 20
-40.625
 10
-50.9871
 20
-40.625
 10
-50.9446
 20
-40.5721
 10
-50.8806
 20
-40.5112
 10
-50.8333
 20
-40.4761
 10
-50.7565
 20
-40.4326
 10
-50.6742
 20
-40.4008
 10
-50.588
 20
-40.3815
 10
-50.5
 20
-40.375
 10
-50.4412
 20
-40.3779
 10
-50.3542
 20
-40.393
 10
-50.2979
 20
-40.4101
 10
-50.2172
 20
-40.4458
 10
-50.1426
 20
-40.4931
 10
-50.0757
 20
-40.5507
 10
-50.0181
 20
-40.6176
 10
-49.9708
 20
-40.6922
 10
-49.9457
 20
-40.7454
 10
-49.918
 20
-40.8292
 10
-49.9065
 20
-40.887
 10
-49.9
 20
-40.975
 10
-49.9065
 20
-41.063
 10
-49.918
 20
-41.1208
 10
-49.9457
 20
-41.2046
 10
-49.9708
 20
-41.2578
  0
LWPOLYLINE
  5
9D
330
17
100
AcDbEntity
  8
CUT
100
AcDbPolyline
 90
64
 70
1
 10
-68.933
 20
-69.7327
 10
-68.9119
 20
-69.8386
 10
-68.9013
 20
-69.946
 10
-68.9013
 20
-70.054
 10
-68.9119
 20
-70.1614
 10
-68.933
 20
-70.2673
 10
-68.9643
 20
-70.3706
 10
-69.0056
 20
-70.4703
 10
-69.0565
 20
-70.5655
 10
-69.1165
 20
-70.6553
 10
-69.185
 20
-70.7387
 10
-69.2613
 20
-70.815
 10
-69.3447
 20
-70.8835
 10
-69.4345
 20
-70.9435
 10
-69.5297
 20
-70.9944
 10
-69.6294
 20
-71.0357
 10
-69.7327
 20
-71.067
 10
-69.8386
 20
-71.0881
 10
-69.946
 20
-71.0987
 10
-70.054
 20
-71.0987
 10
-70.1614
 20
-71.0881
 10
-70.2673
 20
-71.067
 10
-70.3706
 20
-71.0357
 10
-70.4703
 20
-70.9944
 10
-70.5655
 20
-70.9435
 10
-70.6553
 20
-70.8835
 10
-70.7387
 20
-70.815
 10
-70.815
 20
-70.7387
 10
-70.8835
 20
-70.6553
 10
-70.9435
 20
-70.5655
 10
-70.9944
 20
-70.4703
 10
-71.0357
 20
-70.3706
 10
-71.067
 20
-70.2673
 10
-71.0881
 20
-70.1614
 10
-71.0987
 20
-70.054
 10
-71.0987
 20
-69.946
 10
-71.0881
 20
-69.8386
 10
-71.067
 20
-69.7327
 10
-71.0357
 20
-69.6294
 10
-70.9944
 20
-69.5297
 10
-70.9435
 20
-69.4345
 10
-70.8835
 20
-69.3447
 10
-70.815
 20
-69.2613
 10
-70.7387
 20
-69.185
 10
-70.6553
 20
-69.1165
 10
-70.5655
 20
-69.0565
 10
-70.4703
 20
-69.0056
 10
-70.3706
 20
-68.9643
 10
-70.2673
 20
-68.933
 10
-70.1614
 20
-68.9119
 10
-70.054
 20
-68.9013
 10
-69.946
 20
-68.9013
 10
-69.8386
 20
-68.9119
 10
-69.7327
 20
-68.933
 10
-69.6294
 20
-68.9643
 10
-69.5297
 20
-69.0056
 10
-69.4345
 20
-69.0565
 10
-69.3447
 20
-69.1165
 10
-69.2613
 20
-69.185
 10
-69.185
 20
-69.2613
 10
-69.1165
 20
-69.3447
 10
-69.0565
 20
-69.4345
 10
-69.0056
 20
-69.5297
 10
-68.9643
 20
-69.6294
  0
LWPOLYLINE
  5
9E
330
17
100
AcDbEntity
  8
CUT
100
AcDbPolyline
 90
123
 70
1
 10
-6.2694
 20
64.2638
 10
-6.2054
 20
64.2029
 10
-6.1629
 20
64.15
 10
6.1629
 20
64.15
 10
6.2054
 20
64.2029
 10
6.2471
 20
64.2446
 10
6.3167
 20
64.2989
 10
6.3672
 20
64.3292
 10
6.4204
 20
64.3543
 10
6.5042
 20
64.382
 10
6.5912
 20
64.3971
 10
6.65
 20
64.4
 10
6.7088
 20
64.3971
 10
6.7671
 20
64.3885
 10
6.8242
 20
64.3742
 10
6.8796
 20
64.3543
 10
6.9328
 20
64.3292
 10
6.9833
 20
64.2989
 10
7.0529
 20
64.2446
 10
7.0946
 20
64.2029
 10
7.1489
 20
64.1333
 10
7.1792
 20
64.0828
 10
7.2043
 20
64.0296
 10
7.2242
 20
63.9742
 10
7.2385
 20
63.9171
 10
7.2471
 20
63.8588
 10
7.25
 20
63.8
 10
7.2435
 20
63.712
 10
7.232
 20
63.6542
 10
7.2043
 20
63.5704
 10
7.1792
 20
63.5172
 10
7.1489
 20
63.4667
 10
7.0946
 20
63.3971
 10
7.0529
 20
63.3554
 10
7.0
 20
63.3129
 10
7.0
 20
50.9871
 10
7.0529
 20
50.9446
 10
7.0946
 20
50.9029
 10
7.1489
 20
50.8333
 10
7.1792
 20
50.7828
 10
7.2043
 20
50.7296
 10
7.232
 20
50.6458
 10
7.2435
 20
50.588
 10
7.25
 20
50.5
 10
7.2471
 20
50.4412
 10
7.232
 20
50.3542
 10
7.2149
 20
50.2979
 10
7.1924
 20
50.2435
 10
7.1646
 20
50.1915
 10
7.1319
 20
50.1426
 10
7.0946
 20
50.0971
 10
7.0529
 20
50.0554
 10
7.0074
 20
50.0181
 10
6.9585
 20
49.9854
 10
6.8796
 20
49.9457
 10
6.8242
 20
49.9258
 10
6.7671
 20
49.9115
 10
6.7088
 20
49.9029
 10
6.65
 20
49.9
 10
6.562
 20
49.9065
 10
6.5042
 20
49.918
 10
6.4204
 20
49.9457
 10
6.3672
 20
49.9708
 10
6.2926
 20
50.0181
 10
6.2471
 20
50.0554
 10
6.2054
 20
50.0971
 10
6.1629
 20
50.15
 10
-6.1629
 20
50.15
 10
-6.2054
 20
50.0971
 10
-6.2471
 20
50.0554
 10
-6.2926
 20
50.0181
 10
-6.3672
 20
49.9708
 10
-6.4204
 20
49.9457
 10
-6.5042
 20
49.918
 10
-6.562
 20
49.9065
 10
-6.65
 20
49.9
 10
-6.7088
 20
49.9029
 10
-6.7671
 20
49.9115
 10
-6.8242
 20
49.9258
 10
-6.8796
 20
49.9457
 10
-6.9328
 20
49.9708
 10
-7.0074
 20
50.0181
 10
-7.0529
 20
50.0554
 10
-7.0946
 20
50.0971
 10
-7.1319
 20
50.1426
 10
-7.1646
 20
50.1915
 10
-7.1924
 20
50.2435
 10
-7.2149
 20
50.2979
 10
-7.232
 20
50.3542
 10
-7.2435
 20
50.412
 10
-7.25
 20
50.5
 10
-7.2435
 20
50.588
 10
-7.232
 20
50.6458
 10
-7.2043
 20
50.7296
 10
-7.1792
 20
50.7828
 10
-7.1489
 20
50.8333
 10
-7.0946
 20
50.9029
 10
-7.0529
 20
50.9446
 10
-7.0
 20
50.9871
 10
-7.0
 20
63.3129
 10
-7.0529
 20
63.3554
 10
-7.1138
 20
63.4194
 10
-7.1489
 20
63.4667
 10
-7.1924
 20
63.5435
 10
-7.2242
 20
63.6258
 10
-7.2385
 20
63.6829
 10
-7.2493
 20
63.7706
 10
-7.2493
 20
63.8294
 10
-7.2435
 20
63.888
 10
-7.2242
 20
63.9742
 10
-7.1924
 20
64.0565
 10
-7.1489
 20
64.1333
 10
-7.0946
 20
64.2029
 10
-7.0306
 20
64.2638
 10
-6.9585
 20
64.3146
 10
-6.8796
 20
64.3543
 10
-6.7958
 20
64.382
 10
-6.7088
 20
64.3971
 10
-6.6206
 20
64.3993
 10
-6.562
 20
64.3935
 10
-6.5042
 20
64.382
 10
-6.4204
 20
64.3543
 10
-6.3415
 20
64.3146
  0
LWPOLYLINE
  5
9F
330
17
100
AcDbEntity
  8
CUT
100
AcDbPolyline
 90
123
 70
1
 10
12.8029
 20
64.2446
 10
12.8446
 20
64.2029
 10
12.8871
 20
64.15
 10
25.2129
 20
64.15
 10
25.2554
 20
64.2029
 10
25.2971
 20
64.2446
 10
25.3667
 20
64.2989
 10
25.4172
 20
64.3292
 10
25.4704
 20
64.3543
 10
25.5542
 20
64.382
 10
25.6412
 20
64.3971
 10
25.7
 20
64.4
 10
25.7588
 20
64.3971
 10
25.8171
 20
64.3885
 10
25.8742
 20
64.3742
 10
25.9296
 20
64.3543
 10
25.9828
 20
64.3292
 10
26.0333
 20
64.2989
 10
26.1029
 20
64.2446
 10
26.1446
 20
64.2029
 10
26.1819
 20
64.1574
 10
26.2146
 20
64.1085
 10
26.2424
 20
64.0565
 10
26.2649
 20
64.0021
 10
26.2885
 20
63.9171
 10
26.2971
 20
63.8588
 10
26.3
 20
63.8
 10
26.2971
 20
63.7412
 10
26.282
 20
63.6542
 10
26.2649
 20
63.5979
 10
26.2292
 20
63.5172
 10
26.1989
 20
63.4667
 10
26.1446
 20
63.3971
 10
26.1029
 20
63.3554
 10
26.05
 20
63.3129
 10
26.05
 20
50.9871
 10
26.1029
 20
50.9446
 10
26.1446
 20
50.9029
 10
26.1989
 20
50.8333
 10
26.2292
 20
50.7828
 10
26.2649
 20
50.7021
 10
26.282
 20
50.6458
 10
26.2971
 20
50.5588
 10
26.3
 20
50.5
 10
26.2971
 20
50.4412
 10
26.2885
 20
50.3829
 10
26.2649
 20
50.2979
 10
26.2424
 20
50.2435
 10
26.2146
 20
50.1915
 10
26.1819
 20
50.1426
 10
26.1446
 20
50.0971
 10
26.1029
 20
50.0554
 10
26.0574
 20
50.0181
 10
26.0085
 20
49.9854
 10
25.9296
 20
49.9457
 10
25.8742
 20
49.9258
 10
25.8171
 20
49.9115
 10
25.7588
 20
49.9029
 10
25.7
 20
49.9
 10
25.612
 20
49.9065
 10
25.5542
 20
49.918
 10
25.4704
 20
49.9457
 10
25.4172
 20
49.9708
 10
25.3426
 20
50.0181
 10
25.2971
 20
50.0554
 10
25.2554
 20
50.0971
 10
25.2129
 20
50.15
 10
12.8871
 20
50.15
 10
12.8446
 20
50.0971
 10
12.8029
 20
50.0554
 10
12.7574
 20
50.0181
 10
12.6828
 20
49.9708
 10
12.6296
 20
49.9457
 10
12.5458
 20
49.918
 10
12.488
 20
49.9065
 10
12.4
 20
49.9
 10
12.3412
 20
49.9029
 10
12.2829
 20
49.9115
 10
12.2258
 20
49.9258
 10
12.1704
 20
49.9457
 10
12.1172
 20
49.9708
 10
12.0426
 20
50.0181
 10
11.9971
 20
50.0554
 10
11.9554
 20
50.0971
 10
11.9181
 20
50.1426
 10
11.8854
 20
50.1915
 10
11.8576
 20
50.2435
 10
11.8351
 20
50.2979
 10
11.8115
 20
50.3829
 10
11.8029
 20
50.4412
 10
11.8
 20
50.5
 10
11.8029
 20
50.5588
 10
11.818
 20
50.6458
 10
11.8351
 20
50.7021
 10
11.8708
 20
50.7828
 10
11.9011
 20
50.8333
 10
11.9554
 20
50.9029
 10
11.9971
 20
50.9446
 10
12.05
 20
50.9871
 10
12.05
 20
63.3129
 10
11.9971
 20
63.3554
 10
11.9362
 20
63.4194
 10
11.9011
 20
63.4667
 10
11.8576
 20
63.5435
 10
11.8258
 20
63.6258
 10
11.8115
 20
63.6829
 10
11.8029
 20
63.7412
 10
11.8007
 20
63.8294
 10
11.8115
 20
63.9171
 10
11.8258
 20
63.9742
 10
11.8576
 20
64.0565
 10
11.9011
 20
64.1333
 10
11.9554
 20
64.2029
 10
12.0194
 20
64.2638
 10
12.0915
 20
64.3146
 10
12.1704
 20
64.3543
 10
12.2542
 20
64.382
 10
12.3412
 20
64.3971
 10
12.4294
 20
64.3993
 10
12.5171
 20
64.3885
 10
12.6021
 20
64.3649
 10
12.6565
 20
64.3424
 10
12.7333
 20
64.2989
  0
LWPOLYLINE
  5
A0
330
17
100
AcDbEntity
  8
CUT
100
AcDbPolyline
 90
123
 70
1
 10
12.8056
 20
45.1888
 10
12.8696
 20
45.1279
 10
12.9121
 20
45.075
 10
25.1879
 20
45.075
 10
25.2304
 20
45.1279
 10
25.2721
 20
45.1696
 10
25.3417
 20
45.2239
 10
25.3922
 20
45.2542
 10
25.4454
 20
45.2793
 10
25.5292
 20
45.307
 10
25.6162
 20
45.3221
 10
25.675
 20
45.325
 10
25.7338
 20
45.3221
 10
25.7921
 20
45.3135
 10
25.8492
 20
45.2992
 10
25.9046
 20
45.2793
 10
25.9578
 20
45.2542
 10
26.0083
 20
45.2239
 10
26.0779
 20
45.1696
 10
26.1196
 20
45.1279
 10
26.1739
 20
45.0583
 10
26.2042
 20
45.0078
 10
26.2293
 20
44.9546
 10
26.2492
 20
44.8992
 10
26.2635
 20
44.8421
 10
26.2721
 20
44.7838
 10
26.275
 20
44.725
 10
26.2685
 20
44.637
 10
26.257
 20
44.5792
 10
26.2293
 20
44.4954
 10
26.2042
 20
44.4422
 10
26.1569
 20
44.3676
 10
26.1196
 20
44.3221
 10
26.0779
 20
44.2804
 10
26.025
 20
44.2379
 10
26.025
 20
31.9621
 10
26.0779
 20
31.9196
 10
26.1196
 20
31.8779
 10
26.1569
 20
31.8324
 10
26.2042
 20
31.7578
 10
26.2293
 20
31.7046
 10
26.257
 20
31.6208
 10
26.2685
 20
31.563
 10
26.275
 20
31.475
 10
26.2721
 20
31.4162
 10
26.2635
 20
31.3579
 10
26.2492
 20
31.3008
 10
26.2293
 20
31.2454
 10
26.1896
 20
31.1665
 10
26.1569
 20
31.1176
 10
26.1196
 20
31.0721
 10
26.0779
 20
31.0304
 10
26.0324
 20
30.9931
 10
25.9835
 20
30.9604
 10
25.9046
 20
30.9207
 10
25.8492
 20
30.9008
 10
25.7921
 20
30.8865
 10
25.7338
 20
30.8779
 10
25.675
 20
30.875
 10
25.587
 20
30.8815
 10
25.5292
 20
30.893
 10
25.4454
 20
30.9207
 10
25.3922
 20
30.9458
 10
25.3176
 20
30.9931
 10
25.2721
 20
31.0304
 10
25.2304
 20
31.0721
 10
25.1879
 20
31.125
 10
12.9121
 20
31.125
 10
12.8696
 20
31.0721
 10
12.8279
 20
31.0304
 10
12.7824
 20
30.9931
 10
12.7078
 20
30.9458
 10
12.6546
 20
30.9207
 10
12.5708
 20
30.893
 10
12.513
 20
30.8815
 10
12.425
 20
30.875
 10
12.3662
 20
30.8779
 10
12.3079
 20
30.8865
 10
12.2508
 20
30.9008
 10
12.1954
 20
30.9207
 10
12.1165
 20
30.9604
 10
12.0676
 20
30.9931
 10
12.0221
 20
31.0304
 10
11.9804
 20
31.0721
 10
11.9431
 20
31.1176
 10
11.9104
 20
31.1665
 10
11.8707
 20
31.2454
 10
11.8508
 20
31.3008
 10
11.8365
 20
31.3579
 10
11.8279
 20
31.4162
 10
11.825
 20
31.475
 10
11.8315
 20
31.563
 10
11.843
 20
31.6208
 10
11.8707
 20
31.7046
 10
11.8958
 20
31.7578
 10
11.9431
 20
31.8324
 10
11.9804
 20
31.8779
 10
12.0221
 20
31.9196
 10
12.075
 20
31.9621
 10
12.075
 20
44.2379
 10
12.0221
 20
44.2804
 10
11.9612
 20
44.3444
 10
11.9261
 20
44.3917
 10
11.8826
 20
44.4685
 10
11.8508
 20
44.5508
 10
11.8365
 20
44.6079
 10
11.8257
 20
44.6956
 10
11.8257
 20
44.7544
 10
11.8365
 20
44.8421
 10
11.8601
 20
44.9271
 10
11.8958
 20
45.0078
 10
11.9431
 20
45.0824
 10
11.9804
 20
45.1279
 10
12.0444
 20
45.1888
 10
12.1165
 20
45.2396
 10
12.1954
 20
45.2793
 10
12.2792
 20
45.307
 10
12.3662
 20
45.3221
 10
12.425
 20
45.325
 10
12.513
 20
45.3185
 10
12.5708
 20
45.307
 10
12.6546
 20
45.2793
 10
12.7335
 20
45.2396
  0
LWPOLYLINE
  5
A1
330
17
100
AcDbEntity
  8
CUT
100
AcDbPolyline
 90
123
 70
1
 10
-6.2444
 20
45.1888
 10
-6.1804
 20
45.1279
 10
-6.1379
 20
45.075
 10
6.1379
 20
45.075
 10
6.1804
 20
45.1279
 10
6.2221
 20
45.1696
 10
6.2917
 20
45.2239
 10
6.3422
 20
45.2542
 10
6.3954
 20
45.2793
 10
6.4792
 20
45.307
 10
6.5662
 20
45.3221
 10
6.625
 20
45.325
 10
6.6838
 20
45.3221
 10
6.7421
 20
45.3135
 10
6.7992
 20
45.2992
 10
6.8546
 20
45.2793
 10
6.9078
 20
45.2542
 10
6.9583
 20
45.2239
 10
7.0279
 20
45.1696
 10
7.0696
 20
45.1279
 10
7.1239
 20
45.0583
 10
7.1542
 20
45.0078
 10
7.1793
 20
44.9546
 10
7.1992
 20
44.8992
 10
7.2135
 20
44.8421
 10
7.2221
 20
44.7838
 10
7.225
 20
44.725
 10
7.2221
 20
44.6662
 10
7.207
 20
44.5792
 10
7.1793
 20
44.4954
 10
7.1542
 20
44.4422
 10
7.1069
 20
44.3676
 10
7.0696
 20
44.3221
 10
7.0279
 20
44.2804
 10
6.975
 20
44.2379
 10
6.975
 20
31.9621
 10
7.0279
 20
31.9196
 10
7.0696
 20
31.8779
 10
7.1239
 20
31.8083
 10
7.1542
 20
31.7578
 10
7.1899
 20
31.6771
 10
7.207
 20
31.6208
 10
7.2221
 20
31.5338
 10
7.225
 20
31.475
 10
7.2221
 20
31.4162
 10
7.207
 20
31.3292
 10
7.1899
 20
31.2729
 10
7.1674
 20
31.2185
 10
7.1396
 20
31.1665
 10
7.1069
 20
31.1176
 10
7.0696
 20
31.0721
 10
7.0279
 20
31.0304
 10
6.9824
 20
30.9931
 10
6.9335
 20
30.9604
 10
6.8546
 20
30.9207
 10
6.7992
 20
30.9008
 10
6.7421
 20
30.8865
 10
6.6838
 20
30.8779
 10
6.625
 20
30.875
 10
6.537
 20
30.8815
 10
6.4792
 20
30.893
 10
6.3954
 20
30.9207
 10
6.3422
 20
30.9458
 10
6.2676
 20
30.9931
 10
6.2221
 20
31.0304
 10
6.1804
 20
31.0721
 10
6.1379
 20
31.125
 10
-6.1379
 20
31.125
 10
-6.1804
 20
31.0721
 10
-6.2221
 20
31.0304
 10
-6.2676
 20
30.9931
 10
-6.3422
 20
30.9458
 10
-6.3954
 20
30.9207
 10
-6.4792
 20
30.893
 10
-6.537
 20
30.8815
 10
-6.625
 20
30.875
 10
-6.6838
 20
30.8779
 10
-6.7421
 20
30.8865
 10
-6.7992
 20
30.9008
 10
-6.8546
 20
30.9207
 10
-6.9335
 20
30.9604
 10
-6.9824
 20
30.9931
 10
-7.0279
 20
31.0304
 10
-7.0696
 20
31.0721
 10
-7.1069
 20
31.1176
 10
-7.1396
 20
31.1665
 10
-7.1674
 20
31.2185
 10
-7.1899
 20
31.2729
 10
-7.207
 20
31.3292
 10
-7.2185
 20
31.387
 10
-7.225
 20
31.475
 10
-7.2221
 20
31.5338
 10
-7.207
 20
31.6208
 10
-7.1899
 20
31.6771
 10
-7.1542
 20
31.7578
 10
-7.1239
 20
31.8083
 10
-7.0696
 20
31.8779
 10
-7.0279
 20
31.9196
 10
-6.975
 20
31.9621
 10
-6.975
 20
44.2379
 10
-7.0279
 20
44.2804
 10
-7.0888
 20
44.3444
 10
-7.1239
 20
44.3917
 10
-7.1674
 20
44.4685
 10
-7.1992
 20
44.5508
 10
-7.2135
 20
44.6079
 10
-7.2243
 20
44.6956
 10
-7.2243
 20
44.7544
 10
-7.2135
 20
44.8421
 10
-7.1899
 20
44.9271
 10
-7.1542
 20
45.0078
 10
-7.1069
 20
45.0824
 10
-7.0493
 20
45.1493
 10
-7.0056
 20
45.1888
 10
-6.9335
 20
45.2396
 10
-6.8546
 20
45.2793
 10
-6.7708
 20
45.307
 10
-6.6838
 20
45.3221
 10
-6.625
 20
45.325
 10
-6.537
 20
45.3185
 10
-6.4792
 20
45.307
 10
-6.3954
 20
45.2793
 10
-6.3165
 20
45.2396
  0
LWPOLYLINE
  5
A2
330
17
100
AcDbEntity
  8
CUT
100
AcDbPolyline
 90
123
 70
1
 10
-6.1694
 20
26.0638
 10
-6.1054
 20
26.0029
 10
-6.0629
 20
25.95
 10
6.0629
 20
25.95
 10
6.1054
 20
26.0029
 10
6.1471
 20
26.0446
 10
6.1926
 20
26.0819
 10
6.2672
 20
26.1292
 10
6.3204
 20
26.1543
 10
6.4042
 20
26.182
 10
6.462
 20
26.1935
 10
6.55
 20
26.2
 10
6.6088
 20
26.1971
 10
6.6671
 20
26.1885
 10
6.7242
 20
26.1742
 10
6.7796
 20
26.1543
 10
6.8585
 20
26.1146
 10
6.9074
 20
26.0819
 10
6.9529
 20
26.0446
 10
6.9946
 20
26.0029
 10
7.0319
 20
25.9574
 10
7.0646
 20
25.9085
 10
7.0924
 20
25.8565
 10
7.1149
 20
25.8021
 10
7.132
 20
25.7458
 10
7.1435
 20
25.688
 10
7.15
 20
25.6
 10
7.1471
 20
25.5412
 10
7.132
 20
25.4542
 10
7.1149
 20
25.3979
 10
7.0792
 20
25.3172
 10
7.0489
 20
25.2667
 10
6.9946
 20
25.1971
 10
6.9529
 20
25.1554
 10
6.9
 20
25.1129
 10
6.9
 20
12.9871
 10
6.9529
 20
12.9446
 10
6.9946
 20
12.9029
 10
7.0489
 20
12.8333
 10
7.0792
 20
12.7828
 10
7.1149
 20
12.7021
 10
7.132
 20
12.6458
 10
7.1471
 20
12.5588
 10
7.15
 20
12.5
 10
7.1471
 20
12.4412
 10
7.1385
 20
12.3829
 10
7.1242
 20
12.3258
 10
7.1043
 20
12.2704
 10
7.0792
 20
12.2172
 10
7.0489
 20
12.1667
 10
7.0138
 20
12.1194
 10
6.9529
 20
12.0554
 10
6.9074
 20
12.0181
 10
6.8585
 20
11.9854
 10
6.7796
 20
11.9457
 10
6.7242
 20
11.9258
 10
6.6671
 20
11.9115
 10
6.6088
 20
11.9029
 10
6.55
 20
11.9
 10
6.462
 20
11.9065
 10
6.4042
 20
11.918
 10
6.3204
 20
11.9457
 10
6.2672
 20
11.9708
 10
6.1926
 20
12.0181
 10
6.1471
 20
12.0554
 10
6.1054
 20
12.0971
 10
6.0629
 20
12.15
 10
-6.0629
 20
12.15
 10
-6.1054
 20
12.0971
 10
-6.1471
 20
12.0554
 10
-6.1926
 20
12.0181
 10
-6.2672
 20
11.9708
 10
-6.3204
 20
11.9457
 10
-6.4042
 20
11.918
 10
-6.462
 20
11.9065
 10
-6.55
 20
11.9
 10
-6.6088
 20
11.9029
 10
-6.6671
 20
11.9115
 10
-6.7242
 20
11.9258
 10
-6.7796
 20
11.9457
 10
-6.8585
 20
11.9854
 10
-6.9074
 20
12.0181
 10
-6.9529
 20
12.0554
 10
-6.9946
 20
12.0971
 10
-7.0489
 20
12.1667
 10
-7.0792
 20
12.2172
 10
-7.1043
 20
12.2704
 10
-7.1242
 20
12.3258
 10
-7.1385
 20
12.3829
 10
-7.1471
 20
12.4412
 10
-7.15
 20
12.5
 10
-7.1471
 20
12.5588
 10
-7.132
 20
12.6458
 10
-7.1149
 20
12.7021
 10
-7.0792
 20
12.7828
 10
-7.0489
 20
12.8333
 10
-6.9946
 20
12.9029
 10
-6.9529
 20
12.9446
 10
-6.9
 20
12.9871
 10
-6.9
 20
25.1129
 10
-6.9529
 20
25.1554
 10
-7.0138
 20
25.2194
 10
-7.0646
 20
25.2915
 10
-7.0924
 20
25.3435
 10
-7.1242
 20
25.4258
 10
-7.1385
 20
25.4829
 10
-7.1493
 20
25.5706
 10
-7.1493
 20
25.6294
 10
-7.1385
 20
25.7171
 10
-7.1149
 20
25.8021
 10
-7.0792
 20
25.8828
 10
-7.0489
 20
25.9333
 10
-6.9946
 20
26.0029
 10
-6.9306
 20
26.0638
 10
-6.8585
 20
26.1146
 10
-6.7796
 20
26.1543
 10
-6.6958
 20
26.182
 10
-6.638
 20
26.1935
 10
-6.55
 20
26.2
 10
-6.462
 20
26.1935
 10
-6.4042
 20
26.182
 10
-6.3204
 20
26.1543
 10
-6.2415
 20
26.1146
  0
LWPOLYLINE
  5
A3
330
17
100
AcDbEntity
  8
CUT
100
AcDbPolyline
 90
123
 70
1
 10
-25.2194
 20
26.0638
 10
-25.1554
 20
26.0029
 10
-25.1129
 20
25.95
 10
-12.9871
 20
25.95
 10
-12.9446
 20
26.0029
 10
-12.9029
 20
26.0446
 10
-12.8574
 20
26.0819
 10
-12.7828
 20
26.1292
 10
-12.7296
 20
26.1543
 10
-12.6458
 20
26.182
 10
-12.588
 20
26.1935
 10
-12.5
 20
26.2
 10
-12.4412
 20
26.1971
 10
-12.3829
 20
26.1885
 10
-12.3258
 20
26.1742
 10
-12.2704
 20
26.1543
 10
-12.1915
 20
26.1146
 10
-12.1426
 20
26.0819
 10
-12.0971
 20
26.0446
 10
-12.0554
 20
26.0029
 10
-12.0181
 20
25.9574
 10
-11.9854
 20
25.9085
 10
-11.9457
 20
25.8296
 10
-11.9258
 20
25.7742
 10
-11.9115
 20
25.7171
 10
-11.9029
 20
25.6588
 10
-11.9
 20
25.6
 10
-11.9065
 20
25.512
 10
-11.918
 20
25.4542
 10
-11.9457
 20
25.3704
 10
-11.9708
 20
25.3172
 10
-12.0181
 20
25.2426
 10
-12.0554
 20
25.1971
 10
-12.0971
 20
25.1554
 10
-12.15
 20
25.1129
 10
-12.15
 20
12.9871
 10
-12.0971
 20
12.9446
 10
-12.0554
 20
12.9029
 10
-12.0181
 20
12.8574
 10
-11.9708
 20
12.7828
 10
-11.9457
 20
12.7296
 10
-11.918
 20
12.6458
 10
-11.9065
 20
12.588
 10
-11.9
 20
12.5
 10
-11.9029
 20
12.4412
 10
-11.9115
 20
12.3829
 10
-11.9258
 20
12.3258
 10
-11.9457
 20
12.2704
 10
-11.9854
 20
12.1915
 10
-12.0181
 20
12.1426
 10
-12.0554
 20
12.0971
 10
-12.0971
 20
12.0554
 10
-12.1426
 20
12.0181
 10
-12.1915
 20
11.9854
 10
-12.2704
 20
11.9457
 10
-12.3258
 20
11.9258
 10
-12.3829
 20
11.9115
 10
-12.4412
 20
11.9029
 10
-12.5
 20
11.9
 10
-12.588
 20
11.9065
 10
-12.6458
 20
11.918
 10
-12.7296
 20
11.9457
 10
-12.7828
 20
11.9708
 10
-12.8574
 20
12.0181
 10
-12.9029
 20
12.0554
 10
-12.9446
 20
12.0971
 10
-12.9871
 20
12.15
 10
-25.1129
 20
12.15
 10
-25.1554
 20
12.0971
 10
-25.1971
 20
12.0554
 10
-25.2426
 20
12.0181
 10
-25.3172
 20
11.9708
 10
-25.3704
 20
11.9457
 10
-25.4542
 20
11.918
 10
-25.512
 20
11.9065
 10
-25.6
 20
11.9
 10
-25.6588
 20
11.9029
 10
-25.7171
 20
11.9115
 10
-25.7742
 20
11.9258
 10
-25.8296
 20
11.9457
 10
-25.9085
 20
11.9854
 10
-25.9574
 20
12.0181
 10
-26.0029
 20
12.0554
 10
-26.0446
 20
12.0971
 10
-26.0819
 20
12.1426
 10
-26.1146
 20
12.1915
 10
-26.1543
 20
12.2704
 10
-26.1742
 20
12.3258
 10
-26.1885
 20
12.3829
 10
-26.1971
 20
12.4412
 10
-26.2
 20
12.5
 10
-26.1935
 20
12.588
 10
-26.182
 20
12.6458
 10
-26.1543
 20
12.7296
 10
-26.1292
 20
12.7828
 10
-26.0819
 20
12.8574
 10
-26.0446
 20
12.9029
 10
-26.0029
 20
12.9446
 10
-25.95
 20
12.9871
 10
-25.95
 20
25.1129
 10
-26.0029
 20
25.1554
 10
-26.0638
 20
25.2194
 10
-26.1146
 20
25.2915
 10
-26.1424
 20
25.3435
 10
-26.1649
 20
25.3979
 10
-26.1885
 20
25.4829
 10
-26.1993
 20
25.5706
 10
-26.1993
 20
25.6294
 10
-26.1885
 20
25.7171
 10
-26.1649
 20
25.8021
 10
-26.1292
 20
25.8828
 10
-26.0819
 20
25.9574
 10
-26.0243
 20
26.0243
 10
-25.9574
 20
26.0819
 10
-25.9085
 20
26.1146
 10
-25.8296
 20
26.1543
 10
-25.7458
 20
26.182
 10
-25.688
 20
26.1935
 10
-25.6
 20
26.2
 10
-25.512
 20
26.1935
 10
-25.4542
 20
26.182
 10
-25.3704
 20
26.1543
 10
-25.2915
 20
26.1146
  0
LWPOLYLINE
  5
A4
330
17
100
AcDbEntity
  8
CUT
100
AcDbPolyline
 90
123
 70
1
 10
12.8806
 20
26.0638
 10
12.9446
 20
26.0029
 10
12.9871
 20
25.95
 10
25.1129
 20
25.95
 10
25.1554
 20
26.0029
 10
25.1971
 20
26.0446
 10
25.2426
 20
26.0819
 10
25.3172
 20
26.1292
 10
25.3704
 20
26.1543
 10
25.4542
 20
26.182
 10
25.512
 20
26.1935
 10
25.6
 20
26.2
 10
25.6588
 20
26.1971
 10
25.7171
 20
26.1885
 10
25.7742
 20
26.1742
 10
25.8296
 20
26.1543
 10
25.9085
 20
26.1146
 10
25.9574
 20
26.0819
 10
26.0029
 20
26.0446
 10
26.0446
 20
26.0029
 10
26.0819
 20
25.9574
 10
26.1146
 20
25.9085
 10
26.1543
 20
25.8296
 10
26.1742
 20
25.7742
 10
26.1885
 20
25.7171
 10
26.1971
 20
25.6588
 10
26.2
 20
25.6
 10
26.1935
 20
25.512
 10
26.182
 20
25.4542
 10
26.1543
 20
25.3704
 10
26.1292
 20
25.3172
 10
26.0819
 20
25.2426
 10
26.0446
 20
25.1971
 10
26.0029
 20
25.1554
 10
25.95
 20
25.1129
 10
25.95
 20
12.9871
 10
26.0029
 20
12.9446
 10
26.0446
 20
12.9029
 10
26.0819
 20
12.8574
 10
26.1292
 20
12.7828
 10
26.1543
 20
12.7296
 10
26.182
 20
12.6458
 10
26.1935
 20
12.588
 10
26.2
 20
12.5
 10
26.1971
 20
12.4412
 10
26.1885
 20
12.3829
 10
26.1742
 20
12.3258
 10
26.1543
 20
12.2704
 10
26.1146
 20
12.1915
 10
26.0819
 20
12.1426
 10
26.0446
 20
12.0971
 10
26.0029
 20
12.0554
 10
25.9574
 20
12.0181
 10
25.9085
 20
11.9854
 10
25.8296
 20
11.9457
 10
25.7742
 20
11.9258
 10
25.7171
 20
11.9115
 10
25.6588
 20
11.9029
 10
25.6
 20
11.9
 10
25.512
 20
11.9065
 10
25.4542
 20
11.918
 10
25.3704
 20
11.9457
 10
25.3172
 20
11.9708
 10
25.2426
 20
12.0181
 10
25.1971
 20
12.0554
 10
25.1554
 20
12.0971
 10
25.1129
 20
12.15
 10
12.9871
 20
12.15
 10
12.9446
 20
12.0971
 10
12.9029
 20
12.0554
 10
12.8574
 20
12.0181
 10
12.7828
 20
11.9708
 10
12.7296
 20
11.9457
 10
12.6458
 20
11.918
 10
12.588
 20
11.9065
 10
12.5
 20
11.9
 10
12.4412
 20
11.9029
 10
12.3829
 20
11.9115
 10
12.3258
 20
11.9258
 10
12.2704
 20
11.9457
 10
12.1915
 20
11.9854
 10
12.1426
 20
12.0181
 10
12.0971
 20
12.0554
 10
12.0554
 20
12.0971
 10
12.0181
 20
12.1426
 10
11.9854
 20
12.1915
 10
11.9457
 20
12.2704
 10
11.9258
 20
12.3258
 10
11.9115
 20
12.3829
 10
11.9029
 20
12.4412
 10
11.9
 20
12.5
 10
11.9065
 20
12.588
 10
11.918
 20
12.6458
 10
11.9457
 20
12.7296
 10
11.9708
 20
12.7828
 10
12.0181
 20
12.8574
 10
12.0554
 20
12.9029
 10
12.0971
 20
12.9446
 10
12.15
 20
12.9871
 10
12.15
 20
25.1129
 10
12.0971
 20
25.1554
 10
12.0362
 20
25.2194
 10
11.9854
 20
25.2915
 10
11.9576
 20
25.3435
 10
11.9258
 20
25.4258
 10
11.9115
 20
25.4829
 10
11.9007
 20
25.5706
 10
11.9007
 20
25.6294
 10
11.9115
 20
25.7171
 10
11.9351
 20
25.8021
 10
11.9708
 20
25.8828
 10
12.0181
 20
25.9574
 10
12.0757
 20
26.0243
 10
12.1426
 20
26.0819
 10
12.1915
 20
26.1146
 10
12.2704
 20
26.1543
 10
12.3542
 20
26.182
 10
12.412
 20
26.1935
 10
12.5
 20
26.2
 10
12.588
 20
26.1935
 10
12.6458
 20
26.182
 10
12.7296
 20
26.1543
 10
12.8085
 20
26.1146
  0
LWPOLYLINE
  5
A5
330
17
100
AcDbEntity
  8
CUT
100
AcDbPolyline
 90
247
 70
1
 10
-6.0585
 20
7.3369
 10
-6.03
 20
7.243
 10
-6.0108
 20
7.1467
 10
-6.0048
 20
7.098
 10
-6.0
 20
7.0
 10
6.0
 20
7.0
 10
6.0048
 20
7.098
 10
6.0108
 20
7.1467
 10
6.03
 20
7.243
 10
6.0431
 20
7.2903
 10
6.0761
 20
7.3827
 10
6.1181
 20
7.4714
 10
6.1423
 20
7.5141
 10
6.1968
 20
7.5957
 10
6.227
 20
7.6344
 10
6.2929
 20
7.7071
 10
6.3656
 20
7.773
 10
6.4043
 20
7.8032
 10
6.4444
 20
7.8315
 10
6.5286
 20
7.8819
 10
6.6173
 20
7.9239
 10
6.6631
 20
7.9415
 10
6.757
 20
7.97
 10
6.8049
 20
7.9808
 10
6.902
 20
7.9952
 10
6.9509
 20
7.9988
 10
7.0491
 20
7.9988
 10
7.098
 20
7.9952
 10
7.1467
 20
7.9892
 10
7.243
 20
7.97
 10
7.3369
 20
7.9415
 10
7.3827
 20
7.9239
 10
7.4714
 20
7.8819
 10
7.5141
 20
7.8577
 10
7.5957
 20
7.8032
 10
7.6344
 20
7.773
 10
7.7071
 20
7.7071
 10
7.741
 20
7.6716
 10
7.8032
 20
7.5957
 10
7.8315
 20
7.5556
 10
7.8577
 20
7.5141
 10
7.904
 20
7.4276
 10
7.9415
 20
7.3369
 10
7.9569
 20
7.2903
 10
7.97
 20
7.243
 10
7.9892
 20
7.1467
 10
7.9952
 20
7.098
 10
8.0
 20
7.0
 10
7.9988
 20
6.9509
 10
7.9892
 20
6.8533
 10
7.97
 20
6.757
 10
7.9415
 20
6.6631
 10
7.9239
 20
6.6173
 10
7.8819
 20
6.5286
 10
7.8577
 20
6.4859
 10
7.8032
 20
6.4043
 10
7.773
 20
6.3656
 10
7.741
 20
6.3284
 10
7.6716
 20
6.259
 10
7.6344
 20
6.227
 10
7.5556
 20
6.1685
 10
7.5141
 20
6.1423
 10
7.4276
 20
6.096
 10
7.3827
 20
6.0761
 10
7.2903
 20
6.0431
 10
7.243
 20
6.03
 10
7.1467
 20
6.0108
 10
7.0491
 20
6.0012
 10
7.0
 20
6.0
 10
7.0
 20
-6.0
 10
7.098
 20
-6.0048
 10
7.1467
 20
-6.0108
 10
7.243
 20
-6.03
 10
7.3369
 20
-6.0585
 10
7.3827
 20
-6.0761
 10
7.4714
 20
-6.1181
 10
7.5141
 20
-6.1423
 10
7.5957
 20
-6.1968
 10
7.6344
 20
-6.227
 10
7.7071
 20
-6.2929
 10
7.773
 20
-6.3656
 10
7.8032
 20
-6.4043
 10
7.8577
 20
-6.4859
 10
7.8819
 20
-6.5286
 10
7.9239
 20
-6.6173
 10
7.9415
 20
-6.6631
 10
7.97
 20
-6.757
 10
7.9808
 20
-6.8049
 10
7.9952
 20
-6.902
 10
7.9988
 20
-6.9509
 10
7.9988
 20
-7.0491
 10
7.9952
 20
-7.098
 10
7.9892
 20
-7.1467
 10
7.97
 20
-7.243
 10
7.9415
 20
-7.3369
 10
7.9239
 20
-7.3827
 10
7.8819
 20
-7.4714
 10
7.8577
 20
-7.5141
 10
7.8032
 20
-7.5957
 10
7.773
 20
-7.6344
 10
7.741
 20
-7.6716
 10
7.6716
 20
-7.741
 10
7.6344
 20
-7.773
 10
7.5556
 20
-7.8315
 10
7.5141
 20
-7.8577
 10
7.4276
 20
-7.904
 10
7.3827
 20
-7.9239
 10
7.2903
 20
-7.9569
 10
7.243
 20
-7.97
 10
7.1467
 20
-7.9892
 10
7.0491
 20
-7.9988
 10
6.9509
 20
-7.9988
 10
6.902
 20
-7.9952
 10
6.8533
 20
-7.9892
 10
6.757
 20
-7.97
 10
6.6631
 20
-7.9415
 10
6.6173
 20
-7.9239
 10
6.5286
 20
-7.8819
 10
6.4859
 20
-7.8577
 10
6.4043
 20
-7.8032
 10
6.3656
 20
-7.773
 10
6.2929
 20
-7.7071
 10
6.259
 20
-7.6716
 10
6.227
 20
-7.6344
 10
6.1685
 20
-7.5556
 10
6.1423
 20
-7.5141
 10
6.096
 20
-7.4276
 10
6.0585
 20
-7.3369
 10
6.0431
 20
-7.2903
 10
6.03
 20
-7.243
 10
6.0108
 20
-7.1467
 10
6.0048
 20
-7.098
 10
6.0
 20
-7.0
 10
-6.0
 20
-7.0
 10
-6.0012
 20
-7.0491
 10
-6.0108
 20
-7.1467
 10
-6.03
 20
-7.243
 10
-6.0431
 20
-7.2903
 10
-6.0585
 20
-7.3369
 10
-6.096
 20
-7.4276
 10
-6.1423
 20
-7.5141
 10
-6.1685
 20
-7.5556
 10
-6.227
 20
-7.6344
 10
-6.259
 20
-7.6716
 10
-6.3284
 20
-7.741
 10
-6.3656
 20
-7.773
 10
-6.4444
 20
-7.8315
 10
-6.4859
 20
-7.8577
 10
-6.5286
 20
-7.8819
 10
-6.6173
 20
-7.9239
 10
-6.6631
 20
-7.9415
 10
-6.757
 20
-7.97
 10
-6.8533
 20
-7.9892
 10
-6.9509
 20
-7.9988
 10
-7.0491
 20
-7.9988
 10
-7.098
 20
-7.9952
 10
-7.1467
 20
-7.9892
 10
-7.243
 20
-7.97
 10
-7.3369
 20
-7.9415
 10
-7.3827
 20
-7.9239
 10
-7.4714
 20
-7.8819
 10
-7.5141
 20
-7.8577
 10
-7.5957
 20
-7.8032
 10
-7.6344
 20
-7.773
 10
-7.7071
 20
-7.7071
 10
-7.741
 20
-7.6716
 10
-7.773
 20
-7.6344
 10
-7.8315
 20
-7.5556
 10
-7.8577
 20
-7.5141
 10
-7.904
 20
-7.4276
 10
-7.9415
 20
-7.3369
 10
-7.9569
 20
-7.2903
 10
-7.97
 20
-7.243
 10
-7.9892
 20
-7.1467
 10
-7.9988
 20
-7.0491
 10
-7.9988
 20
-6.9509
 10
-7.9952
 20
-6.902
 10
-7.9892
 20
-6.8533
 10
-7.97
 20
-6.757
 10
-7.9569
 20
-6.7097
 10
-7.9239
 20
-6.6173
 10
-7.8819
 20
-6.5286
 10
-7.8577
 20
-6.4859
 10
-7.8032
 20
-6.4043
 10
-7.773
 20
-6.3656
 10
-7.7071
 20
-6.2929
 10
-7.6716
 20
-6.259
 10
-7.6344
 20
-6.227
 10
-7.5556
 20
-6.1685
 10
-7.5141
 20
-6.1423
 10
-7.4276
 20
-6.096
 10
-7.3369
 20
-6.0585
 10
-7.2903
 20
-6.0431
 10
-7.243
 20
-6.03
 10
-7.1467
 20
-6.0108
 10
-7.098
 20
-6.0048
 10
-7.0
 20
-6.0
 10
-7.0
 20
6.0
 10
-7.098
 20
6.0048
 10
-7.1467
 20
6.0108
 10
-7.243
 20
6.03
 10
-7.3369
 20
6.0585
 10
-7.4276
 20
6.096
 10
-7.5141
 20
6.1423
 10
-7.5957
 20
6.1968
 10
-7.6716
 20
6.259
 10
-7.741
 20
6.3284
 10
-7.8032
 20
6.4043
 10
-7.8577
 20
6.4859
 10
-7.904
 20
6.5724
 10
-7.9415
 20
6.6631
 10
-7.97
 20
6.757
 10
-7.9892
 20
6.8533
 10
-7.9952
 20
6.902
 10
-8.0
 20
7.0
 10
-7.9952
 20
7.098
 10
-7.9892
 20
7.1467
 10
-7.97
 20
7.243
 10
-7.9415
 20
7.3369
 10
-7.904
 20
7.4276
 10
-7.8577
 20
7.5141
 10
-7.8032
 20
7.5957
 10
-7.773
 20
7.6344
 10
-7.7071
 20
7.7071
 10
-7.6344
 20
7.773
 10
-7.5957
 20
7.8032
 10
-7.5556
 20
7.8315
 10
-7.4714
 20
7.8819
 10
-7.3827
 20
7.9239
 10
-7.3369
 20
7.9415
 10
-7.243
 20
7.97
 10
-7.1467
 20
7.9892
 10
-7.0491
 20
7.9988
 10
-6.9509
 20
7.9988
 10
-6.902
 20
7.9952
 10
-6.8049
 20
7.9808
 10
-6.757
 20
7.97
 10
-6.6631
 20
7.9415
 10
-6.5724
 20
7.904
 10
-6.4859
 20
7.8577
 10
-6.4043
 20
7.8032
 10
-6.3284
 20
7.741
 10
-6.2929
 20
7.7071
 10
-6.227
 20
7.6344
 10
-6.1968
 20
7.5957
 10
-6.1423
 20
7.5141
 10
-6.096
 20
7.4276
  0
LWPOLYLINE
  5
A6
330
17
100
AcDbEntity
  8
CUT
100
AcDbPolyline
 90
247
 70
1
 10
13.0319
 20
7.2653
 10
13.0558
 20
7.1701
 10
13.0642
 20
7.1217
 10
13.0702
 20
7.073
 10
13.075
 20
6.975
 10
25.025
 20
6.975
 10
25.0298
 20
7.073
 10
25.0358
 20
7.1217
 10
25.0442
 20
7.1701
 10
25.0681
 20
7.2653
 10
25.1011
 20
7.3577
 10
25.121
 20
7.4026
 10
25.1673
 20
7.4891
 10
25.2218
 20
7.5707
 10
25.252
 20
7.6094
 10
25.3179
 20
7.6821
 10
25.3906
 20
7.748
 10
25.4293
 20
7.7782
 10
25.4694
 20
7.8065
 10
25.5536
 20
7.8569
 10
25.6423
 20
7.8989
 10
25.6881
 20
7.9165
 10
25.782
 20
7.945
 10
25.8299
 20
7.9558
 10
25.927
 20
7.9702
 10
25.9759
 20
7.9738
 10
26.0741
 20
7.9738
 10
26.123
 20
7.9702
 10
26.1717
 20
7.9642
 10
26.268
 20
7.945
 10
26.3619
 20
7.9165
 10
26.4077
 20
7.8989
 10
26.4964
 20
7.8569
 10
26.5391
 20
7.8327
 10
26.5806
 20
7.8065
 10
26.6594
 20
7.748
 10
26.6966
 20
7.716
 10
26.766
 20
7.6466
 10
26.798
 20
7.6094
 10
26.8565
 20
7.5306
 10
26.9069
 20
7.4464
 10
26.929
 20
7.4026
 10
26.9665
 20
7.3119
 10
26.9819
 20
7.2653
 10
27.0058
 20
7.1701
 10
27.0142
 20
7.1217
 10
27.0202
 20
7.073
 10
27.025
 20
6.975
 10
27.0202
 20
6.877
 10
27.0142
 20
6.8283
 10
27.0058
 20
6.7799
 10
26.9819
 20
6.6847
 10
26.9665
 20
6.6381
 10
26.929
 20
6.5474
 10
26.9069
 20
6.5036
 10
26.8565
 20
6.4194
 10
26.798
 20
6.3406
 10
26.766
 20
6.3034
 10
26.6966
 20
6.234
 10
26.6207
 20
6.1718
 10
26.5806
 20
6.1435
 10
26.4964
 20
6.0931
 10
26.4526
 20
6.071
 10
26.3619
 20
6.0335
 10
26.3153
 20
6.0181
 10
26.268
 20
6.005
 10
26.1717
 20
5.9858
 10
26.0741
 20
5.9762
 10
26.025
 20
5.975
 10
26.025
 20
-5.975
 10
26.123
 20
-5.9798
 10
26.1717
 20
-5.9858
 10
26.268
 20
-6.005
 10
26.3153
 20
-6.0181
 10
26.3619
 20
-6.0335
 10
26.4526
 20
-6.071
 10
26.4964
 20
-6.0931
 10
26.5806
 20
-6.1435
 10
26.6207
 20
-6.1718
 10
26.6966
 20
-6.234
 10
26.766
 20
-6.3034
 10
26.8282
 20
-6.3793
 10
26.8565
 20
-6.4194
 10
26.9069
 20
-6.5036
 10
26.9489
 20
-6.5923
 10
26.9665
 20
-6.6381
 10
26.995
 20
-6.732
 10
27.0058
 20
-6.7799
 10
27.0202
 20
-6.877
 10
27.0238
 20
-6.9259
 10
27.025
 20
-6.975
 10
27.0202
 20
-7.073
 10
27.0058
 20
-7.1701
 10
26.995
 20
-7.218
 10
26.9665
 20
-7.3119
 10
26.9489
 20
-7.3577
 10
26.9069
 20
-7.4464
 10
26.8827
 20
-7.4891
 10
26.8565
 20
-7.5306
 10
26.798
 20
-7.6094
 10
26.766
 20
-7.6466
 10
26.6966
 20
-7.716
 10
26.6207
 20
-7.7782
 10
26.5806
 20
-7.8065
 10
26.4964
 20
-7.8569
 10
26.4526
 20
-7.879
 10
26.3619
 20
-7.9165
 10
26.3153
 20
-7.9319
 10
26.268
 20
-7.945
 10
26.1717
 20
-7.9642
 10
26.0741
 20
-7.9738
 10
25.9759
 20
-7.9738
 10
25.927
 20
-7.9702
 10
25.8299
 20
-7.9558
 10
25.782
 20
-7.945
 10
25.6881
 20
-7.9165
 10
25.6423
 20
-7.8989
 10
25.5974
 20
-7.879
 10
25.5109
 20
-7.8327
 10
25.4694
 20
-7.8065
 10
25.3906
 20
-7.748
 10
25.3179
 20
-7.6821
 10
25.284
 20
-7.6466
 10
25.252
 20
-7.6094
 10
25.1935
 20
-7.5306
 10
25.1673
 20
-7.4891
 10
25.121
 20
-7.4026
 10
25.0835
 20
-7.3119
 10
25.0681
 20
-7.2653
 10
25.0442
 20
-7.1701
 10
25.0358
 20
-7.1217
 10
25.0298
 20
-7.073
 10
25.025
 20
-6.975
 10
13.075
 20
-6.975
 10
13.0702
 20
-7.073
 10
13.0642
 20
-7.1217
 10
13.0558
 20
-7.1701
 10
13.0319
 20
-7.2653
 10
13.0165
 20
-7.3119
 10
12.979
 20
-7.4026
 10
12.9327
 20
-7.4891
 10
12.9065
 20
-7.5306
 10
12.848
 20
-7.6094
 10
12.7821
 20
-7.6821
 10
12.7466
 20
-7.716
 10
12.6707
 20
-7.7782
 10
12.6306
 20
-7.8065
 10
12.5464
 20
-7.8569
 10
12.4577
 20
-7.8989
 10
12.4119
 20
-7.9165
 10
12.318
 20
-7.945
 10
12.2701
 20
-7.9558
 10
12.2217
 20
-7.9642
 10
12.1241
 20
-7.9738
 10
12.0259
 20
-7.9738
 10
11.977
 20
-7.9702
 10
11.8799
 20
-7.9558
 10
11.832
 20
-7.945
 10
11.7381
 20
-7.9165
 10
11.6923
 20
-7.8989
 10
11.6474
 20
-7.879
 10
11.5609
 20
-7.8327
 10
11.5194
 20
-7.8065
 10
11.4406
 20
-7.748
 10
11.3679
 20
-7.6821
 10
11.334
 20
-7.6466
 10
11.302
 20
-7.6094
 10
11.2435
 20
-7.5306
 10
11.1931
 20
-7.4464
 10
11.1511
 20
-7.3577
 10
11.1335
 20
-7.3119
 10
11.105
 20
-7.218
 10
11.0942
 20
-7.1701
 10
11.0798
 20
-7.073
 10
11.0762
 20
-7.0241
 10
11.075
 20
-6.975
 10
11.0798
 20
-6.877
 10
11.0942
 20
-6.7799
 10
11.105
 20
-6.732
 10
11.1335
 20
-6.6381
 10
11.1511
 20
-6.5923
 10
11.1931
 20
-6.5036
 10
11.2173
 20
-6.4609
 10
11.2718
 20
-6.3793
 10
11.302
 20
-6.3406
 10
11.3679
 20
-6.2679
 10
11.4034
 20
-6.234
 10
11.4406
 20
-6.202
 10
11.5194
 20
-6.1435
 10
11.6036
 20
-6.0931
 10
11.6474
 20
-6.071
 10
11.7381
 20
-6.0335
 10
11.7847
 20
-6.0181
 10
11.832
 20
-6.005
 10
11.9283
 20
-5.9858
 10
11.977
 20
-5.9798
 10
12.075
 20
-5.975
 10
12.075
 20
5.975
 10
11.977
 20
5.9798
 10
11.8799
 20
5.9942
 10
11.832
 20
6.005
 10
11.7381
 20
6.0335
 10
11.6474
 20
6.071
 10
11.5609
 20
6.1173
 10
11.4793
 20
6.1718
 10
11.4034
 20
6.234
 10
11.334
 20
6.3034
 10
11.2718
 20
6.3793
 10
11.2173
 20
6.4609
 10
11.171
 20
6.5474
 10
11.1335
 20
6.6381
 10
11.105
 20
6.732
 10
11.0942
 20
6.7799
 10
11.0798
 20
6.877
 10
11.075
 20
6.975
 10
11.0798
 20
7.073
 10
11.0942
 20
7.1701
 10
11.105
 20
7.218
 10
11.1335
 20
7.3119
 10
11.171
 20
7.4026
 10
11.2173
 20
7.4891
 10
11.2718
 20
7.5707
 10
11.302
 20
7.6094
 10
11.3679
 20
7.6821
 10
11.4406
 20
7.748
 10
11.5194
 20
7.8065
 10
11.6036
 20
7.8569
 10
11.6474
 20
7.879
 10
11.7381
 20
7.9165
 10
11.832
 20
7.945
 10
11.9283
 20
7.9642
 10
11.977
 20
7.9702
 10
12.075
 20
7.975
 10
12.173
 20
7.9702
 10
12.2217
 20
7.9642
 10
12.318
 20
7.945
 10
12.4119
 20
7.9165
 10
12.4577
 20
7.8989
 10
12.5464
 20
7.8569
 10
12.6306
 20
7.8065
 10
12.7094
 20
7.748
 10
12.7821
 20
7.6821
 10
12.848
 20
7.6094
 10
12.8782
 20
7.5707
 10
12.9327
 20
7.4891
 10
12.9569
 20
7.4464
 10
12.9989
 20
7.3577
  0
LWPOLYLINE
  5
A7
330
17
100
AcDbEntity
  8
CUT
100
AcDbPolyline
 90
75
 70
1
 10
15.1299
 20
-10.6215
 10
15.2016
 20
-10.6054
 10
15.275
 20
-10.6
 10
17.875
 20
-10.6
 10
17.924
 20
-10.6024
 10
17.9965
 20
-10.615
 10
18.0663
 20
-10.6381
 10
18.1107
 20
-10.659
 10
18.1728
 20
-10.6984
 10
18.2286
 20
-10.7464
 10
18.2766
 20
-10.8022
 10
18.316
 20
-10.8643
 10
18.3458
 20
-10.9316
 10
18.36
 20
-10.9785
 10
18.3696
 20
-11.0266
 10
18.375
 20
-11.1
 10
18.375
 20
-15.25
 10
19.2495
 20
-15.2506
 10
19.3225
 20
-15.2596
 10
19.3934
 20
-15.2792
 10
19.4607
 20
-15.309
 10
19.5228
 20
-15.3484
 10
19.5786
 20
-15.3964
 10
19.6266
 20
-15.4522
 10
19.6539
 20
-15.4929
 10
19.6869
 20
-15.5587
 10
19.71
 20
-15.6285
 10
19.7226
 20
-15.701
 10
19.725
 20
-15.75
 10
19.7244
 20
-21.6245
 10
19.7154
 20
-21.6975
 10
19.6958
 20
-21.7684
 10
19.666
 20
-21.8357
 10
19.6266
 20
-21.8978
 10
19.5786
 20
-21.9536
 10
19.5228
 20
-22.0016
 10
19.4607
 20
-22.041
 10
19.3934
 20
-22.0708
 10
19.3465
 20
-22.085
 10
19.2984
 20
-22.0946
 10
19.225
 20
-22.1
 10
13.9005
 20
-22.0994
 10
13.8275
 20
-22.0904
 10
13.7566
 20
-22.0708
 10
13.6893
 20
-22.041
 10
13.6272
 20
-22.0016
 10
13.5714
 20
-21.9536
 10
13.5234
 20
-21.8978
 10
13.484
 20
-21.8357
 10
13.4542
 20
-21.7684
 10
13.44
 20
-21.7215
 10
13.4304
 20
-21.6734
 10
13.425
 20
-21.6
 10
13.425
 20
-15.75
 10
13.4304
 20
-15.6766
 10
13.4465
 20
-15.6049
 10
13.473
 20
-15.5362
 10
13.4961
 20
-15.4929
 10
13.5385
 20
-15.4328
 10
13.5892
 20
-15.3795
 10
13.6472
 20
-15.3343
 10
13.7112
 20
-15.298
 10
13.7799
 20
-15.2715
 10
13.8516
 20
-15.2554
 10
13.925
 20
-15.25
 10
14.775
 20
-15.25
 10
14.775
 20
-11.1
 10
14.7774
 20
-11.051
 10
14.79
 20
-10.9785
 10
14.8131
 20
-10.9087
 10
14.8461
 20
-10.8429
 10
14.8885
 20
-10.7828
 10
14.9392
 20
-10.7295
 10
14.9972
 20
-10.6843
 10
15.0612
 20
-10.648
  0
LWPOLYLINE
  5
A8
330
17
100
AcDbEntity
  8
CUT
100
AcDbPolyline
 90
124
 70
1
 10
-15.8167
 20
-11.9261
 10
-15.7694
 20
-11.9612
 10
-15.7257
 20
-12.0007
 10
-15.6629
 20
-12.075
 10
-3.3871
 20
-12.075
 10
-3.3446
 20
-12.0221
 10
-3.3029
 20
-11.9804
 10
-3.2574
 20
-11.9431
 10
-3.1828
 20
-11.8958
 10
-3.1296
 20
-11.8707
 10
-3.0458
 20
-11.843
 10
-2.988
 20
-11.8315
 10
-2.9
 20
-11.825
 10
-2.8412
 20
-11.8279
 10
-2.7829
 20
-11.8365
 10
-2.7258
 20
-11.8508
 10
-2.6704
 20
-11.8707
 10
-2.5915
 20
-11.9104
 10
-2.5426
 20
-11.9431
 10
-2.4971
 20
-11.9804
 10
-2.4554
 20
-12.0221
 10
-2.4011
 20
-12.0917
 10
-2.3708
 20
-12.1422
 10
-2.3457
 20
-12.1954
 10
-2.3258
 20
-12.2508
 10
-2.3115
 20
-12.3079
 10
-2.3029
 20
-12.3662
 10
-2.3
 20
-12.425
 10
-2.3029
 20
-12.4838
 10
-2.318
 20
-12.5708
 10
-2.3457
 20
-12.6546
 10
-2.3708
 20
-12.7078
 10
-2.4011
 20
-12.7583
 10
-2.4554
 20
-12.8279
 10
-2.4971
 20
-12.8696
 10
-2.55
 20
-12.9121
 10
-2.55
 20
-25.1879
 10
-2.4971
 20
-25.2304
 10
-2.4554
 20
-25.2721
 10
-2.4011
 20
-25.3417
 10
-2.3708
 20
-25.3922
 10
-2.3457
 20
-25.4454
 10
-2.318
 20
-25.5292
 10
-2.3029
 20
-25.6162
 10
-2.3
 20
-25.675
 10
-2.3029
 20
-25.7338
 10
-2.3115
 20
-25.7921
 10
-2.3258
 20
-25.8492
 10
-2.3457
 20
-25.9046
 10
-2.3708
 20
-25.9578
 10
-2.4011
 20
-26.0083
 10
-2.4362
 20
-26.0556
 10
-2.4971
 20
-26.1196
 10
-2.5426
 20
-26.1569
 10
-2.5915
 20
-26.1896
 10
-2.6704
 20
-26.2293
 10
-2.7258
 20
-26.2492
 10
-2.7829
 20
-26.2635
 10
-2.8412
 20
-26.2721
 10
-2.9
 20
-26.275
 10
-2.988
 20
-26.2685
 10
-3.0458
 20
-26.257
 10
-3.1296
 20
-26.2293
 10
-3.1828
 20
-26.2042
 10
-3.2574
 20
-26.1569
 10
-3.3029
 20
-26.1196
 10
-3.3446
 20
-26.0779
 10
-3.3871
 20
-26.025
 10
-15.6629
 20
-26.025
 10
-15.7054
 20
-26.0779
 10
-15.7471
 20
-26.1196
 10
-15.7926
 20
-26.1569
 10
-15.8672
 20
-26.2042
 10
-15.9204
 20
-26.2293
 10
-16.0042
 20
-26.257
 10
-16.062
 20
-26.2685
 10
-16.15
 20
-26.275
 10
-16.2088
 20
-26.2721
 10
-16.2671
 20
-26.2635
 10
-16.3242
 20
-26.2492
 10
-16.3796
 20
-26.2293
 10
-16.4328
 20
-26.2042
 10
-16.5074
 20
-26.1569
 10
-16.5529
 20
-26.1196
 10
-16.5946
 20
-26.0779
 10
-16.6319
 20
-26.0324
 10
-16.6646
 20
-25.9835
 10
-16.6924
 20
-25.9315
 10
-16.7149
 20
-25.8771
 10
-16.732
 20
-25.8208
 10
-16.7435
 20
-25.763
 10
-16.75
 20
-25.675
 10
-16.7471
 20
-25.6162
 10
-16.732
 20
-25.5292
 10
-16.7149
 20
-25.4729
 10
-16.6792
 20
-25.3922
 10
-16.6489
 20
-25.3417
 10
-16.5946
 20
-25.2721
 10
-16.5529
 20
-25.2304
 10
-16.5
 20
-25.1879
 10
-16.5
 20
-12.9121
 10
-16.5529
 20
-12.8696
 10
-16.6138
 20
-12.8056
 10
-16.6489
 20
-12.7583
 10
-16.6924
 20
-12.6815
 10
-16.7149
 20
-12.6271
 10
-16.7385
 20
-12.5421
 10
-16.7471
 20
-12.4838
 10
-16.7493
 20
-12.3956
 10
-16.7385
 20
-12.3079
 10
-16.7149
 20
-12.2229
 10
-16.6924
 20
-12.1685
 10
-16.6489
 20
-12.0917
 10
-16.5946
 20
-12.0221
 10
-16.5529
 20
-11.9804
 10
-16.5074
 20
-11.9431
 10
-16.4328
 20
-11.8958
 10
-16.3796
 20
-11.8707
 10
-16.2958
 20
-11.843
 10
-16.2088
 20
-11.8279
 10
-16.1206
 20
-11.8257
 10
-16.062
 20
-11.8315
 10
-15.9758
 20
-11.8508
 10
-15.8935
 20
-11.8826
  0
LWPOLYLINE
  5
A9
330
17
100
AcDbEntity
  8
CUT
100
AcDbPolyline
 90
170
 70
1
 10
-24.1451
 20
-15.4406
 10
-24.0734
 20
-15.4245
 10
-24.0
 20
-15.4191
 10
-19.0255
 20
-15.4197
 10
-18.9525
 20
-15.4287
 10
-18.8816
 20
-15.4483
 10
-18.8143
 20
-15.4781
 10
-18.7522
 20
-15.5175
 10
-18.6964
 20
-15.5655
 10
-18.6484
 20
-15.6213
 10
-18.609
 20
-15.6834
 10
-18.5881
 20
-15.7278
 10
-18.5715
 20
-15.774
 10
-18.5596
 20
-15.8216
 10
-18.5524
 20
-15.8701
 10
-18.55
 20
-15.9191
 10
-18.5506
 20
-22.8936
 10
-18.5554
 20
-22.9425
 10
-18.565
 20
-22.9906
 10
-18.5881
 20
-23.0604
 10
-18.609
 20
-23.1048
 10
-18.6343
 20
-23.1469
 10
-18.6795
 20
-23.2049
 10
-18.7142
 20
-23.2396
 10
-18.7722
 20
-23.2848
 10
-18.8143
 20
-23.3101
 10
-18.8587
 20
-23.331
 10
-18.9049
 20
-23.3476
 10
-18.9525
 20
-23.3595
 10
-19.0255
 20
-23.3685
 10
-19.25
 20
-23.3691
 10
-19.25
 20
-26.6309
 10
0.2
 20
-26.6309
 10
0.2
 20
-23.3691
 10
-0.0245
 20
-23.3685
 10
-0.0975
 20
-23.3595
 10
-0.1451
 20
-23.3476
 10
-0.1913
 20
-23.331
 10
-0.2357
 20
-23.3101
 10
-0.2778
 20
-23.2848
 10
-0.3358
 20
-23.2396
 10
-0.3705
 20
-23.2049
 10
-0.4016
 20
-23.1669
 10
-0.4289
 20
-23.1262
 10
-0.452
 20
-23.0829
 10
-0.4785
 20
-23.0142
 10
-0.4946
 20
-22.9425
 10
-0.4994
 20
-22.8936
 10
-0.5
 20
-15.9191
 10
-0.4946
 20
-15.8457
 10
-0.485
 20
-15.7976
 10
-0.4708
 20
-15.7507
 10
-0.452
 20
-15.7053
 10
-0.4157
 20
-15.6413
 10
-0.3705
 20
-15.5833
 10
-0.3172
 20
-15.5326
 10
-0.2778
 20
-15.5034
 10
-0.2357
 20
-15.4781
 10
-0.1684
 20
-15.4483
 10
-0.0975
 20
-15.4287
 10
-0.0245
 20
-15.4197
 10
4.95
 20
-15.4191
 10
4.999
 20
-15.4215
 10
5.0475
 20
-15.4287
 10
5.1184
 20
-15.4483
 10
5.1638
 20
-15.4671
 10
5.2071
 20
-15.4902
 10
5.2672
 20
-15.5326
 10
5.3205
 20
-15.5833
 10
5.3657
 20
-15.6413
 10
5.402
 20
-15.7053
 10
5.4285
 20
-15.774
 10
5.4446
 20
-15.8457
 10
5.4494
 20
-15.8946
 10
5.4494
 20
-22.8936
 10
5.4446
 20
-22.9425
 10
5.435
 20
-22.9906
 10
5.4208
 20
-23.0375
 10
5.391
 20
-23.1048
 10
5.3516
 20
-23.1669
 10
5.3205
 20
-23.2049
 10
5.2858
 20
-23.2396
 10
5.2278
 20
-23.2848
 10
5.1857
 20
-23.3101
 10
5.1413
 20
-23.331
 10
5.0951
 20
-23.3476
 10
5.0475
 20
-23.3595
 10
4.9745
 20
-23.3685
 10
4.75
 20
-23.3691
 10
4.75
 20
-28.4309
 10
4.7446
 20
-28.5043
 10
4.735
 20
-28.5524
 10
4.7208
 20
-28.5993
 10
4.702
 20
-28.6447
 10
4.6789
 20
-28.688
 10
4.6365
 20
-28.7481
 10
4.5858
 20
-28.8014
 10
4.5278
 20
-28.8466
 10
4.4638
 20
-28.8829
 10
4.3951
 20
-28.9094
 10
4.3475
 20
-28.9213
 10
4.2745
 20
-28.9303
 10
0.7
 20
-28.9309
 10
0.6266
 20
-28.9255
 10
0.5785
 20
-28.9159
 10
0.5087
 20
-28.8928
 10
0.4643
 20
-28.8719
 10
0.4022
 20
-28.8325
 10
0.3464
 20
-28.7845
 10
0.3135
 20
-28.7481
 10
0.2711
 20
-28.688
 10
0.248
 20
-28.6447
 10
0.2292
 20
-28.5993
 10
0.215
 20
-28.5524
 10
0.2024
 20
-28.4799
 10
0.2
 20
-28.4309
 10
0.2
 20
-28.0309
 10
-19.25
 20
-28.0309
 10
-19.25
 20
-28.4309
 10
-19.2524
 20
-28.4799
 10
-19.265
 20
-28.5524
 10
-19.2792
 20
-28.5993
 10
-19.298
 20
-28.6447
 10
-19.3211
 20
-28.688
 10
-19.3635
 20
-28.7481
 10
-19.3964
 20
-28.7845
 10
-19.4328
 20
-28.8174
 10
-19.4929
 20
-28.8598
 10
-19.5362
 20
-28.8829
 10
-19.6049
 20
-28.9094
 10
-19.6525
 20
-28.9213
 10
-19.701
 20
-28.9285
 10
-19.75
 20
-28.9309
 10
-23.3
 20
-28.9309
 10
-23.3734
 20
-28.9255
 10
-23.4215
 20
-28.9159
 10
-23.4684
 20
-28.9017
 10
-23.5138
 20
-28.8829
 10
-23.5571
 20
-28.8598
 10
-23.6172
 20
-28.8174
 10
-23.6705
 20
-28.7667
 10
-23.7157
 20
-28.7087
 10
-23.752
 20
-28.6447
 10
-23.7785
 20
-28.576
 10
-23.7946
 20
-28.5043
 10
-23.7994
 20
-28.4554
 10
-23.8
 20
-23.3691
 10
-24.0245
 20
-23.3685
 10
-24.0975
 20
-23.3595
 10
-24.1451
 20
-23.3476
 10
-24.1913
 20
-23.331
 10
-24.2357
 20
-23.3101
 10
-24.2778
 20
-23.2848
 10
-24.3172
 20
-23.2556
 10
-24.3705
 20
-23.2049
 10
-24.4016
 20
-23.1669
 10
-24.4289
 20
-23.1262
 10
-24.452
 20
-23.0829
 10
-24.4785
 20
-23.0142
 10
-24.4946
 20
-22.9425
 10
-24.4994
 20
-22.8936
 10
-24.4994
 20
-15.8946
 10
-24.4904
 20
-15.8216
 10
-24.4708
 20
-15.7507
 10
-24.441
 20
-15.6834
 10
-24.4016
 20
-15.6213
 10
-24.3536
 20
-15.5655
 10
-24.2978
 20
-15.5175
 10
-24.2571
 20
-15.4902
 10
-24.2138
 20
-15.4671
  0
LWPOLYLINE
  5
AA
330
17
100
AcDbEntity
  8
CUT
100
AcDbPolyline
 90
75
 70
1
 10
-10.6215
 20
-34.1799
 10
-10.6054
 20
-34.2516
 10
-10.6
 20
-34.325
 10
-10.6
 20
-36.925
 10
-10.6024
 20
-36.974
 10
-10.615
 20
-37.0465
 10
-10.6381
 20
-37.1163
 10
-10.659
 20
-37.1607
 10
-10.6984
 20
-37.2228
 10
-10.7464
 20
-37.2786
 10
-10.8022
 20
-37.3266
 10
-10.8643
 20
-37.366
 10
-10.9316
 20
-37.3958
 10
-10.9785
 20
-37.41
 10
-11.0266
 20
-37.4196
 10
-11.1
 20
-37.425
 10
-15.25
 20
-37.425
 10
-15.2506
 20
-38.2995
 10
-15.2596
 20
-38.3725
 10
-15.2792
 20
-38.4434
 10
-15.309
 20
-38.5107
 10
-15.3484
 20
-38.5728
 10
-15.3964
 20
-38.6286
 10
-15.4328
 20
-38.6615
 10
-15.4929
 20
-38.7039
 10
-15.5587
 20
-38.7369
 10
-15.6285
 20
-38.76
 10
-15.701
 20
-38.7726
 10
-15.75
 20
-38.775
 10
-21.6245
 20
-38.7744
 10
-21.6975
 20
-38.7654
 10
-21.7684
 20
-38.7458
 10
-21.8357
 20
-38.716
 10
-21.8978
 20
-38.6766
 10
-21.9536
 20
-38.6286
 10
-22.0016
 20
-38.5728
 10
-22.041
 20
-38.5107
 10
-22.0708
 20
-38.4434
 10
-22.085
 20
-38.3965
 10
-22.0946
 20
-38.3484
 10
-22.1
 20
-38.275
 10
-22.0994
 20
-32.9505
 10
-22.0904
 20
-32.8775
 10
-22.0708
 20
-32.8066
 10
-22.041
 20
-32.7393
 10
-22.0016
 20
-32.6772
 10
-21.9536
 20
-32.6214
 10
-21.8978
 20
-32.5734
 10
-21.8357
 20
-32.534
 10
-21.7684
 20
-32.5042
 10
-21.7215
 20
-32.49
 10
-21.6734
 20
-32.4804
 10
-21.6
 20
-32.475
 10
-15.75
 20
-32.475
 10
-15.6766
 20
-32.4804
 10
-15.6049
 20
-32.4965
 10
-15.5587
 20
-32.5131
 10
-15.4929
 20
-32.5461
 10
-15.4328
 20
-32.5885
 10
-15.3795
 20
-32.6392
 10
-15.3343
 20
-32.6972
 10
-15.298
 20
-32.7612
 10
-15.2715
 20
-32.8299
 10
-15.2554
 20
-32.9016
 10
-15.25
 20
-32.975
 10
-15.25
 20
-33.825
 10
-11.1
 20
-33.825
 10
-11.051
 20
-33.8274
 10
-10.9785
 20
-33.84
 10
-10.9087
 20
-33.8631
 10
-10.8429
 20
-33.8961
 10
-10.7828
 20
-33.9385
 10
-10.7295
 20
-33.9892
 10
-10.6843
 20
-34.0472
 10
-10.648
 20
-34.1112
  0
LWPOLYLINE
  5
AB
330
17
100
AcDbEntity
  8
CUT
100
AcDbPolyline
 90
123
 70
1
 10
-6.2694
 20
-30.9862
 10
-6.2054
 20
-31.0471
 10
-6.1629
 20
-31.1
 10
6.1629
 20
-31.1
 10
6.2054
 20
-31.0471
 10
6.2471
 20
-31.0054
 10
6.3167
 20
-30.9511
 10
6.3672
 20
-30.9208
 10
6.4479
 20
-30.8851
 10
6.5042
 20
-30.868
 10
6.5912
 20
-30.8529
 10
6.65
 20
-30.85
 10
6.7088
 20
-30.8529
 10
6.7958
 20
-30.868
 10
6.8521
 20
-30.8851
 10
6.9065
 20
-30.9076
 10
6.9585
 20
-30.9354
 10
7.0074
 20
-30.9681
 10
7.0529
 20
-31.0054
 10
7.0946
 20
-31.0471
 10
7.1319
 20
-31.0926
 10
7.1646
 20
-31.1415
 10
7.2043
 20
-31.2204
 10
7.2242
 20
-31.2758
 10
7.2385
 20
-31.3329
 10
7.2471
 20
-31.3912
 10
7.25
 20
-31.45
 10
7.2435
 20
-31.538
 10
7.232
 20
-31.5958
 10
7.2043
 20
-31.6796
 10
7.1792
 20
-31.7328
 10
7.1489
 20
-31.7833
 10
7.0946
 20
-31.8529
 10
7.0529
 20
-31.8946
 10
7.0
 20
-31.9371
 10
7.0
 20
-44.2629
 10
7.0529
 20
-44.3054
 10
7.0946
 20
-44.3471
 10
7.1489
 20
-44.4167
 10
7.1792
 20
-44.4672
 10
7.2043
 20
-44.5204
 10
7.232
 20
-44.6042
 10
7.2435
 20
-44.662
 10
7.25
 20
-44.75
 10
7.2471
 20
-44.8088
 10
7.2385
 20
-44.8671
 10
7.2242
 20
-44.9242
 10
7.2043
 20
-44.9796
 10
7.1646
 20
-45.0585
 10
7.1319
 20
-45.1074
 10
7.0946
 20
-45.1529
 10
7.0529
 20
-45.1946
 10
7.0074
 20
-45.2319
 10
6.9585
 20
-45.2646
 10
6.8796
 20
-45.3043
 10
6.8242
 20
-45.3242
 10
6.7671
 20
-45.3385
 10
6.7088
 20
-45.3471
 10
6.65
 20
-45.35
 10
6.562
 20
-45.3435
 10
6.5042
 20
-45.332
 10
6.4204
 20
-45.3043
 10
6.3672
 20
-45.2792
 10
6.2926
 20
-45.2319
 10
6.2471
 20
-45.1946
 10
6.2054
 20
-45.1529
 10
6.1629
 20
-45.1
 10
-6.1629
 20
-45.1
 10
-6.2054
 20
-45.1529
 10
-6.2471
 20
-45.1946
 10
-6.2926
 20
-45.2319
 10
-6.3672
 20
-45.2792
 10
-6.4204
 20
-45.3043
 10
-6.5042
 20
-45.332
 10
-6.562
 20
-45.3435
 10
-6.65
 20
-45.35
 10
-6.7088
 20
-45.3471
 10
-6.7671
 20
-45.3385
 10
-6.8242
 20
-45.3242
 10
-6.8796
 20
-45.3043
 10
-6.9328
 20
-45.2792
 10
-7.0074
 20
-45.2319
 10
-7.0529
 20
-45.1946
 10
-7.0946
 20
-45.1529
 10
-7.1319
 20
-45.1074
 10
-7.1646
 20
-45.0585
 10
-7.2043
 20
-44.9796
 10
-7.2242
 20
-44.9242
 10
-7.2385
 20
-44.8671
 10
-7.2471
 20
-44.8088
 10
-7.25
 20
-44.75
 10
-7.2435
 20
-44.662
 10
-7.232
 20
-44.6042
 10
-7.2043
 20
-44.5204
 10
-7.1792
 20
-44.4672
 10
-7.1489
 20
-44.4167
 10
-7.0946
 20
-44.3471
 10
-7.0529
 20
-44.3054
 10
-7.0
 20
-44.2629
 10
-7.0
 20
-31.9371
 10
-7.0529
 20
-31.8946
 10
-7.1138
 20
-31.8306
 10
-7.1646
 20
-31.7585
 10
-7.1924
 20
-31.7065
 10
-7.2242
 20
-31.6242
 10
-7.2385
 20
-31.5671
 10
-7.2493
 20
-31.4794
 10
-7.2493
 20
-31.4206
 10
-7.2385
 20
-31.3329
 10
-7.2149
 20
-31.2479
 10
-7.1792
 20
-31.1672
 10
-7.1489
 20
-31.1167
 10
-7.1138
 20
-31.0694
 10
-7.0529
 20
-31.0054
 10
-6.9833
 20
-30.9511
 10
-6.9065
 20
-30.9076
 10
-6.8242
 20
-30.8758
 10
-6.738
 20
-30.8565
 10
-6.65
 20
-30.85
 10
-6.5912
 20
-30.8529
 10
-6.5042
 20
-30.868
 10
-6.4204
 20
-30.8957
 10
-6.3415
 20
-30.9354
  0
LWPOLYLINE
  5
AC
330
17
100
AcDbEntity
  8
CUT
100
AcDbPolyline
 90
123
 70
1
 10
12.8029
 20
-31.0054
 10
12.8446
 20
-31.0471
 10
12.8871
 20
-31.1
 10
25.2129
 20
-31.1
 10
25.2554
 20
-31.0471
 10
25.2971
 20
-31.0054
 10
25.3426
 20
-30.9681
 10
25.4172
 20
-30.9208
 10
25.4979
 20
-30.8851
 10
25.5542
 20
-30.868
 10
25.6412
 20
-30.8529
 10
25.7
 20
-30.85
 10
25.7588
 20
-30.8529
 10
25.8458
 20
-30.868
 10
25.9021
 20
-30.8851
 10
25.9565
 20
-30.9076
 10
26.0085
 20
-30.9354
 10
26.0574
 20
-30.9681
 10
26.1029
 20
-31.0054
 10
26.1446
 20
-31.0471
 10
26.1819
 20
-31.0926
 10
26.2146
 20
-31.1415
 10
26.2424
 20
-31.1935
 10
26.2649
 20
-31.2479
 10
26.2885
 20
-31.3329
 10
26.2971
 20
-31.3912
 10
26.3
 20
-31.45
 10
26.2971
 20
-31.5088
 10
26.282
 20
-31.5958
 10
26.2649
 20
-31.6521
 10
26.2292
 20
-31.7328
 10
26.1989
 20
-31.7833
 10
26.1446
 20
-31.8529
 10
26.1029
 20
-31.8946
 10
26.05
 20
-31.9371
 10
26.05
 20
-44.2629
 10
26.1029
 20
-44.3054
 10
26.1446
 20
-44.3471
 10
26.1989
 20
-44.4167
 10
26.2292
 20
-44.4672
 10
26.2649
 20
-44.5479
 10
26.282
 20
-44.6042
 10
26.2971
 20
-44.6912
 10
26.3
 20
-44.75
 10
26.2971
 20
-44.8088
 10
26.2885
 20
-44.8671
 10
26.2649
 20
-44.9521
 10
26.2424
 20
-45.0065
 10
26.2146
 20
-45.0585
 10
26.1819
 20
-45.1074
 10
26.1446
 20
-45.1529
 10
26.1029
 20
-45.1946
 10
26.0574
 20
-45.2319
 10
26.0085
 20
-45.2646
 10
25.9296
 20
-45.3043
 10
25.8742
 20
-45.3242
 10
25.8171
 20
-45.3385
 10
25.7588
 20
-45.3471
 10
25.7
 20
-45.35
 10
25.612
 20
-45.3435
 10
25.5542
 20
-45.332
 10
25.4704
 20
-45.3043
 10
25.4172
 20
-45.2792
 10
25.3426
 20
-45.2319
 10
25.2971
 20
-45.1946
 10
25.2554
 20
-45.1529
 10
25.2129
 20
-45.1
 10
12.8871
 20
-45.1
 10
12.8446
 20
-45.1529
 10
12.8029
 20
-45.1946
 10
12.7574
 20
-45.2319
 10
12.6828
 20
-45.2792
 10
12.6296
 20
-45.3043
 10
12.5458
 20
-45.332
 10
12.488
 20
-45.3435
 10
12.4
 20
-45.35
 10
12.3412
 20
-45.3471
 10
12.2829
 20
-45.3385
 10
12.2258
 20
-45.3242
 10
12.1704
 20
-45.3043
 10
12.1172
 20
-45.2792
 10
12.0426
 20
-45.2319
 10
11.9971
 20
-45.1946
 10
11.9554
 20
-45.1529
 10
11.9181
 20
-45.1074
 10
11.8854
 20
-45.0585
 10
11.8576
 20
-45.0065
 10
11.8351
 20
-44.9521
 10
11.8115
 20
-44.8671
 10
11.8029
 20
-44.8088
 10
11.8
 20
-44.75
 10
11.8029
 20
-44.6912
 10
11.818
 20
-44.6042
 10
11.8351
 20
-44.5479
 10
11.8708
 20
-44.4672
 10
11.9011
 20
-44.4167
 10
11.9554
 20
-44.3471
 10
11.9971
 20
-44.3054
 10
12.05
 20
-44.2629
 10
12.05
 20
-31.9371
 10
11.9971
 20
-31.8946
 10
11.9362
 20
-31.8306
 10
11.9011
 20
-31.7833
 10
11.8576
 20
-31.7065
 10
11.8258
 20
-31.6242
 10
11.8115
 20
-31.5671
 10
11.8029
 20
-31.5088
 10
11.8007
 20
-31.4206
 10
11.8115
 20
-31.3329
 10
11.8351
 20
-31.2479
 10
11.8708
 20
-31.1672
 10
11.9011
 20
-31.1167
 10
11.9554
 20
-31.0471
 10
12.0194
 20
-30.9862
 10
12.0915
 20
-30.9354
 10
12.1704
 20
-30.8957
 10
12.2542
 20
-30.868
 10
12.3412
 20
-30.8529
 10
12.4
 20
-30.85
 10
12.488
 20
-30.8565
 10
12.5742
 20
-30.8758
 10
12.6565
 20
-30.9076
 10
12.7333
 20
-30.9511
  0
LWPOLYLINE
  5
AD
330
17
100
AcDbEntity
  8
CUT
100
AcDbPolyline
 90
123
 70
1
 10
12.7806
 20
-50.0362
 10
12.8446
 20
-50.0971
 10
12.8871
 20
-50.15
 10
25.2129
 20
-50.15
 10
25.2554
 20
-50.0971
 10
25.2971
 20
-50.0554
 10
25.3426
 20
-50.0181
 10
25.4172
 20
-49.9708
 10
25.4704
 20
-49.9457
 10
25.5542
 20
-49.918
 10
25.612
 20
-49.9065
 10
25.7
 20
-49.9
 10
25.7588
 20
-49.9029
 10
25.8171
 20
-49.9115
 10
25.8742
 20
-49.9258
 10
25.9296
 20
-49.9457
 10
25.9828
 20
-49.9708
 10
26.0574
 20
-50.0181
 10
26.1029
 20
-50.0554
 10
26.1446
 20
-50.0971
 10
26.1819
 20
-50.1426
 10
26.2146
 20
-50.1915
 10
26.2424
 20
-50.2435
 10
26.2649
 20
-50.2979
 10
26.2885
 20
-50.3829
 10
26.2971
 20
-50.4412
 10
26.3
 20
-50.5
 10
26.2971
 20
-50.5588
 10
26.282
 20
-50.6458
 10
26.2649
 20
-50.7021
 10
26.2292
 20
-50.7828
 10
26.1989
 20
-50.8333
 10
26.1446
 20
-50.9029
 10
26.1029
 20
-50.9446
 10
26.05
 20
-50.9871
 10
26.05
 20
-63.3129
 10
26.1029
 20
-63.3554
 10
26.1446
 20
-63.3971
 10
26.1989
 20
-63.4667
 10
26.2292
 20
-63.5172
 10
26.2649
 20
-63.5979
 10
26.282
 20
-63.6542
 10
26.2971
 20
-63.7412
 10
26.3
 20
-63.8
 10
26.2971
 20
-63.8588
 10
26.2885
 20
-63.9171
 10
26.2742
 20
-63.9742
 10
26.2424
 20
-64.0565
 10
26.2146
 20
-64.1085
 10
26.1819
 20
-64.1574
 10
26.1446
 20
-64.2029
 10
26.1029
 20
-64.2446
 10
26.0574
 20
-64.2819
 10
26.0085
 20
-64.3146
 10
25.9296
 20
-64.3543
 10
25.8742
 20
-64.3742
 10
25.8171
 20
-64.3885
 10
25.7588
 20
-64.3971
 10
25.7
 20
-64.4
 10
25.6412
 20
-64.3971
 10
25.5542
 20
-64.382
 10
25.4704
 20
-64.3543
 10
25.4172
 20
-64.3292
 10
25.3667
 20
-64.2989
 10
25.2971
 20
-64.2446
 10
25.2554
 20
-64.2029
 10
25.2129
 20
-64.15
 10
12.8871
 20
-64.15
 10
12.8446
 20
-64.2029
 10
12.8029
 20
-64.2446
 10
12.7333
 20
-64.2989
 10
12.6828
 20
-64.3292
 10
12.6296
 20
-64.3543
 10
12.5458
 20
-64.382
 10
12.4588
 20
-64.3971
 10
12.4
 20
-64.4
 10
12.3412
 20
-64.3971
 10
12.2829
 20
-64.3885
 10
12.2258
 20
-64.3742
 10
12.1704
 20
-64.3543
 10
12.1172
 20
-64.3292
 10
12.0667
 20
-64.2989
 10
11.9971
 20
-64.2446
 10
11.9554
 20
-64.2029
 10
11.9181
 20
-64.1574
 10
11.8854
 20
-64.1085
 10
11.8576
 20
-64.0565
 10
11.8351
 20
-64.0021
 10
11.8115
 20
-63.9171
 10
11.8029
 20
-63.8588
 10
11.8
 20
-63.8
 10
11.8029
 20
-63.7412
 10
11.818
 20
-63.6542
 10
11.8351
 20
-63.5979
 10
11.8708
 20
-63.5172
 10
11.9011
 20
-63.4667
 10
11.9554
 20
-63.3971
 10
11.9971
 20
-63.3554
 10
12.05
 20
-63.3129
 10
12.05
 20
-50.9871
 10
11.9971
 20
-50.9446
 10
11.9362
 20
-50.8806
 10
11.9011
 20
-50.8333
 10
11.8576
 20
-50.7565
 10
11.8258
 20
-50.6742
 10
11.8115
 20
-50.6171
 10
11.8029
 20
-50.5588
 10
11.8007
 20
-50.4706
 10
11.8115
 20
-50.3829
 10
11.8351
 20
-50.2979
 10
11.8708
 20
-50.2172
 10
11.9011
 20
-50.1667
 10
11.9554
 20
-50.0971
 10
12.0194
 20
-50.0362
 10
12.0915
 20
-49.9854
 10
12.1704
 20
-49.9457
 10
12.2542
 20
-49.918
 10
12.312
 20
-49.9065
 10
12.4
 20
-49.9
 10
12.488
 20
-49.9065
 10
12.5458
 20
-49.918
 10
12.6296
 20
-49.9457
 10
12.7085
 20
-49.9854
  0
LWPOLYLINE
  5
AE
330
17
100
AcDbEntity
  8
CUT
100
AcDbPolyline
 90
123
 70
1
 10
-6.2694
 20
-50.0362
 10
-6.2054
 20
-50.0971
 10
-6.1629
 20
-50.15
 10
6.1629
 20
-50.15
 10
6.2054
 20
-50.0971
 10
6.2471
 20
-50.0554
 10
6.2926
 20
-50.0181
 10
6.3672
 20
-49.9708
 10
6.4204
 20
-49.9457
 10
6.5042
 20
-49.918
 10
6.562
 20
-49.9065
 10
6.65
 20
-49.9
 10
6.7088
 20
-49.9029
 10
6.7671
 20
-49.9115
 10
6.8242
 20
-49.9258
 10
6.8796
 20
-49.9457
 10
6.9328
 20
-49.9708
 10
7.0074
 20
-50.0181
 10
7.0529
 20
-50.0554
 10
7.0946
 20
-50.0971
 10
7.1319
 20
-50.1426
 10
7.1646
 20
-50.1915
 10
7.1924
 20
-50.2435
 10
7.2149
 20
-50.2979
 10
7.232
 20
-50.3542
 10
7.2435
 20
-50.412
 10
7.25
 20
-50.5
 10
7.2435
 20
-50.588
 10
7.232
 20
-50.6458
 10
7.2043
 20
-50.7296
 10
7.1792
 20
-50.7828
 10
7.1489
 20
-50.8333
 10
7.0946
 20
-50.9029
 10
7.0529
 20
-50.9446
 10
7.0
 20
-50.9871
 10
7.0
 20
-63.3129
 10
7.0529
 20
-63.3554
 10
7.0946
 20
-63.3971
 10
7.1489
 20
-63.4667
 10
7.1792
 20
-63.5172
 10
7.2043
 20
-63.5704
 10
7.232
 20
-63.6542
 10
7.2435
 20
-63.712
 10
7.25
 20
-63.8
 10
7.2471
 20
-63.8588
 10
7.2385
 20
-63.9171
 10
7.2242
 20
-63.9742
 10
7.2043
 20
-64.0296
 10
7.1792
 20
-64.0828
 10
7.1489
 20
-64.1333
 10
7.0946
 20
-64.2029
 10
7.0529
 20
-64.2446
 10
7.0074
 20
-64.2819
 10
6.9585
 20
-64.3146
 10
6.8796
 20
-64.3543
 10
6.8242
 20
-64.3742
 10
6.7671
 20
-64.3885
 10
6.7088
 20
-64.3971
 10
6.65
 20
-64.4
 10
6.5912
 20
-64.3971
 10
6.5042
 20
-64.382
 10
6.4204
 20
-64.3543
 10
6.3672
 20
-64.3292
 10
6.3167
 20
-64.2989
 10
6.2471
 20
-64.2446
 10
6.2054
 20
-64.2029
 10
6.1629
 20
-64.15
 10
-6.1629
 20
-64.15
 10
-6.2054
 20
-64.2029
 10
-6.2471
 20
-64.2446
 10
-6.3167
 20
-64.2989
 10
-6.3672
 20
-64.3292
 10
-6.4204
 20
-64.3543
 10
-6.5042
 20
-64.382
 10
-6.5912
 20
-64.3971
 10
-6.65
 20
-64.4
 10
-6.7088
 20
-64.3971
 10
-6.7671
 20
-64.3885
 10
-6.8242
 20
-64.3742
 10
-6.8796
 20
-64.3543
 10
-6.9328
 20
-64.3292
 10
-6.9833
 20
-64.2989
 10
-7.0529
 20
-64.2446
 10
-7.0946
 20
-64.2029
 10
-7.1489
 20
-64.1333
 10
-7.1792
 20
-64.0828
 10
-7.2043
 20
-64.0296
 10
-7.2242
 20
-63.9742
 10
-7.2385
 20
-63.9171
 10
-7.2471
 20
-63.8588
 10
-7.25
 20
-63.8
 10
-7.2435
 20
-63.712
 10
-7.232
 20
-63.6542
 10
-7.2043
 20
-63.5704
 10
-7.1792
 20
-63.5172
 10
-7.1489
 20
-63.4667
 10
-7.0946
 20
-63.3971
 10
-7.0529
 20
-63.3554
 10
-7.0
 20
-63.3129
 10
-7.0
 20
-50.9871
 10
-7.0529
 20
-50.9446
 10
-7.1138
 20
-50.8806
 10
-7.1489
 20
-50.8333
 10
-7.1924
 20
-50.7565
 10
-7.2242
 20
-50.6742
 10
-7.2385
 20
-50.6171
 10
-7.2493
 20
-50.5294
 10
-7.2493
 20
-50.4706
 10
-7.2385
 20
-50.3829
 10
-7.2149
 20
-50.2979
 10
-7.1792
 20
-50.2172
 10
-7.1319
 20
-50.1426
 10
-7.0743
 20
-50.0757
 10
-7.0074
 20
-50.0181
 10
-6.9328
 20
-49.9708
 10
-6.8796
 20
-49.9457
 10
-6.7958
 20
-49.918
 10
-6.738
 20
-49.9065
 10
-6.65
 20
-49.9
 10
-6.562
 20
-49.9065
 10
-6.5042
 20
-49.918
 10
-6.4204
 20
-49.9457
 10
-6.3415
 20
-49.9854
  0
LWPOLYLINE
  5
AF
330
17
100
AcDbEntity
  8
CUT
100
AcDbPolyline
 90
75
 70
1
 10
-10.6215
 20
-58.1799
 10
-10.6054
 20
-58.2516
 10
-10.6
 20
-58.325
 10
-10.6
 20
-60.925
 10
-10.6024
 20
-60.974
 10
-10.615
 20
-61.0465
 10
-10.6381
 20
-61.1163
 10
-10.659
 20
-61.1607
 10
-10.6984
 20
-61.2228
 10
-10.7464
 20
-61.2786
 10
-10.8022
 20
-61.3266
 10
-10.8643
 20
-61.366
 10
-10.9316
 20
-61.3958
 10
-10.9785
 20
-61.41
 10
-11.0266
 20
-61.4196
 10
-11.1
 20
-61.425
 10
-15.25
 20
-61.425
 10
-15.2506
 20
-62.2995
 10
-15.2596
 20
-62.3725
 10
-15.2792
 20
-62.4434
 10
-15.309
 20
-62.5107
 10
-15.3484
 20
-62.5728
 10
-15.3964
 20
-62.6286
 10
-15.4328
 20
-62.6615
 10
-15.4929
 20
-62.7039
 10
-15.5587
 20
-62.7369
 10
-15.6285
 20
-62.76
 10
-15.701
 20
-62.7726
 10
-15.75
 20
-62.775
 10
-21.6245
 20
-62.7744
 10
-21.6975
 20
-62.7654
 10
-21.7684
 20
-62.7458
 10
-21.8357
 20
-62.716
 10
-21.8978
 20
-62.6766
 10
-21.9536
 20
-62.6286
 10
-22.0016
 20
-62.5728
 10
-22.041
 20
-62.5107
 10
-22.0708
 20
-62.4434
 10
-22.085
 20
-62.3965
 10
-22.0946
 20
-62.3484
 10
-22.1
 20
-62.275
 10
-22.0994
 20
-56.9505
 10
-22.0904
 20
-56.8775
 10
-22.0708
 20
-56.8066
 10
-22.041
 20
-56.7393
 10
-22.0016
 20
-56.6772
 10
-21.9536
 20
-56.6214
 10
-21.8978
 20
-56.5734
 10
-21.8357
 20
-56.534
 10
-21.7684
 20
-56.5042
 10
-21.7215
 20
-56.49
 10
-21.6734
 20
-56.4804
 10
-21.6
 20
-56.475
 10
-15.75
 20
-56.475
 10
-15.6766
 20
-56.4804
 10
-15.6049
 20
-56.4965
 10
-15.5587
 20
-56.5131
 10
-15.4929
 20
-56.5461
 10
-15.4328
 20
-56.5885
 10
-15.3795
 20
-56.6392
 10
-15.3343
 20
-56.6972
 10
-15.298
 20
-56.7612
 10
-15.2715
 20
-56.8299
 10
-15.2554
 20
-56.9016
 10
-15.25
 20
-56.975
 10
-15.25
 20
-57.825
 10
-11.1
 20
-57.825
 10
-11.051
 20
-57.8274
 10
-10.9785
 20
-57.84
 10
-10.9087
 20
-57.8631
 10
-10.8429
 20
-57.8961
 10
-10.7828
 20
-57.9385
 10
-10.7295
 20
-57.9892
 10
-10.6843
 20
-58.0472
 10
-10.648
 20
-58.1112
  0
LWPOLYLINE
  5
B0
330
17
100
AcDbEntity
  8
CUT
100
AcDbPolyline
 90
64
 70
1
 10
71.067
 20
70.2673
 10
71.0881
 20
70.1614
 10
71.0987
 20
70.054
 10
71.0987
 20
69.946
 10
71.0881
 20
69.8386
 10
71.067
 20
69.7327
 10
71.0357
 20
69.6294
 10
70.9944
 20
69.5297
 10
70.9435
 20
69.4345
 10
70.8835
 20
69.3447
 10
70.815
 20
69.2613
 10
70.7387
 20
69.185
 10
70.6553
 20
69.1165
 10
70.5655
 20
69.0565
 10
70.4703
 20
69.0056
 10
70.3706
 20
68.9643
 10
70.2673
 20
68.933
 10
70.1614
 20
68.9119
 10
70.054
 20
68.9013
 10
69.946
 20
68.9013
 10
69.8386
 20
68.9119
 10
69.7327
 20
68.933
 10
69.6294
 20
68.9643
 10
69.5297
 20
69.0056
 10
69.4345
 20
69.0565
 10
69.3447
 20
69.1165
 10
69.2613
 20
69.185
 10
69.185
 20
69.2613
 10
69.1165
 20
69.3447
 10
69.0565
 20
69.4345
 10
69.0056
 20
69.5297
 10
68.9643
 20
69.6294
 10
68.933
 20
69.7327
 10
68.9119
 20
69.8386
 10
68.9013
 20
69.946
 10
68.9013
 20
70.054
 10
68.9119
 20
70.1614
 10
68.933
 20
70.2673
 10
68.9643
 20
70.3706
 10
69.0056
 20
70.4703
 10
69.0565
 20
70.5655
 10
69.1165
 20
70.6553
 10
69.185
 20
70.7387
 10
69.2613
 20
70.815
 10
69.3447
 20
70.8835
 10
69.4345
 20
70.9435
 10
69.5297
 20
70.9944
 10
69.6294
 20
71.0357
 10
69.7327
 20
71.067
 10
69.8386
 20
71.0881
 10
69.946
 20
71.0987
 10
70.054
 20
71.0987
 10
70.1614
 20
71.0881
 10
70.2673
 20
71.067
 10
70.3706
 20
71.0357
 10
70.4703
 20
70.9944
 10
70.5655
 20
70.9435
 10
70.6553
 20
70.8835
 10
70.7387
 20
70.815
 10
70.815
 20
70.7387
 10
70.8835
 20
70.6553
 10
70.9435
 20
70.5655
 10
70.9944
 20
70.4703
 10
71.0357
 20
70.3706
  0
LWPOLYLINE
  5
B1
330
17
100
AcDbEntity
  8
CUT
100
AcDbPolyline
 90
123
 70
1
 10
50.8806
 20
64.2638
 10
50.9446
 20
64.2029
 10
50.9871
 20
64.15
 10
63.3129
 20
64.15
 10
63.3554
 20
64.2029
 10
63.3971
 20
64.2446
 10
63.4667
 20
64.2989
 10
63.5172
 20
64.3292
 10
63.5704
 20
64.3543
 10
63.6542
 20
64.382
 10
63.7412
 20
64.3971
 10
63.8
 20
64.4
 10
63.8588
 20
64.3971
 10
63.9171
 20
64.3885
 10
63.9742
 20
64.3742
 10
64.0296
 20
64.3543
 10
64.0828
 20
64.3292
 10
64.1333
 20
64.2989
 10
64.2029
 20
64.2446
 10
64.2446
 20
64.2029
 10
64.2989
 20
64.1333
 10
64.3292
 20
64.0828
 10
64.3543
 20
64.0296
 10
64.3742
 20
63.9742
 10
64.3885
 20
63.9171
 10
64.3971
 20
63.8588
 10
64.4
 20
63.8
 10
64.3971
 20
63.7412
 10
64.382
 20
63.6542
 10
64.3543
 20
63.5704
 10
64.3292
 20
63.5172
 10
64.2989
 20
63.4667
 10
64.2446
 20
63.3971
 10
64.2029
 20
63.3554
 10
64.15
 20
63.3129
 10
64.15
 20
50.9871
 10
64.2029
 20
50.9446
 10
64.2446
 20
50.9029
 10
64.2989
 20
50.8333
 10
64.3292
 20
50.7828
 10
64.3543
 20
50.7296
 10
64.382
 20
50.6458
 10
64.3971
 20
50.5588
 10
64.4
 20
50.5
 10
64.3971
 20
50.4412
 10
64.3885
 20
50.3829
 10
64.3742
 20
50.3258
 10
64.3543
 20
50.2704
 10
64.3146
 20
50.1915
 10
64.2819
 20
50.1426
 10
64.2446
 20
50.0971
 10
64.2029
 20
50.0554
 10
64.1333
 20
50.0011
 10
64.0828
 20
49.9708
 10
64.0296
 20
49.9457
 10
63.9742
 20
49.9258
 10
63.9171
 20
49.9115
 10
63.8588
 20
49.9029
 10
63.8
 20
49.9
 10
63.712
 20
49.9065
 10
63.6542
 20
49.918
 10
63.5704
 20
49.9457
 10
63.5172
 20
49.9708
 10
63.4426
 20
50.0181
 10
63.3971
 20
50.0554
 10
63.3554
 20
50.0971
 10
63.3129
 20
50.15
 10
50.9871
 20
50.15
 10
50.9446
 20
50.0971
 10
50.9029
 20
50.0554
 10
50.8574
 20
50.0181
 10
50.7828
 20
49.9708
 10
50.7296
 20
49.9457
 10
50.6458
 20
49.918
 10
50.588
 20
49.9065
 10
50.5
 20
49.9
 10
50.412
 20
49.9065
 10
50.3542
 20
49.918
 10
50.2979
 20
49.9351
 10
50.2435
 20
49.9576
 10
50.1915
 20
49.9854
 10
50.1426
 20
50.0181
 10
50.0971
 20
50.0554
 10
50.0554
 20
50.0971
 10
50.0181
 20
50.1426
 10
49.9854
 20
50.1915
 10
49.9576
 20
50.2435
 10
49.9351
 20
50.2979
 10
49.918
 20
50.3542
 10
49.9065
 20
50.412
 10
49.9
 20
50.5
 10
49.9065
 20
50.588
 10
49.918
 20
50.6458
 10
49.9457
 20
50.7296
 10
49.9708
 20
50.7828
 10
50.0181
 20
50.8574
 10
50.0554
 20
50.9029
 10
50.0971
 20
50.9446
 10
50.15
 20
50.9871
 10
50.15
 20
63.3129
 10
50.0971
 20
63.3554
 10
50.0362
 20
63.4194
 10
50.0011
 20
63.4667
 10
49.9576
 20
63.5435
 10
49.9258
 20
63.6258
 10
49.9115
 20
63.6829
 10
49.9007
 20
63.7706
 10
49.9007
 20
63.8294
 10
49.9115
 20
63.9171
 10
49.9351
 20
64.0021
 10
49.9708
 20
64.0828
 10
50.0181
 20
64.1574
 10
50.0554
 20
64.2029
 10
50.1194
 20
64.2638
 10
50.1915
 20
64.3146
 10
50.2704
 20
64.3543
 10
50.3542
 20
64.382
 10
50.4412
 20
64.3971
 10
50.5294
 20
64.3993
 10
50.588
 20
64.3935
 10
50.6458
 20
64.382
 10
50.7296
 20
64.3543
 10
50.8085
 20
64.3146
  0
LWPOLYLINE
  5
B2
330
17
100
AcDbEntity
  8
CUT
100
AcDbPolyline
 90
123
 70
1
 10
31.8306
 20
64.2638
 10
31.8946
 20
64.2029
 10
31.9371
 20
64.15
 10
44.2629
 20
64.15
 10
44.3054
 20
64.2029
 10
44.3471
 20
64.2446
 10
44.4167
 20
64.2989
 10
44.4672
 20
64.3292
 10
44.5204
 20
64.3543
 10
44.6042
 20
64.382
 10
44.6912
 20
64.3971
 10
44.75
 20
64.4
 10
44.8088
 20
64.3971
 10
44.8671
 20
64.3885
 10
44.9242
 20
64.3742
 10
44.9796
 20
64.3543
 10
45.0585
 20
64.3146
 10
45.1074
 20
64.2819
 10
45.1529
 20
64.2446
 10
45.1946
 20
64.2029
 10
45.2489
 20
64.1333
 10
45.2792
 20
64.0828
 10
45.3043
 20
64.0296
 10
45.3242
 20
63.9742
 10
45.3385
 20
63.9171
 10
45.3471
 20
63.8588
 10
45.35
 20
63.8
 10
45.3435
 20
63.712
 10
45.332
 20
63.6542
 10
45.3043
 20
63.5704
 10
45.2792
 20
63.5172
 10
45.2319
 20
63.4426
 10
45.1946
 20
63.3971
 10
45.1529
 20
63.3554
 10
45.1
 20
63.3129
 10
45.1
 20
50.9871
 10
45.1529
 20
50.9446
 10
45.1946
 20
50.9029
 10
45.2319
 20
50.8574
 10
45.2792
 20
50.7828
 10
45.3043
 20
50.7296
 10
45.332
 20
50.6458
 10
45.3435
 20
50.588
 10
45.35
 20
50.5
 10
45.3435
 20
50.412
 10
45.332
 20
50.3542
 10
45.3149
 20
50.2979
 10
45.2924
 20
50.2435
 10
45.2646
 20
50.1915
 10
45.2319
 20
50.1426
 10
45.1946
 20
50.0971
 10
45.1529
 20
50.0554
 10
45.1074
 20
50.0181
 10
45.0585
 20
49.9854
 10
44.9796
 20
49.9457
 10
44.9242
 20
49.9258
 10
44.8671
 20
49.9115
 10
44.8088
 20
49.9029
 10
44.75
 20
49.9
 10
44.662
 20
49.9065
 10
44.6042
 20
49.918
 10
44.5204
 20
49.9457
 10
44.4672
 20
49.9708
 10
44.3926
 20
50.0181
 10
44.3471
 20
50.0554
 10
44.3054
 20
50.0971
 10
44.2629
 20
50.15
 10
31.9371
 20
50.15
 10
31.8946
 20
50.0971
 10
31.8529
 20
50.0554
 10
31.8074
 20
50.0181
 10
31.7328
 20
49.9708
 10
31.6796
 20
49.9457
 10
31.5958
 20
49.918
 10
31.538
 20
49.9065
 10
31.45
 20
49.9
 10
31.3912
 20
49.9029
 10
31.3329
 20
49.9115
 10
31.2758
 20
49.9258
 10
31.2204
 20
49.9457
 10
31.1672
 20
49.9708
 10
31.0926
 20
50.0181
 10
31.0471
 20
50.0554
 10
31.0054
 20
50.0971
 10
30.9681
 20
50.1426
 10
30.9354
 20
50.1915
 10
30.9076
 20
50.2435
 10
30.8851
 20
50.2979
 10
30.868
 20
50.3542
 10
30.8565
 20
50.412
 10
30.85
 20
50.5
 10
30.8529
 20
50.5588
 10
30.868
 20
50.6458
 10
30.8851
 20
50.7021
 10
30.9208
 20
50.7828
 10
30.9511
 20
50.8333
 10
31.0054
 20
50.9029
 10
31.0471
 20
50.9446
 10
31.1
 20
50.9871
 10
31.1
 20
63.3129
 10
31.0471
 20
63.3554
 10
30.9862
 20
63.4194
 10
30.9511
 20
63.4667
 10
30.9076
 20
63.5435
 10
30.8758
 20
63.6258
 10
30.8615
 20
63.6829
 10
30.8529
 20
63.7412
 10
30.8507
 20
63.8294
 10
30.8565
 20
63.888
 10
30.8758
 20
63.9742
 10
30.9076
 20
64.0565
 10
30.9511
 20
64.1333
 10
31.0054
 20
64.2029
 10
31.0694
 20
64.2638
 10
31.1415
 20
64.3146
 10
31.2204
 20
64.3543
 10
31.3042
 20
64.382
 10
31.3912
 20
64.3971
 10
31.4794
 20
64.3993
 10
31.538
 20
64.3935
 10
31.5958
 20
64.382
 10
31.6796
 20
64.3543
 10
31.7585
 20
64.3146
  0
LWPOLYLINE
  5
B3
330
17
100
AcDbEntity
  8
CUT
100
AcDbPolyline
 90
123
 70
1
 10
31.8779
 20
45.1696
 10
31.9196
 20
45.1279
 10
31.9621
 20
45.075
 10
44.2379
 20
45.075
 10
44.2804
 20
45.1279
 10
44.3221
 20
45.1696
 10
44.3676
 20
45.2069
 10
44.4422
 20
45.2542
 10
44.4954
 20
45.2793
 10
44.5792
 20
45.307
 10
44.6662
 20
45.3221
 10
44.725
 20
45.325
 10
44.7838
 20
45.3221
 10
44.8421
 20
45.3135
 10
44.8992
 20
45.2992
 10
44.9546
 20
45.2793
 10
45.0078
 20
45.2542
 10
45.0583
 20
45.2239
 10
45.1279
 20
45.1696
 10
45.1696
 20
45.1279
 10
45.2239
 20
45.0583
 10
45.2542
 20
45.0078
 10
45.2793
 20
44.9546
 10
45.2992
 20
44.8992
 10
45.3135
 20
44.8421
 10
45.3221
 20
44.7838
 10
45.325
 20
44.725
 10
45.3221
 20
44.6662
 10
45.307
 20
44.5792
 10
45.2793
 20
44.4954
 10
45.2542
 20
44.4422
 10
45.2069
 20
44.3676
 10
45.1696
 20
44.3221
 10
45.1279
 20
44.2804
 10
45.075
 20
44.2379
 10
45.075
 20
31.9621
 10
45.1279
 20
31.9196
 10
45.1696
 20
31.8779
 10
45.2239
 20
31.8083
 10
45.2542
 20
31.7578
 10
45.2793
 20
31.7046
 10
45.307
 20
31.6208
 10
45.3221
 20
31.5338
 10
45.325
 20
31.475
 10
45.3221
 20
31.4162
 10
45.307
 20
31.3292
 10
45.2899
 20
31.2729
 10
45.2674
 20
31.2185
 10
45.2396
 20
31.1665
 10
45.2069
 20
31.1176
 10
45.1696
 20
31.0721
 10
45.1279
 20
31.0304
 10
45.0583
 20
30.9761
 10
45.0078
 20
30.9458
 10
44.9546
 20
30.9207
 10
44.8992
 20
30.9008
 10
44.8421
 20
30.8865
 10
44.7838
 20
30.8779
 10
44.725
 20
30.875
 10
44.637
 20
30.8815
 10
44.5792
 20
30.893
 10
44.4954
 20
30.9207
 10
44.4422
 20
30.9458
 10
44.3676
 20
30.9931
 10
44.3221
 20
31.0304
 10
44.2804
 20
31.0721
 10
44.2379
 20
31.125
 10
31.9621
 20
31.125
 10
31.9196
 20
31.0721
 10
31.8779
 20
31.0304
 10
31.8324
 20
30.9931
 10
31.7578
 20
30.9458
 10
31.7046
 20
30.9207
 10
31.6208
 20
30.893
 10
31.563
 20
30.8815
 10
31.475
 20
30.875
 10
31.387
 20
30.8815
 10
31.3292
 20
30.893
 10
31.2729
 20
30.9101
 10
31.2185
 20
30.9326
 10
31.1665
 20
30.9604
 10
31.1176
 20
30.9931
 10
31.0721
 20
31.0304
 10
31.0304
 20
31.0721
 10
30.9931
 20
31.1176
 10
30.9604
 20
31.1665
 10
30.9207
 20
31.2454
 10
30.9008
 20
31.3008
 10
30.8865
 20
31.3579
 10
30.8779
 20
31.4162
 10
30.875
 20
31.475
 10
30.8815
 20
31.563
 10
30.893
 20
31.6208
 10
30.9207
 20
31.7046
 10
30.9458
 20
31.7578
 10
30.9931
 20
31.8324
 10
31.0304
 20
31.8779
 10
31.0721
 20
31.9196
 10
31.125
 20
31.9621
 10
31.125
 20
44.2379
 10
31.0721
 20
44.2804
 10
31.0112
 20
44.3444
 10
30.9761
 20
44.3917
 10
30.9326
 20
44.4685
 10
30.9008
 20
44.5508
 10
30.8865
 20
44.6079
 10
30.8757
 20
44.6956
 10
30.8757
 20
44.7544
 10
30.8865
 20
44.8421
 10
30.9101
 20
44.9271
 10
30.9458
 20
45.0078
 10
30.9931
 20
45.0824
 10
31.0304
 20
45.1279
 10
31.0944
 20
45.1888
 10
31.1665
 20
45.2396
 10
31.2454
 20
45.2793
 10
31.3292
 20
45.307
 10
31.4162
 20
45.3221
 10
31.5044
 20
45.3243
 10
31.5921
 20
45.3135
 10
31.6771
 20
45.2899
 10
31.7578
 20
45.2542
 10
31.8083
 20
45.2239
  0
LWPOLYLINE
  5
B4
330
17
100
AcDbEntity
  8
CUT
100
AcDbPolyline
 90
123
 70
1
 10
50.9056
 20
45.1888
 10
50.9696
 20
45.1279
 10
51.0121
 20
45.075
 10
63.2879
 20
45.075
 10
63.3304
 20
45.1279
 10
63.3721
 20
45.1696
 10
63.4417
 20
45.2239
 10
63.4922
 20
45.2542
 10
63.5454
 20
45.2793
 10
63.6292
 20
45.307
 10
63.7162
 20
45.3221
 10
63.775
 20
45.325
 10
63.8338
 20
45.3221
 10
63.8921
 20
45.3135
 10
63.9492
 20
45.2992
 10
64.0046
 20
45.2793
 10
64.0578
 20
45.2542
 10
64.1083
 20
45.2239
 10
64.1779
 20
45.1696
 10
64.2196
 20
45.1279
 10
64.2739
 20
45.0583
 10
64.3042
 20
45.0078
 10
64.3293
 20
44.9546
 10
64.3492
 20
44.8992
 10
64.3635
 20
44.8421
 10
64.3721
 20
44.7838
 10
64.375
 20
44.725
 10
64.3721
 20
44.6662
 10
64.357
 20
44.5792
 10
64.3293
 20
44.4954
 10
64.3042
 20
44.4422
 10
64.2569
 20
44.3676
 10
64.2196
 20
44.3221
 10
64.1779
 20
44.2804
 10
64.125
 20
44.2379
 10
64.125
 20
31.9621
 10
64.1779
 20
31.9196
 10
64.2196
 20
31.8779
 10
64.2739
 20
31.8083
 10
64.3042
 20
31.7578
 10
64.3399
 20
31.6771
 10
64.357
 20
31.6208
 10
64.3721
 20
31.5338
 10
64.375
 20
31.475
 10
64.3721
 20
31.4162
 10
64.3635
 20
31.3579
 10
64.3492
 20
31.3008
 10
64.3293
 20
31.2454
 10
64.3042
 20
31.1922
 10
64.2739
 20
31.1417
 10
64.2388
 20
31.0944
 10
64.1779
 20
31.0304
 10
64.1324
 20
30.9931
 10
64.0835
 20
30.9604
 10
64.0046
 20
30.9207
 10
63.9492
 20
30.9008
 10
63.8921
 20
30.8865
 10
63.8338
 20
30.8779
 10
63.775
 20
30.875
 10
63.687
 20
30.8815
 10
63.6292
 20
30.893
 10
63.5454
 20
30.9207
 10
63.4922
 20
30.9458
 10
63.4417
 20
30.9761
 10
63.3721
 20
31.0304
 10
63.3304
 20
31.0721
 10
63.2879
 20
31.125
 10
51.0121
 20
31.125
 10
50.9696
 20
31.0721
 10
50.9279
 20
31.0304
 10
50.8583
 20
30.9761
 10
50.8078
 20
30.9458
 10
50.7546
 20
30.9207
 10
50.6708
 20
30.893
 10
50.613
 20
30.8815
 10
50.525
 20
30.875
 10
50.4662
 20
30.8779
 10
50.4079
 20
30.8865
 10
50.3508
 20
30.9008
 10
50.2954
 20
30.9207
 10
50.2422
 20
30.9458
 10
50.1917
 20
30.9761
 10
50.1444
 20
31.0112
 10
50.0804
 20
31.0721
 10
50.0431
 20
31.1176
 10
50.0104
 20
31.1665
 10
49.9707
 20
31.2454
 10
49.9508
 20
31.3008
 10
49.9365
 20
31.3579
 10
49.9279
 20
31.4162
 10
49.925
 20
31.475
 10
49.9279
 20
31.5338
 10
49.943
 20
31.6208
 10
49.9707
 20
31.7046
 10
49.9958
 20
31.7578
 10
50.0261
 20
31.8083
 10
50.0804
 20
31.8779
 10
50.1221
 20
31.9196
 10
50.175
 20
31.9621
 10
50.175
 20
44.2379
 10
50.1221
 20
44.2804
 10
50.0612
 20
44.3444
 10
50.0261
 20
44.3917
 10
49.9826
 20
44.4685
 10
49.9508
 20
44.5508
 10
49.9365
 20
44.6079
 10
49.9257
 20
44.6956
 10
49.9257
 20
44.7544
 10
49.9365
 20
44.8421
 10
49.9601
 20
44.9271
 10
49.9958
 20
45.0078
 10
50.0431
 20
45.0824
 10
50.1007
 20
45.1493
 10
50.1444
 20
45.1888
 10
50.2165
 20
45.2396
 10
50.2954
 20
45.2793
 10
50.3792
 20
45.307
 10
50.4662
 20
45.3221
 10
50.525
 20
45.325
 10
50.613
 20
45.3185
 10
50.6708
 20
45.307
 10
50.7546
 20
45.2793
 10
50.8335
 20
45.2396
  0
LWPOLYLINE
  5
B5
330
17
100
AcDbEntity
  8
CUT
100
AcDbPolyline
 90
123
 70
1
 10
31.9306
 20
26.0638
 10
31.9946
 20
26.0029
 10
32.0371
 20
25.95
 10
44.1629
 20
25.95
 10
44.2054
 20
26.0029
 10
44.2471
 20
26.0446
 10
44.2926
 20
26.0819
 10
44.3672
 20
26.1292
 10
44.4204
 20
26.1543
 10
44.5042
 20
26.182
 10
44.562
 20
26.1935
 10
44.65
 20
26.2
 10
44.7088
 20
26.1971
 10
44.7671
 20
26.1885
 10
44.8242
 20
26.1742
 10
44.8796
 20
26.1543
 10
44.9585
 20
26.1146
 10
45.0074
 20
26.0819
 10
45.0529
 20
26.0446
 10
45.0946
 20
26.0029
 10
45.1319
 20
25.9574
 10
45.1646
 20
25.9085
 10
45.1924
 20
25.8565
 10
45.2149
 20
25.8021
 10
45.2385
 20
25.7171
 10
45.2471
 20
25.6588
 10
45.25
 20
25.6
 10
45.2471
 20
25.5412
 10
45.232
 20
25.4542
 10
45.2149
 20
25.3979
 10
45.1792
 20
25.3172
 10
45.1489
 20
25.2667
 10
45.0946
 20
25.1971
 10
45.0529
 20
25.1554
 10
45.0
 20
25.1129
 10
45.0
 20
12.9871
 10
45.0529
 20
12.9446
 10
45.0946
 20
12.9029
 10
45.1489
 20
12.8333
 10
45.1792
 20
12.7828
 10
45.2149
 20
12.7021
 10
45.232
 20
12.6458
 10
45.2471
 20
12.5588
 10
45.25
 20
12.5
 10
45.2471
 20
12.4412
 10
45.2385
 20
12.3829
 10
45.2242
 20
12.3258
 10
45.2043
 20
12.2704
 10
45.1792
 20
12.2172
 10
45.1489
 20
12.1667
 10
45.0946
 20
12.0971
 10
45.0529
 20
12.0554
 10
45.0074
 20
12.0181
 10
44.9585
 20
11.9854
 10
44.8796
 20
11.9457
 10
44.8242
 20
11.9258
 10
44.7671
 20
11.9115
 10
44.7088
 20
11.9029
 10
44.65
 20
11.9
 10
44.562
 20
11.9065
 10
44.5042
 20
11.918
 10
44.4204
 20
11.9457
 10
44.3672
 20
11.9708
 10
44.2926
 20
12.0181
 10
44.2471
 20
12.0554
 10
44.2054
 20
12.0971
 10
44.1629
 20
12.15
 10
32.0371
 20
12.15
 10
31.9946
 20
12.0971
 10
31.9529
 20
12.0554
 10
31.9074
 20
12.0181
 10
31.8328
 20
11.9708
 10
31.7796
 20
11.9457
 10
31.6958
 20
11.918
 10
31.638
 20
11.9065
 10
31.55
 20
11.9
 10
31.4912
 20
11.9029
 10
31.4329
 20
11.9115
 10
31.3758
 20
11.9258
 10
31.3204
 20
11.9457
 10
31.2415
 20
11.9854
 10
31.1926
 20
12.0181
 10
31.1471
 20
12.0554
 10
31.1054
 20
12.0971
 10
31.0681
 20
12.1426
 10
31.0354
 20
12.1915
 10
30.9957
 20
12.2704
 10
30.9758
 20
12.3258
 10
30.9615
 20
12.3829
 10
30.9529
 20
12.4412
 10
30.95
 20
12.5
 10
30.9565
 20
12.588
 10
30.968
 20
12.6458
 10
30.9957
 20
12.7296
 10
31.0208
 20
12.7828
 10
31.0681
 20
12.8574
 10
31.1054
 20
12.9029
 10
31.1471
 20
12.9446
 10
31.2
 20
12.9871
 10
31.2
 20
25.1129
 10
31.1471
 20
25.1554
 10
31.0862
 20
25.2194
 10
31.0354
 20
25.2915
 10
31.0076
 20
25.3435
 10
30.9758
 20
25.4258
 10
30.9615
 20
25.4829
 10
30.9507
 20
25.5706
 10
30.9507
 20
25.6294
 10
30.9615
 20
25.7171
 10
30.9851
 20
25.8021
 10
31.0208
 20
25.8828
 10
31.0681
 20
25.9574
 10
31.1257
 20
26.0243
 10
31.1926
 20
26.0819
 10
31.2415
 20
26.1146
 10
31.3204
 20
26.1543
 10
31.4042
 20
26.182
 10
31.462
 20
26.1935
 10
31.55
 20
26.2
 10
31.638
 20
26.1935
 10
31.6958
 20
26.182
 10
31.7796
 20
26.1543
 10
31.8585
 20
26.1146
  0
LWPOLYLINE
  5
B6
330
17
100
AcDbEntity
  8
CUT
100
AcDbPolyline
 90
123
 70
1
 10
50.9806
 20
26.0638
 10
51.0446
 20
26.0029
 10
51.0871
 20
25.95
 10
63.2129
 20
25.95
 10
63.2554
 20
26.0029
 10
63.2971
 20
26.0446
 10
63.3426
 20
26.0819
 10
63.4172
 20
26.1292
 10
63.4704
 20
26.1543
 10
63.5542
 20
26.182
 10
63.612
 20
26.1935
 10
63.7
 20
26.2
 10
63.7588
 20
26.1971
 10
63.8171
 20
26.1885
 10
63.8742
 20
26.1742
 10
63.9296
 20
26.1543
 10
63.9828
 20
26.1292
 10
64.0574
 20
26.0819
 10
64.1029
 20
26.0446
 10
64.1446
 20
26.0029
 10
64.1819
 20
25.9574
 10
64.2146
 20
25.9085
 10
64.2543
 20
25.8296
 10
64.2742
 20
25.7742
 10
64.2885
 20
25.7171
 10
64.2971
 20
25.6588
 10
64.3
 20
25.6
 10
64.2971
 20
25.5412
 10
64.282
 20
25.4542
 10
64.2543
 20
25.3704
 10
64.2292
 20
25.3172
 10
64.1989
 20
25.2667
 10
64.1446
 20
25.1971
 10
64.1029
 20
25.1554
 10
64.05
 20
25.1129
 10
64.05
 20
12.9871
 10
64.1029
 20
12.9446
 10
64.1446
 20
12.9029
 10
64.1989
 20
12.8333
 10
64.2292
 20
12.7828
 10
64.2543
 20
12.7296
 10
64.282
 20
12.6458
 10
64.2971
 20
12.5588
 10
64.3
 20
12.5
 10
64.2971
 20
12.4412
 10
64.282
 20
12.3542
 10
64.2649
 20
12.2979
 10
64.2424
 20
12.2435
 10
64.2146
 20
12.1915
 10
64.1819
 20
12.1426
 10
64.1446
 20
12.0971
 10
64.1029
 20
12.0554
 10
64.0574
 20
12.0181
 10
64.0085
 20
11.9854
 10
63.9296
 20
11.9457
 10
63.8742
 20
11.9258
 10
63.8171
 20
11.9115
 10
63.7588
 20
11.9029
 10
63.7
 20
11.9
 10
63.612
 20
11.9065
 10
63.5542
 20
11.918
 10
63.4704
 20
11.9457
 10
63.4172
 20
11.9708
 10
63.3426
 20
12.0181
 10
63.2971
 20
12.0554
 10
63.2554
 20
12.0971
 10
63.2129
 20
12.15
 10
51.0871
 20
12.15
 10
51.0446
 20
12.0971
 10
51.0029
 20
12.0554
 10
50.9574
 20
12.0181
 10
50.8828
 20
11.9708
 10
50.8296
 20
11.9457
 10
50.7458
 20
11.918
 10
50.688
 20
11.9065
 10
50.6
 20
11.9
 10
50.5412
 20
11.9029
 10
50.4829
 20
11.9115
 10
50.4258
 20
11.9258
 10
50.3704
 20
11.9457
 10
50.2915
 20
11.9854
 10
50.2426
 20
12.0181
 10
50.1971
 20
12.0554
 10
50.1554
 20
12.0971
 10
50.1181
 20
12.1426
 10
50.0854
 20
12.1915
 10
50.0576
 20
12.2435
 10
50.0351
 20
12.2979
 10
50.018
 20
12.3542
 10
50.0065
 20
12.412
 10
50.0
 20
12.5
 10
50.0029
 20
12.5588
 10
50.018
 20
12.6458
 10
50.0351
 20
12.7021
 10
50.0708
 20
12.7828
 10
50.1011
 20
12.8333
 10
50.1554
 20
12.9029
 10
50.1971
 20
12.9446
 10
50.25
 20
12.9871
 10
50.25
 20
25.1129
 10
50.1971
 20
25.1554
 10
50.1362
 20
25.2194
 10
50.0854
 20
25.2915
 10
50.0576
 20
25.3435
 10
50.0258
 20
25.4258
 10
50.0115
 20
25.4829
 10
50.0029
 20
25.5412
 10
50.0007
 20
25.6294
 10
50.0115
 20
25.7171
 10
50.0351
 20
25.8021
 10
50.0576
 20
25.8565
 10
50.1011
 20
25.9333
 10
50.1554
 20
26.0029
 10
50.2194
 20
26.0638
 10
50.2915
 20
26.1146
 10
50.3704
 20
26.1543
 10
50.4542
 20
26.182
 10
50.512
 20
26.1935
 10
50.6
 20
26.2
 10
50.688
 20
26.1935
 10
50.7458
 20
26.182
 10
50.8296
 20
26.1543
 10
50.9085
 20
26.1146
  0
LWPOLYLINE
  5
B7
330
17
100
AcDbEntity
  8
CUT
100
AcDbPolyline
 90
247
 70
1
 10
32.1415
 20
7.2369
 10
32.17
 20
7.143
 10
32.1892
 20
7.0467
 10
32.1988
 20
6.9491
 10
32.2
 20
6.9
 10
44.0
 20
6.9
 10
44.0012
 20
6.9491
 10
44.0108
 20
7.0467
 10
44.03
 20
7.143
 10
44.0431
 20
7.1903
 10
44.0761
 20
7.2827
 10
44.096
 20
7.3276
 10
44.1423
 20
7.4141
 10
44.1968
 20
7.4957
 10
44.227
 20
7.5344
 10
44.2929
 20
7.6071
 10
44.3656
 20
7.673
 10
44.4043
 20
7.7032
 10
44.4859
 20
7.7577
 10
44.5286
 20
7.7819
 10
44.5724
 20
7.804
 10
44.6631
 20
7.8415
 10
44.757
 20
7.87
 10
44.8049
 20
7.8808
 10
44.902
 20
7.8952
 10
44.9509
 20
7.8988
 10
45.0491
 20
7.8988
 10
45.098
 20
7.8952
 10
45.1467
 20
7.8892
 10
45.243
 20
7.87
 10
45.3369
 20
7.8415
 10
45.3827
 20
7.8239
 10
45.4714
 20
7.7819
 10
45.5141
 20
7.7577
 10
45.5957
 20
7.7032
 10
45.6344
 20
7.673
 10
45.7071
 20
7.6071
 10
45.741
 20
7.5716
 10
45.773
 20
7.5344
 10
45.8315
 20
7.4556
 10
45.8819
 20
7.3714
 10
45.904
 20
7.3276
 10
45.9415
 20
7.2369
 10
45.9569
 20
7.1903
 10
45.97
 20
7.143
 10
45.9892
 20
7.0467
 10
45.9952
 20
6.998
 10
46.0
 20
6.9
 10
45.9952
 20
6.802
 10
45.9892
 20
6.7533
 10
45.97
 20
6.657
 10
45.9569
 20
6.6097
 10
45.9415
 20
6.5631
 10
45.904
 20
6.4724
 10
45.8819
 20
6.4286
 10
45.8315
 20
6.3444
 10
45.773
 20
6.2656
 10
45.741
 20
6.2284
 10
45.6716
 20
6.159
 10
45.6344
 20
6.127
 10
45.5957
 20
6.0968
 10
45.5141
 20
6.0423
 10
45.4714
 20
6.0181
 10
45.3827
 20
5.9761
 10
45.3369
 20
5.9585
 10
45.243
 20
5.93
 10
45.1467
 20
5.9108
 10
45.0491
 20
5.9012
 10
45.0
 20
5.9
 10
45.0
 20
-5.9
 10
45.0491
 20
-5.9012
 10
45.1467
 20
-5.9108
 10
45.243
 20
-5.93
 10
45.3369
 20
-5.9585
 10
45.4276
 20
-5.996
 10
45.4714
 20
-6.0181
 10
45.5141
 20
-6.0423
 10
45.5957
 20
-6.0968
 10
45.6344
 20
-6.127
 10
45.7071
 20
-6.1929
 10
45.773
 20
-6.2656
 10
45.8032
 20
-6.3043
 10
45.8315
 20
-6.3444
 10
45.8819
 20
-6.4286
 10
45.904
 20
-6.4724
 10
45.9415
 20
-6.5631
 10
45.97
 20
-6.657
 10
45.9808
 20
-6.7049
 10
45.9892
 20
-6.7533
 10
45.9988
 20
-6.8509
 10
46.0
 20
-6.9
 10
45.9952
 20
-6.998
 10
45.9892
 20
-7.0467
 10
45.97
 20
-7.143
 10
45.9415
 20
-7.2369
 10
45.9239
 20
-7.2827
 10
45.8819
 20
-7.3714
 10
45.8577
 20
-7.4141
 10
45.8315
 20
-7.4556
 10
45.773
 20
-7.5344
 10
45.741
 20
-7.5716
 10
45.6716
 20
-7.641
 10
45.6344
 20
-7.673
 10
45.5556
 20
-7.7315
 10
45.4714
 20
-7.7819
 10
45.4276
 20
-7.804
 10
45.3369
 20
-7.8415
 10
45.2903
 20
-7.8569
 10
45.243
 20
-7.87
 10
45.1467
 20
-7.8892
 10
45.0491
 20
-7.8988
 10
44.9509
 20
-7.8988
 10
44.902
 20
-7.8952
 10
44.8049
 20
-7.8808
 10
44.757
 20
-7.87
 10
44.6631
 20
-7.8415
 10
44.6173
 20
-7.8239
 10
44.5724
 20
-7.804
 10
44.4859
 20
-7.7577
 10
44.4444
 20
-7.7315
 10
44.3656
 20
-7.673
 10
44.2929
 20
-7.6071
 10
44.259
 20
-7.5716
 10
44.227
 20
-7.5344
 10
44.1685
 20
-7.4556
 10
44.1423
 20
-7.4141
 10
44.096
 20
-7.3276
 10
44.0761
 20
-7.2827
 10
44.0431
 20
-7.1903
 10
44.03
 20
-7.143
 10
44.0108
 20
-7.0467
 10
44.0012
 20
-6.9491
 10
44.0
 20
-6.9
 10
32.2
 20
-6.9
 10
32.1988
 20
-6.9491
 10
32.1892
 20
-7.0467
 10
32.17
 20
-7.143
 10
32.1569
 20
-7.1903
 10
32.1239
 20
-7.2827
 10
32.104
 20
-7.3276
 10
32.0577
 20
-7.4141
 10
32.0032
 20
-7.4957
 10
31.973
 20
-7.5344
 10
31.9071
 20
-7.6071
 10
31.8344
 20
-7.673
 10
31.7957
 20
-7.7032
 10
31.7556
 20
-7.7315
 10
31.6714
 20
-7.7819
 10
31.5827
 20
-7.8239
 10
31.5369
 20
-7.8415
 10
31.443
 20
-7.87
 10
31.3951
 20
-7.8808
 10
31.298
 20
-7.8952
 10
31.2491
 20
-7.8988
 10
31.1509
 20
-7.8988
 10
31.102
 20
-7.8952
 10
31.0049
 20
-7.8808
 10
30.957
 20
-7.87
 10
30.8631
 20
-7.8415
 10
30.8173
 20
-7.8239
 10
30.7724
 20
-7.804
 10
30.6859
 20
-7.7577
 10
30.6444
 20
-7.7315
 10
30.5656
 20
-7.673
 10
30.5284
 20
-7.641
 10
30.459
 20
-7.5716
 10
30.427
 20
-7.5344
 10
30.3685
 20
-7.4556
 10
30.3181
 20
-7.3714
 10
30.2761
 20
-7.2827
 10
30.2585
 20
-7.2369
 10
30.23
 20
-7.143
 10
30.2192
 20
-7.0951
 10
30.2048
 20
-6.998
 10
30.2012
 20
-6.9491
 10
30.2
 20
-6.9
 10
30.2048
 20
-6.802
 10
30.2192
 20
-6.7049
 10
30.23
 20
-6.657
 10
30.2585
 20
-6.5631
 10
30.2761
 20
-6.5173
 10
30.3181
 20
-6.4286
 10
30.3423
 20
-6.3859
 10
30.3685
 20
-6.3444
 10
30.427
 20
-6.2656
 10
30.459
 20
-6.2284
 10
30.5284
 20
-6.159
 10
30.6043
 20
-6.0968
 10
30.6444
 20
-6.0685
 10
30.7286
 20
-6.0181
 10
30.7724
 20
-5.996
 10
30.8631
 20
-5.9585
 10
30.9097
 20
-5.9431
 10
30.957
 20
-5.93
 10
31.0533
 20
-5.9108
 10
31.102
 20
-5.9048
 10
31.2
 20
-5.9
 10
31.2
 20
5.9
 10
31.102
 20
5.9048
 10
31.0049
 20
5.9192
 10
30.957
 20
5.93
 10
30.8631
 20
5.9585
 10
30.7724
 20
5.996
 10
30.6859
 20
6.0423
 10
30.6043
 20
6.0968
 10
30.5284
 20
6.159
 10
30.459
 20
6.2284
 10
30.3968
 20
6.3043
 10
30.3423
 20
6.3859
 10
30.296
 20
6.4724
 10
30.2585
 20
6.5631
 10
30.23
 20
6.657
 10
30.2192
 20
6.7049
 10
30.2048
 20
6.802
 10
30.2
 20
6.9
 10
30.2048
 20
6.998
 10
30.2192
 20
7.0951
 10
30.23
 20
7.143
 10
30.2585
 20
7.2369
 10
30.296
 20
7.3276
 10
30.3181
 20
7.3714
 10
30.3685
 20
7.4556
 10
30.427
 20
7.5344
 10
30.4929
 20
7.6071
 10
30.5656
 20
7.673
 10
30.6444
 20
7.7315
 10
30.7286
 20
7.7819
 10
30.7724
 20
7.804
 10
30.8631
 20
7.8415
 10
30.957
 20
7.87
 10
31.0533
 20
7.8892
 10
31.102
 20
7.8952
 10
31.1509
 20
7.8988
 10
31.2491
 20
7.8988
 10
31.298
 20
7.8952
 10
31.3951
 20
7.8808
 10
31.443
 20
7.87
 10
31.5369
 20
7.8415
 10
31.6276
 20
7.804
 10
31.7141
 20
7.7577
 10
31.7556
 20
7.7315
 10
31.8344
 20
7.673
 10
31.9071
 20
7.6071
 10
31.973
 20
7.5344
 10
32.0032
 20
7.4957
 10
32.0577
 20
7.4141
 10
32.104
 20
7.3276
  0
LWPOLYLINE
  5
B8
330
17
100
AcDbEntity
  8
CUT
100
AcDbPolyline
 90
4
 70
1
 10
49.35
 20
7.8
 10
64.95
 20
7.8
 10
64.95
 20
-7.8
 10
49.35
 20
-7.8
  0
LWPOLYLINE
  5
B9
330
17
100
AcDbEntity
  8
CUT
100
AcDbPolyline
 90
75
 70
1
 10
39.1299
 20
-10.6215
 10
39.2016
 20
-10.6054
 10
39.275
 20
-10.6
 10
41.875
 20
-10.6
 10
41.924
 20
-10.6024
 10
41.9965
 20
-10.615
 10
42.0663
 20
-10.6381
 10
42.1107
 20
-10.659
 10
42.1728
 20
-10.6984
 10
42.2286
 20
-10.7464
 10
42.2766
 20
-10.8022
 10
42.316
 20
-10.8643
 10
42.3458
 20
-10.9316
 10
42.36
 20
-10.9785
 10
42.3696
 20
-11.0266
 10
42.375
 20
-11.1
 10
42.375
 20
-15.25
 10
43.2495
 20
-15.2506
 10
43.3225
 20
-15.2596
 10
43.3934
 20
-15.2792
 10
43.4607
 20
-15.309
 10
43.5228
 20
-15.3484
 10
43.5786
 20
-15.3964
 10
43.6115
 20
-15.4328
 10
43.6539
 20
-15.4929
 10
43.6869
 20
-15.5587
 10
43.71
 20
-15.6285
 10
43.7226
 20
-15.701
 10
43.725
 20
-15.75
 10
43.7244
 20
-21.6245
 10
43.7154
 20
-21.6975
 10
43.6958
 20
-21.7684
 10
43.666
 20
-21.8357
 10
43.6266
 20
-21.8978
 10
43.5786
 20
-21.9536
 10
43.5228
 20
-22.0016
 10
43.4607
 20
-22.041
 10
43.3934
 20
-22.0708
 10
43.3465
 20
-22.085
 10
43.2984
 20
-22.0946
 10
43.225
 20
-22.1
 10
37.9005
 20
-22.0994
 10
37.8275
 20
-22.0904
 10
37.7566
 20
-22.0708
 10
37.6893
 20
-22.041
 10
37.6272
 20
-22.0016
 10
37.5714
 20
-21.9536
 10
37.5234
 20
-21.8978
 10
37.484
 20
-21.8357
 10
37.4542
 20
-21.7684
 10
37.44
 20
-21.7215
 10
37.4304
 20
-21.6734
 10
37.425
 20
-21.6
 10
37.425
 20
-15.75
 10
37.4304
 20
-15.6766
 10
37.4465
 20
-15.6049
 10
37.4631
 20
-15.5587
 10
37.4961
 20
-15.4929
 10
37.5385
 20
-15.4328
 10
37.5892
 20
-15.3795
 10
37.6472
 20
-15.3343
 10
37.7112
 20
-15.298
 10
37.7799
 20
-15.2715
 10
37.8516
 20
-15.2554
 10
37.925
 20
-15.25
 10
38.775
 20
-15.25
 10
38.775
 20
-11.1
 10
38.7774
 20
-11.051
 10
38.79
 20
-10.9785
 10
38.8131
 20
-10.9087
 10
38.8461
 20
-10.8429
 10
38.8885
 20
-10.7828
 10
38.9392
 20
-10.7295
 10
38.9972
 20
-10.6843
 10
39.0612
 20
-10.648
  0
LWPOLYLINE
  5
BA
330
17
100
AcDbEntity
  8
CUT
100
AcDbPolyline
 90
124
 70
1
 10
22.3583
 20
-12.0011
 10
22.4056
 20
-12.0362
 10
22.4493
 20
-12.0757
 10
22.5121
 20
-12.15
 10
34.6379
 20
-12.15
 10
34.6804
 20
-12.0971
 10
34.7221
 20
-12.0554
 10
34.7676
 20
-12.0181
 10
34.8422
 20
-11.9708
 10
34.8954
 20
-11.9457
 10
34.9792
 20
-11.918
 10
35.037
 20
-11.9065
 10
35.125
 20
-11.9
 10
35.1838
 20
-11.9029
 10
35.2421
 20
-11.9115
 10
35.2992
 20
-11.9258
 10
35.3546
 20
-11.9457
 10
35.4335
 20
-11.9854
 10
35.4824
 20
-12.0181
 10
35.5279
 20
-12.0554
 10
35.5696
 20
-12.0971
 10
35.6069
 20
-12.1426
 10
35.6396
 20
-12.1915
 10
35.6674
 20
-12.2435
 10
35.6899
 20
-12.2979
 10
35.707
 20
-12.3542
 10
35.7185
 20
-12.412
 10
35.725
 20
-12.5
 10
35.7221
 20
-12.5588
 10
35.707
 20
-12.6458
 10
35.6899
 20
-12.7021
 10
35.6542
 20
-12.7828
 10
35.6239
 20
-12.8333
 10
35.5696
 20
-12.9029
 10
35.5279
 20
-12.9446
 10
35.475
 20
-12.9871
 10
35.475
 20
-25.1129
 10
35.5279
 20
-25.1554
 10
35.5696
 20
-25.1971
 10
35.6239
 20
-25.2667
 10
35.6542
 20
-25.3172
 10
35.6899
 20
-25.3979
 10
35.707
 20
-25.4542
 10
35.7221
 20
-25.5412
 10
35.725
 20
-25.6
 10
35.7221
 20
-25.6588
 10
35.707
 20
-25.7458
 10
35.6899
 20
-25.8021
 10
35.6674
 20
-25.8565
 10
35.6396
 20
-25.9085
 10
35.6069
 20
-25.9574
 10
35.5696
 20
-26.0029
 10
35.5279
 20
-26.0446
 10
35.4824
 20
-26.0819
 10
35.4335
 20
-26.1146
 10
35.3546
 20
-26.1543
 10
35.2992
 20
-26.1742
 10
35.2421
 20
-26.1885
 10
35.1838
 20
-26.1971
 10
35.125
 20
-26.2
 10
35.037
 20
-26.1935
 10
34.9792
 20
-26.182
 10
34.8954
 20
-26.1543
 10
34.8422
 20
-26.1292
 10
34.7676
 20
-26.0819
 10
34.7221
 20
-26.0446
 10
34.6804
 20
-26.0029
 10
34.6379
 20
-25.95
 10
22.5121
 20
-25.95
 10
22.4696
 20
-26.0029
 10
22.4279
 20
-26.0446
 10
22.3824
 20
-26.0819
 10
22.3078
 20
-26.1292
 10
22.2546
 20
-26.1543
 10
22.1708
 20
-26.182
 10
22.113
 20
-26.1935
 10
22.025
 20
-26.2
 10
21.9662
 20
-26.1971
 10
21.9079
 20
-26.1885
 10
21.8508
 20
-26.1742
 10
21.7954
 20
-26.1543
 10
21.7165
 20
-26.1146
 10
21.6676
 20
-26.0819
 10
21.6221
 20
-26.0446
 10
21.5804
 20
-26.0029
 10
21.5431
 20
-25.9574
 10
21.5104
 20
-25.9085
 10
21.4707
 20
-25.8296
 10
21.4508
 20
-25.7742
 10
21.4365
 20
-25.7171
 10
21.4279
 20
-25.6588
 10
21.425
 20
-25.6
 10
21.4315
 20
-25.512
 10
21.443
 20
-25.4542
 10
21.4707
 20
-25.3704
 10
21.4958
 20
-25.3172
 10
21.5431
 20
-25.2426
 10
21.5804
 20
-25.1971
 10
21.6221
 20
-25.1554
 10
21.675
 20
-25.1129
 10
21.675
 20
-12.9871
 10
21.6221
 20
-12.9446
 10
21.5612
 20
-12.8806
 10
21.5104
 20
-12.8085
 10
21.4826
 20
-12.7565
 10
21.4508
 20
-12.6742
 10
21.4365
 20
-12.6171
 10
21.4257
 20
-12.5294
 10
21.4257
 20
-12.4706
 10
21.4315
 20
-12.412
 10
21.4508
 20
-12.3258
 10
21.4826
 20
-12.2435
 10
21.5261
 20
-12.1667
 10
21.5804
 20
-12.0971
 10
21.6221
 20
-12.0554
 10
21.6917
 20
-12.0011
 10
21.7685
 20
-11.9576
 10
21.8508
 20
-11.9258
 10
21.9079
 20
-11.9115
 10
21.9956
 20
-11.9007
 10
22.0544
 20
-11.9007
 10
22.113
 20
-11.9065
 10
22.1992
 20
-11.9258
 10
22.2815
 20
-11.9576
  0
LWPOLYLINE
  5
BB
330
17
100
AcDbEntity
  8
CUT
100
AcDbPolyline
 90
123
 70
1
 10
50.8806
 20
-11.9362
 10
50.9446
 20
-11.9971
 10
50.9871
 20
-12.05
 10
63.3129
 20
-12.05
 10
63.3554
 20
-11.9971
 10
63.3971
 20
-11.9554
 10
63.4667
 20
-11.9011
 10
63.5172
 20
-11.8708
 10
63.5979
 20
-11.8351
 10
63.6542
 20
-11.818
 10
63.7412
 20
-11.8029
 10
63.8
 20
-11.8
 10
63.8588
 20
-11.8029
 10
63.9458
 20
-11.818
 10
64.0021
 20
-11.8351
 10
64.0565
 20
-11.8576
 10
64.1085
 20
-11.8854
 10
64.1574
 20
-11.9181
 10
64.2029
 20
-11.9554
 10
64.2446
 20
-11.9971
 10
64.2819
 20
-12.0426
 10
64.3146
 20
-12.0915
 10
64.3543
 20
-12.1704
 10
64.3742
 20
-12.2258
 10
64.3885
 20
-12.2829
 10
64.3971
 20
-12.3412
 10
64.4
 20
-12.4
 10
64.3971
 20
-12.4588
 10
64.382
 20
-12.5458
 10
64.3543
 20
-12.6296
 10
64.3292
 20
-12.6828
 10
64.2989
 20
-12.7333
 10
64.2446
 20
-12.8029
 10
64.2029
 20
-12.8446
 10
64.15
 20
-12.8871
 10
64.15
 20
-25.2129
 10
64.2029
 20
-25.2554
 10
64.2446
 20
-25.2971
 10
64.2989
 20
-25.3667
 10
64.3292
 20
-25.4172
 10
64.3543
 20
-25.4704
 10
64.382
 20
-25.5542
 10
64.3971
 20
-25.6412
 10
64.4
 20
-25.7
 10
64.3971
 20
-25.7588
 10
64.3885
 20
-25.8171
 10
64.3742
 20
-25.8742
 10
64.3543
 20
-25.9296
 10
64.3292
 20
-25.9828
 10
64.2989
 20
-26.0333
 10
64.2446
 20
-26.1029
 10
64.2029
 20
-26.1446
 10
64.1574
 20
-26.1819
 10
64.1085
 20
-26.2146
 10
64.0565
 20
-26.2424
 10
64.0021
 20
-26.2649
 10
63.9171
 20
-26.2885
 10
63.8588
 20
-26.2971
 10
63.8
 20
-26.3
 10
63.7412
 20
-26.2971
 10
63.6542
 20
-26.282
 10
63.5979
 20
-26.2649
 10
63.5172
 20
-26.2292
 10
63.4667
 20
-26.1989
 10
63.3971
 20
-26.1446
 10
63.3554
 20
-26.1029
 10
63.3129
 20
-26.05
 10
50.9871
 20
-26.05
 10
50.9446
 20
-26.1029
 10
50.9029
 20
-26.1446
 10
50.8333
 20
-26.1989
 10
50.7828
 20
-26.2292
 10
50.7021
 20
-26.2649
 10
50.6458
 20
-26.282
 10
50.5588
 20
-26.2971
 10
50.5
 20
-26.3
 10
50.4412
 20
-26.2971
 10
50.3829
 20
-26.2885
 10
50.2979
 20
-26.2649
 10
50.2435
 20
-26.2424
 10
50.1915
 20
-26.2146
 10
50.1426
 20
-26.1819
 10
50.0971
 20
-26.1446
 10
50.0554
 20
-26.1029
 10
50.0181
 20
-26.0574
 10
49.9854
 20
-26.0085
 10
49.9457
 20
-25.9296
 10
49.9258
 20
-25.8742
 10
49.9115
 20
-25.8171
 10
49.9029
 20
-25.7588
 10
49.9
 20
-25.7
 10
49.9065
 20
-25.612
 10
49.918
 20
-25.5542
 10
49.9457
 20
-25.4704
 10
49.9708
 20
-25.4172
 10
50.0181
 20
-25.3426
 10
50.0554
 20
-25.2971
 10
50.0971
 20
-25.2554
 10
50.15
 20
-25.2129
 10
50.15
 20
-12.8871
 10
50.0971
 20
-12.8446
 10
50.0362
 20
-12.7806
 10
49.9854
 20
-12.7085
 10
49.9576
 20
-12.6565
 10
49.9351
 20
-12.6021
 10
49.9115
 20
-12.5171
 10
49.9007
 20
-12.4294
 10
49.9007
 20
-12.3706
 10
49.9115
 20
-12.2829
 10
49.9351
 20
-12.1979
 10
49.9708
 20
-12.1172
 10
50.0011
 20
-12.0667
 10
50.0554
 20
-11.9971
 10
50.1194
 20
-11.9362
 10
50.1915
 20
-11.8854
 10
50.2435
 20
-11.8576
 10
50.2979
 20
-11.8351
 10
50.3829
 20
-11.8115
 10
50.4706
 20
-11.8007
 10
50.5588
 20
-11.8029
 10
50.6458
 20
-11.818
 10
50.7296
 20
-11.8457
 10
50.8085
 20
-11.8854
  0
LWPOLYLINE
  5
BC
330
17
100
AcDbEntity
  8
CUT
100
AcDbPolyline
 90
123
 70
1
 10
31.8306
 20
-30.9862
 10
31.8946
 20
-31.0471
 10
31.9371
 20
-31.1
 10
44.2629
 20
-31.1
 10
44.3054
 20
-31.0471
 10
44.3471
 20
-31.0054
 10
44.4167
 20
-30.9511
 10
44.4672
 20
-30.9208
 10
44.5479
 20
-30.8851
 10
44.6042
 20
-30.868
 10
44.6912
 20
-30.8529
 10
44.75
 20
-30.85
 10
44.8088
 20
-30.8529
 10
44.8958
 20
-30.868
 10
44.9521
 20
-30.8851
 10
45.0065
 20
-30.9076
 10
45.0585
 20
-30.9354
 10
45.1074
 20
-30.9681
 10
45.1529
 20
-31.0054
 10
45.1946
 20
-31.0471
 10
45.2319
 20
-31.0926
 10
45.2646
 20
-31.1415
 10
45.3043
 20
-31.2204
 10
45.3242
 20
-31.2758
 10
45.3385
 20
-31.3329
 10
45.3471
 20
-31.3912
 10
45.35
 20
-31.45
 10
45.3435
 20
-31.538
 10
45.332
 20
-31.5958
 10
45.3043
 20
-31.6796
 10
45.2792
 20
-31.7328
 10
45.2319
 20
-31.8074
 10
45.1946
 20
-31.8529
 10
45.1529
 20
-31.8946
 10
45.1
 20
-31.9371
 10
45.1
 20
-44.2629
 10
45.1529
 20
-44.3054
 10
45.1946
 20
-44.3471
 10
45.2319
 20
-44.3926
 10
45.2792
 20
-44.4672
 10
45.3043
 20
-44.5204
 10
45.332
 20
-44.6042
 10
45.3435
 20
-44.662
 10
45.35
 20
-44.75
 10
45.3471
 20
-44.8088
 10
45.3385
 20
-44.8671
 10
45.3242
 20
-44.9242
 10
45.3043
 20
-44.9796
 10
45.2792
 20
-45.0328
 10
45.2319
 20
-45.1074
 10
45.1946
 20
-45.1529
 10
45.1529
 20
-45.1946
 10
45.1074
 20
-45.2319
 10
45.0585
 20
-45.2646
 10
44.9796
 20
-45.3043
 10
44.9242
 20
-45.3242
 10
44.8671
 20
-45.3385
 10
44.8088
 20
-45.3471
 10
44.75
 20
-45.35
 10
44.662
 20
-45.3435
 10
44.6042
 20
-45.332
 10
44.5204
 20
-45.3043
 10
44.4672
 20
-45.2792
 10
44.3926
 20
-45.2319
 10
44.3471
 20
-45.1946
 10
44.3054
 20
-45.1529
 10
44.2629
 20
-45.1
 10
31.9371
 20
-45.1
 10
31.8946
 20
-45.1529
 10
31.8529
 20
-45.1946
 10
31.8074
 20
-45.2319
 10
31.7328
 20
-45.2792
 10
31.6796
 20
-45.3043
 10
31.5958
 20
-45.332
 10
31.538
 20
-45.3435
 10
31.45
 20
-45.35
 10
31.3912
 20
-45.3471
 10
31.3329
 20
-45.3385
 10
31.2758
 20
-45.3242
 10
31.2204
 20
-45.3043
 10
31.1672
 20
-45.2792
 10
31.0926
 20
-45.2319
 10
31.0471
 20
-45.1946
 10
31.0054
 20
-45.1529
 10
30.9681
 20
-45.1074
 10
30.9354
 20
-45.0585
 10
30.9076
 20
-45.0065
 10
30.8851
 20
-44.9521
 10
30.868
 20
-44.8958
 10
30.8565
 20
-44.838
 10
30.85
 20
-44.75
 10
30.8529
 20
-44.6912
 10
30.868
 20
-44.6042
 10
30.8851
 20
-44.5479
 10
30.9208
 20
-44.4672
 10
30.9511
 20
-44.4167
 10
31.0054
 20
-44.3471
 10
31.0471
 20
-44.3054
 10
31.1
 20
-44.2629
 10
31.1
 20
-31.9371
 10
31.0471
 20
-31.8946
 10
30.9862
 20
-31.8306
 10
30.9511
 20
-31.7833
 10
30.9076
 20
-31.7065
 10
30.8758
 20
-31.6242
 10
30.8615
 20
-31.5671
 10
30.8529
 20
-31.5088
 10
30.8507
 20
-31.4206
 10
30.8615
 20
-31.3329
 10
30.8851
 20
-31.2479
 10
30.9208
 20
-31.1672
 10
30.9511
 20
-31.1167
 10
31.0054
 20
-31.0471
 10
31.0471
 20
-31.0054
 10
31.1167
 20
-30.9511
 10
31.1935
 20
-30.9076
 10
31.2758
 20
-30.8758
 10
31.362
 20
-30.8565
 10
31.45
 20
-30.85
 10
31.5088
 20
-30.8529
 10
31.5958
 20
-30.868
 10
31.6796
 20
-30.8957
 10
31.7585
 20
-30.9354
  0
LWPOLYLINE
  5
BD
330
17
100
AcDbEntity
  8
CUT
100
AcDbPolyline
 90
123
 70
1
 10
50.8806
 20
-30.9862
 10
50.9446
 20
-31.0471
 10
50.9871
 20
-31.1
 10
63.3129
 20
-31.1
 10
63.3554
 20
-31.0471
 10
63.3971
 20
-31.0054
 10
63.4667
 20
-30.9511
 10
63.5172
 20
-30.9208
 10
63.5979
 20
-30.8851
 10
63.6542
 20
-30.868
 10
63.7412
 20
-30.8529
 10
63.8
 20
-30.85
 10
63.8588
 20
-30.8529
 10
63.9458
 20
-30.868
 10
64.0021
 20
-30.8851
 10
64.0565
 20
-30.9076
 10
64.1085
 20
-30.9354
 10
64.1574
 20
-30.9681
 10
64.2029
 20
-31.0054
 10
64.2446
 20
-31.0471
 10
64.2819
 20
-31.0926
 10
64.3146
 20
-31.1415
 10
64.3543
 20
-31.2204
 10
64.3742
 20
-31.2758
 10
64.3885
 20
-31.3329
 10
64.3971
 20
-31.3912
 10
64.4
 20
-31.45
 10
64.3971
 20
-31.5088
 10
64.382
 20
-31.5958
 10
64.3543
 20
-31.6796
 10
64.3292
 20
-31.7328
 10
64.2989
 20
-31.7833
 10
64.2446
 20
-31.8529
 10
64.2029
 20
-31.8946
 10
64.15
 20
-31.9371
 10
64.15
 20
-44.2629
 10
64.2029
 20
-44.3054
 10
64.2446
 20
-44.3471
 10
64.2989
 20
-44.4167
 10
64.3292
 20
-44.4672
 10
64.3543
 20
-44.5204
 10
64.382
 20
-44.6042
 10
64.3971
 20
-44.6912
 10
64.4
 20
-44.75
 10
64.3971
 20
-44.8088
 10
64.3885
 20
-44.8671
 10
64.3742
 20
-44.9242
 10
64.3543
 20
-44.9796
 10
64.3146
 20
-45.0585
 10
64.2819
 20
-45.1074
 10
64.2446
 20
-45.1529
 10
64.2029
 20
-45.1946
 10
64.1333
 20
-45.2489
 10
64.0828
 20
-45.2792
 10
64.0296
 20
-45.3043
 10
63.9742
 20
-45.3242
 10
63.9171
 20
-45.3385
 10
63.8588
 20
-45.3471
 10
63.8
 20
-45.35
 10
63.712
 20
-45.3435
 10
63.6542
 20
-45.332
 10
63.5704
 20
-45.3043
 10
63.5172
 20
-45.2792
 10
63.4426
 20
-45.2319
 10
63.3971
 20
-45.1946
 10
63.3554
 20
-45.1529
 10
63.3129
 20
-45.1
 10
50.9871
 20
-45.1
 10
50.9446
 20
-45.1529
 10
50.9029
 20
-45.1946
 10
50.8574
 20
-45.2319
 10
50.7828
 20
-45.2792
 10
50.7296
 20
-45.3043
 10
50.6458
 20
-45.332
 10
50.588
 20
-45.3435
 10
50.5
 20
-45.35
 10
50.412
 20
-45.3435
 10
50.3542
 20
-45.332
 10
50.2979
 20
-45.3149
 10
50.2435
 20
-45.2924
 10
50.1915
 20
-45.2646
 10
50.1426
 20
-45.2319
 10
50.0971
 20
-45.1946
 10
50.0554
 20
-45.1529
 10
50.0181
 20
-45.1074
 10
49.9854
 20
-45.0585
 10
49.9457
 20
-44.9796
 10
49.9258
 20
-44.9242
 10
49.9115
 20
-44.8671
 10
49.9029
 20
-44.8088
 10
49.9
 20
-44.75
 10
49.9065
 20
-44.662
 10
49.918
 20
-44.6042
 10
49.9457
 20
-44.5204
 10
49.9708
 20
-44.4672
 10
50.0181
 20
-44.3926
 10
50.0554
 20
-44.3471
 10
50.0971
 20
-44.3054
 10
50.15
 20
-44.2629
 10
50.15
 20
-31.9371
 10
50.0971
 20
-31.8946
 10
50.0362
 20
-31.8306
 10
49.9854
 20
-31.7585
 10
49.9576
 20
-31.7065
 10
49.9258
 20
-31.6242
 10
49.9115
 20
-31.5671
 10
49.9007
 20
-31.4794
 10
49.9007
 20
-31.4206
 10
49.9115
 20
-31.3329
 10
49.9351
 20
-31.2479
 10
49.9708
 20
-31.1672
 10
50.0011
 20
-31.1167
 10
50.0554
 20
-31.0471
 10
50.1194
 20
-30.9862
 10
50.1667
 20
-30.9511
 10
50.2435
 20
-30.9076
 10
50.3258
 20
-30.8758
 10
50.412
 20
-30.8565
 10
50.5
 20
-30.85
 10
50.5588
 20
-30.8529
 10
50.6458
 20
-30.868
 10
50.7296
 20
-30.8957
 10
50.8085
 20
-30.9354
  0
LWPOLYLINE
  5
BE
330
17
100
AcDbEntity
  8
CUT
100
AcDbPolyline
 90
123
 70
1
 10
31.8306
 20
-50.0362
 10
31.8946
 20
-50.0971
 10
31.9371
 20
-50.15
 10
44.2629
 20
-50.15
 10
44.3054
 20
-50.0971
 10
44.3471
 20
-50.0554
 10
44.3926
 20
-50.0181
 10
44.4672
 20
-49.9708
 10
44.5204
 20
-49.9457
 10
44.6042
 20
-49.918
 10
44.662
 20
-49.9065
 10
44.75
 20
-49.9
 10
44.8088
 20
-49.9029
 10
44.8671
 20
-49.9115
 10
44.9242
 20
-49.9258
 10
44.9796
 20
-49.9457
 10
45.0328
 20
-49.9708
 10
45.1074
 20
-50.0181
 10
45.1529
 20
-50.0554
 10
45.1946
 20
-50.0971
 10
45.2319
 20
-50.1426
 10
45.2646
 20
-50.1915
 10
45.2924
 20
-50.2435
 10
45.3149
 20
-50.2979
 10
45.332
 20
-50.3542
 10
45.3435
 20
-50.412
 10
45.35
 20
-50.5
 10
45.3435
 20
-50.588
 10
45.332
 20
-50.6458
 10
45.3043
 20
-50.7296
 10
45.2792
 20
-50.7828
 10
45.2319
 20
-50.8574
 10
45.1946
 20
-50.9029
 10
45.1529
 20
-50.9446
 10
45.1
 20
-50.9871
 10
45.1
 20
-63.3129
 10
45.1529
 20
-63.3554
 10
45.1946
 20
-63.3971
 10
45.2319
 20
-63.4426
 10
45.2792
 20
-63.5172
 10
45.3043
 20
-63.5704
 10
45.332
 20
-63.6542
 10
45.3435
 20
-63.712
 10
45.35
 20
-63.8
 10
45.3471
 20
-63.8588
 10
45.3385
 20
-63.9171
 10
45.3242
 20
-63.9742
 10
45.3043
 20
-64.0296
 10
45.2792
 20
-64.0828
 10
45.2319
 20
-64.1574
 10
45.1946
 20
-64.2029
 10
45.1529
 20
-64.2446
 10
45.1074
 20
-64.2819
 10
45.0585
 20
-64.3146
 10
44.9796
 20
-64.3543
 10
44.9242
 20
-64.3742
 10
44.8671
 20
-64.3885
 10
44.8088
 20
-64.3971
 10
44.75
 20
-64.4
 10
44.6912
 20
-64.3971
 10
44.6042
 20
-64.382
 10
44.5204
 20
-64.3543
 10
44.4672
 20
-64.3292
 10
44.4167
 20
-64.2989
 10
44.3471
 20
-64.2446
 10
44.3054
 20
-64.2029
 10
44.2629
 20
-64.15
 10
31.9371
 20
-64.15
 10
31.8946
 20
-64.2029
 10
31.8529
 20
-64.2446
 10
31.7833
 20
-64.2989
 10
31.7328
 20
-64.3292
 10
31.6796
 20
-64.3543
 10
31.5958
 20
-64.382
 10
31.5088
 20
-64.3971
 10
31.45
 20
-64.4
 10
31.3912
 20
-64.3971
 10
31.3329
 20
-64.3885
 10
31.2758
 20
-64.3742
 10
31.2204
 20
-64.3543
 10
31.1415
 20
-64.3146
 10
31.0926
 20
-64.2819
 10
31.0471
 20
-64.2446
 10
31.0054
 20
-64.2029
 10
30.9681
 20
-64.1574
 10
30.9354
 20
-64.1085
 10
30.9076
 20
-64.0565
 10
30.8851
 20
-64.0021
 10
30.868
 20
-63.9458
 10
30.8565
 20
-63.888
 10
30.85
 20
-63.8
 10
30.8529
 20
-63.7412
 10
30.868
 20
-63.6542
 10
30.8851
 20
-63.5979
 10
30.9208
 20
-63.5172
 10
30.9511
 20
-63.4667
 10
31.0054
 20
-63.3971
 10
31.0471
 20
-63.3554
 10
31.1
 20
-63.3129
 10
31.1
 20
-50.9871
 10
31.0471
 20
-50.9446
 10
30.9862
 20
-50.8806
 10
30.9511
 20
-50.8333
 10
30.9076
 20
-50.7565
 10
30.8758
 20
-50.6742
 10
30.8615
 20
-50.6171
 10
30.8529
 20
-50.5588
 10
30.8507
 20
-50.4706
 10
30.8615
 20
-50.3829
 10
30.8851
 20
-50.2979
 10
30.9208
 20
-50.2172
 10
30.9511
 20
-50.1667
 10
31.0054
 20
-50.0971
 10
31.0694
 20
-50.0362
 10
31.1415
 20
-49.9854
 10
31.2204
 20
-49.9457
 10
31.3042
 20
-49.918
 10
31.362
 20
-49.9065
 10
31.45
 20
-49.9
 10
31.538
 20
-49.9065
 10
31.5958
 20
-49.918
 10
31.6796
 20
-49.9457
 10
31.7585
 20
-49.9854
  0
LWPOLYLINE
  5
BF
330
17
100
AcDbEntity
  8
CUT
100
AcDbPolyline
 90
123
 70
1
 10
50.8806
 20
-50.0362
 10
50.9446
 20
-50.0971
 10
50.9871
 20
-50.15
 10
63.3129
 20
-50.15
 10
63.3554
 20
-50.0971
 10
63.3971
 20
-50.0554
 10
63.4426
 20
-50.0181
 10
63.5172
 20
-49.9708
 10
63.5704
 20
-49.9457
 10
63.6542
 20
-49.918
 10
63.712
 20
-49.9065
 10
63.8
 20
-49.9
 10
63.8588
 20
-49.9029
 10
63.9171
 20
-49.9115
 10
63.9742
 20
-49.9258
 10
64.0296
 20
-49.9457
 10
64.0828
 20
-49.9708
 10
64.1574
 20
-50.0181
 10
64.2029
 20
-50.0554
 10
64.2446
 20
-50.0971
 10
64.2819
 20
-50.1426
 10
64.3146
 20
-50.1915
 10
64.3424
 20
-50.2435
 10
64.3649
 20
-50.2979
 10
64.3885
 20
-50.3829
 10
64.3971
 20
-50.4412
 10
64.4
 20
-50.5
 10
64.3971
 20
-50.5588
 10
64.382
 20
-50.6458
 10
64.3543
 20
-50.7296
 10
64.3292
 20
-50.7828
 10
64.2989
 20
-50.8333
 10
64.2446
 20
-50.9029
 10
64.2029
 20
-50.9446
 10
64.15
 20
-50.9871
 10
64.15
 20
-63.3129
 10
64.2029
 20
-63.3554
 10
64.2446
 20
-63.3971
 10
64.2989
 20
-63.4667
 10
64.3292
 20
-63.5172
 10
64.3543
 20
-63.5704
 10
64.382
 20
-63.6542
 10
64.3971
 20
-63.7412
 10
64.4
 20
-63.8
 10
64.3971
 20
-63.8588
 10
64.3885
 20
-63.9171
 10
64.3742
 20
-63.9742
 10
64.3543
 20
-64.0296
 10
64.3292
 20
-64.0828
 10
64.2989
 20
-64.1333
 10
64.2446
 20
-64.2029
 10
64.2029
 20
-64.2446
 10
64.1333
 20
-64.2989
 10
64.0828
 20
-64.3292
 10
64.0296
 20
-64.3543
 10
63.9742
 20
-64.3742
 10
63.9171
 20
-64.3885
 10
63.8588
 20
-64.3971
 10
63.8
 20
-64.4
 10
63.7412
 20
-64.3971
 10
63.6542
 20
-64.382
 10
63.5704
 20
-64.3543
 10
63.5172
 20
-64.3292
 10
63.4667
 20
-64.2989
 10
63.3971
 20
-64.2446
 10
63.3554
 20
-64.2029
 10
63.3129
 20
-64.15
 10
50.9871
 20
-64.15
 10
50.9446
 20
-64.2029
 10
50.9029
 20
-64.2446
 10
50.8333
 20
-64.2989
 10
50.7828
 20
-64.3292
 10
50.7296
 20
-64.3543
 10
50.6458
 20
-64.382
 10
50.5588
 20
-64.3971
 10
50.5
 20
-64.4
 10
50.4412
 20
-64.3971
 10
50.3829
 20
-64.3885
 10
50.3258
 20
-64.3742
 10
50.2704
 20
-64.3543
 10
50.1915
 20
-64.3146
 10
50.1426
 20
-64.2819
 10
50.0971
 20
-64.2446
 10
50.0554
 20
-64.2029
 10
50.0011
 20
-64.1333
 10
49.9708
 20
-64.0828
 10
49.9457
 20
-64.0296
 10
49.9258
 20
-63.9742
 10
49.9115
 20
-63.9171
 10
49.9029
 20
-63.8588
 10
49.9
 20
-63.8
 10
49.9065
 20
-63.712
 10
49.918
 20
-63.6542
 10
49.9457
 20
-63.5704
 10
49.9708
 20
-63.5172
 10
50.0181
 20
-63.4426
 10
50.0554
 20
-63.3971
 10
50.0971
 20
-63.3554
 10
50.15
 20
-63.3129
 10
50.15
 20
-50.9871
 10
50.0971
 20
-50.9446
 10
50.0362
 20
-50.8806
 10
50.0011
 20
-50.8333
 10
49.9576
 20
-50.7565
 10
49.9258
 20
-50.6742
 10
49.9115
 20
-50.6171
 10
49.9007
 20
-50.5294
 10
49.9007
 20
-50.4706
 10
49.9115
 20
-50.3829
 10
49.9351
 20
-50.2979
 10
49.9708
 20
-50.2172
 10
50.0181
 20
-50.1426
 10
50.0757
 20
-50.0757
 10
50.1426
 20
-50.0181
 10
50.2172
 20
-49.9708
 10
50.2704
 20
-49.9457
 10
50.3542
 20
-49.918
 10
50.412
 20
-49.9065
 10
50.5
 20
-49.9
 10
50.588
 20
-49.9065
 10
50.6458
 20
-49.918
 10
50.7296
 20
-49.9457
 10
50.8085
 20
-49.9854
  0
LWPOLYLINE
  5
C0
330
17
100
AcDbEntity
  8
CUT
100
AcDbPolyline
 90
64
 70
1
 10
71.067
 20
-69.7327
 10
71.0881
 20
-69.8386
 10
71.0987
 20
-69.946
 10
71.0987
 20
-70.054
 10
71.0881
 20
-70.1614
 10
71.067
 20
-70.2673
 10
71.0357
 20
-70.3706
 10
70.9944
 20
-70.4703
 10
70.9435
 20
-70.5655
 10
70.8835
 20
-70.6553
 10
70.815
 20
-70.7387
 10
70.7387
 20
-70.815
 10
70.6553
 20
-70.8835
 10
70.5655
 20
-70.9435
 10
70.4703
 20
-70.9944
 10
70.3706
 20
-71.0357
 10
70.2673
 20
-71.067
 10
70.1614
 20
-71.0881
 10
70.054
 20
-71.0987
 10
69.946
 20
-71.0987
 10
69.8386
 20
-71.0881
 10
69.7327
 20
-71.067
 10
69.6294
 20
-71.0357
 10
69.5297
 20
-70.9944
 10
69.4345
 20
-70.9435
 10
69.3447
 20
-70.8835
 10
69.2613
 20
-70.815
 10
69.185
 20
-70.7387
 10
69.1165
 20
-70.6553
 10
69.0565
 20
-70.5655
 10
69.0056
 20
-70.4703
 10
68.9643
 20
-70.3706
 10
68.933
 20
-70.2673
 10
68.9119
 20
-70.1614
 10
68.9013
 20
-70.054
 10
68.9013
 20
-69.946
 10
68.9119
 20
-69.8386
 10
68.933
 20
-69.7327
 10
68.9643
 20
-69.6294
 10
69.0056
 20
-69.5297
 10
69.0565
 20
-69.4345
 10
69.1165
 20
-69.3447
 10
69.185
 20
-69.2613
 10
69.2613
 20
-69.185
 10
69.3447
 20
-69.1165
 10
69.4345
 20
-69.0565
 10
69.5297
 20
-69.0056
 10
69.6294
 20
-68.9643
 10
69.7327
 20
-68.933
 10
69.8386
 20
-68.9119
 10
69.946
 20
-68.9013
 10
70.054
 20
-68.9013
 10
70.1614
 20
-68.9119
 10
70.2673
 20
-68.933
 10
70.3706
 20
-68.9643
 10
70.4703
 20
-69.0056
 10
70.5655
 20
-69.0565
 10
70.6553
 20
-69.1165
 10
70.7387
 20
-69.185
 10
70.815
 20
-69.2613
 10
70.8835
 20
-69.3447
 10
70.9435
 20
-69.4345
 10
70.9944
 20
-69.5297
 10
71.0357
 20
-69.6294
  0
ENDSEC
  0
SECTION
  2
OBJECTS
  0
DICTIONARY
  5
A
330
0
100
AcDbDictionary
281
1
  3
ACAD_COLOR
350
B
  3
ACAD_GROUP
350
C
  3
ACAD_LAYOUT
350
D
  3
ACAD_MATERIAL
350
E
  3
ACAD_MLEADERSTYLE
350
F
  3
ACAD_MLINESTYLE
350
10
  3
ACAD_PLOTSETTINGS
350
11
  3
ACAD_PLOTSTYLENAME
350
12
  3
ACAD_SCALELIST
350
14
  3
ACAD_TABLESTYLE
350
15
  3
ACAD_VISUALSTYLE
350
16
  3
EZDXF_META
350
2D
  0
DICTIONARY
  5
B
330
A
100
AcDbDictionary
281
1
  0
DICTIONARY
  5
C
330
A
100
AcDbDictionary
281
1
  0
DICTIONARY
  5
D
330
A
100
AcDbDictionary
281
1
  3
Model
350
1A
  3
Layout1
350
1E
  0
DICTIONARY
  5
E
330
A
100
AcDbDictionary
281
1
  3
ByBlock
350
1F
  3
ByLayer
350
20
  3
Global
350
21
  0
DICTIONARY
  5
F
330
A
100
AcDbDictionary
281
1
  3
Standard
350
2C
  0
DICTIONARY
  5
10
330
A
100
AcDbDictionary
281
1
  3
Standard
350
22
  0
DICTIONARY
  5
11
330
A
100
AcDbDictionary
281
1
  0
ACDBDICTIONARYWDFLT
  5
12
330
A
100
AcDbDictionary
281
1
  3
Normal
350
13
100
AcDbDictionaryWithDefault
340
13
  0
ACDBPLACEHOLDER
  5
13
330
12
  0
DICTIONARY
  5
14
330
A
100
AcDbDictionary
281
1
  0
DICTIONARY
  5
15
330
A
100
AcDbDictionary
281
1
  0
DICTIONARY
  5
16
330
A
100
AcDbDictionary
281
1
  3
2dWireframe
350
5A
  3
Basic
350
5B
  3
Brighten
350
5C
  3
ColorChange
350
5D
  3
Conceptual
350
5E
  3
Dim
350
5F
  3
EdgeColorOff
350
60
  3
Facepattern
350
61
  3
Flat
350
62
  3
FlatWithEdges
350
63
  3
Gouraud
350
64
  3
GouraudWithEdges
350
65
  3
Hidden
350
66
  3
JitterOff
350
67
  3
Linepattern
350
68
  3
Modeling
350
69
  3
OverhangOff
350
6A
  3
Realistic
350
6B
  3
Shaded
350
6C
  3
Shaded with edges
350
6D
  3
Shades of Gray
350
6E
  3
Sketchy
350
6F
  3
Thicken
350
70
  3
Wireframe
350
71
  3
X-Ray
350
72
  0
LAYOUT
  5
1A
330
D
100
AcDbPlotSettings
  1

  4
A3
  6

 40
7.5
 41
20.0
 42
7.5
 43
20.0
 44
420.0
 45
297.0
 46
0.0
 47
0.0
 48
0.0
 49
0.0
140
0.0
141
0.0
142
1.0
143
1.0
 70
1024
 72
1
 73
0
 74
5
  7

 75
16
 76
0
 77
2
 78
300
147
1.0
148
0.0
149
0.0
100
AcDbLayout
  1
Model
 70
1
 71
0
 10
0.0
 20
0.0
 11
420.0
 21
297.0
 12
0.0
 22
0.0
 32
0.0
 14
1e+20
 24
1e+20
 34
1e+20
 15
-1e+20
 25
-1e+20
 35
-1e+20
146
0.0
 13
0.0
 23
0.0
 33
0.0
 16
1.0
 26
0.0
 36
0.0
 17
0.0
 27
1.0
 37
0.0
 76
1
330
17
  0
LAYOUT
  5
1E
330
D
100
AcDbPlotSettings
  1

  4
A3
  6

 40
7.5
 41
20.0
 42
7.5
 43
20.0
 44
420.0
 45
297.0
 46
0.0
 47
0.0
 48
0.0
 49
0.0
140
0.0
141
0.0
142
1.0
143
1.0
 70
0
 72
1
 73
0
 74
5
  7

 75
16
 76
0
 77
2
 78
300
147
1.0
148
0.0
149
0.0
100
AcDbLayout
  1
Layout1
 70
1
 71
1
 10
0.0
 20
0.0
 11
420.0
 21
297.0
 12
0.0
 22
0.0
 32
0.0
 14
1e+20
 24
1e+20
 34
1e+20
 15
-1e+20
 25
-1e+20
 35
-1e+20
146
0.0
 13
0.0
 23
0.0
 33
0.0
 16
1.0
 26
0.0
 36
0.0
 17
0.0
 27
1.0
 37
0.0
 76
1
330
1B
  0
MATERIAL
  5
1F
102
{ACAD_REACTORS
330
E
102
}
330
E
100
AcDbMaterial
  1
ByBlock
  2

 70
0
 40
1.0
 71
1
 41
1.0
 91
-1023410177
 42
1.0
 72
1
  3

 73
1
 74
1
 75
1
 44
0.5
 73
0
 45
1.0
 46
1.0
 77
1
  4

 78
1
 79
1
170
1
 48
1.0
171
1
  6

172
1
173
1
174
1
140
1.0
141
1.0
175
1
  7

176
1
177
1
178
1
143
1.0
179
1
  8

270
1
271
1
272
1
145
1.0
146
1.0
273
1
  9

274
1
275
1
276
1
 42
1.0
 72
1
  3

 73
1
 74
1
 75
1
 94
63
  0
MATERIAL
  5
20
102
{ACAD_REACTORS
330
E
102
}
330
E
100
AcDbMaterial
  1
ByLayer
  2

 70
0
 40
1.0
 71
1
 41
1.0
 91
-1023410177
 42
1.0
 72
1
  3

 73
1
 74
1
 75
1
 44
0.5
 73
0
 45
1.0
 46
1.0
 77
1
  4

 78
1
 79
1
170
1
 48
1.0
171
1
  6

172
1
173
1
174
1
140
1.0
141
1.0
175
1
  7

176
1
177
1
178
1
143
1.0
179
1
  8

270
1
271
1
272
1
145
1.0
146
1.0
273
1
  9

274
1
275
1
276
1
 42
1.0
 72
1
  3

 73
1
 74
1
 75
1
 94
63
  0
MATERIAL
  5
21
102
{ACAD_REACTORS
330
E
102
}
330
E
100
AcDbMaterial
  1
Global
  2

 70
0
 40
1.0
 71
1
 41
1.0
 91
-1023410177
 42
1.0
 72
1
  3

 73
1
 74
1
 75
1
 44
0.5
 73
0
 45
1.0
 46
1.0
 77
1
  4

 78
1
 79
1
170
1
 48
1.0
171
1
  6

172
1
173
1
174
1
140
1.0
141
1.0
175
1
  7

176
1
177
1
178
1
143
1.0
179
1
  8

270
1
271
1
272
1
145
1.0
146
1.0
273
1
  9

274
1
275
1
276
1
 42
1.0
 72
1
  3

 73
1
 74
1
 75
1
 94
63
  0
MLINESTYLE
  5
22
102
{ACAD_REACTORS
330
10
102
}
330
10
100
AcDbMlineStyle
  2
Standard
 70
0
  3

 62
256
 51
90.0
 52
90.0
 71
2
 49
0.5
 62
256
  6
BYLAYER
 49
-0.5
 62
256
  6
BYLAYER
  0
MLEADERSTYLE
  5
2C
102
{ACAD_REACTORS
330
F
102
}
330
F
100
AcDbMLeaderStyle
179
2
170
2
171
1
172
0
 90
2
 40
0.0
 41
0.0
173
1
 91
-1056964608
 92
-2
290
1
 42
2.0
291
1
 43
8.0
  3
Standard
 44
4.0
300

342
29
174
1
175
1
176
0
178
1
 93
-1056964608
 45
4.0
292
0
297
0
 46
4.0
 94
-1056964608
 47
1.0
 49
1.0
140
1.0
294
1
141
0.0
177
0
142
1.0
295
0
296
0
143
3.75
271
0
272
9
273
9
  0
DICTIONARY
  5
2D
330
A
100
AcDbDictionary
280
1
281
1
  3
CREATED_BY_EZDXF
350
2E
  3
WRITTEN_BY_EZDXF
350
C3
  0
DICTIONARYVAR
  5
2E
330
2D
100
DictionaryVariables
280
0
  1
1.4.4 @ 2026-09-07T14:27:40.991533+00:00
  0
VISUALSTYLE
  5
5A
102
{ACAD_REACTORS
330
16
102
}
330
16
100
AcDbVisualStyle
  2
2dWireframe
 70
4
 90
0
 40
0.6
 62
7
290
0
291
0
  0
VISUALSTYLE
  5
5B
102
{ACAD_REACTORS
330
16
102
}
330
16
100
AcDbVisualStyle
  2
Basic
 70
7
 90
1
 40
0.6
 62
7
290
0
291
1
  0
VISUALSTYLE
  5
5C
102
{ACAD_REACTORS
330
16
102
}
330
16
100
AcDbVisualStyle
  2
Brighten
 70
12
 90
2
 40
0.6
 62
7
290
0
291
1
  0
VISUALSTYLE
  5
5D
102
{ACAD_REACTORS
330
16
102
}
330
16
100
AcDbVisualStyle
  2
ColorChange
 70
16
 90
2
 40
0.6
 62
8
290
0
291
1
  0
VISUALSTYLE
  5
5E
102
{ACAD_REACTORS
330
16
102
}
330
16
100
AcDbVisualStyle
  2
Conceptual
 70
9
 90
3
 40
0.6
 62
7
290
0
291
0
  0
VISUALSTYLE
  5
5F
102
{ACAD_REACTORS
330
16
102
}
330
16
100
AcDbVisualStyle
  2
Dim
 70
11
 90
2
 40
0.6
 62
7
290
0
291
1
  0
VISUALSTYLE
  5
60
102
{ACAD_REACTORS
330
16
102
}
330
16
100
AcDbVisualStyle
  2
EdgeColorOff
 70
22
 90
2
 40
0.6
 62
7
290
0
291
1
  0
VISUALSTYLE
  5
61
102
{ACAD_REACTORS
330
16
102
}
330
16
100
AcDbVisualStyle
  2
Facepattern
 70
15
 90
2
 40
0.6
 62
7
290
0
291
1
  0
VISUALSTYLE
  5
62
102
{ACAD_REACTORS
330
16
102
}
330
16
100
AcDbVisualStyle
  2
Flat
 70
0
 90
2
 40
0.6
 62
7
290
0
291
1
  0
VISUALSTYLE
  5
63
102
{ACAD_REACTORS
330
16
102
}
330
16
100
AcDbVisualStyle
  2
FlatWithEdges
 70
1
 90
2
 40
0.6
 62
7
290
0
291
1
  0
VISUALSTYLE
  5
64
102
{ACAD_REACTORS
330
16
102
}
330
16
100
AcDbVisualStyle
  2
Gouraud
 70
2
 90
2
 40
0.6
 62
7
290
0
291
1
  0
VISUALSTYLE
  5
65
102
{ACAD_REACTORS
330
16
102
}
330
16
100
AcDbVisualStyle
  2
GouraudWithEdges
 70
3
 90
2
 40
0.6
 62
7
290
0
291
1
  0
VISUALSTYLE
  5
66
102
{ACAD_REACTORS
330
16
102
}
330
16
100
AcDbVisualStyle
  2
Hidden
 70
6
 90
1
 40
0.6
 62
7
290
0
291
0
  0
VISUALSTYLE
  5
67
102
{ACAD_REACTORS
330
16
102
}
330
16
100
AcDbVisualStyle
  2
JitterOff
 70
20
 90
2
 40
0.6
 62
7
290
0
291
1
  0
VISUALSTYLE
  5
68
102
{ACAD_REACTORS
330
16
102
}
330
16
100
AcDbVisualStyle
  2
Linepattern
 70
14
 90
2
 40
0.6
 62
7
290
0
291
1
  0
VISUALSTYLE
  5
69
102
{ACAD_REACTORS
330
16
102
}
330
16
100
AcDbVisualStyle
  2
Modeling
 70
10
 90
2
 40
0.6
 62
7
290
0
291
0
  0
VISUALSTYLE
  5
6A
102
{ACAD_REACTORS
330
16
102
}
330
16
100
AcDbVisualStyle
  2
OverhangOff
 70
21
 90
2
 40
0.6
 62
7
290
0
291
1
  0
VISUALSTYLE
  5
6B
102
{ACAD_REACTORS
330
16
102
}
330
16
100
AcDbVisualStyle
  2
Realistic
 70
8
 90
2
 40
0.6
 62
7
290
0
291
0
  0
VISUALSTYLE
  5
6C
102
{ACAD_REACTORS
330
16
102
}
330
16
100
AcDbVisualStyle
  2
Shaded
 70
27
 90
2
 40
0.6
 62
7
290
0
291
0
  0
VISUALSTYLE
  5
6D
102
{ACAD_REACTORS
330
16
102
}
330
16
100
AcDbVisualStyle
  2
Shaded with edges
 70
26
 90
2
 40
0.6
 62
7
290
0
291
0
  0
VISUALSTYLE
  5
6E
102
{ACAD_REACTORS
330
16
102
}
330
16
100
AcDbVisualStyle
  2
Shades of Gray
 70
23
 90
2
 40
0.6
 62
7
290
0
291
0
  0
VISUALSTYLE
  5
6F
102
{ACAD_REACTORS
330
16
102
}
330
16
100
AcDbVisualStyle
  2
Sketchy
 70
24
 90
1
 40
0.6
 62
7
290
0
291
0
  0
VISUALSTYLE
  5
70
102
{ACAD_REACTORS
330
16
102
}
330
16
100
AcDbVisualStyle
  2
Thicken
 70
13
 90
2
 40
0.6
 62
7
290
0
291
1
  0
VISUALSTYLE
  5
71
102
{ACAD_REACTORS
330
16
102
}
330
16
100
AcDbVisualStyle
  2
Wireframe
 70
5
 90
0
 40
0.6
 62
7
290
0
291
0
  0
VISUALSTYLE
  5
72
102
{ACAD_REACTORS
330
16
102
}
330
16
100
AcDbVisualStyle
  2
X-Ray
 70
25
 90
2
 40
0.5
 62
7
290
0
291
0
  0
DICTIONARYVAR
  5
C3
330
2D
100
DictionaryVariables
280
0
  1
1.4.4 @ 2026-09-07T14:27:41.011368+00:00
  0
ENDSEC
  0
EOF
