  0
SECTION
  2
HEADER
  9
$ACADVER
  1
AC1024
  9
$ACADMAINTVER
 70
6
  9
$DWGCODEPAGE
  3
ANSI_1252
  9
$LASTSAVEDBY
  1
ezdxf
  9
$INSBASE
 10
0.0
 20
0.0
 30
0.0
  9
$EXTMIN
 10
1e+20
 20
1e+20
 30
1e+20
  9
$EXTMAX
 10
-1e+20
 20
-1e+20
 30
-1e+20
  9
$LIMMIN
 10
0.0
 20
0.0
  9
$LIMMAX
 10
420.0
 20
297.0
  9
$ORTHOMODE
 70
0
  9
$REGENMODE
 70
1
  9
$FILLMODE
 70
1
  9
$QTEXTMODE
 70
0
  9
$MIRRTEXT
 70
1
  9
$LTSCALE
 40
1.0
  9
$ATTMODE
 70
1
  9
$TEXTSIZE
 40
2.5
  9
$TRACEWID
 40
1.0
  9
$TEXTSTYLE
  7
OpenSans
  9
$CLAYER
  8
0
  9
$CELTYPE
  6
ByLayer
  9
$CECOLOR
 62
256
  9
$CELTSCALE
 40
1.0
  9
$DISPSILH
 70
0
  9
$DIMSCALE
 40
1.0
  9
$DIMASZ
 40
0.175
  9
$DIMEXO
 40
0.125
  9
$DIMDLI
 40
3.75
  9
$DIMRND
 40
0.0
  9
$DIMDLE
 40
0.0
  9
$DIMEXE
 40
0.375
  9
$DIMTP
 40
0.0
  9
$DIMTM
 40
0.0
  9
$DIMTXT
 40
0.25
  9
$DIMCEN
 40
2.5
  9
$DIMTSZ
 40
0.0
  9
$DIMTOL
 70
0
  9
$DIMLIM
 70
0
  9
$DIMTIH
 70
0
  9
$DIMTOH
 70
0
  9
$DIMSE1
 70
0
  9
$DIMSE2
 70
0
  9
$DIMTAD
 70
1
  9
$DIMZIN
 70
12
  9
$DIMBLK
  1
ARCHTICK
  9
$DIMASO
 70
1
  9
$DIMSHO
 70
1
  9
$DIMPOST
  1

  9
$DIMAPOST
  1

  9
$DIMALT
 70
0
  9
$DIMALTD
 70
3
  9
$DIMALTF
 40
0.03937007874
  9
$DIMLFAC
 40
100.0
  9
$DIMTOFL
 70
1
  9
$DIMTVP
 40
0.0
  9
$DIMTIX
 70
0
  9
$DIMSOXD
 70
0
  9
$DIMSAH
 70
0
  9
$DIMBLK1
  1

  9
$DIMBLK2
  1

  9
$DIMSTYLE
  2
EZDXF
  9
$DIMCLRD
 70
0
  9
$DIMCLRE
 70
0
  9
$DIMCLRT
 70
0
  9
$DIMTFAC
 40
0.5
  9
$DIMGAP
 40
0.1
  9
$DIMJUST
 70
0
  9
$DIMSD1
 70
0
  9
$DIMSD2
 70
0
  9
$DIMTOLJ
 70
0
  9
$DIMTZIN
 70
8
  9
$DIMALTZ
 70
0
  9
$DIMALTTZ
 70
0
  9
$DIMUPT
 70
1
  9
$DIMDEC
 70
2
  9
$DIMTDEC
 70
2
  9
$DIMALTU
 70
2
  9
$DIMALTTD
 70
3
  9
$DIMTXSTY
  7
OpenSansCondensed-Light
  9
$DIMAUNIT
 70
0
  9
$DIMADEC
 70
2
  9
$DIMALTRND
 40
0.0
  9
$DIMAZIN
 70
3
  9
$DIMDSEP
 70
46
  9
$DIMATFIT
 70
3
  9
$DIMFRAC
 70
0
  9
$DIMLDRBLK
  1

  9
$DIMLUNIT
 70
2
  9
$DIMLWD
 70
-2
  9
$DIMLWE
 70
-2
  9
$DIMTMOVE
 70
2
  9
$DIMFXL
 40
1.0
  9
$DIMFXLON
 70
0
  9
$DIMJOGANG
 40
0.785398163397
  9
$DIMTFILL
 70
0
  9
$DIMTFILLCLR
 70
0
  9
$DIMARCSYM
 70
0
  9
$DIMLTYPE
  6

  9
$DIMLTEX1
  6

  9
$DIMLTEX2
  6

  9
$DIMTXTDIRECTION
 70
0
  9
$LUNITS
 70
2
  9
$LUPREC
 70
4
  9
$SKETCHINC
 40
1.0
  9
$FILLETRAD
 40
10.0
  9
$AUNITS
 70
0
  9
$AUPREC
 70
2
  9
$MENU
  1
.
  9
$ELEVATION
 40
0.0
  9
$PELEVATION
 40
0.0
  9
$THICKNESS
 40
0.0
  9
$LIMCHECK
 70
0
  9
$CHAMFERA
 40
0.0
  9
$CHAMFERB
 40
0.0
  9
$CHAMFERC
 40
0.0
  9
$CHAMFERD
 40
0.0
  9
$SKPOLY
 70
0
  9
$TDCREATE
 40
2461291.98375
  9
$TDUCREATE
 40
2458532.153996898
  9
$TDUPDATE
 40
2461291.98375
  9
$TDUUPDATE
 40
2458532.1544311
  9
$TDINDWG
 40
0.0
  9
$TDUSRTIMER
 40
0.0
  9
$USRTIMER
 70
1
  9
$ANGBASE
 50
0.0
  9
$ANGDIR
 70
0
  9
$PDMODE
 70
0
  9
$PDSIZE
 40
0.0
  9
$PLINEWID
 40
0.0
  9
$SPLFRAME
 70
0
  9
$SPLINETYPE
 70
6
  9
$SPLINESEGS
 70
8
  9
$HANDSEED
  5
C4
  9
$SURFTAB1
 70
6
  9
$SURFTAB2
 70
6
  9
$SURFTYPE
 70
6
  9
$SURFU
 70
6
  9
$SURFV
 70
6
  9
$UCSBASE
  2

  9
$UCSNAME
  2

  9
$UCSORG
 10
0.0
 20
0.0
 30
0.0
  9
$UCSXDIR
 10
1.0
 20
0.0
 30
0.0
  9
$UCSYDIR
 10
0.0
 20
1.0
 30
0.0
  9
$UCSORTHOREF
  2

  9
$UCSORTHOVIEW
 70
0
  9
$UCSORGTOP
 10
0.0
 20
0.0
 30
0.0
  9
$UCSORGBOTTOM
 10
0.0
 20
0.0
 30
0.0
  9
$UCSORGLEFT
 10
0.0
 20
0.0
 30
0.0
  9
$UCSORGRIGHT
 10
0.0
 20
0.0
 30
0.0
  9
$UCSORGFRONT
 10
0.0
 20
0.0
 30
0.0
  9
$UCSORGBACK
 10
0.0
 20
0.0
 30
0.0
  9
$PUCSBASE
  2

  9
$PUCSNAME
  2

  9
$PUCSORG
 10
0.0
 20
0.0
 30
0.0
  9
$PUCSXDIR
 10
1.0
 20
0.0
 30
0.0
  9
$PUCSYDIR
 10
0.0
 20
1.0
 30
0.0
  9
$PUCSORTHOREF
  2

  9
$PUCSORTHOVIEW
 70
0
  9
$PUCSORGTOP
 10
0.0
 20
0.0
 30
0.0
  9
$PUCSORGBOTTOM
 10
0.0
 20
0.0
 30
0.0
  9
$PUCSORGLEFT
 10
0.0
 20
0.0
 30
0.0
  9
$PUCSORGRIGHT
 10
0.0
 20
0.0
 30
0.0
  9
$PUCSORGFRONT
 10
0.0
 20
0.0
 30
0.0
  9
$PUCSORGBACK
 10
0.0
 20
0.0
 30
0.0
  9
$USERI1
 70
0
  9
$USERI2
 70
0
  9
$USERI3
 70
0
  9
$USERI4
 70
0
  9
$USERI5
 70
0
  9
$USERR1
 40
0.0
  9
$USERR2
 40
0.0
  9
$USERR3
 40
0.0
  9
$USERR4
 40
0.0
  9
$USERR5
 40
0.0
  9
$WORLDVIEW
 70
1
  9
$SHADEDGE
 70
3
  9
$SHADEDIF
 70
70
  9
$TILEMODE
 70
1
  9
$MAXACTVP
 70
64
  9
$PINSBASE
 10
0.0
 20
0.0
 30
0.0
  9
$PLIMCHECK
 70
0
  9
$PEXTMIN
 10
1e+20
 20
1e+20
 30
1e+20
  9
$PEXTMAX
 10
-1e+20
 20
-1e+20
 30
-1e+20
  9
$PLIMMIN
 10
0.0
 20
0.0
  9
$PLIMMAX
 10
420.0
 20
297.0
  9
$UNITMODE
 70
0
  9
$VISRETAIN
 70
1
  9
$PLINEGEN
 70
0
  9
$PSLTSCALE
 70
1
  9
$TREEDEPTH
 70
3020
  9
$CMLSTYLE
  2
Standard
  9
$CMLJUST
 70
0
  9
$CMLSCALE
 40
20.0
  9
$PROXYGRAPHICS
 70
1
  9
$MEASUREMENT
 70
1
  9
$CELWEIGHT
370
-1
  9
$ENDCAPS
280
0
  9
$JOINSTYLE
280
0
  9
$LWDISPLAY
290
0
  9
$INSUNITS
 70
4
  9
$HYPERLINKBASE
  1

  9
$STYLESHEET
  1

  9
$XEDIT
290
1
  9
$CEPSNTYPE
380
0
  9
$PSTYLEMODE
290
1
  9
$FINGERPRINTGUID
  2
{D66BF2EC-D165-4466-A740-3578E787867F}
  9
$VERSIONGUID
  2
{0DCFA11E-9C35-46A9-965D-D9597D2F4761}
  9
$EXTNAMES
290
1
  9
$PSVPSCALE
 40
0.0
  9
$OLESTARTUP
290
0
  9
$SORTENTS
280
127
  9
$INDEXCTL
280
0
  9
$HIDETEXT
280
1
  9
$XCLIPFRAME
280
1
  9
$HALOGAP
280
0
  9
$OBSCOLOR
 70
257
  9
$OBSLTYPE
280
0
  9
$INTERSECTIONDISPLAY
280
0
  9
$INTERSECTIONCOLOR
 70
257
  9
$DIMASSOC
280
2
  9
$PROJECTNAME
  1

  9
$CAMERADISPLAY
290
0
  9
$LENSLENGTH
 40
50.0
  9
$CAMERAHEIGHT
 40
0.0
  9
$STEPSPERSEC
 40
24.0
  9
$STEPSIZE
 40
100.0
  9
$3DDWFPREC
 40
2.0
  9
$PSOLWIDTH
 40
0.005
  9
$PSOLHEIGHT
 40
0.08
  9
$LOFTANG1
 40
1.570796326795
  9
$LOFTANG2
 40
1.570796326795
  9
$LOFTMAG1
 40
0.0
  9
$LOFTMAG2
 40
0.0
  9
$LOFTPARAM
 70
7
  9
$LOFTNORMALS
280
1
  9
$LATITUDE
 40
37.795
  9
$LONGITUDE
 40
-122.394
  9
$NORTHDIRECTION
 40
0.0
  9
$TIMEZONE
 70
-8000
  9
$LIGHTGLYPHDISPLAY
280
1
  9
$TILEMODELIGHTSYNCH
280
1
  9
$CMATERIAL
347
20
  9
$SOLIDHIST
280
0
  9
$SHOWHIST
280
1
  9
$DWFFRAME
280
2
  9
$DGNFRAME
280
2
  9
$REALWORLDSCALE
290
1
  9
$INTERFERECOLOR
 62
256
  9
$CSHADOW
280
0
  9
$SHADOWPLANELOCATION
 40
0.0
  0
ENDSEC
  0
SECTION
  2
CLASSES
  0
CLASS
  1
ACDBDICTIONARYWDFLT
  2
AcDbDictionaryWithDefault
  3
ObjectDBX Classes
 90
0
 91
0
280
0
281
0
  0
CLASS
  1
SUN
  2
AcDbSun
  3
SCENEOE
 90
1153
 91
0
280
0
281
0
  0
CLASS
  1
VISUALSTYLE
  2
AcDbVisualStyle
  3
ObjectDBX Classes
 90
4095
 91
0
280
0
281
0
  0
CLASS
  1
MATERIAL
  2
AcDbMaterial
  3
ObjectDBX Classes
 90
1153
 91
0
280
0
281
0
  0
CLASS
  1
SCALE
  2
AcDbScale
  3
ObjectDBX Classes
 90
1153
 91
0
280
0
281
0
  0
CLASS
  1
TABLESTYLE
  2
AcDbTableStyle
  3
ObjectDBX Classes
 90
4095
 91
0
280
0
281
0
  0
CLASS
  1
MLEADERSTYLE
  2
AcDbMLeaderStyle
  3
ACDB_MLEADERSTYLE_CLASS
 90
4095
 91
0
280
0
281
0
  0
CLASS
  1
DICTIONARYVAR
  2
AcDbDictionaryVar
  3
ObjectDBX Classes
 90
0
 91
0
280
0
281
0
  0
CLASS
  1
CELLSTYLEMAP
  2
AcDbCellStyleMap
  3
ObjectDBX Classes
 90
1152
 91
0
280
0
281
0
  0
CLASS
  1
MENTALRAYRENDERSETTINGS
  2
AcDbMentalRayRenderSettings
  3
SCENEOE
 90
1024
 91
0
280
0
281
0
  0
CLASS
  1
ACDBDETAILVIEWSTYLE
  2
AcDbDetailViewStyle
  3
ObjectDBX Classes
 90
1025
 91
0
280
0
281
0
  0
CLASS
  1
ACDBSECTIONVIEWSTYLE
  2
AcDbSectionViewStyle
  3
ObjectDBX Classes
 90
1025
 91
0
280
0
281
0
  0
CLASS
  1
RASTERVARIABLES
  2
AcDbRasterVariables
  3
ISM
 90
0
 91
0
280
0
281
0
  0
CLASS
  1
LAYOUT
  2
AcDbLayout
  3
ObjectDBX Classes
 90
0
 91
0
280
0
281
0
  0
CLASS
  1
ACDBPLACEHOLDER
  2
AcDbPlaceHolder
  3
ObjectDBX Classes
 90
0
 91
0
280
0
281
0
  0
ENDSEC
  0
SECTION
  2
TABLES
  0
TABLE
  2
VPORT
  5
8
330
0
100
AcDbSymbolTable
 70
1
  0
VPORT
  5
23
330
8
100
AcDbSymbolTableRecord
100
AcDbViewportTableRecord
  2
*Active
 70
0
 10
0.0
 20
0.0
 11
1.0
 21
1.0
 12
0.0
 22
0.0
 13
0.0
 23
0.0
 14
0.5
 24
0.5
 15
0.5
 25
0.5
 16
0.0
 26
0.0
 36
1.0
 17
0.0
 27
0.0
 37
0.0
 40
1000.0
 41
1.34
 42
50.0
 43
0.0
 44
0.0
 50
0.0
 51
0.0
 71
0
 72
1000
 73
1
 74
3
 75
0
 76
0
 77
0
 78
0
281
0
 65
0
146
0.0
  0
ENDTAB
  0
TABLE
  2
LTYPE
  5
2
330
0
100
AcDbSymbolTable
 70
21
  0
LTYPE
  5
24
330
2
100
AcDbSymbolTableRecord
100
AcDbLinetypeTableRecord
  2
ByBlock
 70
0
  3

 72
65
 73
0
 40
0.0
  0
LTYPE
  5
25
330
2
100
AcDbSymbolTableRecord
100
AcDbLinetypeTableRecord
  2
ByLayer
 70
0
  3

 72
65
 73
0
 40
0.0
  0
LTYPE
  5
26
330
2
100
AcDbSymbolTableRecord
100
AcDbLinetypeTableRecord
  2
Continuous
 70
0
  3

 72
65
 73
0
 40
0.0
  0
LTYPE
  5
2F
330
2
100
AcDbSymbolTableRecord
100
AcDbLinetypeTableRecord
  2
CENTER
 70
0
  3
Center ____ _ ____ _ ____ _ ____ _ ____ _ ____
 72
65
 73
4
 40
5.08
 49
3.175
 74
0
 49
-0.635
 74
0
 49
0.635
 74
0
 49
-0.635
 74
0
  0
LTYPE
  5
30
330
2
100
AcDbSymbolTableRecord
100
AcDbLinetypeTableRecord
  2
CENTERX2
 70
0
  3
Center (2x) ________  __  ________  __  ________
 72
65
 73
4
 40
8.89
 49
6.35
 74
0
 49
-0.635
 74
0
 49
1.27
 74
0
 49
-0.635
 74
0
  0
LTYPE
  5
31
330
2
100
AcDbSymbolTableRecord
100
AcDbLinetypeTableRecord
  2
CENTER2
 70
0
  3
Center (.5x) ____ _ ____ _ ____ _ ____ _ ____
 72
65
 73
4
 40
2.54
 49
1.587
 74
0
 49
-0.318
 74
0
 49
0.318
 74
0
 49
-0.318
 74
0
  0
LTYPE
  5
32
330
2
100
AcDbSymbolTableRecord
100
AcDbLinetypeTableRecord
  2
DASHED
 70
0
  3
Dashed __ __ __ __ __ __ __ __ __ __ __ __ __ _
 72
65
 73
2
 40
1.524
 49
1.27
 74
0
 49
-0.254
 74
0
  0
LTYPE
  5
33
330
2
100
AcDbSymbolTableRecord
100
AcDbLinetypeTableRecord
  2
DASHEDX2
 70
0
  3
Dashed (2x) ____  ____  ____  ____  ____  ____
 72
65
 73
2
 40
3.048
 49
2.54
 74
0
 49
-0.508
 74
0
  0
LTYPE
  5
34
330
2
100
AcDbSymbolTableRecord
100
AcDbLinetypeTableRecord
  2
DASHED2
 70
0
  3
Dashed (.5x) _ _ _ _ _ _ _ _ _ _ _ _ _ _
 72
65
 73
2
 40
0.762
 49
0.635
 74
0
 49
-0.127
 74
0
  0
LTYPE
  5
35
330
2
100
AcDbSymbolTableRecord
100
AcDbLinetypeTableRecord
  2
PHANTOM
 70
0
  3
Phantom ______  __  __  ______  __  __  ______
 72
65
 73
6
 40
6.35
 49
3.175
 74
0
 49
-0.635
 74
0
 49
0.635
 74
0
 49
-0.635
 74
0
 49
0.635
 74
0
 49
-0.635
 74
0
  0
LTYPE
  5
36
330
2
100
AcDbSymbolTableRecord
100
AcDbLinetypeTableRecord
  2
PHANTOMX2
 70
0
  3
Phantom (2x)____________    ____    ____    ____________
 72
65
 73
6
 40
10.795
 49
6.35
 74
0
 49
-0.635
 74
0
 49
1.27
 74
0
 49
-0.635
 74
0
 49
1.27
 74
0
 49
-0.635
 74
0
  0
LTYPE
  5
37
330
2
100
AcDbSymbolTableRecord
100
AcDbLinetypeTableRecord
  2
PHANTOM2
 70
0
  3
Phantom (.5x) ___ _ _ ___ _ _ ___ _ _ ___ _ _ ___
 72
65
 73
6
 40
3.175
 49
1.587
 74
0
 49
-0.318
 74
0
 49
0.318
 74
0
 49
-0.318
 74
0
 49
0.318
 74
0
 49
-0.318
 74
0
  0
LTYPE
  5
38
330
2
100
AcDbSymbolTableRecord
100
AcDbLinetypeTableRecord
  2
DASHDOT
 70
0
  3
Dash dot __ . __ . __ . __ . __ . __ . __ . __
 72
65
 73
4
 40
3.556
 49
2.54
 74
0
 49
-0.508
 74
0
 49
0.0
 74
0
 49
-0.508
 74
0
  0
LTYPE
  5
39
330
2
100
AcDbSymbolTableRecord
100
AcDbLinetypeTableRecord
  2
DASHDOTX2
 70
0
  3
Dash dot (2x) ____  .  ____  .  ____  .  ____
 72
65
 73
4
 40
6.096
 49
5.08
 74
0
 49
-0.508
 74
0
 49
0.0
 74
0
 49
-0.508
 74
0
  0
LTYPE
  5
3A
330
2
100
AcDbSymbolTableRecord
100
AcDbLinetypeTableRecord
  2
DASHDOT2
 70
0
  3
Dash dot (.5x) _ . _ . _ . _ . _ . _ . _ . _
 72
65
 73
4
 40
1.778
 49
1.27
 74
0
 49
-0.254
 74
0
 49
0.0
 74
0
 49
-0.254
 74
0
  0
LTYPE
  5
3B
330
2
100
AcDbSymbolTableRecord
100
AcDbLinetypeTableRecord
  2
DOT
 70
0
  3
Dot .  .  .  .  .  .  .  .  .  .  .  .  .  .  .  .
 72
65
 73
2
 40
0.508
 49
0.0
 74
0
 49
-0.508
 74
0
  0
LTYPE
  5
3C
330
2
100
AcDbSymbolTableRecord
100
AcDbLinetypeTableRecord
  2
DOTX2
 70
0
  3
Dot (2x) .    .    .    .    .    .    .    . 
 72
65
 73
2
 40
1.016
 49
0.0
 74
0
 49
-1.016
 74
0
  0
LTYPE
  5
3D
330
2
100
AcDbSymbolTableRecord
100
AcDbLinetypeTableRecord
  2
DOT2
 70
0
  3
Dot (.5) . . . . . . . . . . . . . . . . . . . 
 72
65
 73
2
 40
0.254
 49
0.0
 74
0
 49
-0.254
 74
0
  0
LTYPE
  5
3E
330
2
100
AcDbSymbolTableRecord
100
AcDbLinetypeTableRecord
  2
DIVIDE
 70
0
  3
Divide __ . . __ . . __ . . __ . . __ . . __
 72
65
 73
6
 40
4.064
 49
2.54
 74
0
 49
-0.508
 74
0
 49
0.0
 74
0
 49
-0.508
 74
0
 49
0.0
 74
0
 49
-0.508
 74
0
  0
LTYPE
  5
3F
330
2
100
AcDbSymbolTableRecord
100
AcDbLinetypeTableRecord
  2
DIVIDEX2
 70
0
  3
Divide (2x) ____  . .  ____  . .  ____  . .  ____
 72
65
 73
6
 40
6.604
 49
5.08
 74
0
 49
-0.508
 74
0
 49
0.0
 74
0
 49
-0.508
 74
0
 49
0.0
 74
0
 49
-0.508
 74
0
  0
LTYPE
  5
40
330
2
100
AcDbSymbolTableRecord
100
AcDbLinetypeTableRecord
  2
DIVIDE2
 70
0
  3
Divide(.5x) _ . _ . _ . _ . _ . _ . _ . _
 72
65
 73
6
 40
2.032
 49
1.27
 74
0
 49
-0.254
 74
0
 49
0.0
 74
0
 49
-0.254
 74
0
 49
0.0
 74
0
 49
-0.254
 74
0
  0
ENDTAB
  0
TABLE
  2
LAYER
  5
1
330
0
100
AcDbSymbolTable
 70
3
  0
LAYER
  5
27
330
1
100
AcDbSymbolTableRecord
100
AcDbLayerTableRecord
  2
0
 70
0
 62
7
  6
Continuous
370
-3
390
13
347
21
  0
LAYER
  5
28
330
1
100
AcDbSymbolTableRecord
100
AcDbLayerTableRecord
  2
Defpoints
 70
0
 62
7
  6
Continuous
290
0
370
-3
390
13
347
21
  0
LAYER
  5
8A
330
1
100
AcDbSymbolTableRecord
100
AcDbLayerTableRecord
  2
CUT
 70
0
 62
7
  6
Continuous
370
-3
390
13
347
21
  0
ENDTAB
  0
TABLE
  2
STYLE
  5
5
330
0
100
AcDbSymbolTable
 70
26
  0
STYLE
  5
29
330
5
100
AcDbSymbolTableRecord
100
AcDbTextStyleTableRecord
  2
Standard
 70
0
 40
0.0
 41
1.0
 50
0.0
 71
0
 42
2.5
  3
txt
  4

  0
STYLE
  5
41
330
5
100
AcDbSymbolTableRecord
100
AcDbTextStyleTableRecord
  2
OpenSans-Light
 70
0
 40
0.0
 41
1.0
 50
0.0
 71
0
 42
2.5
  3
OpenSans-Light.ttf
  4

  0
STYLE
  5
42
330
5
100
AcDbSymbolTableRecord
100
AcDbTextStyleTableRecord
  2
OpenSans-Light-Italic
 70
0
 40
0.0
 41
1.0
 50
0.0
 71
0
 42
2.5
  3
OpenSans-LightItalic.ttf
  4

  0
STYLE
  5
43
330
5
100
AcDbSymbolTableRecord
100
AcDbTextStyleTableRecord
  2
OpenSans
 70
0
 40
0.0
 41
1.0
 50
0.0
 71
0
 42
2.5
  3
OpenSans-Regular.ttf
  4

  0
STYLE
  5
44
330
5
100
AcDbSymbolTableRecord
100
AcDbTextStyleTableRecord
  2
OpenSans-Italic
 70
0
 40
0.0
 41
1.0
 50
0.0
 71
0
 42
2.5
  3
OpenSans-Italic.ttf
  4

  0
STYLE
  5
45
330
5
100
AcDbSymbolTableRecord
100
AcDbTextStyleTableRecord
  2
OpenSans-SemiBold
 70
0
 40
0.0
 41
1.0
 50
0.0
 71
0
 42
2.5
  3
OpenSans-SemiBold.ttf
  4

  0
STYLE
  5
46
330
5
100
AcDbSymbolTableRecord
100
AcDbTextStyleTableRecord
  2
OpenSans-SemiBoldItalic
 70
0
 40
0.0
 41
1.0
 50
0.0
 71
0
 42
2.5
  3
OpenSans-SemiBoldItalic.ttf
  4

  0
STYLE
  5
47
330
5
100
AcDbSymbolTableRecord
100
AcDbTextStyleTableRecord
  2
OpenSans-Bold
 70
0
 40
0.0
 41
1.0
 50
0.0
 71
0
 42
2.5
  3
OpenSans-Bold.ttf
  4

  0
STYLE
  5
48
330
5
100
AcDbSymbolTableRecord
100
AcDbTextStyleTableRecord
  2
OpenSans-BoldItalic
 70
0
 40
0.0
 41
1.0
 50
0.0
 71
0
 42
2.5
  3
OpenSans-BoldItalic.ttf
  4

  0
STYLE
  5
49
330
5
100
AcDbSymbolTableRecord
100
AcDbTextStyleTableRecord
  2
OpenSans-ExtraBold
 70
0
 40
0.0
 41
1.0
 50
0.0
 71
0
 42
2.5
  3
OpenSans-ExtraBold.ttf
  4

  0
STYLE
  5
4A
330
5
100
AcDbSymbolTableRecord
100
AcDbTextStyleTableRecord
  2
OpenSans-ExtraBoldItalic
 70
0
 40
0.0
 41
1.0
 50
0.0
 71
0
 42
2.5
  3
OpenSans-ExtraBoldItalic.ttf
  4

  0
STYLE
  5
4B
330
5
100
AcDbSymbolTableRecord
100
AcDbTextStyleTableRecord
  2
OpenSansCondensed-Bold
 70
0
 40
0.0
 41
1.0
 50
0.0
 71
0
 42
2.5
  3
OpenSansCondensed-Bold.ttf
  4

  0
STYLE
  5
4C
330
5
100
AcDbSymbolTableRecord
100
AcDbTextStyleTableRecord
  2
OpenSansCondensed-Light
 70
0
 40
0.0
 41
1.0
 50
0.0
 71
0
 42
2.5
  3
OpenSansCondensed-Light.ttf
  4

  0
STYLE
  5
4D
330
5
100
AcDbSymbolTableRecord
100
AcDbTextStyleTableRecord
  2
OpenSansCondensed-Italic
 70
0
 40
0.0
 41
1.0
 50
0.0
 71
0
 42
2.5
  3
OpenSansCondensed-LightItalic.ttf
  4

  0
STYLE
  5
4E
330
5
100
AcDbSymbolTableRecord
100
AcDbTextStyleTableRecord
  2
LiberationSans
 70
0
 40
0.0
 41
1.0
 50
0.0
 71
0
 42
2.5
  3
LiberationSans-Regular.ttf
  4

  0
STYLE
  5
4F
330
5
100
AcDbSymbolTableRecord
100
AcDbTextStyleTableRecord
  2
LiberationSans-Bold
 70
0
 40
0.0
 41
1.0
 50
0.0
 71
0
 42
2.5
  3
LiberationSans-Bold.ttf
  4

  0
STYLE
  5
50
330
5
100
AcDbSymbolTableRecord
100
AcDbTextStyleTableRecord
  2
LiberationSans-BoldItalic
 70
0
 40
0.0
 41
1.0
 50
0.0
 71
0
 42
2.5
  3
LiberationSans-BoldItalic.ttf
  4

  0
STYLE
  5
51
330
5
100
AcDbSymbolTableRecord
100
AcDbTextStyleTableRecord
  2
LiberationSans-Italic
 70
0
 40
0.0
 41
1.0
 50
0.0
 71
0
 42
2.5
  3
LiberationSans-Italic.ttf
  4

  0
STYLE
  5
52
330
5
100
AcDbSymbolTableRecord
100
AcDbTextStyleTableRecord
  2
LiberationSerif
 70
0
 40
0.0
 41
1.0
 50
0.0
 71
0
 42
2.5
  3
LiberationSerif-Regular.ttf
  4

  0
STYLE
  5
53
330
5
100
AcDbSymbolTableRecord
100
AcDbTextStyleTableRecord
  2
LiberationSerif-Bold
 70
0
 40
0.0
 41
1.0
 50
0.0
 71
0
 42
2.5
  3
LiberationSerif-Bold.ttf
  4

  0
STYLE
  5
54
330
5
100
AcDbSymbolTableRecord
100
AcDbTextStyleTableRecord
  2
LiberationSerif-BoldItalic
 70
0
 40
0.0
 41
1.0
 50
0.0
 71
0
 42
2.5
  3
LiberationSerif-BoldItalic.ttf
  4

  0
STYLE
  5
55
330
5
100
AcDbSymbolTableRecord
100
AcDbTextStyleTableRecord
  2
LiberationSerif-Italic
 70
0
 40
0.0
 41
1.0
 50
0.0
 71
0
 42
2.5
  3
LiberationSerif-Italic.ttf
  4

  0
STYLE
  5
56
330
5
100
AcDbSymbolTableRecord
100
AcDbTextStyleTableRecord
  2
LiberationMono
 70
0
 40
0.0
 41
1.0
 50
0.0
 71
0
 42
2.5
  3
LiberationMono-Regular.ttf
  4

  0
STYLE
  5
57
330
5
100
AcDbSymbolTableRecord
100
AcDbTextStyleTableRecord
  2
LiberationMono-Bold
 70
0
 40
0.0
 41
1.0
 50
0.0
 71
0
 42
2.5
  3
LiberationMono-Bold.ttf
  4

  0
STYLE
  5
58
330
5
100
AcDbSymbolTableRecord
100
AcDbTextStyleTableRecord
  2
LiberationMono-BoldItalic
 70
0
 40
0.0
 41
1.0
 50
0.0
 71
0
 42
2.5
  3
LiberationMono-BoldItalic.ttf
  4

  0
STYLE
  5
59
330
5
100
AcDbSymbolTableRecord
100
AcDbTextStyleTableRecord
  2
LiberationMono-Italic
 70
0
 40
0.0
 41
1.0
 50
0.0
 71
0
 42
2.5
  3
LiberationMono-Italic.ttf
  4

  0
ENDTAB
  0
TABLE
  2
VIEW
  5
7
330
0
100
AcDbSymbolTable
 70
0
  0
ENDTAB
  0
TABLE
  2
UCS
  5
6
330
0
100
AcDbSymbolTable
 70
0
  0
ENDTAB
  0
TABLE
  2
APPID
  5
3
330
0
100
AcDbSymbolTable
 70
3
  0
APPID
  5
2A
330
3
100
AcDbSymbolTableRecord
100
AcDbRegAppTableRecord
  2
ACAD
 70
0
  0
APPID
  5
C1
330
3
100
AcDbSymbolTableRecord
100
AcDbRegAppTableRecord
  2
HATCHBACKGROUNDCOLOR
 70
0
  0
APPID
  5
C2
330
3
100
AcDbSymbolTableRecord
100
AcDbRegAppTableRecord
  2
EZDXF
 70
0
  0
ENDTAB
  0
TABLE
  2
DIMSTYLE
  5
4
330
0
100
AcDbSymbolTable
 70
12
100
AcDbDimStyleTable
  0
DIMSTYLE
105
2B
330
4
100
AcDbSymbolTableRecord
100
AcDbDimStyleTableRecord
  2
Standard
 70
0
 40
1.0
 41
2.5
 42
0.625
 43
3.75
 44
1.25
 45
0.0
 46
0.0
 47
0.0
 48
0.0
 49
2.5
140
2.5
141
2.5
142
0.0
143
0.03937007874
144
1.0
145
0.0
146
1.0
147
0.625
148
0.0
 69
0
 70
0
 71
0
 72
0
 73
0
 74
0
 75
0
 76
0
 77
1
 78
8
 79
3
170
0
171
3
172
1
173
0
174
0
175
0
176
0
177
0
178
0
179
2
271
2
272
2
273
2
274
3
275
0
276
0
277
2
278
44
279
0
280
0
281
0
282
0
283
0
284
8
285
0
286
0
288
0
289
3
290
0
371
-2
372
-2
  0
DIMSTYLE
105
73
330
4
100
AcDbSymbolTableRecord
100
AcDbDimStyleTableRecord
  2
EZDXF
 70
0
 40
1.0
 41
0.175
 42
0.125
 43
3.75
 44
0.375
 45
0.0
 46
0.0
 47
0.0
 48
0.0
 49
2.5
140
0.25
141
2.5
142
0.0
143
0.03937007874
144
100.0
145
0.0
146
0.5
147
0.1
148
0.0
 69
0
 70
0
 71
0
 72
0
 73
0
 74
0
 75
0
 76
0
 77
1
 78
12
 79
3
170
0
171
3
172
1
173
0
174
0
175
0
176
0
177
0
178
0
179
2
271
2
272
2
273
2
274
3
275
0
276
0
277
2
278
46
279
2
280
0
281
0
282
0
283
0
284
8
285
0
286
0
288
1
289
3
290
0
340
4C
342
74
371
-2
372
-2
  0
DIMSTYLE
105
7C
330
4
100
AcDbSymbolTableRecord
100
AcDbDimStyleTableRecord
  2
EZ_M_100_H25_CM
 70
0
 40
1.0
 41
0.25
 42
0.125
 43
3.75
 44
0.375
 45
0.0
 46
0.0
 47
0.0
 48
0.0
 49
2.5
140
0.25
141
2.5
142
0.125
143
0.03937007874
144
100.0
145
0.0
146
0.5
147
0.1
148
0.0
 69
0
 70
0
 71
0
 72
0
 73
0
 74
0
 75
0
 76
0
 77
1
 78
12
 79
3
170
0
171
3
172
1
173
0
174
0
175
0
176
0
177
0
178
0
179
2
271
2
272
2
273
2
274
3
275
0
276
0
277
2
278
46
279
2
280
0
281
0
282
0
283
0
284
8
285
0
286
0
288
1
289
3
290
0
340
4C
371
-2
372
-2
  0
DIMSTYLE
105
7D
330
4
100
AcDbSymbolTableRecord
100
AcDbDimStyleTableRecord
  2
EZ_M_50_H25_CM
 70
0
 40
1.0
 41
0.125
 42
0.0625
 43
3.75
 44
0.1875
 45
0.0
 46
0.0
 47
0.0
 48
0.0
 49
2.5
140
0.125
141
2.5
142
0.0625
143
0.03937007874
144
100.0
145
0.0
146
0.5
147
0.05
148
0.0
 69
0
 70
0
 71
0
 72
0
 73
0
 74
0
 75
0
 76
0
 77
1
 78
12
 79
3
170
0
171
3
172
1
173
0
174
0
175
0
176
0
177
0
178
0
179
2
271
2
272
2
273
2
274
3
275
0
276
0
277
2
278
46
279
2
280
0
281
0
282
0
283
0
284
8
285
0
286
0
288
1
289
3
290
0
340
4C
371
-2
372
-2
  0
DIMSTYLE
105
7E
330
4
100
AcDbSymbolTableRecord
100
AcDbDimStyleTableRecord
  2
EZ_M_25_H25_CM
 70
0
 40
1.0
 41
0.0625
 42
0.03125
 43
3.75
 44
0.09375
 45
0.0
 46
0.0
 47
0.0
 48
0.0
 49
2.5
140
0.0625
141
2.5
142
0.03125
143
0.03937007874
144
100.0
145
0.0
146
0.5
147
0.025
148
0.0
 69
0
 70
0
 71
0
 72
0
 73
0
 74
0
 75
0
 76
0
 77
1
 78
12
 79
3
170
0
171
3
172
1
173
0
174
0
175
0
176
0
177
0
178
0
179
2
271
2
272
2
273
2
274
3
275
0
276
0
277
2
278
46
279
2
280
0
281
0
282
0
283
0
284
8
285
0
286
0
288
1
289
3
290
0
340
4C
371
-2
372
-2
  0
DIMSTYLE
105
7F
330
4
100
AcDbSymbolTableRecord
100
AcDbDimStyleTableRecord
  2
EZ_M_20_H25_CM
 70
0
 40
1.0
 41
0.05
 42
0.025
 43
3.75
 44
0.07500000000000001
 45
0.0
 46
0.0
 47
0.0
 48
0.0
 49
2.5
140
0.05
141
2.5
142
0.025
143
0.03937007874
144
100.0
145
0.0
146
0.5
147
0.020000000000000004
148
0.0
 69
0
 70
0
 71
0
 72
0
 73
0
 74
0
 75
0
 76
0
 77
1
 78
12
 79
3
170
0
171
3
172
1
173
0
174
0
175
0
176
0
177
0
178
0
179
2
271
2
272
2
273
2
274
3
275
0
276
0
277
2
278
46
279
2
280
0
281
0
282
0
283
0
284
8
285
0
286
0
288
1
289
3
290
0
340
4C
371
-2
372
-2
  0
DIMSTYLE
105
80
330
4
100
AcDbSymbolTableRecord
100
AcDbDimStyleTableRecord
  2
EZ_M_10_H25_CM
 70
0
 40
1.0
 41
0.025
 42
0.0125
 43
3.75
 44
0.037500000000000006
 45
0.0
 46
0.0
 47
0.0
 48
0.0
 49
2.5
140
0.025
141
2.5
142
0.0125
143
0.03937007874
144
100.0
145
0.0
146
0.5
147
0.010000000000000002
148
0.0
 69
0
 70
0
 71
0
 72
0
 73
0
 74
0
 75
0
 76
0
 77
1
 78
12
 79
3
170
0
171
3
172
1
173
0
174
0
175
0
176
0
177
0
178
0
179
2
271
2
272
2
273
2
274
3
275
0
276
0
277
2
278
46
279
2
280
0
281
0
282
0
283
0
284
8
285
0
286
0
288
1
289
3
290
0
340
4C
371
-2
372
-2
  0
DIMSTYLE
105
81
330
4
100
AcDbSymbolTableRecord
100
AcDbDimStyleTableRecord
  2
EZ_M_5_H25_CM
 70
0
 40
1.0
 41
0.0125
 42
0.00625
 43
3.75
 44
0.018750000000000003
 45
0.0
 46
0.0
 47
0.0
 48
0.0
 49
2.5
140
0.0125
141
2.5
142
0.00625
143
0.03937007874
144
100.0
145
0.0
146
0.5
147
0.005000000000000001
148
0.0
 69
0
 70
0
 71
0
 72
0
 73
0
 74
0
 75
0
 76
0
 77
1
 78
12
 79
3
170
0
171
3
172
1
173
0
174
0
175
0
176
0
177
0
178
0
179
2
271
2
272
2
273
2
274
3
275
0
276
0
277
2
278
46
279
2
280
0
281
0
282
0
283
0
284
8
285
0
286
0
288
1
289
3
290
0
340
4C
371
-2
372
-2
  0
DIMSTYLE
105
82
330
4
100
AcDbSymbolTableRecord
100
AcDbDimStyleTableRecord
  2
EZ_M_1_H25_CM
 70
0
 40
1.0
 41
0.0025
 42
0.00125
 43
3.75
 44
0.00375
 45
0.0
 46
0.0
 47
0.0
 48
0.0
 49
2.5
140
0.0025
141
2.5
142
0.00125
143
0.03937007874
144
100.0
145
0.0
146
0.5
147
0.001
148
0.0
 69
0
 70
0
 71
0
 72
0
 73
0
 74
0
 75
0
 76
0
 77
1
 78
12
 79
3
170
0
171
3
172
1
173
0
174
0
175
0
176
0
177
0
178
0
179
2
271
2
272
2
273
2
274
3
275
0
276
0
277
2
278
46
279
2
280
0
281
0
282
0
283
0
284
8
285
0
286
0
288
1
289
3
290
0
340
4C
371
-2
372
-2
  0
DIMSTYLE
105
83
330
4
100
AcDbSymbolTableRecord
100
AcDbDimStyleTableRecord
  2
EZ_RADIUS
 70
0
 40
1.0
 41
0.25
 42
0.125
 43
3.75
 44
0.375
 45
0.0
 46
0.0
 47
0.0
 48
0.0
 49
2.5
140
0.25
141
0.0
142
0.0
143
0.03937007874
144
100.0
145
0.0
146
0.5
147
0.1
148
0.0
 69
0
 70
0
 71
0
 72
0
 73
0
 74
0
 75
0
 76
0
 77
1
 78
12
 79
3
170
0
171
3
172
0
173
0
174
0
175
0
176
0
177
0
178
0
179
2
271
2
272
2
273
2
274
3
275
0
276
0
277
2
278
46
279
1
280
0
281
0
282
0
283
0
284
8
285
0
286
0
288
1
289
3
290
0
340
4C
342
84
371
-2
372
-2
  0
DIMSTYLE
105
88
330
4
100
AcDbSymbolTableRecord
100
AcDbDimStyleTableRecord
  2
EZ_RADIUS_INSIDE
 70
0
 40
1.0
 41
0.25
 42
0.125
 43
3.75
 44
0.375
 45
0.0
 46
0.0
 47
0.0
 48
0.0
 49
2.5
140
0.25
141
0.0
142
0.0
143
0.03937007874
144
100.0
145
0.0
146
0.5
147
0.1
148
0.0
 69
0
 70
0
 71
0
 72
0
 73
0
 74
0
 75
0
 76
0
 77
0
 78
12
 79
3
170
0
171
3
172
0
173
0
174
1
175
0
176
0
177
0
178
0
179
2
271
2
272
2
273
2
274
3
275
0
276
0
277
2
278
46
279
0
280
0
281
0
282
0
283
0
284
8
285
0
286
0
288
1
289
0
290
0
340
4C
342
84
371
-2
372
-2
  0
DIMSTYLE
105
89
330
4
100
AcDbSymbolTableRecord
100
AcDbDimStyleTableRecord
  2
EZ_CURVED
 70
0
 40
1.0
 41
0.25
 42
0.125
 43
3.75
 44
0.375
 45
0.0
 46
0.0
 47
0.0
 48
0.0
 49
2.5
140
0.25
141
2.5
142
0.0
143
0.03937007874
144
100.0
145
0.0
146
0.5
147
0.1
148
0.0
 69
0
 70
0
 71
0
 72
0
 73
0
 74
0
 75
0
 76
0
 77
1
 78
12
 79
2
 90
2
170
0
171
3
172
1
173
0
174
0
175
0
176
0
177
0
178
0
179
2
271
2
272
2
273
2
274
3
275
0
276
0
277
2
278
46
279
2
280
0
281
0
282
0
283
0
284
8
285
0
286
0
288
1
289
3
290
0
340
4C
371
-2
372
-2
  0
ENDTAB
  0
TABLE
  2
BLOCK_RECORD
  5
9
330
0
100
AcDbSymbolTable
 70
5
  0
BLOCK_RECORD
  5
17
330
9
100
AcDbSymbolTableRecord
100
AcDbBlockTableRecord
  2
*Model_Space
340
1A
 70
0
280
1
281
0
  0
BLOCK_RECORD
  5
1B
330
9
100
AcDbSymbolTableRecord
100
AcDbBlockTableRecord
  2
*Paper_Space
340
1E
 70
0
280
1
281
0
  0
BLOCK_RECORD
  5
74
330
9
100
AcDbSymbolTableRecord
100
AcDbBlockTableRecord
  2
_ARCHTICK
340
0
 70
0
280
1
281
0
  0
BLOCK_RECORD
  5
78
330
9
100
AcDbSymbolTableRecord
100
AcDbBlockTableRecord
  2
_CLOSEDFILLED
340
0
 70
0
280
1
281
0
  0
BLOCK_RECORD
  5
84
330
9
100
AcDbSymbolTableRecord
100
AcDbBlockTableRecord
  2
_CLOSEDBLANK
340
0
 70
0
280
1
281
0
  0
ENDTAB
  0
ENDSEC
  0
SECTION
  2
BLOCKS
  0
BLOCK
  5
18
330
17
100
AcDbEntity
  8
0
100
AcDbBlockBegin
  2
*Model_Space
 70
0
 10
0.0
 20
0.0
 30
0.0
  3
*Model_Space
  1

  0
ENDBLK
  5
19
330
17
100
AcDbEntity
  8
0
100
AcDbBlockEnd
  0
BLOCK
  5
1C
330
1B
100
AcDbEntity
  8
0
100
AcDbBlockBegin
  2
*Paper_Space
 70
0
 10
0.0
 20
0.0
 30
0.0
  3
*Paper_Space
  1

  0
ENDBLK
  5
1D
330
1B
100
AcDbEntity
  8
0
100
AcDbBlockEnd
  0
BLOCK
  5
75
330
74
100
AcDbEntity
  8
0
100
AcDbBlockBegin
  2
_ARCHTICK
 70
0
 10
0.0
 20
0.0
 30
0.0
  3
_ARCHTICK
  1

  0
LWPOLYLINE
  5
77
330
74
100
AcDbEntity
  8
0
  6
BYBLOCK
 62
0
100
AcDbPolyline
 90
2
 70
0
 43
0.15
 10
-0.5
 20
-0.5
 10
0.5
 20
0.5
  0
ENDBLK
  5
76
330
74
100
AcDbEntity
  8
0
100
AcDbBlockEnd
  0
BLOCK
  5
79
330
78
100
AcDbEntity
  8
0
100
AcDbBlockBegin
  2
_CLOSEDFILLED
 70
0
 10
0.0
 20
0.0
 30
0.0
  3
_CLOSEDFILLED
  1

  0
SOLID
  5
7B
330
78
100
AcDbEntity
  8
0
  6
BYBLOCK
 62
0
100
AcDbTrace
 10
-1.0
 20
0.16439898372402537
 30
0.0
 11
0.0
 21
0.0
 31
0.0
 12
-1.0
 22
-0.16439898372402537
 32
0.0
 13
-1.0
 23
-0.16439898372402537
 33
0.0
  0
ENDBLK
  5
7A
330
78
100
AcDbEntity
  8
0
100
AcDbBlockEnd
  0
BLOCK
  5
85
330
84
100
AcDbEntity
  8
0
100
AcDbBlockBegin
  2
_CLOSEDBLANK
 70
0
 10
0.0
 20
0.0
 30
0.0
  3
_CLOSEDBLANK
  1

  0
LWPOLYLINE
  5
87
330
84
100
AcDbEntity
  8
0
  6
BYBLOCK
 62
0
100
AcDbPolyline
 90
3
 70
1
 10
-1.0
 20
0.16439898372402537
 10
0.0
 20
0.0
 10
-1.0
 20
-0.16439898372402537
  0
ENDBLK
  5
86
330
84
100
AcDbEntity
  8
0
100
AcDbBlockEnd
  0
ENDSEC
  0
SECTION
  2
ENTITIES
  0
LWPOLYLINE
  5
8B
330
17
100
AcDbEntity
  8
CUT
100
AcDbPolyline
 90
36
 70
1
 10
-73.0
 20
75.0
 10
-73.3902
 20
74.9616
 10
-73.7654
 20
74.8478
 10
-74.1111
 20
74.6629
 10
-74.4142
 20
74.4142
 10
-74.6629
 20
74.1111
 10
-74.8478
 20
73.7654
 10
-74.9616
 20
73.3902
 10
-75.0
 20
73.0
 10
-75.0
 20
-73.0
 10
-74.9616
 20
-73.3902
 10
-74.8478
 20
-73.7654
 10
-74.6629
 20
-74.1111
 10
-74.4142
 20
-74.4142
 10
-74.1111
 20
-74.6629
 10
-73.7654
 20
-74.8478
 10
-73.3902
 20
-74.9616
 10
-73.0
 20
-75.0
 10
73.0
 20
-75.0
 10
73.3902
 20
-74.9616
 10
73.7654
 20
-74.8478
 10
74.1111
 20
-74.6629
 10
74.4142
 20
-74.4142
 10
74.6629
 20
-74.1111
 10
74.8478
 20
-73.7654
 10
74.9616
 20
-73.3902
 10
75.0
 20
-73.0
 10
75.0
 20
73.0
 10
74.9616
 20
73.3902
 10
74.8478
 20
73.7654
 10
74.6629
 20
74.1111
 10
74.4142
 20
74.4142
 10
74.1111
 20
74.6629
 10
73.7654
 20
74.8478
 10
73.3902
 20
74.9616
 10
73.0
 20
75.0
  0
LWPOLYLINE
  5
8C
330
17
100
AcDbEntity
  8
CUT
100
AcDbPolyline
 90
32
 70
1
 10
-69.2222
 20
70.7778
 10
-69.0854
 20
70.6111
 10
-68.9837
 20
70.421
 10
-68.9211
 20
70.2146
 10
-68.9
 20
70.0
 10
-68.9211
 20
69.7854
 10
-68.9837
 20
69.579
 10
-69.0854
 20
69.3889
 10
-69.2222
 20
69.2222
 10
-69.3889
 20
69.0854
 10
-69.579
 20
68.9837
 10
-69.7854
 20
68.9211
 10
-70.0
 20
68.9
 10
-70.2146
 20
68.9211
 10
-70.421
 20
68.9837
 10
-70.6111
 20
69.0854
 10
-70.7778
 20
69.2222
 10
-70.9146
 20
69.3889
 10
-71.0163
 20
69.579
 10
-71.0789
 20
69.7854
 10
-71.1
 20
70.0
 10
-71.0789
 20
70.2146
 10
-71.0163
 20
70.421
 10
-70.9146
 20
70.6111
 10
-70.7778
 20
70.7778
 10
-70.6111
 20
70.9146
 10
-70.421
 20
71.0163
 10
-70.2146
 20
71.0789
 10
-70.0
 20
71.1
 10
-69.7854
 20
71.0789
 10
-69.579
 20
71.0163
 10
-69.3889
 20
70.9146
  0
LWPOLYLINE
  5
8D
330
17
100
AcDbEntity
  8
CUT
100
AcDbPolyline
 90
76
 70
1
 10
-25.8171
 20
64.3885
 10
-25.7
 20
64.4
 10
-25.5829
 20
64.3885
 10
-25.4704
 20
64.3543
 10
-25.3667
 20
64.2989
 10
-25.2757
 20
64.2243
 10
-25.2148
 20
64.15
 10
-12.8852
 20
64.15
 10
-12.8243
 20
64.2243
 10
-12.7333
 20
64.2989
 10
-12.6296
 20
64.3543
 10
-12.5171
 20
64.3885
 10
-12.4
 20
64.4
 10
-12.2829
 20
64.3885
 10
-12.1704
 20
64.3543
 10
-12.0667
 20
64.2989
 10
-11.9757
 20
64.2243
 10
-11.9011
 20
64.1333
 10
-11.8457
 20
64.0296
 10
-11.8115
 20
63.9171
 10
-11.8
 20
63.8
 10
-11.8115
 20
63.6829
 10
-11.8457
 20
63.5704
 10
-11.9011
 20
63.4667
 10
-11.9757
 20
63.3757
 10
-12.05
 20
63.3148
 10
-12.05
 20
50.9852
 10
-11.9757
 20
50.9243
 10
-11.9011
 20
50.8333
 10
-11.8457
 20
50.7296
 10
-11.8115
 20
50.6171
 10
-11.8
 20
50.5
 10
-11.8115
 20
50.3829
 10
-11.8457
 20
50.2704
 10
-11.9011
 20
50.1667
 10
-11.9757
 20
50.0757
 10
-12.0667
 20
50.0011
 10
-12.1704
 20
49.9457
 10
-12.2829
 20
49.9115
 10
-12.4
 20
49.9
 10
-12.5171
 20
49.9115
 10
-12.6296
 20
49.9457
 10
-12.7333
 20
50.0011
 10
-12.8243
 20
50.0757
 10
-12.8852
 20
50.15
 10
-25.2148
 20
50.15
 10
-25.2757
 20
50.0757
 10
-25.3667
 20
50.0011
 10
-25.4704
 20
49.9457
 10
-25.5829
 20
49.9115
 10
-25.7
 20
49.9
 10
-25.8171
 20
49.9115
 10
-25.9296
 20
49.9457
 10
-26.0333
 20
50.0011
 10
-26.1243
 20
50.0757
 10
-26.1989
 20
50.1667
 10
-26.2543
 20
50.2704
 10
-26.2885
 20
50.3829
 10
-26.3
 20
50.5
 10
-26.2885
 20
50.6171
 10
-26.2543
 20
50.7296
 10
-26.1989
 20
50.8333
 10
-26.1243
 20
50.9243
 10
-26.05
 20
50.9852
 10
-26.05
 20
63.3148
 10
-26.1243
 20
63.3757
 10
-26.1989
 20
63.4667
 10
-26.2543
 20
63.5704
 10
-26.2885
 20
63.6829
 10
-26.3
 20
63.8
 10
-26.2885
 20
63.9171
 10
-26.2543
 20
64.0296
 10
-26.1989
 20
64.1333
 10
-26.1243
 20
64.2243
 10
-26.0333
 20
64.2989
 10
-25.9296
 20
64.3543
  0
LWPOLYLINE
  5
8E
330
17
100
AcDbEntity
  8
CUT
100
AcDbPolyline
 90
76
 70
1
 10
-63.9171
 20
64.3885
 10
-63.8
 20
64.4
 10
-63.6829
 20
64.3885
 10
-63.5704
 20
64.3543
 10
-63.4667
 20
64.2989
 10
-63.3757
 20
64.2243
 10
-63.3148
 20
64.15
 10
-50.9852
 20
64.15
 10
-50.9243
 20
64.2243
 10
-50.8333
 20
64.2989
 10
-50.7296
 20
64.3543
 10
-50.6171
 20
64.3885
 10
-50.5
 20
64.4
 10
-50.3829
 20
64.3885
 10
-50.2704
 20
64.3543
 10
-50.1667
 20
64.2989
 10
-50.0757
 20
64.2243
 10
-50.0011
 20
64.1333
 10
-49.9457
 20
64.0296
 10
-49.9115
 20
63.9171
 10
-49.9
 20
63.8
 10
-49.9115
 20
63.6829
 10
-49.9457
 20
63.5704
 10
-50.0011
 20
63.4667
 10
-50.0757
 20
63.3757
 10
-50.15
 20
63.3148
 10
-50.15
 20
50.9852
 10
-50.0757
 20
50.9243
 10
-50.0011
 20
50.8333
 10
-49.9457
 20
50.7296
 10
-49.9115
 20
50.6171
 10
-49.9
 20
50.5
 10
-49.9115
 20
50.3829
 10
-49.9457
 20
50.2704
 10
-50.0011
 20
50.1667
 10
-50.0757
 20
50.0757
 10
-50.1667
 20
50.0011
 10
-50.2704
 20
49.9457
 10
-50.3829
 20
49.9115
 10
-50.5
 20
49.9
 10
-50.6171
 20
49.9115
 10
-50.7296
 20
49.9457
 10
-50.8333
 20
50.0011
 10
-50.9243
 20
50.0757
 10
-50.9852
 20
50.15
 10
-63.3148
 20
50.15
 10
-63.3757
 20
50.0757
 10
-63.4667
 20
50.0011
 10
-63.5704
 20
49.9457
 10
-63.6829
 20
49.9115
 10
-63.8
 20
49.9
 10
-63.9171
 20
49.9115
 10
-64.0296
 20
49.9457
 10
-64.1333
 20
50.0011
 10
-64.2243
 20
50.0757
 10
-64.2989
 20
50.1667
 10
-64.3543
 20
50.2704
 10
-64.3885
 20
50.3829
 10
-64.4
 20
50.5
 10
-64.3885
 20
50.6171
 10
-64.3543
 20
50.7296
 10
-64.2989
 20
50.8333
 10
-64.2243
 20
50.9243
 10
-64.15
 20
50.9852
 10
-64.15
 20
63.3148
 10
-64.2243
 20
63.3757
 10
-64.2989
 20
63.4667
 10
-64.3543
 20
63.5704
 10
-64.3885
 20
63.6829
 10
-64.4
 20
63.8
 10
-64.3885
 20
63.9171
 10
-64.3543
 20
64.0296
 10
-64.2989
 20
64.1333
 10
-64.2243
 20
64.2243
 10
-64.1333
 20
64.2989
 10
-64.0296
 20
64.3543
  0
LWPOLYLINE
  5
8F
330
17
100
AcDbEntity
  8
CUT
100
AcDbPolyline
 90
76
 70
1
 10
-44.75
 20
64.4
 10
-44.6329
 20
64.3885
 10
-44.5204
 20
64.3543
 10
-44.4167
 20
64.2989
 10
-44.3257
 20
64.2243
 10
-44.2648
 20
64.15
 10
-31.9352
 20
64.15
 10
-31.8743
 20
64.2243
 10
-31.7833
 20
64.2989
 10
-31.6796
 20
64.3543
 10
-31.5671
 20
64.3885
 10
-31.45
 20
64.4
 10
-31.3329
 20
64.3885
 10
-31.2204
 20
64.3543
 10
-31.1167
 20
64.2989
 10
-31.0257
 20
64.2243
 10
-30.9511
 20
64.1333
 10
-30.8957
 20
64.0296
 10
-30.8615
 20
63.9171
 10
-30.85
 20
63.8
 10
-30.8615
 20
63.6829
 10
-30.8957
 20
63.5704
 10
-30.9511
 20
63.4667
 10
-31.0257
 20
63.3757
 10
-31.1
 20
63.3148
 10
-31.1
 20
50.9852
 10
-31.0257
 20
50.9243
 10
-30.9511
 20
50.8333
 10
-30.8957
 20
50.7296
 10
-30.8615
 20
50.6171
 10
-30.85
 20
50.5
 10
-30.8615
 20
50.3829
 10
-30.8957
 20
50.2704
 10
-30.9511
 20
50.1667
 10
-31.0257
 20
50.0757
 10
-31.1167
 20
50.0011
 10
-31.2204
 20
49.9457
 10
-31.3329
 20
49.9115
 10
-31.45
 20
49.9
 10
-31.5671
 20
49.9115
 10
-31.6796
 20
49.9457
 10
-31.7833
 20
50.0011
 10
-31.8743
 20
50.0757
 10
-31.9352
 20
50.15
 10
-44.2648
 20
50.15
 10
-44.3257
 20
50.0757
 10
-44.4167
 20
50.0011
 10
-44.5204
 20
49.9457
 10
-44.6329
 20
49.9115
 10
-44.75
 20
49.9
 10
-44.8671
 20
49.9115
 10
-44.9796
 20
49.9457
 10
-45.0833
 20
50.0011
 10
-45.1743
 20
50.0757
 10
-45.2489
 20
50.1667
 10
-45.3043
 20
50.2704
 10
-45.3385
 20
50.3829
 10
-45.35
 20
50.5
 10
-45.3385
 20
50.6171
 10
-45.3043
 20
50.7296
 10
-45.2489
 20
50.8333
 10
-45.1743
 20
50.9243
 10
-45.1
 20
50.9852
 10
-45.1
 20
63.3148
 10
-45.1743
 20
63.3757
 10
-45.2489
 20
63.4667
 10
-45.3043
 20
63.5704
 10
-45.3385
 20
63.6829
 10
-45.35
 20
63.8
 10
-45.3385
 20
63.9171
 10
-45.3043
 20
64.0296
 10
-45.2489
 20
64.1333
 10
-45.1743
 20
64.2243
 10
-45.0833
 20
64.2989
 10
-44.9796
 20
64.3543
 10
-44.8671
 20
64.3885
  0
LWPOLYLINE
  5
90
330
17
100
AcDbEntity
  8
CUT
100
AcDbPolyline
 90
76
 70
1
 10
-25.7921
 20
45.3135
 10
-25.675
 20
45.325
 10
-25.5579
 20
45.3135
 10
-25.4454
 20
45.2793
 10
-25.3417
 20
45.2239
 10
-25.2507
 20
45.1493
 10
-25.1898
 20
45.075
 10
-12.9102
 20
45.075
 10
-12.8493
 20
45.1493
 10
-12.7583
 20
45.2239
 10
-12.6546
 20
45.2793
 10
-12.5421
 20
45.3135
 10
-12.425
 20
45.325
 10
-12.3079
 20
45.3135
 10
-12.1954
 20
45.2793
 10
-12.0917
 20
45.2239
 10
-12.0007
 20
45.1493
 10
-11.9261
 20
45.0583
 10
-11.8707
 20
44.9546
 10
-11.8365
 20
44.8421
 10
-11.825
 20
44.725
 10
-11.8365
 20
44.6079
 10
-11.8707
 20
44.4954
 10
-11.9261
 20
44.3917
 10
-12.0007
 20
44.3007
 10
-12.075
 20
44.2398
 10
-12.075
 20
31.9602
 10
-12.0007
 20
31.8993
 10
-11.9261
 20
31.8083
 10
-11.8707
 20
31.7046
 10
-11.8365
 20
31.5921
 10
-11.825
 20
31.475
 10
-11.8365
 20
31.3579
 10
-11.8707
 20
31.2454
 10
-11.9261
 20
31.1417
 10
-12.0007
 20
31.0507
 10
-12.0917
 20
30.9761
 10
-12.1954
 20
30.9207
 10
-12.3079
 20
30.8865
 10
-12.425
 20
30.875
 10
-12.5421
 20
30.8865
 10
-12.6546
 20
30.9207
 10
-12.7583
 20
30.9761
 10
-12.8493
 20
31.0507
 10
-12.9102
 20
31.125
 10
-25.1898
 20
31.125
 10
-25.2507
 20
31.0507
 10
-25.3417
 20
30.9761
 10
-25.4454
 20
30.9207
 10
-25.5579
 20
30.8865
 10
-25.675
 20
30.875
 10
-25.7921
 20
30.8865
 10
-25.9046
 20
30.9207
 10
-26.0083
 20
30.9761
 10
-26.0993
 20
31.0507
 10
-26.1739
 20
31.1417
 10
-26.2293
 20
31.2454
 10
-26.2635
 20
31.3579
 10
-26.275
 20
31.475
 10
-26.2635
 20
31.5921
 10
-26.2293
 20
31.7046
 10
-26.1739
 20
31.8083
 10
-26.0993
 20
31.8993
 10
-26.025
 20
31.9602
 10
-26.025
 20
44.2398
 10
-26.0993
 20
44.3007
 10
-26.1739
 20
44.3917
 10
-26.2293
 20
44.4954
 10
-26.2635
 20
44.6079
 10
-26.275
 20
44.725
 10
-26.2635
 20
44.8421
 10
-26.2293
 20
44.9546
 10
-26.1739
 20
45.0583
 10
-26.0993
 20
45.1493
 10
-26.0083
 20
45.2239
 10
-25.9046
 20
45.2793
  0
LWPOLYLINE
  5
91
330
17
100
AcDbEntity
  8
CUT
100
AcDbPolyline
 90
76
 70
1
 10
-44.8421
 20
45.3135
 10
-44.725
 20
45.325
 10
-44.6079
 20
45.3135
 10
-44.4954
 20
45.2793
 10
-44.3917
 20
45.2239
 10
-44.3007
 20
45.1493
 10
-44.2398
 20
45.075
 10
-31.9602
 20
45.075
 10
-31.8993
 20
45.1493
 10
-31.8083
 20
45.2239
 10
-31.7046
 20
45.2793
 10
-31.5921
 20
45.3135
 10
-31.475
 20
45.325
 10
-31.3579
 20
45.3135
 10
-31.2454
 20
45.2793
 10
-31.1417
 20
45.2239
 10
-31.0507
 20
45.1493
 10
-30.9761
 20
45.0583
 10
-30.9207
 20
44.9546
 10
-30.8865
 20
44.8421
 10
-30.875
 20
44.725
 10
-30.8865
 20
44.6079
 10
-30.9207
 20
44.4954
 10
-30.9761
 20
44.3917
 10
-31.0507
 20
44.3007
 10
-31.125
 20
44.2398
 10
-31.125
 20
31.9602
 10
-31.0507
 20
31.8993
 10
-30.9761
 20
31.8083
 10
-30.9207
 20
31.7046
 10
-30.8865
 20
31.5921
 10
-30.875
 20
31.475
 10
-30.8865
 20
31.3579
 10
-30.9207
 20
31.2454
 10
-30.9761
 20
31.1417
 10
-31.0507
 20
31.0507
 10
-31.1417
 20
30.9761
 10
-31.2454
 20
30.9207
 10
-31.3579
 20
30.8865
 10
-31.475
 20
30.875
 10
-31.5921
 20
30.8865
 10
-31.7046
 20
30.9207
 10
-31.8083
 20
30.9761
 10
-31.8993
 20
31.0507
 10
-31.9602
 20
31.125
 10
-44.2398
 20
31.125
 10
-44.3007
 20
31.0507
 10
-44.3917
 20
30.9761
 10
-44.4954
 20
30.9207
 10
-44.6079
 20
30.8865
 10
-44.725
 20
30.875
 10
-44.8421
 20
30.8865
 10
-44.9546
 20
30.9207
 10
-45.0583
 20
30.9761
 10
-45.1493
 20
31.0507
 10
-45.2239
 20
31.1417
 10
-45.2793
 20
31.2454
 10
-45.3135
 20
31.3579
 10
-45.325
 20
31.475
 10
-45.3135
 20
31.5921
 10
-45.2793
 20
31.7046
 10
-45.2239
 20
31.8083
 10
-45.1493
 20
31.8993
 10
-45.075
 20
31.9602
 10
-45.075
 20
44.2398
 10
-45.1493
 20
44.3007
 10
-45.2239
 20
44.3917
 10
-45.2793
 20
44.4954
 10
-45.3135
 20
44.6079
 10
-45.325
 20
44.725
 10
-45.3135
 20
44.8421
 10
-45.2793
 20
44.9546
 10
-45.2239
 20
45.0583
 10
-45.1493
 20
45.1493
 10
-45.0583
 20
45.2239
 10
-44.9546
 20
45.2793
  0
LWPOLYLINE
  5
92
330
17
100
AcDbEntity
  8
CUT
100
AcDbPolyline
 90
76
 70
1
 10
-63.775
 20
45.325
 10
-63.6579
 20
45.3135
 10
-63.5454
 20
45.2793
 10
-63.4417
 20
45.2239
 10
-63.3507
 20
45.1493
 10
-63.2898
 20
45.075
 10
-51.0102
 20
45.075
 10
-50.9493
 20
45.1493
 10
-50.8583
 20
45.2239
 10
-50.7546
 20
45.2793
 10
-50.6421
 20
45.3135
 10
-50.525
 20
45.325
 10
-50.4079
 20
45.3135
 10
-50.2954
 20
45.2793
 10
-50.1917
 20
45.2239
 10
-50.1007
 20
45.1493
 10
-50.0261
 20
45.0583
 10
-49.9707
 20
44.9546
 10
-49.9365
 20
44.8421
 10
-49.925
 20
44.725
 10
-49.9365
 20
44.6079
 10
-49.9707
 20
44.4954
 10
-50.0261
 20
44.3917
 10
-50.1007
 20
44.3007
 10
-50.175
 20
44.2398
 10
-50.175
 20
31.9602
 10
-50.1007
 20
31.8993
 10
-50.0261
 20
31.8083
 10
-49.9707
 20
31.7046
 10
-49.9365
 20
31.5921
 10
-49.925
 20
31.475
 10
-49.9365
 20
31.3579
 10
-49.9707
 20
31.2454
 10
-50.0261
 20
31.1417
 10
-50.1007
 20
31.0507
 10
-50.1917
 20
30.9761
 10
-50.2954
 20
30.9207
 10
-50.4079
 20
30.8865
 10
-50.525
 20
30.875
 10
-50.6421
 20
30.8865
 10
-50.7546
 20
30.9207
 10
-50.8583
 20
30.9761
 10
-50.9493
 20
31.0507
 10
-51.0102
 20
31.125
 10
-63.2898
 20
31.125
 10
-63.3507
 20
31.0507
 10
-63.4417
 20
30.9761
 10
-63.5454
 20
30.9207
 10
-63.6579
 20
30.8865
 10
-63.775
 20
30.875
 10
-63.8921
 20
30.8865
 10
-64.0046
 20
30.9207
 10
-64.1083
 20
30.9761
 10
-64.1993
 20
31.0507
 10
-64.2739
 20
31.1417
 10
-64.3293
 20
31.2454
 10
-64.3635
 20
31.3579
 10
-64.375
 20
31.475
 10
-64.3635
 20
31.5921
 10
-64.3293
 20
31.7046
 10
-64.2739
 20
31.8083
 10
-64.1993
 20
31.8993
 10
-64.125
 20
31.9602
 10
-64.125
 20
44.2398
 10
-64.1993
 20
44.3007
 10
-64.2739
 20
44.3917
 10
-64.3293
 20
44.4954
 10
-64.3635
 20
44.6079
 10
-64.375
 20
44.725
 10
-64.3635
 20
44.8421
 10
-64.3293
 20
44.9546
 10
-64.2739
 20
45.0583
 10
-64.1993
 20
45.1493
 10
-64.1083
 20
45.2239
 10
-64.0046
 20
45.2793
 10
-63.8921
 20
45.3135
  0
LWPOLYLINE
  5
93
330
17
100
AcDbEntity
  8
CUT
100
AcDbPolyline
 90
76
 70
1
 10
-63.8171
 20
26.1885
 10
-63.7
 20
26.2
 10
-63.5829
 20
26.1885
 10
-63.4704
 20
26.1543
 10
-63.3667
 20
26.0989
 10
-63.2757
 20
26.0243
 10
-63.2148
 20
25.95
 10
-51.0852
 20
25.95
 10
-51.0243
 20
26.0243
 10
-50.9333
 20
26.0989
 10
-50.8296
 20
26.1543
 10
-50.7171
 20
26.1885
 10
-50.6
 20
26.2
 10
-50.4829
 20
26.1885
 10
-50.3704
 20
26.1543
 10
-50.2667
 20
26.0989
 10
-50.1757
 20
26.0243
 10
-50.1011
 20
25.9333
 10
-50.0457
 20
25.8296
 10
-50.0115
 20
25.7171
 10
-50.0
 20
25.6
 10
-50.0115
 20
25.4829
 10
-50.0457
 20
25.3704
 10
-50.1011
 20
25.2667
 10
-50.1757
 20
25.1757
 10
-50.25
 20
25.1148
 10
-50.25
 20
12.9852
 10
-50.1757
 20
12.9243
 10
-50.1011
 20
12.8333
 10
-50.0457
 20
12.7296
 10
-50.0115
 20
12.6171
 10
-50.0
 20
12.5
 10
-50.0115
 20
12.3829
 10
-50.0457
 20
12.2704
 10
-50.1011
 20
12.1667
 10
-50.1757
 20
12.0757
 10
-50.2667
 20
12.0011
 10
-50.3704
 20
11.9457
 10
-50.4829
 20
11.9115
 10
-50.6
 20
11.9
 10
-50.7171
 20
11.9115
 10
-50.8296
 20
11.9457
 10
-50.9333
 20
12.0011
 10
-51.0243
 20
12.0757
 10
-51.0852
 20
12.15
 10
-63.2148
 20
12.15
 10
-63.2757
 20
12.0757
 10
-63.3667
 20
12.0011
 10
-63.4704
 20
11.9457
 10
-63.5829
 20
11.9115
 10
-63.7
 20
11.9
 10
-63.8171
 20
11.9115
 10
-63.9296
 20
11.9457
 10
-64.0333
 20
12.0011
 10
-64.1243
 20
12.0757
 10
-64.1989
 20
12.1667
 10
-64.2543
 20
12.2704
 10
-64.2885
 20
12.3829
 10
-64.3
 20
12.5
 10
-64.2885
 20
12.6171
 10
-64.2543
 20
12.7296
 10
-64.1989
 20
12.8333
 10
-64.1243
 20
12.9243
 10
-64.05
 20
12.9852
 10
-64.05
 20
25.1148
 10
-64.1243
 20
25.1757
 10
-64.1989
 20
25.2667
 10
-64.2543
 20
25.3704
 10
-64.2885
 20
25.4829
 10
-64.3
 20
25.6
 10
-64.2885
 20
25.7171
 10
-64.2543
 20
25.8296
 10
-64.1989
 20
25.9333
 10
-64.1243
 20
26.0243
 10
-64.0333
 20
26.0989
 10
-63.9296
 20
26.1543
  0
LWPOLYLINE
  5
94
330
17
100
AcDbEntity
  8
CUT
100
AcDbPolyline
 90
76
 70
1
 10
-44.7671
 20
26.1885
 10
-44.65
 20
26.2
 10
-44.5329
 20
26.1885
 10
-44.4204
 20
26.1543
 10
-44.3167
 20
26.0989
 10
-44.2257
 20
26.0243
 10
-44.1648
 20
25.95
 10
-32.0352
 20
25.95
 10
-31.9743
 20
26.0243
 10
-31.8833
 20
26.0989
 10
-31.7796
 20
26.1543
 10
-31.6671
 20
26.1885
 10
-31.55
 20
26.2
 10
-31.4329
 20
26.1885
 10
-31.3204
 20
26.1543
 10
-31.2167
 20
26.0989
 10
-31.1257
 20
26.0243
 10
-31.0511
 20
25.9333
 10
-30.9957
 20
25.8296
 10
-30.9615
 20
25.7171
 10
-30.95
 20
25.6
 10
-30.9615
 20
25.4829
 10
-30.9957
 20
25.3704
 10
-31.0511
 20
25.2667
 10
-31.1257
 20
25.1757
 10
-31.2
 20
25.1148
 10
-31.2
 20
12.9852
 10
-31.1257
 20
12.9243
 10
-31.0511
 20
12.8333
 10
-30.9957
 20
12.7296
 10
-30.9615
 20
12.6171
 10
-30.95
 20
12.5
 10
-30.9615
 20
12.3829
 10
-30.9957
 20
12.2704
 10
-31.0511
 20
12.1667
 10
-31.1257
 20
12.0757
 10
-31.2167
 20
12.0011
 10
-31.3204
 20
11.9457
 10
-31.4329
 20
11.9115
 10
-31.55
 20
11.9
 10
-31.6671
 20
11.9115
 10
-31.7796
 20
11.9457
 10
-31.8833
 20
12.0011
 10
-31.9743
 20
12.0757
 10
-32.0352
 20
12.15
 10
-44.1648
 20
12.15
 10
-44.2257
 20
12.0757
 10
-44.3167
 20
12.0011
 10
-44.4204
 20
11.9457
 10
-44.5329
 20
11.9115
 10
-44.65
 20
11.9
 10
-44.7671
 20
11.9115
 10
-44.8796
 20
11.9457
 10
-44.9833
 20
12.0011
 10
-45.0743
 20
12.0757
 10
-45.1489
 20
12.1667
 10
-45.2043
 20
12.2704
 10
-45.2385
 20
12.3829
 10
-45.25
 20
12.5
 10
-45.2385
 20
12.6171
 10
-45.2043
 20
12.7296
 10
-45.1489
 20
12.8333
 10
-45.0743
 20
12.9243
 10
-45.0
 20
12.9852
 10
-45.0
 20
25.1148
 10
-45.0743
 20
25.1757
 10
-45.1489
 20
25.2667
 10
-45.2043
 20
25.3704
 10
-45.2385
 20
25.4829
 10
-45.25
 20
25.6
 10
-45.2385
 20
25.7171
 10
-45.2043
 20
25.8296
 10
-45.1489
 20
25.9333
 10
-45.0743
 20
26.0243
 10
-44.9833
 20
26.0989
 10
-44.8796
 20
26.1543
  0
LWPOLYLINE
  5
95
330
17
100
AcDbEntity
  8
CUT
100
AcDbPolyline
 90
4
 70
1
 10
-64.15
 20
7.0
 10
-50.15
 20
7.0
 10
-50.15
 20
-7.0
 10
-64.15
 20
-7.0
  0
LWPOLYLINE
  5
96
330
17
100
AcDbEntity
  8
CUT
100
AcDbPolyline
 90
4
 70
1
 10
-45.075
 20
6.975
 10
-31.125
 20
6.975
 10
-31.125
 20
-6.975
 10
-45.075
 20
-6.975
  0
LWPOLYLINE
  5
97
330
17
100
AcDbEntity
  8
CUT
100
AcDbPolyline
 90
4
 70
1
 10
-25.95
 20
6.9
 10
-12.15
 20
6.9
 10
-12.15
 20
-6.9
 10
-25.95
 20
-6.9
  0
LWPOLYLINE
  5
98
330
17
100
AcDbEntity
  8
CUT
100
AcDbPolyline
 90
76
 70
1
 10
-25.8171
 20
-11.8115
 10
-25.7
 20
-11.8
 10
-25.5829
 20
-11.8115
 10
-25.4704
 20
-11.8457
 10
-25.3667
 20
-11.9011
 10
-25.2757
 20
-11.9757
 10
-25.2148
 20
-12.05
 10
-12.8852
 20
-12.05
 10
-12.8243
 20
-11.9757
 10
-12.7333
 20
-11.9011
 10
-12.6296
 20
-11.8457
 10
-12.5171
 20
-11.8115
 10
-12.4
 20
-11.8
 10
-12.2829
 20
-11.8115
 10
-12.1704
 20
-11.8457
 10
-12.0667
 20
-11.9011
 10
-11.9757
 20
-11.9757
 10
-11.9011
 20
-12.0667
 10
-11.8457
 20
-12.1704
 10
-11.8115
 20
-12.2829
 10
-11.8
 20
-12.4
 10
-11.8115
 20
-12.5171
 10
-11.8457
 20
-12.6296
 10
-11.9011
 20
-12.7333
 10
-11.9757
 20
-12.8243
 10
-12.05
 20
-12.8852
 10
-12.05
 20
-25.2148
 10
-11.9757
 20
-25.2757
 10
-11.9011
 20
-25.3667
 10
-11.8457
 20
-25.4704
 10
-11.8115
 20
-25.5829
 10
-11.8
 20
-25.7
 10
-11.8115
 20
-25.8171
 10
-11.8457
 20
-25.9296
 10
-11.9011
 20
-26.0333
 10
-11.9757
 20
-26.1243
 10
-12.0667
 20
-26.1989
 10
-12.1704
 20
-26.2543
 10
-12.2829
 20
-26.2885
 10
-12.4
 20
-26.3
 10
-12.5171
 20
-26.2885
 10
-12.6296
 20
-26.2543
 10
-12.7333
 20
-26.1989
 10
-12.8243
 20
-26.1243
 10
-12.8852
 20
-26.05
 10
-25.2148
 20
-26.05
 10
-25.2757
 20
-26.1243
 10
-25.3667
 20
-26.1989
 10
-25.4704
 20
-26.2543
 10
-25.5829
 20
-26.2885
 10
-25.7
 20
-26.3
 10
-25.8171
 20
-26.2885
 10
-25.9296
 20
-26.2543
 10
-26.0333
 20
-26.1989
 10
-26.1243
 20
-26.1243
 10
-26.1989
 20
-26.0333
 10
-26.2543
 20
-25.9296
 10
-26.2885
 20
-25.8171
 10
-26.3
 20
-25.7
 10
-26.2885
 20
-25.5829
 10
-26.2543
 20
-25.4704
 10
-26.1989
 20
-25.3667
 10
-26.1243
 20
-25.2757
 10
-26.05
 20
-25.2148
 10
-26.05
 20
-12.8852
 10
-26.1243
 20
-12.8243
 10
-26.1989
 20
-12.7333
 10
-26.2543
 20
-12.6296
 10
-26.2885
 20
-12.5171
 10
-26.3
 20
-12.4
 10
-26.2885
 20
-12.2829
 10
-26.2543
 20
-12.1704
 10
-26.1989
 20
-12.0667
 10
-26.1243
 20
-11.9757
 10
-26.0333
 20
-11.9011
 10
-25.9296
 20
-11.8457
  0
LWPOLYLINE
  5
99
330
17
100
AcDbEntity
  8
CUT
100
AcDbPolyline
 90
155
 70
1
 10
-54.5046
 20
-11.8457
 10
-54.3921
 20
-11.8115
 10
-54.275
 20
-11.8
 10
-54.1579
 20
-11.8115
 10
-54.0454
 20
-11.8457
 10
-53.9417
 20
-11.9011
 10
-53.8507
 20
-11.9757
 10
-53.7898
 20
-12.05
 10
-41.4602
 20
-12.05
 10
-41.3993
 20
-11.9757
 10
-41.3083
 20
-11.9011
 10
-41.2046
 20
-11.8457
 10
-41.0921
 20
-11.8115
 10
-40.975
 20
-11.8
 10
-40.8579
 20
-11.8115
 10
-40.7454
 20
-11.8457
 10
-40.6417
 20
-11.9011
 10
-40.5507
 20
-11.9757
 10
-40.4761
 20
-12.0667
 10
-40.4207
 20
-12.1704
 10
-40.3865
 20
-12.2829
 10
-40.375
 20
-12.4
 10
-40.3865
 20
-12.5171
 10
-40.4207
 20
-12.6296
 10
-40.4761
 20
-12.7333
 10
-40.5507
 20
-12.8243
 10
-40.625
 20
-12.8852
 10
-40.625
 20
-19.2
 10
-38.625
 20
-19.2
 10
-38.625
 20
-13.9
 10
-38.6154
 20
-13.8025
 10
-38.5407
 20
-13.6222
 10
-38.4028
 20
-13.4843
 10
-38.3163
 20
-13.4381
 10
-38.125
 20
-13.4
 10
-33.125
 20
-13.4
 10
-32.9337
 20
-13.4381
 10
-32.8472
 20
-13.4843
 10
-32.7093
 20
-13.6222
 10
-32.6346
 20
-13.8025
 10
-32.625
 20
-13.9
 10
-32.625
 20
-25.4
 10
-32.6346
 20
-25.4975
 10
-32.7093
 20
-25.6778
 10
-32.8472
 20
-25.8157
 10
-33.0275
 20
-25.8904
 10
-34.775
 20
-25.9
 10
-34.7846
 20
-26.6975
 10
-34.8593
 20
-26.8778
 10
-34.9214
 20
-26.9536
 10
-35.0837
 20
-27.0619
 10
-35.275
 20
-27.1
 10
-35.975
 20
-27.1
 10
-36.1663
 20
-27.0619
 10
-36.3286
 20
-26.9536
 10
-36.3907
 20
-26.8778
 10
-36.4654
 20
-26.6975
 10
-36.475
 20
-25.9
 10
-38.2225
 20
-25.8904
 10
-38.3163
 20
-25.8619
 10
-38.4786
 20
-25.7536
 10
-38.5869
 20
-25.5913
 10
-38.625
 20
-25.4
 10
-38.625
 20
-21.7
 10
-40.625
 20
-21.7
 10
-40.625
 20
-25.2148
 10
-40.5507
 20
-25.2757
 10
-40.4761
 20
-25.3667
 10
-40.4207
 20
-25.4704
 10
-40.3865
 20
-25.5829
 10
-40.375
 20
-25.7
 10
-40.3865
 20
-25.8171
 10
-40.4207
 20
-25.9296
 10
-40.4761
 20
-26.0333
 10
-40.5507
 20
-26.1243
 10
-40.6417
 20
-26.1989
 10
-40.7454
 20
-26.2543
 10
-40.8579
 20
-26.2885
 10
-40.975
 20
-26.3
 10
-41.0921
 20
-26.2885
 10
-41.2046
 20
-26.2543
 10
-41.3083
 20
-26.1989
 10
-41.3993
 20
-26.1243
 10
-41.4602
 20
-26.05
 10
-53.7898
 20
-26.05
 10
-53.8507
 20
-26.1243
 10
-53.9417
 20
-26.1989
 10
-54.0454
 20
-26.2543
 10
-54.1579
 20
-26.2885
 10
-54.275
 20
-26.3
 10
-54.3921
 20
-26.2885
 10
-54.5046
 20
-26.2543
 10
-54.6083
 20
-26.1989
 10
-54.6993
 20
-26.1243
 10
-54.7739
 20
-26.0333
 10
-54.8293
 20
-25.9296
 10
-54.8635
 20
-25.8171
 10
-54.875
 20
-25.7
 10
-54.8635
 20
-25.5829
 10
-54.8293
 20
-25.4704
 10
-54.7739
 20
-25.3667
 10
-54.6993
 20
-25.2757
 10
-54.625
 20
-25.2148
 10
-54.625
 20
-21.7
 10
-56.625
 20
-21.7
 10
-56.625
 20
-25.4
 10
-56.6346
 20
-25.4975
 10
-56.7093
 20
-25.6778
 10
-56.8472
 20
-25.8157
 10
-56.9337
 20
-25.8619
 10
-57.125
 20
-25.9
 10
-58.775
 20
-25.9
 10
-58.775
 20
-26.6
 10
-58.8131
 20
-26.7913
 10
-58.8593
 20
-26.8778
 10
-58.9972
 20
-27.0157
 10
-59.1775
 20
-27.0904
 10
-59.275
 20
-27.1
 10
-60.0725
 20
-27.0904
 10
-60.1663
 20
-27.0619
 10
-60.3286
 20
-26.9536
 10
-60.3907
 20
-26.8778
 10
-60.4654
 20
-26.6975
 10
-60.475
 20
-25.9
 10
-62.125
 20
-25.9
 10
-62.3163
 20
-25.8619
 10
-62.4028
 20
-25.8157
 10
-62.5407
 20
-25.6778
 10
-62.6154
 20
-25.4975
 10
-62.625
 20
-25.4
 10
-62.625
 20
-13.9
 10
-62.6154
 20
-13.8025
 10
-62.5407
 20
-13.6222
 10
-62.4786
 20
-13.5464
 10
-62.3163
 20
-13.4381
 10
-62.125
 20
-13.4
 10
-57.125
 20
-13.4
 10
-56.9337
 20
-13.4381
 10
-56.8472
 20
-13.4843
 10
-56.7093
 20
-13.6222
 10
-56.6346
 20
-13.8025
 10
-56.625
 20
-13.9
 10
-56.625
 20
-19.2
 10
-54.625
 20
-19.2
 10
-54.625
 20
-12.8852
 10
-54.6993
 20
-12.8243
 10
-54.7739
 20
-12.7333
 10
-54.8293
 20
-12.6296
 10
-54.8635
 20
-12.5171
 10
-54.875
 20
-12.4
 10
-54.8635
 20
-12.2829
 10
-54.8293
 20
-12.1704
 10
-54.7739
 20
-12.0667
 10
-54.6993
 20
-11.9757
 10
-54.6083
 20
-11.9011
  0
LWPOLYLINE
  5
9A
330
17
100
AcDbEntity
  8
CUT
100
AcDbPolyline
 90
76
 70
1
 10
-44.8671
 20
-30.8615
 10
-44.75
 20
-30.85
 10
-44.6329
 20
-30.8615
 10
-44.5204
 20
-30.8957
 10
-44.4167
 20
-30.9511
 10
-44.3257
 20
-31.0257
 10
-44.2648
 20
-31.1
 10
-31.9352
 20
-31.1
 10
-31.8743
 20
-31.0257
 10
-31.7833
 20
-30.9511
 10
-31.6796
 20
-30.8957
 10
-31.5671
 20
-30.8615
 10
-31.45
 20
-30.85
 10
-31.3329
 20
-30.8615
 10
-31.2204
 20
-30.8957
 10
-31.1167
 20
-30.9511
 10
-31.0257
 20
-31.0257
 10
-30.9511
 20
-31.1167
 10
-30.8957
 20
-31.2204
 10
-30.8615
 20
-31.3329
 10
-30.85
 20
-31.45
 10
-30.8615
 20
-31.5671
 10
-30.8957
 20
-31.6796
 10
-30.9511
 20
-31.7833
 10
-31.0257
 20
-31.8743
 10
-31.1
 20
-31.9352
 10
-31.1
 20
-44.2648
 10
-31.0257
 20
-44.3257
 10
-30.9511
 20
-44.4167
 10
-30.8957
 20
-44.5204
 10
-30.8615
 20
-44.6329
 10
-30.85
 20
-44.75
 10
-30.8615
 20
-44.8671
 10
-30.8957
 20
-44.9796
 10
-30.9511
 20
-45.0833
 10
-31.0257
 20
-45.1743
 10
-31.1167
 20
-45.2489
 10
-31.2204
 20
-45.3043
 10
-31.3329
 20
-45.3385
 10
-31.45
 20
-45.35
 10
-31.5671
 20
-45.3385
 10
-31.6796
 20
-45.3043
 10
-31.7833
 20
-45.2489
 10
-31.8743
 20
-45.1743
 10
-31.9352
 20
-45.1
 10
-44.2648
 20
-45.1
 10
-44.3257
 20
-45.1743
 10
-44.4167
 20
-45.2489
 10
-44.5204
 20
-45.3043
 10
-44.6329
 20
-45.3385
 10
-44.75
 20
-45.35
 10
-44.8671
 20
-45.3385
 10
-44.9796
 20
-45.3043
 10
-45.0833
 20
-45.2489
 10
-45.1743
 20
-45.1743
 10
-45.2489
 20
-45.0833
 10
-45.3043
 20
-44.9796
 10
-45.3385
 20
-44.8671
 10
-45.35
 20
-44.75
 10
-45.3385
 20
-44.6329
 10
-45.3043
 20
-44.5204
 10
-45.2489
 20
-44.4167
 10
-45.1743
 20
-44.3257
 10
-45.1
 20
-44.2648
 10
-45.1
 20
-31.9352
 10
-45.1743
 20
-31.8743
 10
-45.2489
 20
-31.7833
 10
-45.3043
 20
-31.6796
 10
-45.3385
 20
-31.5671
 10
-45.35
 20
-31.45
 10
-45.3385
 20
-31.3329
 10
-45.3043
 20
-31.2204
 10
-45.2489
 20
-31.1167
 10
-45.1743
 20
-31.0257
 10
-45.0833
 20
-30.9511
 10
-44.9796
 20
-30.8957
  0
LWPOLYLINE
  5
9B
330
17
100
AcDbEntity
  8
CUT
100
AcDbPolyline
 90
155
 70
1
 10
-50.0011
 20
-40.6417
 10
-49.9457
 20
-40.7454
 10
-49.9115
 20
-40.8579
 10
-49.9
 20
-40.975
 10
-49.9115
 20
-41.0921
 10
-49.9457
 20
-41.2046
 10
-50.0011
 20
-41.3083
 10
-50.0757
 20
-41.3993
 10
-50.15
 20
-41.4602
 10
-50.15
 20
-53.7898
 10
-50.0757
 20
-53.8507
 10
-50.0011
 20
-53.9417
 10
-49.9457
 20
-54.0454
 10
-49.9115
 20
-54.1579
 10
-49.9
 20
-54.275
 10
-49.9115
 20
-54.3921
 10
-49.9457
 20
-54.5046
 10
-50.0011
 20
-54.6083
 10
-50.0757
 20
-54.6993
 10
-50.1667
 20
-54.7739
 10
-50.2704
 20
-54.8293
 10
-50.3829
 20
-54.8635
 10
-50.5
 20
-54.875
 10
-50.6171
 20
-54.8635
 10
-50.7296
 20
-54.8293
 10
-50.8333
 20
-54.7739
 10
-50.9243
 20
-54.6993
 10
-50.9852
 20
-54.625
 10
-57.3
 20
-54.625
 10
-57.3
 20
-56.625
 10
-52.0
 20
-56.625
 10
-51.9025
 20
-56.6346
 10
-51.7222
 20
-56.7093
 10
-51.5843
 20
-56.8472
 10
-51.5381
 20
-56.9337
 10
-51.5
 20
-57.125
 10
-51.5
 20
-62.125
 10
-51.5381
 20
-62.3163
 10
-51.5843
 20
-62.4028
 10
-51.7222
 20
-62.5407
 10
-51.9025
 20
-62.6154
 10
-52.0
 20
-62.625
 10
-63.5
 20
-62.625
 10
-63.5975
 20
-62.6154
 10
-63.7778
 20
-62.5407
 10
-63.9157
 20
-62.4028
 10
-63.9904
 20
-62.2225
 10
-64.0
 20
-60.475
 10
-64.7975
 20
-60.4654
 10
-64.9778
 20
-60.3907
 10
-65.0536
 20
-60.3286
 10
-65.1619
 20
-60.1663
 10
-65.2
 20
-59.975
 10
-65.2
 20
-59.275
 10
-65.1619
 20
-59.0837
 10
-65.1157
 20
-58.9972
 10
-64.9778
 20
-58.8593
 10
-64.7975
 20
-58.7846
 10
-64.0
 20
-58.775
 10
-63.9904
 20
-57.0275
 10
-63.9157
 20
-56.8472
 10
-63.8536
 20
-56.7714
 10
-63.6913
 20
-56.6631
 10
-63.5
 20
-56.625
 10
-59.8
 20
-56.625
 10
-59.8
 20
-54.625
 10
-63.3148
 20
-54.625
 10
-63.3757
 20
-54.6993
 10
-63.4667
 20
-54.7739
 10
-63.5704
 20
-54.8293
 10
-63.6829
 20
-54.8635
 10
-63.8
 20
-54.875
 10
-63.9171
 20
-54.8635
 10
-64.0296
 20
-54.8293
 10
-64.1333
 20
-54.7739
 10
-64.2243
 20
-54.6993
 10
-64.2989
 20
-54.6083
 10
-64.3543
 20
-54.5046
 10
-64.3885
 20
-54.3921
 10
-64.4
 20
-54.275
 10
-64.3885
 20
-54.1579
 10
-64.3543
 20
-54.0454
 10
-64.2989
 20
-53.9417
 10
-64.2243
 20
-53.8507
 10
-64.15
 20
-53.7898
 10
-64.15
 20
-41.4602
 10
-64.2243
 20
-41.3993
 10
-64.2989
 20
-41.3083
 10
-64.3543
 20
-41.2046
 10
-64.3885
 20
-41.0921
 10
-64.4
 20
-40.975
 10
-64.3885
 20
-40.8579
 10
-64.3543
 20
-40.7454
 10
-64.2989
 20
-40.6417
 10
-64.2243
 20
-40.5507
 10
-64.1333
 20
-40.4761
 10
-64.0296
 20
-40.4207
 10
-63.9171
 20
-40.3865
 10
-63.8
 20
-40.375
 10
-63.6829
 20
-40.3865
 10
-63.5704
 20
-40.4207
 10
-63.4667
 20
-40.4761
 10
-63.3757
 20
-40.5507
 10
-63.3148
 20
-40.625
 10
-59.8
 20
-40.625
 10
-59.8
 20
-38.625
 10
-63.5
 20
-38.625
 10
-63.5975
 20
-38.6154
 10
-63.7778
 20
-38.5407
 10
-63.9157
 20
-38.4028
 10
-63.9904
 20
-38.2225
 10
-64.0
 20
-38.125
 10
-64.0
 20
-36.475
 10
-64.7
 20
-36.475
 10
-64.8913
 20
-36.4369
 10
-64.9778
 20
-36.3907
 10
-65.1157
 20
-36.2528
 10
-65.1904
 20
-36.0725
 10
-65.2
 20
-35.975
 10
-65.1904
 20
-35.1775
 10
-65.1157
 20
-34.9972
 10
-65.0536
 20
-34.9214
 10
-64.9778
 20
-34.8593
 10
-64.7975
 20
-34.7846
 10
-64.0
 20
-34.775
 10
-64.0
 20
-33.125
 10
-63.9904
 20
-33.0275
 10
-63.9157
 20
-32.8472
 10
-63.7778
 20
-32.7093
 10
-63.5975
 20
-32.6346
 10
-63.5
 20
-32.625
 10
-52.0
 20
-32.625
 10
-51.9025
 20
-32.6346
 10
-51.7222
 20
-32.7093
 10
-51.6464
 20
-32.7714
 10
-51.5381
 20
-32.9337
 10
-51.5
 20
-33.125
 10
-51.5
 20
-38.125
 10
-51.5381
 20
-38.3163
 10
-51.5843
 20
-38.4028
 10
-51.7222
 20
-38.5407
 10
-51.9025
 20
-38.6154
 10
-52.0
 20
-38.625
 10
-57.3
 20
-38.625
 10
-57.3
 20
-40.625
 10
-50.9852
 20
-40.625
 10
-50.9243
 20
-40.5507
 10
-50.8333
 20
-40.4761
 10
-50.7296
 20
-40.4207
 10
-50.6171
 20
-40.3865
 10
-50.5
 20
-40.375
 10
-50.3829
 20
-40.3865
 10
-50.2704
 20
-40.4207
 10
-50.1667
 20
-40.4761
 10
-50.0757
 20
-40.5507
  0
LWPOLYLINE
  5
9C
330
17
100
AcDbEntity
  8
CUT
100
AcDbPolyline
 90
76
 70
1
 10
-44.75
 20
-49.9
 10
-44.6329
 20
-49.9115
 10
-44.5204
 20
-49.9457
 10
-44.4167
 20
-50.0011
 10
-44.3257
 20
-50.0757
 10
-44.2648
 20
-50.15
 10
-31.9352
 20
-50.15
 10
-31.8743
 20
-50.0757
 10
-31.7833
 20
-50.0011
 10
-31.6796
 20
-49.9457
 10
-31.5671
 20
-49.9115
 10
-31.45
 20
-49.9
 10
-31.3329
 20
-49.9115
 10
-31.2204
 20
-49.9457
 10
-31.1167
 20
-50.0011
 10
-31.0257
 20
-50.0757
 10
-30.9511
 20
-50.1667
 10
-30.8957
 20
-50.2704
 10
-30.8615
 20
-50.3829
 10
-30.85
 20
-50.5
 10
-30.8615
 20
-50.6171
 10
-30.8957
 20
-50.7296
 10
-30.9511
 20
-50.8333
 10
-31.0257
 20
-50.9243
 10
-31.1
 20
-50.9852
 10
-31.1
 20
-63.3148
 10
-31.0257
 20
-63.3757
 10
-30.9511
 20
-63.4667
 10
-30.8957
 20
-63.5704
 10
-30.8615
 20
-63.6829
 10
-30.85
 20
-63.8
 10
-30.8615
 20
-63.9171
 10
-30.8957
 20
-64.0296
 10
-30.9511
 20
-64.1333
 10
-31.0257
 20
-64.2243
 10
-31.1167
 20
-64.2989
 10
-31.2204
 20
-64.3543
 10
-31.3329
 20
-64.3885
 10
-31.45
 20
-64.4
 10
-31.5671
 20
-64.3885
 10
-31.6796
 20
-64.3543
 10
-31.7833
 20
-64.2989
 10
-31.8743
 20
-64.2243
 10
-31.9352
 20
-64.15
 10
-44.2648
 20
-64.15
 10
-44.3257
 20
-64.2243
 10
-44.4167
 20
-64.2989
 10
-44.5204
 20
-64.3543
 10
-44.6329
 20
-64.3885
 10
-44.75
 20
-64.4
 10
-44.8671
 20
-64.3885
 10
-44.9796
 20
-64.3543
 10
-45.0833
 20
-64.2989
 10
-45.1743
 20
-64.2243
 10
-45.2489
 20
-64.1333
 10
-45.3043
 20
-64.0296
 10
-45.3385
 20
-63.9171
 10
-45.35
 20
-63.8
 10
-45.3385
 20
-63.6829
 10
-45.3043
 20
-63.5704
 10
-45.2489
 20
-63.4667
 10
-45.1743
 20
-63.3757
 10
-45.1
 20
-63.3148
 10
-45.1
 20
-50.9852
 10
-45.1743
 20
-50.9243
 10
-45.2489
 20
-50.8333
 10
-45.3043
 20
-50.7296
 10
-45.3385
 20
-50.6171
 10
-45.35
 20
-50.5
 10
-45.3385
 20
-50.3829
 10
-45.3043
 20
-50.2704
 10
-45.2489
 20
-50.1667
 10
-45.1743
 20
-50.0757
 10
-45.0833
 20
-50.0011
 10
-44.9796
 20
-49.9457
 10
-44.8671
 20
-49.9115
  0
LWPOLYLINE
  5
9D
330
17
100
AcDbEntity
  8
CUT
100
AcDbPolyline
 90
32
 70
1
 10
-69.3889
 20
-69.0854
 10
-69.2222
 20
-69.2222
 10
-69.0854
 20
-69.3889
 10
-68.9837
 20
-69.579
 10
-68.9211
 20
-69.7854
 10
-68.9
 20
-70.0
 10
-68.9211
 20
-70.2146
 10
-68.9837
 20
-70.421
 10
-69.0854
 20
-70.6111
 10
-69.2222
 20
-70.7778
 10
-69.3889
 20
-70.9146
 10
-69.579
 20
-71.0163
 10
-69.7854
 20
-71.0789
 10
-70.0
 20
-71.1
 10
-70.2146
 20
-71.0789
 10
-70.421
 20
-71.0163
 10
-70.6111
 20
-70.9146
 10
-70.7778
 20
-70.7778
 10
-70.9146
 20
-70.6111
 10
-71.0163
 20
-70.421
 10
-71.0789
 20
-70.2146
 10
-71.1
 20
-70.0
 10
-71.0789
 20
-69.7854
 10
-71.0163
 20
-69.579
 10
-70.9146
 20
-69.3889
 10
-70.7778
 20
-69.2222
 10
-70.6111
 20
-69.0854
 10
-70.421
 20
-68.9837
 10
-70.2146
 20
-68.9211
 10
-70.0
 20
-68.9
 10
-69.7854
 20
-68.9211
 10
-69.579
 20
-68.9837
  0
LWPOLYLINE
  5
9E
330
17
100
AcDbEntity
  8
CUT
100
AcDbPolyline
 90
76
 70
1
 10
12.2829
 20
64.3885
 10
12.4
 20
64.4
 10
12.5171
 20
64.3885
 10
12.6296
 20
64.3543
 10
12.7333
 20
64.2989
 10
12.8243
 20
64.2243
 10
12.8852
 20
64.15
 10
25.2148
 20
64.15
 10
25.2757
 20
64.2243
 10
25.3667
 20
64.2989
 10
25.4704
 20
64.3543
 10
25.5829
 20
64.3885
 10
25.7
 20
64.4
 10
25.8171
 20
64.3885
 10
25.9296
 20
64.3543
 10
26.0333
 20
64.2989
 10
26.1243
 20
64.2243
 10
26.1989
 20
64.1333
 10
26.2543
 20
64.0296
 10
26.2885
 20
63.9171
 10
26.3
 20
63.8
 10
26.2885
 20
63.6829
 10
26.2543
 20
63.5704
 10
26.1989
 20
63.4667
 10
26.1243
 20
63.3757
 10
26.05
 20
63.3148
 10
26.05
 20
50.9852
 10
26.1243
 20
50.9243
 10
26.1989
 20
50.8333
 10
26.2543
 20
50.7296
 10
26.2885
 20
50.6171
 10
26.3
 20
50.5
 10
26.2885
 20
50.3829
 10
26.2543
 20
50.2704
 10
26.1989
 20
50.1667
 10
26.1243
 20
50.0757
 10
26.0333
 20
50.0011
 10
25.9296
 20
49.9457
 10
25.8171
 20
49.9115
 10
25.7
 20
49.9
 10
25.5829
 20
49.9115
 10
25.4704
 20
49.9457
 10
25.3667
 20
50.0011
 10
25.2757
 20
50.0757
 10
25.2148
 20
50.15
 10
12.8852
 20
50.15
 10
12.8243
 20
50.0757
 10
12.7333
 20
50.0011
 10
12.6296
 20
49.9457
 10
12.5171
 20
49.9115
 10
12.4
 20
49.9
 10
12.2829
 20
49.9115
 10
12.1704
 20
49.9457
 10
12.0667
 20
50.0011
 10
11.9757
 20
50.0757
 10
11.9011
 20
50.1667
 10
11.8457
 20
50.2704
 10
11.8115
 20
50.3829
 10
11.8
 20
50.5
 10
11.8115
 20
50.6171
 10
11.8457
 20
50.7296
 10
11.9011
 20
50.8333
 10
11.9757
 20
50.9243
 10
12.05
 20
50.9852
 10
12.05
 20
63.3148
 10
11.9757
 20
63.3757
 10
11.9011
 20
63.4667
 10
11.8457
 20
63.5704
 10
11.8115
 20
63.6829
 10
11.8
 20
63.8
 10
11.8115
 20
63.9171
 10
11.8457
 20
64.0296
 10
11.9011
 20
64.1333
 10
11.9757
 20
64.2243
 10
12.0667
 20
64.2989
 10
12.1704
 20
64.3543
  0
LWPOLYLINE
  5
9F
330
17
100
AcDbEntity
  8
CUT
100
AcDbPolyline
 90
76
 70
1
 10
-6.65
 20
64.4
 10
-6.5329
 20
64.3885
 10
-6.4204
 20
64.3543
 10
-6.3167
 20
64.2989
 10
-6.2257
 20
64.2243
 10
-6.1648
 20
64.15
 10
6.1648
 20
64.15
 10
6.2257
 20
64.2243
 10
6.3167
 20
64.2989
 10
6.4204
 20
64.3543
 10
6.5329
 20
64.3885
 10
6.65
 20
64.4
 10
6.7671
 20
64.3885
 10
6.8796
 20
64.3543
 10
6.9833
 20
64.2989
 10
7.0743
 20
64.2243
 10
7.1489
 20
64.1333
 10
7.2043
 20
64.0296
 10
7.2385
 20
63.9171
 10
7.25
 20
63.8
 10
7.2385
 20
63.6829
 10
7.2043
 20
63.5704
 10
7.1489
 20
63.4667
 10
7.0743
 20
63.3757
 10
7.0
 20
63.3148
 10
7.0
 20
50.9852
 10
7.0743
 20
50.9243
 10
7.1489
 20
50.8333
 10
7.2043
 20
50.7296
 10
7.2385
 20
50.6171
 10
7.25
 20
50.5
 10
7.2385
 20
50.3829
 10
7.2043
 20
50.2704
 10
7.1489
 20
50.1667
 10
7.0743
 20
50.0757
 10
6.9833
 20
50.0011
 10
6.8796
 20
49.9457
 10
6.7671
 20
49.9115
 10
6.65
 20
49.9
 10
6.5329
 20
49.9115
 10
6.4204
 20
49.9457
 10
6.3167
 20
50.0011
 10
6.2257
 20
50.0757
 10
6.1648
 20
50.15
 10
-6.1648
 20
50.15
 10
-6.2257
 20
50.0757
 10
-6.3167
 20
50.0011
 10
-6.4204
 20
49.9457
 10
-6.5329
 20
49.9115
 10
-6.65
 20
49.9
 10
-6.7671
 20
49.9115
 10
-6.8796
 20
49.9457
 10
-6.9833
 20
50.0011
 10
-7.0743
 20
50.0757
 10
-7.1489
 20
50.1667
 10
-7.2043
 20
50.2704
 10
-7.2385
 20
50.3829
 10
-7.25
 20
50.5
 10
-7.2385
 20
50.6171
 10
-7.2043
 20
50.7296
 10
-7.1489
 20
50.8333
 10
-7.0743
 20
50.9243
 10
-7.0
 20
50.9852
 10
-7.0
 20
63.3148
 10
-7.0743
 20
63.3757
 10
-7.1489
 20
63.4667
 10
-7.2043
 20
63.5704
 10
-7.2385
 20
63.6829
 10
-7.25
 20
63.8
 10
-7.2385
 20
63.9171
 10
-7.2043
 20
64.0296
 10
-7.1489
 20
64.1333
 10
-7.0743
 20
64.2243
 10
-6.9833
 20
64.2989
 10
-6.8796
 20
64.3543
 10
-6.7671
 20
64.3885
  0
LWPOLYLINE
  5
A0
330
17
100
AcDbEntity
  8
CUT
100
AcDbPolyline
 90
76
 70
1
 10
12.3079
 20
45.3135
 10
12.425
 20
45.325
 10
12.5421
 20
45.3135
 10
12.6546
 20
45.2793
 10
12.7583
 20
45.2239
 10
12.8493
 20
45.1493
 10
12.9102
 20
45.075
 10
25.1898
 20
45.075
 10
25.2507
 20
45.1493
 10
25.3417
 20
45.2239
 10
25.4454
 20
45.2793
 10
25.5579
 20
45.3135
 10
25.675
 20
45.325
 10
25.7921
 20
45.3135
 10
25.9046
 20
45.2793
 10
26.0083
 20
45.2239
 10
26.0993
 20
45.1493
 10
26.1739
 20
45.0583
 10
26.2293
 20
44.9546
 10
26.2635
 20
44.8421
 10
26.275
 20
44.725
 10
26.2635
 20
44.6079
 10
26.2293
 20
44.4954
 10
26.1739
 20
44.3917
 10
26.0993
 20
44.3007
 10
26.025
 20
44.2398
 10
26.025
 20
31.9602
 10
26.0993
 20
31.8993
 10
26.1739
 20
31.8083
 10
26.2293
 20
31.7046
 10
26.2635
 20
31.5921
 10
26.275
 20
31.475
 10
26.2635
 20
31.3579
 10
26.2293
 20
31.2454
 10
26.1739
 20
31.1417
 10
26.0993
 20
31.0507
 10
26.0083
 20
30.9761
 10
25.9046
 20
30.9207
 10
25.7921
 20
30.8865
 10
25.675
 20
30.875
 10
25.5579
 20
30.8865
 10
25.4454
 20
30.9207
 10
25.3417
 20
30.9761
 10
25.2507
 20
31.0507
 10
25.1898
 20
31.125
 10
12.9102
 20
31.125
 10
12.8493
 20
31.0507
 10
12.7583
 20
30.9761
 10
12.6546
 20
30.9207
 10
12.5421
 20
30.8865
 10
12.425
 20
30.875
 10
12.3079
 20
30.8865
 10
12.1954
 20
30.9207
 10
12.0917
 20
30.9761
 10
12.0007
 20
31.0507
 10
11.9261
 20
31.1417
 10
11.8707
 20
31.2454
 10
11.8365
 20
31.3579
 10
11.825
 20
31.475
 10
11.8365
 20
31.5921
 10
11.8707
 20
31.7046
 10
11.9261
 20
31.8083
 10
12.0007
 20
31.8993
 10
12.075
 20
31.9602
 10
12.075
 20
44.2398
 10
12.0007
 20
44.3007
 10
11.9261
 20
44.3917
 10
11.8707
 20
44.4954
 10
11.8365
 20
44.6079
 10
11.825
 20
44.725
 10
11.8365
 20
44.8421
 10
11.8707
 20
44.9546
 10
11.9261
 20
45.0583
 10
12.0007
 20
45.1493
 10
12.0917
 20
45.2239
 10
12.1954
 20
45.2793
  0
LWPOLYLINE
  5
A1
330
17
100
AcDbEntity
  8
CUT
100
AcDbPolyline
 90
76
 70
1
 10
-6.7421
 20
45.3135
 10
-6.625
 20
45.325
 10
-6.5079
 20
45.3135
 10
-6.3954
 20
45.2793
 10
-6.2917
 20
45.2239
 10
-6.2007
 20
45.1493
 10
-6.1398
 20
45.075
 10
6.1398
 20
45.075
 10
6.2007
 20
45.1493
 10
6.2917
 20
45.2239
 10
6.3954
 20
45.2793
 10
6.5079
 20
45.3135
 10
6.625
 20
45.325
 10
6.7421
 20
45.3135
 10
6.8546
 20
45.2793
 10
6.9583
 20
45.2239
 10
7.0493
 20
45.1493
 10
7.1239
 20
45.0583
 10
7.1793
 20
44.9546
 10
7.2135
 20
44.8421
 10
7.225
 20
44.725
 10
7.2135
 20
44.6079
 10
7.1793
 20
44.4954
 10
7.1239
 20
44.3917
 10
7.0493
 20
44.3007
 10
6.975
 20
44.2398
 10
6.975
 20
31.9602
 10
7.0493
 20
31.8993
 10
7.1239
 20
31.8083
 10
7.1793
 20
31.7046
 10
7.2135
 20
31.5921
 10
7.225
 20
31.475
 10
7.2135
 20
31.3579
 10
7.1793
 20
31.2454
 10
7.1239
 20
31.1417
 10
7.0493
 20
31.0507
 10
6.9583
 20
30.9761
 10
6.8546
 20
30.9207
 10
6.7421
 20
30.8865
 10
6.625
 20
30.875
 10
6.5079
 20
30.8865
 10
6.3954
 20
30.9207
 10
6.2917
 20
30.9761
 10
6.2007
 20
31.0507
 10
6.1398
 20
31.125
 10
-6.1398
 20
31.125
 10
-6.2007
 20
31.0507
 10
-6.2917
 20
30.9761
 10
-6.3954
 20
30.9207
 10
-6.5079
 20
30.8865
 10
-6.625
 20
30.875
 10
-6.7421
 20
30.8865
 10
-6.8546
 20
30.9207
 10
-6.9583
 20
30.9761
 10
-7.0493
 20
31.0507
 10
-7.1239
 20
31.1417
 10
-7.1793
 20
31.2454
 10
-7.2135
 20
31.3579
 10
-7.225
 20
31.475
 10
-7.2135
 20
31.5921
 10
-7.1793
 20
31.7046
 10
-7.1239
 20
31.8083
 10
-7.0493
 20
31.8993
 10
-6.975
 20
31.9602
 10
-6.975
 20
44.2398
 10
-7.0493
 20
44.3007
 10
-7.1239
 20
44.3917
 10
-7.1793
 20
44.4954
 10
-7.2135
 20
44.6079
 10
-7.225
 20
44.725
 10
-7.2135
 20
44.8421
 10
-7.1793
 20
44.9546
 10
-7.1239
 20
45.0583
 10
-7.0493
 20
45.1493
 10
-6.9583
 20
45.2239
 10
-6.8546
 20
45.2793
  0
LWPOLYLINE
  5
A2
330
17
100
AcDbEntity
  8
CUT
100
AcDbPolyline
 90
76
 70
1
 10
-25.7171
 20
26.1885
 10
-25.6
 20
26.2
 10
-25.4829
 20
26.1885
 10
-25.3704
 20
26.1543
 10
-25.2667
 20
26.0989
 10
-25.1757
 20
26.0243
 10
-25.1148
 20
25.95
 10
-12.9852
 20
25.95
 10
-12.9243
 20
26.0243
 10
-12.8333
 20
26.0989
 10
-12.7296
 20
26.1543
 10
-12.6171
 20
26.1885
 10
-12.5
 20
26.2
 10
-12.3829
 20
26.1885
 10
-12.2704
 20
26.1543
 10
-12.1667
 20
26.0989
 10
-12.0757
 20
26.0243
 10
-12.0011
 20
25.9333
 10
-11.9457
 20
25.8296
 10
-11.9115
 20
25.7171
 10
-11.9
 20
25.6
 10
-11.9115
 20
25.4829
 10
-11.9457
 20
25.3704
 10
-12.0011
 20
25.2667
 10
-12.0757
 20
25.1757
 10
-12.15
 20
25.1148
 10
-12.15
 20
12.9852
 10
-12.0757
 20
12.9243
 10
-12.0011
 20
12.8333
 10
-11.9457
 20
12.7296
 10
-11.9115
 20
12.6171
 10
-11.9
 20
12.5
 10
-11.9115
 20
12.3829
 10
-11.9457
 20
12.2704
 10
-12.0011
 20
12.1667
 10
-12.0757
 20
12.0757
 10
-12.1667
 20
12.0011
 10
-12.2704
 20
11.9457
 10
-12.3829
 20
11.9115
 10
-12.5
 20
11.9
 10
-12.6171
 20
11.9115
 10
-12.7296
 20
11.9457
 10
-12.8333
 20
12.0011
 10
-12.9243
 20
12.0757
 10
-12.9852
 20
12.15
 10
-25.1148
 20
12.15
 10
-25.1757
 20
12.0757
 10
-25.2667
 20
12.0011
 10
-25.3704
 20
11.9457
 10
-25.4829
 20
11.9115
 10
-25.6
 20
11.9
 10
-25.7171
 20
11.9115
 10
-25.8296
 20
11.9457
 10
-25.9333
 20
12.0011
 10
-26.0243
 20
12.0757
 10
-26.0989
 20
12.1667
 10
-26.1543
 20
12.2704
 10
-26.1885
 20
12.3829
 10
-26.2
 20
12.5
 10
-26.1885
 20
12.6171
 10
-26.1543
 20
12.7296
 10
-26.0989
 20
12.8333
 10
-26.0243
 20
12.9243
 10
-25.95
 20
12.9852
 10
-25.95
 20
25.1148
 10
-26.0243
 20
25.1757
 10
-26.0989
 20
25.2667
 10
-26.1543
 20
25.3704
 10
-26.1885
 20
25.4829
 10
-26.2
 20
25.6
 10
-26.1885
 20
25.7171
 10
-26.1543
 20
25.8296
 10
-26.0989
 20
25.9333
 10
-26.0243
 20
26.0243
 10
-25.9333
 20
26.0989
 10
-25.8296
 20
26.1543
  0
LWPOLYLINE
  5
A3
330
17
100
AcDbEntity
  8
CUT
100
AcDbPolyline
 90
76
 70
1
 10
12.3829
 20
26.1885
 10
12.5
 20
26.2
 10
12.6171
 20
26.1885
 10
12.7296
 20
26.1543
 10
12.8333
 20
26.0989
 10
12.9243
 20
26.0243
 10
12.9852
 20
25.95
 10
25.1148
 20
25.95
 10
25.1757
 20
26.0243
 10
25.2667
 20
26.0989
 10
25.3704
 20
26.1543
 10
25.4829
 20
26.1885
 10
25.6
 20
26.2
 10
25.7171
 20
26.1885
 10
25.8296
 20
26.1543
 10
25.9333
 20
26.0989
 10
26.0243
 20
26.0243
 10
26.0989
 20
25.9333
 10
26.1543
 20
25.8296
 10
26.1885
 20
25.7171
 10
26.2
 20
25.6
 10
26.1885
 20
25.4829
 10
26.1543
 20
25.3704
 10
26.0989
 20
25.2667
 10
26.0243
 20
25.1757
 10
25.95
 20
25.1148
 10
25.95
 20
12.9852
 10
26.0243
 20
12.9243
 10
26.0989
 20
12.8333
 10
26.1543
 20
12.7296
 10
26.1885
 20
12.6171
 10
26.2
 20
12.5
 10
26.1885
 20
12.3829
 10
26.1543
 20
12.2704
 10
26.0989
 20
12.1667
 10
26.0243
 20
12.0757
 10
25.9333
 20
12.0011
 10
25.8296
 20
11.9457
 10
25.7171
 20
11.9115
 10
25.6
 20
11.9
 10
25.4829
 20
11.9115
 10
25.3704
 20
11.9457
 10
25.2667
 20
12.0011
 10
25.1757
 20
12.0757
 10
25.1148
 20
12.15
 10
12.9852
 20
12.15
 10
12.9243
 20
12.0757
 10
12.8333
 20
12.0011
 10
12.7296
 20
11.9457
 10
12.6171
 20
11.9115
 10
12.5
 20
11.9
 10
12.3829
 20
11.9115
 10
12.2704
 20
11.9457
 10
12.1667
 20
12.0011
 10
12.0757
 20
12.0757
 10
12.0011
 20
12.1667
 10
11.9457
 20
12.2704
 10
11.9115
 20
12.3829
 10
11.9
 20
12.5
 10
11.9115
 20
12.6171
 10
11.9457
 20
12.7296
 10
12.0011
 20
12.8333
 10
12.0757
 20
12.9243
 10
12.15
 20
12.9852
 10
12.15
 20
25.1148
 10
12.0757
 20
25.1757
 10
12.0011
 20
25.2667
 10
11.9457
 20
25.3704
 10
11.9115
 20
25.4829
 10
11.9
 20
25.6
 10
11.9115
 20
25.7171
 10
11.9457
 20
25.8296
 10
12.0011
 20
25.9333
 10
12.0757
 20
26.0243
 10
12.1667
 20
26.0989
 10
12.2704
 20
26.1543
  0
LWPOLYLINE
  5
A4
330
17
100
AcDbEntity
  8
CUT
100
AcDbPolyline
 90
76
 70
1
 10
-6.6671
 20
26.1885
 10
-6.55
 20
26.2
 10
-6.4329
 20
26.1885
 10
-6.3204
 20
26.1543
 10
-6.2167
 20
26.0989
 10
-6.1257
 20
26.0243
 10
-6.0648
 20
25.95
 10
6.0648
 20
25.95
 10
6.1257
 20
26.0243
 10
6.2167
 20
26.0989
 10
6.3204
 20
26.1543
 10
6.4329
 20
26.1885
 10
6.55
 20
26.2
 10
6.6671
 20
26.1885
 10
6.7796
 20
26.1543
 10
6.8833
 20
26.0989
 10
6.9743
 20
26.0243
 10
7.0489
 20
25.9333
 10
7.1043
 20
25.8296
 10
7.1385
 20
25.7171
 10
7.15
 20
25.6
 10
7.1385
 20
25.4829
 10
7.1043
 20
25.3704
 10
7.0489
 20
25.2667
 10
6.9743
 20
25.1757
 10
6.9
 20
25.1148
 10
6.9
 20
12.9852
 10
6.9743
 20
12.9243
 10
7.0489
 20
12.8333
 10
7.1043
 20
12.7296
 10
7.1385
 20
12.6171
 10
7.15
 20
12.5
 10
7.1385
 20
12.3829
 10
7.1043
 20
12.2704
 10
7.0489
 20
12.1667
 10
6.9743
 20
12.0757
 10
6.8833
 20
12.0011
 10
6.7796
 20
11.9457
 10
6.6671
 20
11.9115
 10
6.55
 20
11.9
 10
6.4329
 20
11.9115
 10
6.3204
 20
11.9457
 10
6.2167
 20
12.0011
 10
6.1257
 20
12.0757
 10
6.0648
 20
12.15
 10
-6.0648
 20
12.15
 10
-6.1257
 20
12.0757
 10
-6.2167
 20
12.0011
 10
-6.3204
 20
11.9457
 10
-6.4329
 20
11.9115
 10
-6.55
 20
11.9
 10
-6.6671
 20
11.9115
 10
-6.7796
 20
11.9457
 10
-6.8833
 20
12.0011
 10
-6.9743
 20
12.0757
 10
-7.0489
 20
12.1667
 10
-7.1043
 20
12.2704
 10
-7.1385
 20
12.3829
 10
-7.15
 20
12.5
 10
-7.1385
 20
12.6171
 10
-7.1043
 20
12.7296
 10
-7.0489
 20
12.8333
 10
-6.9743
 20
12.9243
 10
-6.9
 20
12.9852
 10
-6.9
 20
25.1148
 10
-6.9743
 20
25.1757
 10
-7.0489
 20
25.2667
 10
-7.1043
 20
25.3704
 10
-7.1385
 20
25.4829
 10
-7.15
 20
25.6
 10
-7.1385
 20
25.7171
 10
-7.1043
 20
25.8296
 10
-7.0489
 20
25.9333
 10
-6.9743
 20
26.0243
 10
-6.8833
 20
26.0989
 10
-6.7796
 20
26.1543
  0
LWPOLYLINE
  5
A5
330
17
100
AcDbEntity
  8
CUT
100
AcDbPolyline
 90
100
 70
1
 10
-6.8049
 20
7.9808
 10
-6.6173
 20
7.9239
 10
-6.4444
 20
7.8315
 10
-6.2929
 20
7.7071
 10
-6.1685
 20
7.5556
 10
-6.0761
 20
7.3827
 10
-6.0192
 20
7.1951
 10
-6.0
 20
7.0
 10
6.0
 20
7.0
 10
6.0192
 20
7.1951
 10
6.0761
 20
7.3827
 10
6.1685
 20
7.5556
 10
6.2929
 20
7.7071
 10
6.4444
 20
7.8315
 10
6.6173
 20
7.9239
 10
6.8049
 20
7.9808
 10
7.0
 20
8.0
 10
7.1951
 20
7.9808
 10
7.3827
 20
7.9239
 10
7.5556
 20
7.8315
 10
7.7071
 20
7.7071
 10
7.8315
 20
7.5556
 10
7.9239
 20
7.3827
 10
7.9808
 20
7.1951
 10
8.0
 20
7.0
 10
7.9808
 20
6.8049
 10
7.9239
 20
6.6173
 10
7.8315
 20
6.4444
 10
7.7071
 20
6.2929
 10
7.5556
 20
6.1685
 10
7.3827
 20
6.0761
 10
7.1951
 20
6.0192
 10
7.0
 20
6.0
 10
7.0
 20
-6.0
 10
7.1951
 20
-6.0192
 10
7.3827
 20
-6.0761
 10
7.5556
 20
-6.1685
 10
7.7071
 20
-6.2929
 10
7.8315
 20
-6.4444
 10
7.9239
 20
-6.6173
 10
7.9808
 20
-6.8049
 10
8.0
 20
-7.0
 10
7.9808
 20
-7.1951
 10
7.9239
 20
-7.3827
 10
7.8315
 20
-7.5556
 10
7.7071
 20
-7.7071
 10
7.5556
 20
-7.8315
 10
7.3827
 20
-7.9239
 10
7.1951
 20
-7.9808
 10
7.0
 20
-8.0
 10
6.8049
 20
-7.9808
 10
6.6173
 20
-7.9239
 10
6.4444
 20
-7.8315
 10
6.2929
 20
-7.7071
 10
6.1685
 20
-7.5556
 10
6.0761
 20
-7.3827
 10
6.0192
 20
-7.1951
 10
6.0
 20
-7.0
 10
-6.0
 20
-7.0
 10
-6.0192
 20
-7.1951
 10
-6.0761
 20
-7.3827
 10
-6.1685
 20
-7.5556
 10
-6.2929
 20
-7.7071
 10
-6.4444
 20
-7.8315
 10
-6.6173
 20
-7.9239
 10
-6.8049
 20
-7.9808
 10
-7.0
 20
-8.0
 10
-7.1951
 20
-7.9808
 10
-7.3827
 20
-7.9239
 10
-7.5556
 20
-7.8315
 10
-7.7071
 20
-7.7071
 10
-7.8315
 20
-7.5556
 10
-7.9239
 20
-7.3827
 10
-7.9808
 20
-7.1951
 10
-8.0
 20
-7.0
 10
-7.9808
 20
-6.8049
 10
-7.9239
 20
-6.6173
 10
-7.8315
 20
-6.4444
 10
-7.7071
 20
-6.2929
 10
-7.5556
 20
-6.1685
 10
-7.3827
 20
-6.0761
 10
-7.1951
 20
-6.0192
 10
-7.0
 20
-6.0
 10
-7.0
 20
6.0
 10
-7.1951
 20
6.0192
 10
-7.3827
 20
6.0761
 10
-7.5556
 20
6.1685
 10
-7.7071
 20
6.2929
 10
-7.8315
 20
6.4444
 10
-7.9239
 20
6.6173
 10
-7.9808
 20
6.8049
 10
-8.0
 20
7.0
 10
-7.9808
 20
7.1951
 10
-7.9239
 20
7.3827
 10
-7.8315
 20
7.5556
 10
-7.7071
 20
7.7071
 10
-7.5556
 20
7.8315
 10
-7.3827
 20
7.9239
 10
-7.1951
 20
7.9808
 10
-7.0
 20
8.0
  0
LWPOLYLINE
  5
A6
330
17
100
AcDbEntity
  8
CUT
100
AcDbPolyline
 90
100
 70
1
 10
12.4577
 20
7.8989
 10
12.6306
 20
7.8065
 10
12.7821
 20
7.6821
 10
12.9065
 20
7.5306
 10
12.9989
 20
7.3577
 10
13.0558
 20
7.1701
 10
13.075
 20
6.975
 10
25.025
 20
6.975
 10
25.0442
 20
7.1701
 10
25.1011
 20
7.3577
 10
25.1935
 20
7.5306
 10
25.3179
 20
7.6821
 10
25.4694
 20
7.8065
 10
25.6423
 20
7.8989
 10
25.8299
 20
7.9558
 10
26.025
 20
7.975
 10
26.2201
 20
7.9558
 10
26.4077
 20
7.8989
 10
26.5806
 20
7.8065
 10
26.7321
 20
7.6821
 10
26.8565
 20
7.5306
 10
26.9489
 20
7.3577
 10
27.0058
 20
7.1701
 10
27.025
 20
6.975
 10
27.0058
 20
6.7799
 10
26.9489
 20
6.5923
 10
26.8565
 20
6.4194
 10
26.7321
 20
6.2679
 10
26.5806
 20
6.1435
 10
26.4077
 20
6.0511
 10
26.2201
 20
5.9942
 10
26.025
 20
5.975
 10
26.025
 20
-5.975
 10
26.2201
 20
-5.9942
 10
26.4077
 20
-6.0511
 10
26.5806
 20
-6.1435
 10
26.7321
 20
-6.2679
 10
26.8565
 20
-6.4194
 10
26.9489
 20
-6.5923
 10
27.0058
 20
-6.7799
 10
27.025
 20
-6.975
 10
27.0058
 20
-7.1701
 10
26.9489
 20
-7.3577
 10
26.8565
 20
-7.5306
 10
26.7321
 20
-7.6821
 10
26.5806
 20
-7.8065
 10
26.4077
 20
-7.8989
 10
26.2201
 20
-7.9558
 10
26.025
 20
-7.975
 10
25.8299
 20
-7.9558
 10
25.6423
 20
-7.8989
 10
25.4694
 20
-7.8065
 10
25.3179
 20
-7.6821
 10
25.1935
 20
-7.5306
 10
25.1011
 20
-7.3577
 10
25.0442
 20
-7.1701
 10
25.025
 20
-6.975
 10
13.075
 20
-6.975
 10
13.0558
 20
-7.1701
 10
12.9989
 20
-7.3577
 10
12.9065
 20
-7.5306
 10
12.7821
 20
-7.6821
 10
12.6306
 20
-7.8065
 10
12.4577
 20
-7.8989
 10
12.2701
 20
-7.9558
 10
12.075
 20
-7.975
 10
11.8799
 20
-7.9558
 10
11.6923
 20
-7.8989
 10
11.5194
 20
-7.8065
 10
11.3679
 20
-7.6821
 10
11.2435
 20
-7.5306
 10
11.1511
 20
-7.3577
 10
11.0942
 20
-7.1701
 10
11.075
 20
-6.975
 10
11.0942
 20
-6.7799
 10
11.1511
 20
-6.5923
 10
11.2435
 20
-6.4194
 10
11.3679
 20
-6.2679
 10
11.5194
 20
-6.1435
 10
11.6923
 20
-6.0511
 10
11.8799
 20
-5.9942
 10
12.075
 20
-5.975
 10
12.075
 20
5.975
 10
11.8799
 20
5.9942
 10
11.6923
 20
6.0511
 10
11.5194
 20
6.1435
 10
11.3679
 20
6.2679
 10
11.2435
 20
6.4194
 10
11.1511
 20
6.5923
 10
11.0942
 20
6.7799
 10
11.075
 20
6.975
 10
11.0942
 20
7.1701
 10
11.1511
 20
7.3577
 10
11.2435
 20
7.5306
 10
11.3679
 20
7.6821
 10
11.5194
 20
7.8065
 10
11.6923
 20
7.8989
 10
11.8799
 20
7.9558
 10
12.075
 20
7.975
 10
12.2701
 20
7.9558
  0
LWPOLYLINE
  5
A7
330
17
100
AcDbEntity
  8
CUT
100
AcDbPolyline
 90
36
 70
1
 10
14.8131
 20
-10.9087
 10
14.8593
 20
-10.8222
 10
14.9972
 20
-10.6843
 10
15.1775
 20
-10.6096
 10
15.275
 20
-10.6
 10
17.9725
 20
-10.6096
 10
18.1528
 20
-10.6843
 10
18.2907
 20
-10.8222
 10
18.3369
 20
-10.9087
 10
18.375
 20
-11.1
 10
18.375
 20
-15.25
 10
19.225
 20
-15.25
 10
19.4163
 20
-15.2881
 10
19.5786
 20
-15.3964
 10
19.6407
 20
-15.4722
 10
19.6869
 20
-15.5587
 10
19.725
 20
-15.75
 10
19.725
 20
-21.6
 10
19.6869
 20
-21.7913
 10
19.6407
 20
-21.8778
 10
19.5786
 20
-21.9536
 10
19.4163
 20
-22.0619
 10
19.225
 20
-22.1
 10
13.925
 20
-22.1
 10
13.7337
 20
-22.0619
 10
13.6472
 20
-22.0157
 10
13.5093
 20
-21.8778
 10
13.4631
 20
-21.7913
 10
13.425
 20
-21.6
 10
13.4346
 20
-15.6525
 10
13.5093
 20
-15.4722
 10
13.5714
 20
-15.3964
 10
13.7337
 20
-15.2881
 10
13.8275
 20
-15.2596
 10
14.775
 20
-15.25
 10
14.775
 20
-11.1
  0
LWPOLYLINE
  5
A8
330
17
100
AcDbEntity
  8
CUT
100
AcDbPolyline
 90
76
 70
1
 10
-6.7671
 20
-11.8115
 10
-6.65
 20
-11.8
 10
-6.5329
 20
-11.8115
 10
-6.4204
 20
-11.8457
 10
-6.3167
 20
-11.9011
 10
-6.2257
 20
-11.9757
 10
-6.1648
 20
-12.05
 10
6.1648
 20
-12.05
 10
6.2257
 20
-11.9757
 10
6.3167
 20
-11.9011
 10
6.4204
 20
-11.8457
 10
6.5329
 20
-11.8115
 10
6.65
 20
-11.8
 10
6.7671
 20
-11.8115
 10
6.8796
 20
-11.8457
 10
6.9833
 20
-11.9011
 10
7.0743
 20
-11.9757
 10
7.1489
 20
-12.0667
 10
7.2043
 20
-12.1704
 10
7.2385
 20
-12.2829
 10
7.25
 20
-12.4
 10
7.2385
 20
-12.5171
 10
7.2043
 20
-12.6296
 10
7.1489
 20
-12.7333
 10
7.0743
 20
-12.8243
 10
7.0
 20
-12.8852
 10
7.0
 20
-25.2148
 10
7.0743
 20
-25.2757
 10
7.1489
 20
-25.3667
 10
7.2043
 20
-25.4704
 10
7.2385
 20
-25.5829
 10
7.25
 20
-25.7
 10
7.2385
 20
-25.8171
 10
7.2043
 20
-25.9296
 10
7.1489
 20
-26.0333
 10
7.0743
 20
-26.1243
 10
6.9833
 20
-26.1989
 10
6.8796
 20
-26.2543
 10
6.7671
 20
-26.2885
 10
6.65
 20
-26.3
 10
6.5329
 20
-26.2885
 10
6.4204
 20
-26.2543
 10
6.3167
 20
-26.1989
 10
6.2257
 20
-26.1243
 10
6.1648
 20
-26.05
 10
-6.1648
 20
-26.05
 10
-6.2257
 20
-26.1243
 10
-6.3167
 20
-26.1989
 10
-6.4204
 20
-26.2543
 10
-6.5329
 20
-26.2885
 10
-6.65
 20
-26.3
 10
-6.7671
 20
-26.2885
 10
-6.8796
 20
-26.2543
 10
-6.9833
 20
-26.1989
 10
-7.0743
 20
-26.1243
 10
-7.1489
 20
-26.0333
 10
-7.2043
 20
-25.9296
 10
-7.2385
 20
-25.8171
 10
-7.25
 20
-25.7
 10
-7.2385
 20
-25.5829
 10
-7.2043
 20
-25.4704
 10
-7.1489
 20
-25.3667
 10
-7.0743
 20
-25.2757
 10
-7.0
 20
-25.2148
 10
-7.0
 20
-12.8852
 10
-7.0743
 20
-12.8243
 10
-7.1489
 20
-12.7333
 10
-7.2043
 20
-12.6296
 10
-7.2385
 20
-12.5171
 10
-7.25
 20
-12.4
 10
-7.2385
 20
-12.2829
 10
-7.2043
 20
-12.1704
 10
-7.1489
 20
-12.0667
 10
-7.0743
 20
-11.9757
 10
-6.9833
 20
-11.9011
 10
-6.8796
 20
-11.8457
  0
LWPOLYLINE
  5
A9
330
17
100
AcDbEntity
  8
CUT
100
AcDbPolyline
 90
37
 70
1
 10
-10.8222
 20
-33.9093
 10
-10.6843
 20
-34.0472
 10
-10.6381
 20
-34.1337
 10
-10.6
 20
-34.325
 10
-10.6
 20
-36.925
 10
-10.6096
 20
-37.0225
 10
-10.6843
 20
-37.2028
 10
-10.8222
 20
-37.3407
 10
-10.9087
 20
-37.3869
 10
-11.1
 20
-37.425
 10
-15.25
 20
-37.425
 10
-15.25
 20
-38.275
 10
-15.2881
 20
-38.4663
 10
-15.3964
 20
-38.6286
 10
-15.4722
 20
-38.6907
 10
-15.5587
 20
-38.7369
 10
-15.75
 20
-38.775
 10
-21.6
 20
-38.775
 10
-21.7913
 20
-38.7369
 10
-21.8778
 20
-38.6907
 10
-21.9536
 20
-38.6286
 10
-22.0619
 20
-38.4663
 10
-22.1
 20
-38.275
 10
-22.1
 20
-32.975
 10
-22.0619
 20
-32.7837
 10
-22.0157
 20
-32.6972
 10
-21.9536
 20
-32.6214
 10
-21.7913
 20
-32.5131
 10
-21.6
 20
-32.475
 10
-15.6525
 20
-32.4846
 10
-15.5587
 20
-32.5131
 10
-15.3964
 20
-32.6214
 10
-15.2881
 20
-32.7837
 10
-15.2596
 20
-32.8775
 10
-15.25
 20
-33.825
 10
-11.1
 20
-33.825
 10
-11.0025
 20
-33.8346
  0
LWPOLYLINE
  5
AA
330
17
100
AcDbEntity
  8
CUT
100
AcDbPolyline
 90
76
 70
1
 10
-6.7671
 20
-30.8615
 10
-6.65
 20
-30.85
 10
-6.5329
 20
-30.8615
 10
-6.4204
 20
-30.8957
 10
-6.3167
 20
-30.9511
 10
-6.2257
 20
-31.0257
 10
-6.1648
 20
-31.1
 10
6.1648
 20
-31.1
 10
6.2257
 20
-31.0257
 10
6.3167
 20
-30.9511
 10
6.4204
 20
-30.8957
 10
6.5329
 20
-30.8615
 10
6.65
 20
-30.85
 10
6.7671
 20
-30.8615
 10
6.8796
 20
-30.8957
 10
6.9833
 20
-30.9511
 10
7.0743
 20
-31.0257
 10
7.1489
 20
-31.1167
 10
7.2043
 20
-31.2204
 10
7.2385
 20
-31.3329
 10
7.25
 20
-31.45
 10
7.2385
 20
-31.5671
 10
7.2043
 20
-31.6796
 10
7.1489
 20
-31.7833
 10
7.0743
 20
-31.8743
 10
7.0
 20
-31.9352
 10
7.0
 20
-44.2648
 10
7.0743
 20
-44.3257
 10
7.1489
 20
-44.4167
 10
7.2043
 20
-44.5204
 10
7.2385
 20
-44.6329
 10
7.25
 20
-44.75
 10
7.2385
 20
-44.8671
 10
7.2043
 20
-44.9796
 10
7.1489
 20
-45.0833
 10
7.0743
 20
-45.1743
 10
6.9833
 20
-45.2489
 10
6.8796
 20
-45.3043
 10
6.7671
 20
-45.3385
 10
6.65
 20
-45.35
 10
6.5329
 20
-45.3385
 10
6.4204
 20
-45.3043
 10
6.3167
 20
-45.2489
 10
6.2257
 20
-45.1743
 10
6.1648
 20
-45.1
 10
-6.1648
 20
-45.1
 10
-6.2257
 20
-45.1743
 10
-6.3167
 20
-45.2489
 10
-6.4204
 20
-45.3043
 10
-6.5329
 20
-45.3385
 10
-6.65
 20
-45.35
 10
-6.7671
 20
-45.3385
 10
-6.8796
 20
-45.3043
 10
-6.9833
 20
-45.2489
 10
-7.0743
 20
-45.1743
 10
-7.1489
 20
-45.0833
 10
-7.2043
 20
-44.9796
 10
-7.2385
 20
-44.8671
 10
-7.25
 20
-44.75
 10
-7.2385
 20
-44.6329
 10
-7.2043
 20
-44.5204
 10
-7.1489
 20
-44.4167
 10
-7.0743
 20
-44.3257
 10
-7.0
 20
-44.2648
 10
-7.0
 20
-31.9352
 10
-7.0743
 20
-31.8743
 10
-7.1489
 20
-31.7833
 10
-7.2043
 20
-31.6796
 10
-7.2385
 20
-31.5671
 10
-7.25
 20
-31.45
 10
-7.2385
 20
-31.3329
 10
-7.2043
 20
-31.2204
 10
-7.1489
 20
-31.1167
 10
-7.0743
 20
-31.0257
 10
-6.9833
 20
-30.9511
 10
-6.8796
 20
-30.8957
  0
LWPOLYLINE
  5
AB
330
17
100
AcDbEntity
  8
CUT
100
AcDbPolyline
 90
76
 70
1
 10
12.2829
 20
-30.8615
 10
12.4
 20
-30.85
 10
12.5171
 20
-30.8615
 10
12.6296
 20
-30.8957
 10
12.7333
 20
-30.9511
 10
12.8243
 20
-31.0257
 10
12.8852
 20
-31.1
 10
25.2148
 20
-31.1
 10
25.2757
 20
-31.0257
 10
25.3667
 20
-30.9511
 10
25.4704
 20
-30.8957
 10
25.5829
 20
-30.8615
 10
25.7
 20
-30.85
 10
25.8171
 20
-30.8615
 10
25.9296
 20
-30.8957
 10
26.0333
 20
-30.9511
 10
26.1243
 20
-31.0257
 10
26.1989
 20
-31.1167
 10
26.2543
 20
-31.2204
 10
26.2885
 20
-31.3329
 10
26.3
 20
-31.45
 10
26.2885
 20
-31.5671
 10
26.2543
 20
-31.6796
 10
26.1989
 20
-31.7833
 10
26.1243
 20
-31.8743
 10
26.05
 20
-31.9352
 10
26.05
 20
-44.2648
 10
26.1243
 20
-44.3257
 10
26.1989
 20
-44.4167
 10
26.2543
 20
-44.5204
 10
26.2885
 20
-44.6329
 10
26.3
 20
-44.75
 10
26.2885
 20
-44.8671
 10
26.2543
 20
-44.9796
 10
26.1989
 20
-45.0833
 10
26.1243
 20
-45.1743
 10
26.0333
 20
-45.2489
 10
25.9296
 20
-45.3043
 10
25.8171
 20
-45.3385
 10
25.7
 20
-45.35
 10
25.5829
 20
-45.3385
 10
25.4704
 20
-45.3043
 10
25.3667
 20
-45.2489
 10
25.2757
 20
-45.1743
 10
25.2148
 20
-45.1
 10
12.8852
 20
-45.1
 10
12.8243
 20
-45.1743
 10
12.7333
 20
-45.2489
 10
12.6296
 20
-45.3043
 10
12.5171
 20
-45.3385
 10
12.4
 20
-45.35
 10
12.2829
 20
-45.3385
 10
12.1704
 20
-45.3043
 10
12.0667
 20
-45.2489
 10
11.9757
 20
-45.1743
 10
11.9011
 20
-45.0833
 10
11.8457
 20
-44.9796
 10
11.8115
 20
-44.8671
 10
11.8
 20
-44.75
 10
11.8115
 20
-44.6329
 10
11.8457
 20
-44.5204
 10
11.9011
 20
-44.4167
 10
11.9757
 20
-44.3257
 10
12.05
 20
-44.2648
 10
12.05
 20
-31.9352
 10
11.9757
 20
-31.8743
 10
11.9011
 20
-31.7833
 10
11.8457
 20
-31.6796
 10
11.8115
 20
-31.5671
 10
11.8
 20
-31.45
 10
11.8115
 20
-31.3329
 10
11.8457
 20
-31.2204
 10
11.9011
 20
-31.1167
 10
11.9757
 20
-31.0257
 10
12.0667
 20
-30.9511
 10
12.1704
 20
-30.8957
  0
LWPOLYLINE
  5
AC
330
17
100
AcDbEntity
  8
CUT
100
AcDbPolyline
 90
76
 70
1
 10
-12.0011
 20
-40.7417
 10
-11.9457
 20
-40.8454
 10
-11.9115
 20
-40.9579
 10
-11.9
 20
-41.075
 10
-11.9115
 20
-41.1921
 10
-11.9457
 20
-41.3046
 10
-12.0011
 20
-41.4083
 10
-12.0757
 20
-41.4993
 10
-12.15
 20
-41.5602
 10
-12.15
 20
-53.6898
 10
-12.0757
 20
-53.7507
 10
-12.0011
 20
-53.8417
 10
-11.9457
 20
-53.9454
 10
-11.9115
 20
-54.0579
 10
-11.9
 20
-54.175
 10
-11.9115
 20
-54.2921
 10
-11.9457
 20
-54.4046
 10
-12.0011
 20
-54.5083
 10
-12.0757
 20
-54.5993
 10
-12.1667
 20
-54.6739
 10
-12.2704
 20
-54.7293
 10
-12.3829
 20
-54.7635
 10
-12.5
 20
-54.775
 10
-12.6171
 20
-54.7635
 10
-12.7296
 20
-54.7293
 10
-12.8333
 20
-54.6739
 10
-12.9243
 20
-54.5993
 10
-12.9852
 20
-54.525
 10
-25.1148
 20
-54.525
 10
-25.1757
 20
-54.5993
 10
-25.2667
 20
-54.6739
 10
-25.3704
 20
-54.7293
 10
-25.4829
 20
-54.7635
 10
-25.6
 20
-54.775
 10
-25.7171
 20
-54.7635
 10
-25.8296
 20
-54.7293
 10
-25.9333
 20
-54.6739
 10
-26.0243
 20
-54.5993
 10
-26.0989
 20
-54.5083
 10
-26.1543
 20
-54.4046
 10
-26.1885
 20
-54.2921
 10
-26.2
 20
-54.175
 10
-26.1885
 20
-54.0579
 10
-26.1543
 20
-53.9454
 10
-26.0989
 20
-53.8417
 10
-26.0243
 20
-53.7507
 10
-25.95
 20
-53.6898
 10
-25.95
 20
-41.5602
 10
-26.0243
 20
-41.4993
 10
-26.0989
 20
-41.4083
 10
-26.1543
 20
-41.3046
 10
-26.1885
 20
-41.1921
 10
-26.2
 20
-41.075
 10
-26.1885
 20
-40.9579
 10
-26.1543
 20
-40.8454
 10
-26.0989
 20
-40.7417
 10
-26.0243
 20
-40.6507
 10
-25.9333
 20
-40.5761
 10
-25.8296
 20
-40.5207
 10
-25.7171
 20
-40.4865
 10
-25.6
 20
-40.475
 10
-25.4829
 20
-40.4865
 10
-25.3704
 20
-40.5207
 10
-25.2667
 20
-40.5761
 10
-25.1757
 20
-40.6507
 10
-25.1148
 20
-40.725
 10
-12.9852
 20
-40.725
 10
-12.9243
 20
-40.6507
 10
-12.8333
 20
-40.5761
 10
-12.7296
 20
-40.5207
 10
-12.6171
 20
-40.4865
 10
-12.5
 20
-40.475
 10
-12.3829
 20
-40.4865
 10
-12.2704
 20
-40.5207
 10
-12.1667
 20
-40.5761
 10
-12.0757
 20
-40.6507
  0
LWPOLYLINE
  5
AD
330
17
100
AcDbEntity
  8
CUT
100
AcDbPolyline
 90
76
 70
1
 10
-6.7671
 20
-49.9115
 10
-6.65
 20
-49.9
 10
-6.5329
 20
-49.9115
 10
-6.4204
 20
-49.9457
 10
-6.3167
 20
-50.0011
 10
-6.2257
 20
-50.0757
 10
-6.1648
 20
-50.15
 10
6.1648
 20
-50.15
 10
6.2257
 20
-50.0757
 10
6.3167
 20
-50.0011
 10
6.4204
 20
-49.9457
 10
6.5329
 20
-49.9115
 10
6.65
 20
-49.9
 10
6.7671
 20
-49.9115
 10
6.8796
 20
-49.9457
 10
6.9833
 20
-50.0011
 10
7.0743
 20
-50.0757
 10
7.1489
 20
-50.1667
 10
7.2043
 20
-50.2704
 10
7.2385
 20
-50.3829
 10
7.25
 20
-50.5
 10
7.2385
 20
-50.6171
 10
7.2043
 20
-50.7296
 10
7.1489
 20
-50.8333
 10
7.0743
 20
-50.9243
 10
7.0
 20
-50.9852
 10
7.0
 20
-63.3148
 10
7.0743
 20
-63.3757
 10
7.1489
 20
-63.4667
 10
7.2043
 20
-63.5704
 10
7.2385
 20
-63.6829
 10
7.25
 20
-63.8
 10
7.2385
 20
-63.9171
 10
7.2043
 20
-64.0296
 10
7.1489
 20
-64.1333
 10
7.0743
 20
-64.2243
 10
6.9833
 20
-64.2989
 10
6.8796
 20
-64.3543
 10
6.7671
 20
-64.3885
 10
6.65
 20
-64.4
 10
6.5329
 20
-64.3885
 10
6.4204
 20
-64.3543
 10
6.3167
 20
-64.2989
 10
6.2257
 20
-64.2243
 10
6.1648
 20
-64.15
 10
-6.1648
 20
-64.15
 10
-6.2257
 20
-64.2243
 10
-6.3167
 20
-64.2989
 10
-6.4204
 20
-64.3543
 10
-6.5329
 20
-64.3885
 10
-6.65
 20
-64.4
 10
-6.7671
 20
-64.3885
 10
-6.8796
 20
-64.3543
 10
-6.9833
 20
-64.2989
 10
-7.0743
 20
-64.2243
 10
-7.1489
 20
-64.1333
 10
-7.2043
 20
-64.0296
 10
-7.2385
 20
-63.9171
 10
-7.25
 20
-63.8
 10
-7.2385
 20
-63.6829
 10
-7.2043
 20
-63.5704
 10
-7.1489
 20
-63.4667
 10
-7.0743
 20
-63.3757
 10
-7.0
 20
-63.3148
 10
-7.0
 20
-50.9852
 10
-7.0743
 20
-50.9243
 10
-7.1489
 20
-50.8333
 10
-7.2043
 20
-50.7296
 10
-7.2385
 20
-50.6171
 10
-7.25
 20
-50.5
 10
-7.2385
 20
-50.3829
 10
-7.2043
 20
-50.2704
 10
-7.1489
 20
-50.1667
 10
-7.0743
 20
-50.0757
 10
-6.9833
 20
-50.0011
 10
-6.8796
 20
-49.9457
  0
LWPOLYLINE
  5
AE
330
17
100
AcDbEntity
  8
CUT
100
AcDbPolyline
 90
76
 70
1
 10
12.2829
 20
-49.9115
 10
12.4
 20
-49.9
 10
12.5171
 20
-49.9115
 10
12.6296
 20
-49.9457
 10
12.7333
 20
-50.0011
 10
12.8243
 20
-50.0757
 10
12.8852
 20
-50.15
 10
25.2148
 20
-50.15
 10
25.2757
 20
-50.0757
 10
25.3667
 20
-50.0011
 10
25.4704
 20
-49.9457
 10
25.5829
 20
-49.9115
 10
25.7
 20
-49.9
 10
25.8171
 20
-49.9115
 10
25.9296
 20
-49.9457
 10
26.0333
 20
-50.0011
 10
26.1243
 20
-50.0757
 10
26.1989
 20
-50.1667
 10
26.2543
 20
-50.2704
 10
26.2885
 20
-50.3829
 10
26.3
 20
-50.5
 10
26.2885
 20
-50.6171
 10
26.2543
 20
-50.7296
 10
26.1989
 20
-50.8333
 10
26.1243
 20
-50.9243
 10
26.05
 20
-50.9852
 10
26.05
 20
-63.3148
 10
26.1243
 20
-63.3757
 10
26.1989
 20
-63.4667
 10
26.2543
 20
-63.5704
 10
26.2885
 20
-63.6829
 10
26.3
 20
-63.8
 10
26.2885
 20
-63.9171
 10
26.2543
 20
-64.0296
 10
26.1989
 20
-64.1333
 10
26.1243
 20
-64.2243
 10
26.0333
 20
-64.2989
 10
25.9296
 20
-64.3543
 10
25.8171
 20
-64.3885
 10
25.7
 20
-64.4
 10
25.5829
 20
-64.3885
 10
25.4704
 20
-64.3543
 10
25.3667
 20
-64.2989
 10
25.2757
 20
-64.2243
 10
25.2148
 20
-64.15
 10
12.8852
 20
-64.15
 10
12.8243
 20
-64.2243
 10
12.7333
 20
-64.2989
 10
12.6296
 20
-64.3543
 10
12.5171
 20
-64.3885
 10
12.4
 20
-64.4
 10
12.2829
 20
-64.3885
 10
12.1704
 20
-64.3543
 10
12.0667
 20
-64.2989
 10
11.9757
 20
-64.2243
 10
11.9011
 20
-64.1333
 10
11.8457
 20
-64.0296
 10
11.8115
 20
-63.9171
 10
11.8
 20
-63.8
 10
11.8115
 20
-63.6829
 10
11.8457
 20
-63.5704
 10
11.9011
 20
-63.4667
 10
11.9757
 20
-63.3757
 10
12.05
 20
-63.3148
 10
12.05
 20
-50.9852
 10
11.9757
 20
-50.9243
 10
11.9011
 20
-50.8333
 10
11.8457
 20
-50.7296
 10
11.8115
 20
-50.6171
 10
11.8
 20
-50.5
 10
11.8115
 20
-50.3829
 10
11.8457
 20
-50.2704
 10
11.9011
 20
-50.1667
 10
11.9757
 20
-50.0757
 10
12.0667
 20
-50.0011
 10
12.1704
 20
-49.9457
  0
LWPOLYLINE
  5
AF
330
17
100
AcDbEntity
  8
CUT
100
AcDbPolyline
 90
36
 70
1
 10
-10.9087
 20
-57.8631
 10
-10.8222
 20
-57.9093
 10
-10.6843
 20
-58.0472
 10
-10.6096
 20
-58.2275
 10
-10.6
 20
-58.325
 10
-10.6096
 20
-61.0225
 10
-10.6843
 20
-61.2028
 10
-10.8222
 20
-61.3407
 10
-10.9087
 20
-61.3869
 10
-11.1
 20
-61.425
 10
-15.25
 20
-61.425
 10
-15.25
 20
-62.275
 10
-15.2881
 20
-62.4663
 10
-15.3964
 20
-62.6286
 10
-15.4722
 20
-62.6907
 10
-15.5587
 20
-62.7369
 10
-15.75
 20
-62.775
 10
-21.6
 20
-62.775
 10
-21.7913
 20
-62.7369
 10
-21.8778
 20
-62.6907
 10
-21.9536
 20
-62.6286
 10
-22.0619
 20
-62.4663
 10
-22.1
 20
-62.275
 10
-22.1
 20
-56.975
 10
-22.0619
 20
-56.7837
 10
-22.0157
 20
-56.6972
 10
-21.9536
 20
-56.6214
 10
-21.7913
 20
-56.5131
 10
-21.6
 20
-56.475
 10
-15.6525
 20
-56.4846
 10
-15.5587
 20
-56.5131
 10
-15.3964
 20
-56.6214
 10
-15.2881
 20
-56.7837
 10
-15.2596
 20
-56.8775
 10
-15.25
 20
-57.825
 10
-11.1
 20
-57.825
  0
LWPOLYLINE
  5
B0
330
17
100
AcDbEntity
  8
CUT
100
AcDbPolyline
 90
32
 70
1
 10
70.6111
 20
70.9146
 10
70.7778
 20
70.7778
 10
70.9146
 20
70.6111
 10
71.0163
 20
70.421
 10
71.0789
 20
70.2146
 10
71.1
 20
70.0
 10
71.0789
 20
69.7854
 10
71.0163
 20
69.579
 10
70.9146
 20
69.3889
 10
70.7778
 20
69.2222
 10
70.6111
 20
69.0854
 10
70.421
 20
68.9837
 10
70.2146
 20
68.9211
 10
70.0
 20
68.9
 10
69.7854
 20
68.9211
 10
69.579
 20
68.9837
 10
69.3889
 20
69.0854
 10
69.2222
 20
69.2222
 10
69.0854
 20
69.3889
 10
68.9837
 20
69.579
 10
68.9211
 20
69.7854
 10
68.9
 20
70.0
 10
68.9211
 20
70.2146
 10
68.9837
 20
70.421
 10
69.0854
 20
70.6111
 10
69.2222
 20
70.7778
 10
69.3889
 20
70.9146
 10
69.579
 20
71.0163
 10
69.7854
 20
71.0789
 10
70.0
 20
71.1
 10
70.2146
 20
71.0789
 10
70.421
 20
71.0163
  0
LWPOLYLINE
  5
B1
330
17
100
AcDbEntity
  8
CUT
100
AcDbPolyline
 90
76
 70
1
 10
50.3829
 20
64.3885
 10
50.5
 20
64.4
 10
50.6171
 20
64.3885
 10
50.7296
 20
64.3543
 10
50.8333
 20
64.2989
 10
50.9243
 20
64.2243
 10
50.9852
 20
64.15
 10
63.3148
 20
64.15
 10
63.3757
 20
64.2243
 10
63.4667
 20
64.2989
 10
63.5704
 20
64.3543
 10
63.6829
 20
64.3885
 10
63.8
 20
64.4
 10
63.9171
 20
64.3885
 10
64.0296
 20
64.3543
 10
64.1333
 20
64.2989
 10
64.2243
 20
64.2243
 10
64.2989
 20
64.1333
 10
64.3543
 20
64.0296
 10
64.3885
 20
63.9171
 10
64.4
 20
63.8
 10
64.3885
 20
63.6829
 10
64.3543
 20
63.5704
 10
64.2989
 20
63.4667
 10
64.2243
 20
63.3757
 10
64.15
 20
63.3148
 10
64.15
 20
50.9852
 10
64.2243
 20
50.9243
 10
64.2989
 20
50.8333
 10
64.3543
 20
50.7296
 10
64.3885
 20
50.6171
 10
64.4
 20
50.5
 10
64.3885
 20
50.3829
 10
64.3543
 20
50.2704
 10
64.2989
 20
50.1667
 10
64.2243
 20
50.0757
 10
64.1333
 20
50.0011
 10
64.0296
 20
49.9457
 10
63.9171
 20
49.9115
 10
63.8
 20
49.9
 10
63.6829
 20
49.9115
 10
63.5704
 20
49.9457
 10
63.4667
 20
50.0011
 10
63.3757
 20
50.0757
 10
63.3148
 20
50.15
 10
50.9852
 20
50.15
 10
50.9243
 20
50.0757
 10
50.8333
 20
50.0011
 10
50.7296
 20
49.9457
 10
50.6171
 20
49.9115
 10
50.5
 20
49.9
 10
50.3829
 20
49.9115
 10
50.2704
 20
49.9457
 10
50.1667
 20
50.0011
 10
50.0757
 20
50.0757
 10
50.0011
 20
50.1667
 10
49.9457
 20
50.2704
 10
49.9115
 20
50.3829
 10
49.9
 20
50.5
 10
49.9115
 20
50.6171
 10
49.9457
 20
50.7296
 10
50.0011
 20
50.8333
 10
50.0757
 20
50.9243
 10
50.15
 20
50.9852
 10
50.15
 20
63.3148
 10
50.0757
 20
63.3757
 10
50.0011
 20
63.4667
 10
49.9457
 20
63.5704
 10
49.9115
 20
63.6829
 10
49.9
 20
63.8
 10
49.9115
 20
63.9171
 10
49.9457
 20
64.0296
 10
50.0011
 20
64.1333
 10
50.0757
 20
64.2243
 10
50.1667
 20
64.2989
 10
50.2704
 20
64.3543
  0
LWPOLYLINE
  5
B2
330
17
100
AcDbEntity
  8
CUT
100
AcDbPolyline
 90
76
 70
1
 10
31.3329
 20
64.3885
 10
31.45
 20
64.4
 10
31.5671
 20
64.3885
 10
31.6796
 20
64.3543
 10
31.7833
 20
64.2989
 10
31.8743
 20
64.2243
 10
31.9352
 20
64.15
 10
44.2648
 20
64.15
 10
44.3257
 20
64.2243
 10
44.4167
 20
64.2989
 10
44.5204
 20
64.3543
 10
44.6329
 20
64.3885
 10
44.75
 20
64.4
 10
44.8671
 20
64.3885
 10
44.9796
 20
64.3543
 10
45.0833
 20
64.2989
 10
45.1743
 20
64.2243
 10
45.2489
 20
64.1333
 10
45.3043
 20
64.0296
 10
45.3385
 20
63.9171
 10
45.35
 20
63.8
 10
45.3385
 20
63.6829
 10
45.3043
 20
63.5704
 10
45.2489
 20
63.4667
 10
45.1743
 20
63.3757
 10
45.1
 20
63.3148
 10
45.1
 20
50.9852
 10
45.1743
 20
50.9243
 10
45.2489
 20
50.8333
 10
45.3043
 20
50.7296
 10
45.3385
 20
50.6171
 10
45.35
 20
50.5
 10
45.3385
 20
50.3829
 10
45.3043
 20
50.2704
 10
45.2489
 20
50.1667
 10
45.1743
 20
50.0757
 10
45.0833
 20
50.0011
 10
44.9796
 20
49.9457
 10
44.8671
 20
49.9115
 10
44.75
 20
49.9
 10
44.6329
 20
49.9115
 10
44.5204
 20
49.9457
 10
44.4167
 20
50.0011
 10
44.3257
 20
50.0757
 10
44.2648
 20
50.15
 10
31.9352
 20
50.15
 10
31.8743
 20
50.0757
 10
31.7833
 20
50.0011
 10
31.6796
 20
49.9457
 10
31.5671
 20
49.9115
 10
31.45
 20
49.9
 10
31.3329
 20
49.9115
 10
31.2204
 20
49.9457
 10
31.1167
 20
50.0011
 10
31.0257
 20
50.0757
 10
30.9511
 20
50.1667
 10
30.8957
 20
50.2704
 10
30.8615
 20
50.3829
 10
30.85
 20
50.5
 10
30.8615
 20
50.6171
 10
30.8957
 20
50.7296
 10
30.9511
 20
50.8333
 10
31.0257
 20
50.9243
 10
31.1
 20
50.9852
 10
31.1
 20
63.3148
 10
31.0257
 20
63.3757
 10
30.9511
 20
63.4667
 10
30.8957
 20
63.5704
 10
30.8615
 20
63.6829
 10
30.85
 20
63.8
 10
30.8615
 20
63.9171
 10
30.8957
 20
64.0296
 10
30.9511
 20
64.1333
 10
31.0257
 20
64.2243
 10
31.1167
 20
64.2989
 10
31.2204
 20
64.3543
  0
LWPOLYLINE
  5
B3
330
17
100
AcDbEntity
  8
CUT
100
AcDbPolyline
 90
76
 70
1
 10
31.475
 20
45.325
 10
31.5921
 20
45.3135
 10
31.7046
 20
45.2793
 10
31.8083
 20
45.2239
 10
31.8993
 20
45.1493
 10
31.9602
 20
45.075
 10
44.2398
 20
45.075
 10
44.3007
 20
45.1493
 10
44.3917
 20
45.2239
 10
44.4954
 20
45.2793
 10
44.6079
 20
45.3135
 10
44.725
 20
45.325
 10
44.8421
 20
45.3135
 10
44.9546
 20
45.2793
 10
45.0583
 20
45.2239
 10
45.1493
 20
45.1493
 10
45.2239
 20
45.0583
 10
45.2793
 20
44.9546
 10
45.3135
 20
44.8421
 10
45.325
 20
44.725
 10
45.3135
 20
44.6079
 10
45.2793
 20
44.4954
 10
45.2239
 20
44.3917
 10
45.1493
 20
44.3007
 10
45.075
 20
44.2398
 10
45.075
 20
31.9602
 10
45.1493
 20
31.8993
 10
45.2239
 20
31.8083
 10
45.2793
 20
31.7046
 10
45.3135
 20
31.5921
 10
45.325
 20
31.475
 10
45.3135
 20
31.3579
 10
45.2793
 20
31.2454
 10
45.2239
 20
31.1417
 10
45.1493
 20
31.0507
 10
45.0583
 20
30.9761
 10
44.9546
 20
30.9207
 10
44.8421
 20
30.8865
 10
44.725
 20
30.875
 10
44.6079
 20
30.8865
 10
44.4954
 20
30.9207
 10
44.3917
 20
30.9761
 10
44.3007
 20
31.0507
 10
44.2398
 20
31.125
 10
31.9602
 20
31.125
 10
31.8993
 20
31.0507
 10
31.8083
 20
30.9761
 10
31.7046
 20
30.9207
 10
31.5921
 20
30.8865
 10
31.475
 20
30.875
 10
31.3579
 20
30.8865
 10
31.2454
 20
30.9207
 10
31.1417
 20
30.9761
 10
31.0507
 20
31.0507
 10
30.9761
 20
31.1417
 10
30.9207
 20
31.2454
 10
30.8865
 20
31.3579
 10
30.875
 20
31.475
 10
30.8865
 20
31.5921
 10
30.9207
 20
31.7046
 10
30.9761
 20
31.8083
 10
31.0507
 20
31.8993
 10
31.125
 20
31.9602
 10
31.125
 20
44.2398
 10
31.0507
 20
44.3007
 10
30.9761
 20
44.3917
 10
30.9207
 20
44.4954
 10
30.8865
 20
44.6079
 10
30.875
 20
44.725
 10
30.8865
 20
44.8421
 10
30.9207
 20
44.9546
 10
30.9761
 20
45.0583
 10
31.0507
 20
45.1493
 10
31.1417
 20
45.2239
 10
31.2454
 20
45.2793
 10
31.3579
 20
45.3135
  0
LWPOLYLINE
  5
B4
330
17
100
AcDbEntity
  8
CUT
100
AcDbPolyline
 90
76
 70
1
 10
50.4079
 20
45.3135
 10
50.525
 20
45.325
 10
50.6421
 20
45.3135
 10
50.7546
 20
45.2793
 10
50.8583
 20
45.2239
 10
50.9493
 20
45.1493
 10
51.0102
 20
45.075
 10
63.2898
 20
45.075
 10
63.3507
 20
45.1493
 10
63.4417
 20
45.2239
 10
63.5454
 20
45.2793
 10
63.6579
 20
45.3135
 10
63.775
 20
45.325
 10
63.8921
 20
45.3135
 10
64.0046
 20
45.2793
 10
64.1083
 20
45.2239
 10
64.1993
 20
45.1493
 10
64.2739
 20
45.0583
 10
64.3293
 20
44.9546
 10
64.3635
 20
44.8421
 10
64.375
 20
44.725
 10
64.3635
 20
44.6079
 10
64.3293
 20
44.4954
 10
64.2739
 20
44.3917
 10
64.1993
 20
44.3007
 10
64.125
 20
44.2398
 10
64.125
 20
31.9602
 10
64.1993
 20
31.8993
 10
64.2739
 20
31.8083
 10
64.3293
 20
31.7046
 10
64.3635
 20
31.5921
 10
64.375
 20
31.475
 10
64.3635
 20
31.3579
 10
64.3293
 20
31.2454
 10
64.2739
 20
31.1417
 10
64.1993
 20
31.0507
 10
64.1083
 20
30.9761
 10
64.0046
 20
30.9207
 10
63.8921
 20
30.8865
 10
63.775
 20
30.875
 10
63.6579
 20
30.8865
 10
63.5454
 20
30.9207
 10
63.4417
 20
30.9761
 10
63.3507
 20
31.0507
 10
63.2898
 20
31.125
 10
51.0102
 20
31.125
 10
50.9493
 20
31.0507
 10
50.8583
 20
30.9761
 10
50.7546
 20
30.9207
 10
50.6421
 20
30.8865
 10
50.525
 20
30.875
 10
50.4079
 20
30.8865
 10
50.2954
 20
30.9207
 10
50.1917
 20
30.9761
 10
50.1007
 20
31.0507
 10
50.0261
 20
31.1417
 10
49.9707
 20
31.2454
 10
49.9365
 20
31.3579
 10
49.925
 20
31.475
 10
49.9365
 20
31.5921
 10
49.9707
 20
31.7046
 10
50.0261
 20
31.8083
 10
50.1007
 20
31.8993
 10
50.175
 20
31.9602
 10
50.175
 20
44.2398
 10
50.1007
 20
44.3007
 10
50.0261
 20
44.3917
 10
49.9707
 20
44.4954
 10
49.9365
 20
44.6079
 10
49.925
 20
44.725
 10
49.9365
 20
44.8421
 10
49.9707
 20
44.9546
 10
50.0261
 20
45.0583
 10
50.1007
 20
45.1493
 10
50.1917
 20
45.2239
 10
50.2954
 20
45.2793
  0
LWPOLYLINE
  5
B5
330
17
100
AcDbEntity
  8
CUT
100
AcDbPolyline
 90
76
 70
1
 10
31.4329
 20
26.1885
 10
31.55
 20
26.2
 10
31.6671
 20
26.1885
 10
31.7796
 20
26.1543
 10
31.8833
 20
26.0989
 10
31.9743
 20
26.0243
 10
32.0352
 20
25.95
 10
44.1648
 20
25.95
 10
44.2257
 20
26.0243
 10
44.3167
 20
26.0989
 10
44.4204
 20
26.1543
 10
44.5329
 20
26.1885
 10
44.65
 20
26.2
 10
44.7671
 20
26.1885
 10
44.8796
 20
26.1543
 10
44.9833
 20
26.0989
 10
45.0743
 20
26.0243
 10
45.1489
 20
25.9333
 10
45.2043
 20
25.8296
 10
45.2385
 20
25.7171
 10
45.25
 20
25.6
 10
45.2385
 20
25.4829
 10
45.2043
 20
25.3704
 10
45.1489
 20
25.2667
 10
45.0743
 20
25.1757
 10
45.0
 20
25.1148
 10
45.0
 20
12.9852
 10
45.0743
 20
12.9243
 10
45.1489
 20
12.8333
 10
45.2043
 20
12.7296
 10
45.2385
 20
12.6171
 10
45.25
 20
12.5
 10
45.2385
 20
12.3829
 10
45.2043
 20
12.2704
 10
45.1489
 20
12.1667
 10
45.0743
 20
12.0757
 10
44.9833
 20
12.0011
 10
44.8796
 20
11.9457
 10
44.7671
 20
11.9115
 10
44.65
 20
11.9
 10
44.5329
 20
11.9115
 10
44.4204
 20
11.9457
 10
44.3167
 20
12.0011
 10
44.2257
 20
12.0757
 10
44.1648
 20
12.15
 10
32.0352
 20
12.15
 10
31.9743
 20
12.0757
 10
31.8833
 20
12.0011
 10
31.7796
 20
11.9457
 10
31.6671
 20
11.9115
 10
31.55
 20
11.9
 10
31.4329
 20
11.9115
 10
31.3204
 20
11.9457
 10
31.2167
 20
12.0011
 10
31.1257
 20
12.0757
 10
31.0511
 20
12.1667
 10
30.9957
 20
12.2704
 10
30.9615
 20
12.3829
 10
30.95
 20
12.5
 10
30.9615
 20
12.6171
 10
30.9957
 20
12.7296
 10
31.0511
 20
12.8333
 10
31.1257
 20
12.9243
 10
31.2
 20
12.9852
 10
31.2
 20
25.1148
 10
31.1257
 20
25.1757
 10
31.0511
 20
25.2667
 10
30.9957
 20
25.3704
 10
30.9615
 20
25.4829
 10
30.95
 20
25.6
 10
30.9615
 20
25.7171
 10
30.9957
 20
25.8296
 10
31.0511
 20
25.9333
 10
31.1257
 20
26.0243
 10
31.2167
 20
26.0989
 10
31.3204
 20
26.1543
  0
LWPOLYLINE
  5
B6
330
17
100
AcDbEntity
  8
CUT
100
AcDbPolyline
 90
76
 70
1
 10
50.4829
 20
26.1885
 10
50.6
 20
26.2
 10
50.7171
 20
26.1885
 10
50.8296
 20
26.1543
 10
50.9333
 20
26.0989
 10
51.0243
 20
26.0243
 10
51.0852
 20
25.95
 10
63.2148
 20
25.95
 10
63.2757
 20
26.0243
 10
63.3667
 20
26.0989
 10
63.4704
 20
26.1543
 10
63.5829
 20
26.1885
 10
63.7
 20
26.2
 10
63.8171
 20
26.1885
 10
63.9296
 20
26.1543
 10
64.0333
 20
26.0989
 10
64.1243
 20
26.0243
 10
64.1989
 20
25.9333
 10
64.2543
 20
25.8296
 10
64.2885
 20
25.7171
 10
64.3
 20
25.6
 10
64.2885
 20
25.4829
 10
64.2543
 20
25.3704
 10
64.1989
 20
25.2667
 10
64.1243
 20
25.1757
 10
64.05
 20
25.1148
 10
64.05
 20
12.9852
 10
64.1243
 20
12.9243
 10
64.1989
 20
12.8333
 10
64.2543
 20
12.7296
 10
64.2885
 20
12.6171
 10
64.3
 20
12.5
 10
64.2885
 20
12.3829
 10
64.2543
 20
12.2704
 10
64.1989
 20
12.1667
 10
64.1243
 20
12.0757
 10
64.0333
 20
12.0011
 10
63.9296
 20
11.9457
 10
63.8171
 20
11.9115
 10
63.7
 20
11.9
 10
63.5829
 20
11.9115
 10
63.4704
 20
11.9457
 10
63.3667
 20
12.0011
 10
63.2757
 20
12.0757
 10
63.2148
 20
12.15
 10
51.0852
 20
12.15
 10
51.0243
 20
12.0757
 10
50.9333
 20
12.0011
 10
50.8296
 20
11.9457
 10
50.7171
 20
11.9115
 10
50.6
 20
11.9
 10
50.4829
 20
11.9115
 10
50.3704
 20
11.9457
 10
50.2667
 20
12.0011
 10
50.1757
 20
12.0757
 10
50.1011
 20
12.1667
 10
50.0457
 20
12.2704
 10
50.0115
 20
12.3829
 10
50.0
 20
12.5
 10
50.0115
 20
12.6171
 10
50.0457
 20
12.7296
 10
50.1011
 20
12.8333
 10
50.1757
 20
12.9243
 10
50.25
 20
12.9852
 10
50.25
 20
25.1148
 10
50.1757
 20
25.1757
 10
50.1011
 20
25.2667
 10
50.0457
 20
25.3704
 10
50.0115
 20
25.4829
 10
50.0
 20
25.6
 10
50.0115
 20
25.7171
 10
50.0457
 20
25.8296
 10
50.1011
 20
25.9333
 10
50.1757
 20
26.0243
 10
50.2667
 20
26.0989
 10
50.3704
 20
26.1543
  0
LWPOLYLINE
  5
B7
330
17
100
AcDbEntity
  8
CUT
100
AcDbPolyline
 90
100
 70
1
 10
31.3951
 20
7.8808
 10
31.5827
 20
7.8239
 10
31.7556
 20
7.7315
 10
31.9071
 20
7.6071
 10
32.0315
 20
7.4556
 10
32.1239
 20
7.2827
 10
32.1808
 20
7.0951
 10
32.2
 20
6.9
 10
44.0
 20
6.9
 10
44.0192
 20
7.0951
 10
44.0761
 20
7.2827
 10
44.1685
 20
7.4556
 10
44.2929
 20
7.6071
 10
44.4444
 20
7.7315
 10
44.6173
 20
7.8239
 10
44.8049
 20
7.8808
 10
45.0
 20
7.9
 10
45.1951
 20
7.8808
 10
45.3827
 20
7.8239
 10
45.5556
 20
7.7315
 10
45.7071
 20
7.6071
 10
45.8315
 20
7.4556
 10
45.9239
 20
7.2827
 10
45.9808
 20
7.0951
 10
46.0
 20
6.9
 10
45.9808
 20
6.7049
 10
45.9239
 20
6.5173
 10
45.8315
 20
6.3444
 10
45.7071
 20
6.1929
 10
45.5556
 20
6.0685
 10
45.3827
 20
5.9761
 10
45.1951
 20
5.9192
 10
45.0
 20
5.9
 10
45.0
 20
-5.9
 10
45.1951
 20
-5.9192
 10
45.3827
 20
-5.9761
 10
45.5556
 20
-6.0685
 10
45.7071
 20
-6.1929
 10
45.8315
 20
-6.3444
 10
45.9239
 20
-6.5173
 10
45.9808
 20
-6.7049
 10
46.0
 20
-6.9
 10
45.9808
 20
-7.0951
 10
45.9239
 20
-7.2827
 10
45.8315
 20
-7.4556
 10
45.7071
 20
-7.6071
 10
45.5556
 20
-7.7315
 10
45.3827
 20
-7.8239
 10
45.1951
 20
-7.8808
 10
45.0
 20
-7.9
 10
44.8049
 20
-7.8808
 10
44.6173
 20
-7.8239
 10
44.4444
 20
-7.7315
 10
44.2929
 20
-7.6071
 10
44.1685
 20
-7.4556
 10
44.0761
 20
-7.2827
 10
44.0192
 20
-7.0951
 10
44.0
 20
-6.9
 10
32.2
 20
-6.9
 10
32.1808
 20
-7.0951
 10
32.1239
 20
-7.2827
 10
32.0315
 20
-7.4556
 10
31.9071
 20
-7.6071
 10
31.7556
 20
-7.7315
 10
31.5827
 20
-7.8239
 10
31.3951
 20
-7.8808
 10
31.2
 20
-7.9
 10
31.0049
 20
-7.8808
 10
30.8173
 20
-7.8239
 10
30.6444
 20
-7.7315
 10
30.4929
 20
-7.6071
 10
30.3685
 20
-7.4556
 10
30.2761
 20
-7.2827
 10
30.2192
 20
-7.0951
 10
30.2
 20
-6.9
 10
30.2192
 20
-6.7049
 10
30.2761
 20
-6.5173
 10
30.3685
 20
-6.3444
 10
30.4929
 20
-6.1929
 10
30.6444
 20
-6.0685
 10
30.8173
 20
-5.9761
 10
31.0049
 20
-5.9192
 10
31.2
 20
-5.9
 10
31.2
 20
5.9
 10
31.0049
 20
5.9192
 10
30.8173
 20
5.9761
 10
30.6444
 20
6.0685
 10
30.4929
 20
6.1929
 10
30.3685
 20
6.3444
 10
30.2761
 20
6.5173
 10
30.2192
 20
6.7049
 10
30.2
 20
6.9
 10
30.2192
 20
7.0951
 10
30.2761
 20
7.2827
 10
30.3685
 20
7.4556
 10
30.4929
 20
7.6071
 10
30.6444
 20
7.7315
 10
30.8173
 20
7.8239
 10
31.0049
 20
7.8808
 10
31.2
 20
7.9
  0
LWPOLYLINE
  5
B8
330
17
100
AcDbEntity
  8
CUT
100
AcDbPolyline
 90
4
 70
1
 10
49.35
 20
7.8
 10
64.95
 20
7.8
 10
64.95
 20
-7.8
 10
49.35
 20
-7.8
  0
LWPOLYLINE
  5
B9
330
17
100
AcDbEntity
  8
CUT
100
AcDbPolyline
 90
36
 70
1
 10
38.8131
 20
-10.9087
 10
38.8593
 20
-10.8222
 10
38.9972
 20
-10.6843
 10
39.1775
 20
-10.6096
 10
39.275
 20
-10.6
 10
41.9725
 20
-10.6096
 10
42.1528
 20
-10.6843
 10
42.2907
 20
-10.8222
 10
42.3369
 20
-10.9087
 10
42.375
 20
-11.1
 10
42.375
 20
-15.25
 10
43.225
 20
-15.25
 10
43.4163
 20
-15.2881
 10
43.5786
 20
-15.3964
 10
43.6407
 20
-15.4722
 10
43.6869
 20
-15.5587
 10
43.725
 20
-15.75
 10
43.725
 20
-21.6
 10
43.6869
 20
-21.7913
 10
43.6407
 20
-21.8778
 10
43.5786
 20
-21.9536
 10
43.4163
 20
-22.0619
 10
43.225
 20
-22.1
 10
37.925
 20
-22.1
 10
37.7337
 20
-22.0619
 10
37.6472
 20
-22.0157
 10
37.5714
 20
-21.9536
 10
37.4631
 20
-21.7913
 10
37.425
 20
-21.6
 10
37.4346
 20
-15.6525
 10
37.4631
 20
-15.5587
 10
37.5714
 20
-15.3964
 10
37.7337
 20
-15.2881
 10
37.8275
 20
-15.2596
 10
38.775
 20
-15.25
 10
38.775
 20
-11.1
  0
LWPOLYLINE
  5
BA
330
17
100
AcDbEntity
  8
CUT
100
AcDbPolyline
 90
76
 70
1
 10
21.6917
 20
-12.0011
 10
21.7954
 20
-11.9457
 10
21.9079
 20
-11.9115
 10
22.025
 20
-11.9
 10
22.1421
 20
-11.9115
 10
22.2546
 20
-11.9457
 10
22.3583
 20
-12.0011
 10
22.4493
 20
-12.0757
 10
22.5102
 20
-12.15
 10
34.6398
 20
-12.15
 10
34.7007
 20
-12.0757
 10
34.7917
 20
-12.0011
 10
34.8954
 20
-11.9457
 10
35.0079
 20
-11.9115
 10
35.125
 20
-11.9
 10
35.2421
 20
-11.9115
 10
35.3546
 20
-11.9457
 10
35.4583
 20
-12.0011
 10
35.5493
 20
-12.0757
 10
35.6239
 20
-12.1667
 10
35.6793
 20
-12.2704
 10
35.7135
 20
-12.3829
 10
35.725
 20
-12.5
 10
35.7135
 20
-12.6171
 10
35.6793
 20
-12.7296
 10
35.6239
 20
-12.8333
 10
35.5493
 20
-12.9243
 10
35.475
 20
-12.9852
 10
35.475
 20
-25.1148
 10
35.5493
 20
-25.1757
 10
35.6239
 20
-25.2667
 10
35.6793
 20
-25.3704
 10
35.7135
 20
-25.4829
 10
35.725
 20
-25.6
 10
35.7135
 20
-25.7171
 10
35.6793
 20
-25.8296
 10
35.6239
 20
-25.9333
 10
35.5493
 20
-26.0243
 10
35.4583
 20
-26.0989
 10
35.3546
 20
-26.1543
 10
35.2421
 20
-26.1885
 10
35.125
 20
-26.2
 10
35.0079
 20
-26.1885
 10
34.8954
 20
-26.1543
 10
34.7917
 20
-26.0989
 10
34.7007
 20
-26.0243
 10
34.6398
 20
-25.95
 10
22.5102
 20
-25.95
 10
22.4493
 20
-26.0243
 10
22.3583
 20
-26.0989
 10
22.2546
 20
-26.1543
 10
22.1421
 20
-26.1885
 10
22.025
 20
-26.2
 10
21.9079
 20
-26.1885
 10
21.7954
 20
-26.1543
 10
21.6917
 20
-26.0989
 10
21.6007
 20
-26.0243
 10
21.5261
 20
-25.9333
 10
21.4707
 20
-25.8296
 10
21.4365
 20
-25.7171
 10
21.425
 20
-25.6
 10
21.4365
 20
-25.4829
 10
21.4707
 20
-25.3704
 10
21.5261
 20
-25.2667
 10
21.6007
 20
-25.1757
 10
21.675
 20
-25.1148
 10
21.675
 20
-12.9852
 10
21.6007
 20
-12.9243
 10
21.5261
 20
-12.8333
 10
21.4707
 20
-12.7296
 10
21.4365
 20
-12.6171
 10
21.425
 20
-12.5
 10
21.4365
 20
-12.3829
 10
21.4707
 20
-12.2704
 10
21.5261
 20
-12.1667
 10
21.6007
 20
-12.0757
  0
LWPOLYLINE
  5
BB
330
17
100
AcDbEntity
  8
CUT
100
AcDbPolyline
 90
76
 70
1
 10
50.3829
 20
-11.8115
 10
50.5
 20
-11.8
 10
50.6171
 20
-11.8115
 10
50.7296
 20
-11.8457
 10
50.8333
 20
-11.9011
 10
50.9243
 20
-11.9757
 10
50.9852
 20
-12.05
 10
63.3148
 20
-12.05
 10
63.3757
 20
-11.9757
 10
63.4667
 20
-11.9011
 10
63.5704
 20
-11.8457
 10
63.6829
 20
-11.8115
 10
63.8
 20
-11.8
 10
63.9171
 20
-11.8115
 10
64.0296
 20
-11.8457
 10
64.1333
 20
-11.9011
 10
64.2243
 20
-11.9757
 10
64.2989
 20
-12.0667
 10
64.3543
 20
-12.1704
 10
64.3885
 20
-12.2829
 10
64.4
 20
-12.4
 10
64.3885
 20
-12.5171
 10
64.3543
 20
-12.6296
 10
64.2989
 20
-12.7333
 10
64.2243
 20
-12.8243
 10
64.15
 20
-12.8852
 10
64.15
 20
-25.2148
 10
64.2243
 20
-25.2757
 10
64.2989
 20
-25.3667
 10
64.3543
 20
-25.4704
 10
64.3885
 20
-25.5829
 10
64.4
 20
-25.7
 10
64.3885
 20
-25.8171
 10
64.3543
 20
-25.9296
 10
64.2989
 20
-26.0333
 10
64.2243
 20
-26.1243
 10
64.1333
 20
-26.1989
 10
64.0296
 20
-26.2543
 10
63.9171
 20
-26.2885
 10
63.8
 20
-26.3
 10
63.6829
 20
-26.2885
 10
63.5704
 20
-26.2543
 10
63.4667
 20
-26.1989
 10
63.3757
 20
-26.1243
 10
63.3148
 20
-26.05
 10
50.9852
 20
-26.05
 10
50.9243
 20
-26.1243
 10
50.8333
 20
-26.1989
 10
50.7296
 20
-26.2543
 10
50.6171
 20
-26.2885
 10
50.5
 20
-26.3
 10
50.3829
 20
-26.2885
 10
50.2704
 20
-26.2543
 10
50.1667
 20
-26.1989
 10
50.0757
 20
-26.1243
 10
50.0011
 20
-26.0333
 10
49.9457
 20
-25.9296
 10
49.9115
 20
-25.8171
 10
49.9
 20
-25.7
 10
49.9115
 20
-25.5829
 10
49.9457
 20
-25.4704
 10
50.0011
 20
-25.3667
 10
50.0757
 20
-25.2757
 10
50.15
 20
-25.2148
 10
50.15
 20
-12.8852
 10
50.0757
 20
-12.8243
 10
50.0011
 20
-12.7333
 10
49.9457
 20
-12.6296
 10
49.9115
 20
-12.5171
 10
49.9
 20
-12.4
 10
49.9115
 20
-12.2829
 10
49.9457
 20
-12.1704
 10
50.0011
 20
-12.0667
 10
50.0757
 20
-11.9757
 10
50.1667
 20
-11.9011
 10
50.2704
 20
-11.8457
  0
LWPOLYLINE
  5
BC
330
17
100
AcDbEntity
  8
CUT
100
AcDbPolyline
 90
76
 70
1
 10
31.3329
 20
-30.8615
 10
31.45
 20
-30.85
 10
31.5671
 20
-30.8615
 10
31.6796
 20
-30.8957
 10
31.7833
 20
-30.9511
 10
31.8743
 20
-31.0257
 10
31.9352
 20
-31.1
 10
44.2648
 20
-31.1
 10
44.3257
 20
-31.0257
 10
44.4167
 20
-30.9511
 10
44.5204
 20
-30.8957
 10
44.6329
 20
-30.8615
 10
44.75
 20
-30.85
 10
44.8671
 20
-30.8615
 10
44.9796
 20
-30.8957
 10
45.0833
 20
-30.9511
 10
45.1743
 20
-31.0257
 10
45.2489
 20
-31.1167
 10
45.3043
 20
-31.2204
 10
45.3385
 20
-31.3329
 10
45.35
 20
-31.45
 10
45.3385
 20
-31.5671
 10
45.3043
 20
-31.6796
 10
45.2489
 20
-31.7833
 10
45.1743
 20
-31.8743
 10
45.1
 20
-31.9352
 10
45.1
 20
-44.2648
 10
45.1743
 20
-44.3257
 10
45.2489
 20
-44.4167
 10
45.3043
 20
-44.5204
 10
45.3385
 20
-44.6329
 10
45.35
 20
-44.75
 10
45.3385
 20
-44.8671
 10
45.3043
 20
-44.9796
 10
45.2489
 20
-45.0833
 10
45.1743
 20
-45.1743
 10
45.0833
 20
-45.2489
 10
44.9796
 20
-45.3043
 10
44.8671
 20
-45.3385
 10
44.75
 20
-45.35
 10
44.6329
 20
-45.3385
 10
44.5204
 20
-45.3043
 10
44.4167
 20
-45.2489
 10
44.3257
 20
-45.1743
 10
44.2648
 20
-45.1
 10
31.9352
 20
-45.1
 10
31.8743
 20
-45.1743
 10
31.7833
 20
-45.2489
 10
31.6796
 20
-45.3043
 10
31.5671
 20
-45.3385
 10
31.45
 20
-45.35
 10
31.3329
 20
-45.3385
 10
31.2204
 20
-45.3043
 10
31.1167
 20
-45.2489
 10
31.0257
 20
-45.1743
 10
30.9511
 20
-45.0833
 10
30.8957
 20
-44.9796
 10
30.8615
 20
-44.8671
 10
30.85
 20
-44.75
 10
30.8615
 20
-44.6329
 10
30.8957
 20
-44.5204
 10
30.9511
 20
-44.4167
 10
31.0257
 20
-44.3257
 10
31.1
 20
-44.2648
 10
31.1
 20
-31.9352
 10
31.0257
 20
-31.8743
 10
30.9511
 20
-31.7833
 10
30.8957
 20
-31.6796
 10
30.8615
 20
-31.5671
 10
30.85
 20
-31.45
 10
30.8615
 20
-31.3329
 10
30.8957
 20
-31.2204
 10
30.9511
 20
-31.1167
 10
31.0257
 20
-31.0257
 10
31.1167
 20
-30.9511
 10
31.2204
 20
-30.8957
  0
LWPOLYLINE
  5
BD
330
17
100
AcDbEntity
  8
CUT
100
AcDbPolyline
 90
76
 70
1
 10
50.3829
 20
-30.8615
 10
50.5
 20
-30.85
 10
50.6171
 20
-30.8615
 10
50.7296
 20
-30.8957
 10
50.8333
 20
-30.9511
 10
50.9243
 20
-31.0257
 10
50.9852
 20
-31.1
 10
63.3148
 20
-31.1
 10
63.3757
 20
-31.0257
 10
63.4667
 20
-30.9511
 10
63.5704
 20
-30.8957
 10
63.6829
 20
-30.8615
 10
63.8
 20
-30.85
 10
63.9171
 20
-30.8615
 10
64.0296
 20
-30.8957
 10
64.1333
 20
-30.9511
 10
64.2243
 20
-31.0257
 10
64.2989
 20
-31.1167
 10
64.3543
 20
-31.2204
 10
64.3885
 20
-31.3329
 10
64.4
 20
-31.45
 10
64.3885
 20
-31.5671
 10
64.3543
 20
-31.6796
 10
64.2989
 20
-31.7833
 10
64.2243
 20
-31.8743
 10
64.15
 20
-31.9352
 10
64.15
 20
-44.2648
 10
64.2243
 20
-44.3257
 10
64.2989
 20
-44.4167
 10
64.3543
 20
-44.5204
 10
64.3885
 20
-44.6329
 10
64.4
 20
-44.75
 10
64.3885
 20
-44.8671
 10
64.3543
 20
-44.9796
 10
64.2989
 20
-45.0833
 10
64.2243
 20
-45.1743
 10
64.1333
 20
-45.2489
 10
64.0296
 20
-45.3043
 10
63.9171
 20
-45.3385
 10
63.8
 20
-45.35
 10
63.6829
 20
-45.3385
 10
63.5704
 20
-45.3043
 10
63.4667
 20
-45.2489
 10
63.3757
 20
-45.1743
 10
63.3148
 20
-45.1
 10
50.9852
 20
-45.1
 10
50.9243
 20
-45.1743
 10
50.8333
 20
-45.2489
 10
50.7296
 20
-45.3043
 10
50.6171
 20
-45.3385
 10
50.5
 20
-45.35
 10
50.3829
 20
-45.3385
 10
50.2704
 20
-45.3043
 10
50.1667
 20
-45.2489
 10
50.0757
 20
-45.1743
 10
50.0011
 20
-45.0833
 10
49.9457
 20
-44.9796
 10
49.9115
 20
-44.8671
 10
49.9
 20
-44.75
 10
49.9115
 20
-44.6329
 10
49.9457
 20
-44.5204
 10
50.0011
 20
-44.4167
 10
50.0757
 20
-44.3257
 10
50.15
 20
-44.2648
 10
50.15
 20
-31.9352
 10
50.0757
 20
-31.8743
 10
50.0011
 20
-31.7833
 10
49.9457
 20
-31.6796
 10
49.9115
 20
-31.5671
 10
49.9
 20
-31.45
 10
49.9115
 20
-31.3329
 10
49.9457
 20
-31.2204
 10
50.0011
 20
-31.1167
 10
50.0757
 20
-31.0257
 10
50.1667
 20
-30.9511
 10
50.2704
 20
-30.8957
  0
LWPOLYLINE
  5
BE
330
17
100
AcDbEntity
  8
CUT
100
AcDbPolyline
 90
76
 70
1
 10
31.3329
 20
-49.9115
 10
31.45
 20
-49.9
 10
31.5671
 20
-49.9115
 10
31.6796
 20
-49.9457
 10
31.7833
 20
-50.0011
 10
31.8743
 20
-50.0757
 10
31.9352
 20
-50.15
 10
44.2648
 20
-50.15
 10
44.3257
 20
-50.0757
 10
44.4167
 20
-50.0011
 10
44.5204
 20
-49.9457
 10
44.6329
 20
-49.9115
 10
44.75
 20
-49.9
 10
44.8671
 20
-49.9115
 10
44.9796
 20
-49.9457
 10
45.0833
 20
-50.0011
 10
45.1743
 20
-50.0757
 10
45.2489
 20
-50.1667
 10
45.3043
 20
-50.2704
 10
45.3385
 20
-50.3829
 10
45.35
 20
-50.5
 10
45.3385
 20
-50.6171
 10
45.3043
 20
-50.7296
 10
45.2489
 20
-50.8333
 10
45.1743
 20
-50.9243
 10
45.1
 20
-50.9852
 10
45.1
 20
-63.3148
 10
45.1743
 20
-63.3757
 10
45.2489
 20
-63.4667
 10
45.3043
 20
-63.5704
 10
45.3385
 20
-63.6829
 10
45.35
 20
-63.8
 10
45.3385
 20
-63.9171
 10
45.3043
 20
-64.0296
 10
45.2489
 20
-64.1333
 10
45.1743
 20
-64.2243
 10
45.0833
 20
-64.2989
 10
44.9796
 20
-64.3543
 10
44.8671
 20
-64.3885
 10
44.75
 20
-64.4
 10
44.6329
 20
-64.3885
 10
44.5204
 20
-64.3543
 10
44.4167
 20
-64.2989
 10
44.3257
 20
-64.2243
 10
44.2648
 20
-64.15
 10
31.9352
 20
-64.15
 10
31.8743
 20
-64.2243
 10
31.7833
 20
-64.2989
 10
31.6796
 20
-64.3543
 10
31.5671
 20
-64.3885
 10
31.45
 20
-64.4
 10
31.3329
 20
-64.3885
 10
31.2204
 20
-64.3543
 10
31.1167
 20
-64.2989
 10
31.0257
 20
-64.2243
 10
30.9511
 20
-64.1333
 10
30.8957
 20
-64.0296
 10
30.8615
 20
-63.9171
 10
30.85
 20
-63.8
 10
30.8615
 20
-63.6829
 10
30.8957
 20
-63.5704
 10
30.9511
 20
-63.4667
 10
31.0257
 20
-63.3757
 10
31.1
 20
-63.3148
 10
31.1
 20
-50.9852
 10
31.0257
 20
-50.9243
 10
30.9511
 20
-50.8333
 10
30.8957
 20
-50.7296
 10
30.8615
 20
-50.6171
 10
30.85
 20
-50.5
 10
30.8615
 20
-50.3829
 10
30.8957
 20
-50.2704
 10
30.9511
 20
-50.1667
 10
31.0257
 20
-50.0757
 10
31.1167
 20
-50.0011
 10
31.2204
 20
-49.9457
  0
LWPOLYLINE
  5
BF
330
17
100
AcDbEntity
  8
CUT
100
AcDbPolyline
 90
76
 70
1
 10
50.3829
 20
-49.9115
 10
50.5
 20
-49.9
 10
50.6171
 20
-49.9115
 10
50.7296
 20
-49.9457
 10
50.8333
 20
-50.0011
 10
50.9243
 20
-50.0757
 10
50.9852
 20
-50.15
 10
63.3148
 20
-50.15
 10
63.3757
 20
-50.0757
 10
63.4667
 20
-50.0011
 10
63.5704
 20
-49.9457
 10
63.6829
 20
-49.9115
 10
63.8
 20
-49.9
 10
63.9171
 20
-49.9115
 10
64.0296
 20
-49.9457
 10
64.1333
 20
-50.0011
 10
64.2243
 20
-50.0757
 10
64.2989
 20
-50.1667
 10
64.3543
 20
-50.2704
 10
64.3885
 20
-50.3829
 10
64.4
 20
-50.5
 10
64.3885
 20
-50.6171
 10
64.3543
 20
-50.7296
 10
64.2989
 20
-50.8333
 10
64.2243
 20
-50.9243
 10
64.15
 20
-50.9852
 10
64.15
 20
-63.3148
 10
64.2243
 20
-63.3757
 10
64.2989
 20
-63.4667
 10
64.3543
 20
-63.5704
 10
64.3885
 20
-63.6829
 10
64.4
 20
-63.8
 10
64.3885
 20
-63.9171
 10
64.3543
 20
-64.0296
 10
64.2989
 20
-64.1333
 10
64.2243
 20
-64.2243
 10
64.1333
 20
-64.2989
 10
64.0296
 20
-64.3543
 10
63.9171
 20
-64.3885
 10
63.8
 20
-64.4
 10
63.6829
 20
-64.3885
 10
63.5704
 20
-64.3543
 10
63.4667
 20
-64.2989
 10
63.3757
 20
-64.2243
 10
63.3148
 20
-64.15
 10
50.9852
 20
-64.15
 10
50.9243
 20
-64.2243
 10
50.8333
 20
-64.2989
 10
50.7296
 20
-64.3543
 10
50.6171
 20
-64.3885
 10
50.5
 20
-64.4
 10
50.3829
 20
-64.3885
 10
50.2704
 20
-64.3543
 10
50.1667
 20
-64.2989
 10
50.0757
 20
-64.2243
 10
50.0011
 20
-64.1333
 10
49.9457
 20
-64.0296
 10
49.9115
 20
-63.9171
 10
49.9
 20
-63.8
 10
49.9115
 20
-63.6829
 10
49.9457
 20
-63.5704
 10
50.0011
 20
-63.4667
 10
50.0757
 20
-63.3757
 10
50.15
 20
-63.3148
 10
50.15
 20
-50.9852
 10
50.0757
 20
-50.9243
 10
50.0011
 20
-50.8333
 10
49.9457
 20
-50.7296
 10
49.9115
 20
-50.6171
 10
49.9
 20
-50.5
 10
49.9115
 20
-50.3829
 10
49.9457
 20
-50.2704
 10
50.0011
 20
-50.1667
 10
50.0757
 20
-50.0757
 10
50.1667
 20
-50.0011
 10
50.2704
 20
-49.9457
  0
LWPOLYLINE
  5
C0
330
17
100
AcDbEntity
  8
CUT
100
AcDbPolyline
 90
32
 70
1
 10
70.6111
 20
-69.0854
 10
70.7778
 20
-69.2222
 10
70.9146
 20
-69.3889
 10
71.0163
 20
-69.579
 10
71.0789
 20
-69.7854
 10
71.1
 20
-70.0
 10
71.0789
 20
-70.2146
 10
71.0163
 20
-70.421
 10
70.9146
 20
-70.6111
 10
70.7778
 20
-70.7778
 10
70.6111
 20
-70.9146
 10
70.421
 20
-71.0163
 10
70.2146
 20
-71.0789
 10
70.0
 20
-71.1
 10
69.7854
 20
-71.0789
 10
69.579
 20
-71.0163
 10
69.3889
 20
-70.9146
 10
69.2222
 20
-70.7778
 10
69.0854
 20
-70.6111
 10
68.9837
 20
-70.421
 10
68.9211
 20
-70.2146
 10
68.9
 20
-70.0
 10
68.9211
 20
-69.7854
 10
68.9837
 20
-69.579
 10
69.0854
 20
-69.3889
 10
69.2222
 20
-69.2222
 10
69.3889
 20
-69.0854
 10
69.579
 20
-68.9837
 10
69.7854
 20
-68.9211
 10
70.0
 20
-68.9
 10
70.2146
 20
-68.9211
 10
70.421
 20
-68.9837
  0
ENDSEC
  0
SECTION
  2
OBJECTS
  0
DICTIONARY
  5
A
330
0
100
AcDbDictionary
281
1
  3
ACAD_COLOR
350
B
  3
ACAD_GROUP
350
C
  3
ACAD_LAYOUT
350
D
  3
ACAD_MATERIAL
350
E
  3
ACAD_MLEADERSTYLE
350
F
  3
ACAD_MLINESTYLE
350
10
  3
ACAD_PLOTSETTINGS
350
11
  3
ACAD_PLOTSTYLENAME
350
12
  3
ACAD_SCALELIST
350
14
  3
ACAD_TABLESTYLE
350
15
  3
ACAD_VISUALSTYLE
350
16
  3
EZDXF_META
350
2D
  0
DICTIONARY
  5
B
330
A
100
AcDbDictionary
281
1
  0
DICTIONARY
  5
C
330
A
100
AcDbDictionary
281
1
  0
DICTIONARY
  5
D
330
A
100
AcDbDictionary
281
1
  3
Model
350
1A
  3
Layout1
350
1E
  0
DICTIONARY
  5
E
330
A
100
AcDbDictionary
281
1
  3
ByBlock
350
1F
  3
ByLayer
350
20
  3
Global
350
21
  0
DICTIONARY
  5
F
330
A
100
AcDbDictionary
281
1
  3
Standard
350
2C
  0
DICTIONARY
  5
10
330
A
100
AcDbDictionary
281
1
  3
Standard
350
22
  0
DICTIONARY
  5
11
330
A
100
AcDbDictionary
281
1
  0
ACDBDICTIONARYWDFLT
  5
12
330
A
100
AcDbDictionary
281
1
  3
Normal
350
13
100
AcDbDictionaryWithDefault
340
13
  0
ACDBPLACEHOLDER
  5
13
330
12
  0
DICTIONARY
  5
14
330
A
100
AcDbDictionary
281
1
  0
DICTIONARY
  5
15
330
A
100
AcDbDictionary
281
1
  0
DICTIONARY
  5
16
330
A
100
AcDbDictionary
281
1
  3
2dWireframe
350
5A
  3
Basic
350
5B
  3
Brighten
350
5C
  3
ColorChange
350
5D
  3
Conceptual
350
5E
  3
Dim
350
5F
  3
EdgeColorOff
350
60
  3
Facepattern
350
61
  3
Flat
350
62
  3
FlatWithEdges
350
63
  3
Gouraud
350
64
  3
GouraudWithEdges
350
65
  3
Hidden
350
66
  3
JitterOff
350
67
  3
Linepattern
350
68
  3
Modeling
350
69
  3
OverhangOff
350
6A
  3
Realistic
350
6B
  3
Shaded
350
6C
  3
Shaded with edges
350
6D
  3
Shades of Gray
350
6E
  3
Sketchy
350
6F
  3
Thicken
350
70
  3
Wireframe
350
71
  3
X-Ray
350
72
  0
LAYOUT
  5
1A
330
D
100
AcDbPlotSettings
  1

  4
A3
  6

 40
7.5
 41
20.0
 42
7.5
 43
20.0
 44
420.0
 45
297.0
 46
0.0
 47
0.0
 48
0.0
 49
0.0
140
0.0
141
0.0
142
1.0
143
1.0
 70
1024
 72
1
 73
0
 74
5
  7

 75
16
 76
0
 77
2
 78
300
147
1.0
148
0.0
149
0.0
100
AcDbLayout
  1
Model
 70
1
 71
0
 10
0.0
 20
0.0
 11
420.0
 21
297.0
 12
0.0
 22
0.0
 32
0.0
 14
1e+20
 24
1e+20
 34
1e+20
 15
-1e+20
 25
-1e+20
 35
-1e+20
146
0.0
 13
0.0
 23
0.0
 33
0.0
 16
1.0
 26
0.0
 36
0.0
 17
0.0
 27
1.0
 37
0.0
 76
1
330
17
  0
LAYOUT
  5
1E
330
D
100
AcDbPlotSettings
  1

  4
A3
  6

 40
7.5
 41
20.0
 42
7.5
 43
20.0
 44
420.0
 45
297.0
 46
0.0
 47
0.0
 48
0.0
 49
0.0
140
0.0
141
0.0
142
1.0
143
1.0
 70
0
 72
1
 73
0
 74
5
  7

 75
16
 76
0
 77
2
 78
300
147
1.0
148
0.0
149
0.0
100
AcDbLayout
  1
Layout1
 70
1
 71
1
 10
0.0
 20
0.0
 11
420.0
 21
297.0
 12
0.0
 22
0.0
 32
0.0
 14
1e+20
 24
1e+20
 34
1e+20
 15
-1e+20
 25
-1e+20
 35
-1e+20
146
0.0
 13
0.0
 23
0.0
 33
0.0
 16
1.0
 26
0.0
 36
0.0
 17
0.0
 27
1.0
 37
0.0
 76
1
330
1B
  0
MATERIAL
  5
1F
102
{ACAD_REACTORS
330
E
102
}
330
E
100
AcDbMaterial
  1
ByBlock
  2

 70
0
 40
1.0
 71
1
 41
1.0
 91
-1023410177
 42
1.0
 72
1
  3

 73
1
 74
1
 75
1
 44
0.5
 73
0
 45
1.0
 46
1.0
 77
1
  4

 78
1
 79
1
170
1
 48
1.0
171
1
  6

172
1
173
1
174
1
140
1.0
141
1.0
175
1
  7

176
1
177
1
178
1
143
1.0
179
1
  8

270
1
271
1
272
1
145
1.0
146
1.0
273
1
  9

274
1
275
1
276
1
 42
1.0
 72
1
  3

 73
1
 74
1
 75
1
 94
63
  0
MATERIAL
  5
20
102
{ACAD_REACTORS
330
E
102
}
330
E
100
AcDbMaterial
  1
ByLayer
  2

 70
0
 40
1.0
 71
1
 41
1.0
 91
-1023410177
 42
1.0
 72
1
  3

 73
1
 74
1
 75
1
 44
0.5
 73
0
 45
1.0
 46
1.0
 77
1
  4

 78
1
 79
1
170
1
 48
1.0
171
1
  6

172
1
173
1
174
1
140
1.0
141
1.0
175
1
  7

176
1
177
1
178
1
143
1.0
179
1
  8

270
1
271
1
272
1
145
1.0
146
1.0
273
1
  9

274
1
275
1
276
1
 42
1.0
 72
1
  3

 73
1
 74
1
 75
1
 94
63
  0
MATERIAL
  5
21
102
{ACAD_REACTORS
330
E
102
}
330
E
100
AcDbMaterial
  1
Global
  2

 70
0
 40
1.0
 71
1
 41
1.0
 91
-1023410177
 42
1.0
 72
1
  3

 73
1
 74
1
 75
1
 44
0.5
 73
0
 45
1.0
 46
1.0
 77
1
  4

 78
1
 79
1
170
1
 48
1.0
171
1
  6

172
1
173
1
174
1
140
1.0
141
1.0
175
1
  7

176
1
177
1
178
1
143
1.0
179
1
  8

270
1
271
1
272
1
145
1.0
146
1.0
273
1
  9

274
1
275
1
276
1
 42
1.0
 72
1
  3

 73
1
 74
1
 75
1
 94
63
  0
MLINESTYLE
  5
22
102
{ACAD_REACTORS
330
10
102
}
330
10
100
AcDbMlineStyle
  2
Standard
 70
0
  3

 62
256
 51
90.0
 52
90.0
 71
2
 49
0.5
 62
256
  6
BYLAYER
 49
-0.5
 62
256
  6
BYLAYER
  0
MLEADERSTYLE
  5
2C
102
{ACAD_REACTORS
330
F
102
}
330
F
100
AcDbMLeaderStyle
179
2
170
2
171
1
172
0
 90
2
 40
0.0
 41
0.0
173
1
 91
-1056964608
 92
-2
290
1
 42
2.0
291
1
 43
8.0
  3
Standard
 44
4.0
300

342
29
174
1
175
1
176
0
178
1
 93
-1056964608
 45
4.0
292
0
297
0
 46
4.0
 94
-1056964608
 47
1.0
 49
1.0
140
1.0
294
1
141
0.0
177
0
142
1.0
295
0
296
0
143
3.75
271
0
272
9
273
9
  0
DICTIONARY
  5
2D
330
A
100
AcDbDictionary
280
1
281
1
  3
CREATED_BY_EZDXF
350
2E
  3
WRITTEN_BY_EZDXF
350
C3
  0
DICTIONARYVAR
  5
2E
330
2D
100
DictionaryVariables
280
0
  1
1.4.4 @ 2026-09-07T14:36:36.878587+00:00
  0
VISUALSTYLE
  5
5A
102
{ACAD_REACTORS
330
16
102
}
330
16
100
AcDbVisualStyle
  2
2dWireframe
 70
4
 90
0
 40
0.6
 62
7
290
0
291
0
  0
VISUALSTYLE
  5
5B
102
{ACAD_REACTORS
330
16
102
}
330
16
100
AcDbVisualStyle
  2
Basic
 70
7
 90
1
 40
0.6
 62
7
290
0
291
1
  0
VISUALSTYLE
  5
5C
102
{ACAD_REACTORS
330
16
102
}
330
16
100
AcDbVisualStyle
  2
Brighten
 70
12
 90
2
 40
0.6
 62
7
290
0
291
1
  0
VISUALSTYLE
  5
5D
102
{ACAD_REACTORS
330
16
102
}
330
16
100
AcDbVisualStyle
  2
ColorChange
 70
16
 90
2
 40
0.6
 62
8
290
0
291
1
  0
VISUALSTYLE
  5
5E
102
{ACAD_REACTORS
330
16
102
}
330
16
100
AcDbVisualStyle
  2
Conceptual
 70
9
 90
3
 40
0.6
 62
7
290
0
291
0
  0
VISUALSTYLE
  5
5F
102
{ACAD_REACTORS
330
16
102
}
330
16
100
AcDbVisualStyle
  2
Dim
 70
11
 90
2
 40
0.6
 62
7
290
0
291
1
  0
VISUALSTYLE
  5
60
102
{ACAD_REACTORS
330
16
102
}
330
16
100
AcDbVisualStyle
  2
EdgeColorOff
 70
22
 90
2
 40
0.6
 62
7
290
0
291
1
  0
VISUALSTYLE
  5
61
102
{ACAD_REACTORS
330
16
102
}
330
16
100
AcDbVisualStyle
  2
Facepattern
 70
15
 90
2
 40
0.6
 62
7
290
0
291
1
  0
VISUALSTYLE
  5
62
102
{ACAD_REACTORS
330
16
102
}
330
16
100
AcDbVisualStyle
  2
Flat
 70
0
 90
2
 40
0.6
 62
7
290
0
291
1
  0
VISUALSTYLE
  5
63
102
{ACAD_REACTORS
330
16
102
}
330
16
100
AcDbVisualStyle
  2
FlatWithEdges
 70
1
 90
2
 40
0.6
 62
7
290
0
291
1
  0
VISUALSTYLE
  5
64
102
{ACAD_REACTORS
330
16
102
}
330
16
100
AcDbVisualStyle
  2
Gouraud
 70
2
 90
2
 40
0.6
 62
7
290
0
291
1
  0
VISUALSTYLE
  5
65
102
{ACAD_REACTORS
330
16
102
}
330
16
100
AcDbVisualStyle
  2
GouraudWithEdges
 70
3
 90
2
 40
0.6
 62
7
290
0
291
1
  0
VISUALSTYLE
  5
66
102
{ACAD_REACTORS
330
16
102
}
330
16
100
AcDbVisualStyle
  2
Hidden
 70
6
 90
1
 40
0.6
 62
7
290
0
291
0
  0
VISUALSTYLE
  5
67
102
{ACAD_REACTORS
330
16
102
}
330
16
100
AcDbVisualStyle
  2
JitterOff
 70
20
 90
2
 40
0.6
 62
7
290
0
291
1
  0
VISUALSTYLE
  5
68
102
{ACAD_REACTORS
330
16
102
}
330
16
100
AcDbVisualStyle
  2
Linepattern
 70
14
 90
2
 40
0.6
 62
7
290
0
291
1
  0
VISUALSTYLE
  5
69
102
{ACAD_REACTORS
330
16
102
}
330
16
100
AcDbVisualStyle
  2
Modeling
 70
10
 90
2
 40
0.6
 62
7
290
0
291
0
  0
VISUALSTYLE
  5
6A
102
{ACAD_REACTORS
330
16
102
}
330
16
100
AcDbVisualStyle
  2
OverhangOff
 70
21
 90
2
 40
0.6
 62
7
290
0
291
1
  0
VISUALSTYLE
  5
6B
102
{ACAD_REACTORS
330
16
102
}
330
16
100
AcDbVisualStyle
  2
Realistic
 70
8
 90
2
 40
0.6
 62
7
290
0
291
0
  0
VISUALSTYLE
  5
6C
102
{ACAD_REACTORS
330
16
102
}
330
16
100
AcDbVisualStyle
  2
Shaded
 70
27
 90
2
 40
0.6
 62
7
290
0
291
0
  0
VISUALSTYLE
  5
6D
102
{ACAD_REACTORS
330
16
102
}
330
16
100
AcDbVisualStyle
  2
Shaded with edges
 70
26
 90
2
 40
0.6
 62
7
290
0
291
0
  0
VISUALSTYLE
  5
6E
102
{ACAD_REACTORS
330
16
102
}
330
16
100
AcDbVisualStyle
  2
Shades of Gray
 70
23
 90
2
 40
0.6
 62
7
290
0
291
0
  0
VISUALSTYLE
  5
6F
102
{ACAD_REACTORS
330
16
102
}
330
16
100
AcDbVisualStyle
  2
Sketchy
 70
24
 90
1
 40
0.6
 62
7
290
0
291
0
  0
VISUALSTYLE
  5
70
102
{ACAD_REACTORS
330
16
102
}
330
16
100
AcDbVisualStyle
  2
Thicken
 70
13
 90
2
 40
0.6
 62
7
290
0
291
1
  0
VISUALSTYLE
  5
71
102
{ACAD_REACTORS
330
16
102
}
330
16
100
AcDbVisualStyle
  2
Wireframe
 70
5
 90
0
 40
0.6
 62
7
290
0
291
0
  0
VISUALSTYLE
  5
72
102
{ACAD_REACTORS
330
16
102
}
330
16
100
AcDbVisualStyle
  2
X-Ray
 70
25
 90
2
 40
0.5
 62
7
290
0
291
0
  0
DICTIONARYVAR
  5
C3
330
2D
100
DictionaryVariables
280
0
  1
1.4.4 @ 2026-09-07T14:36:36.891146+00:00
  0
ENDSEC
  0
EOF
